<?xml version="1.0" standalone="no"?>
<!DOCTYPE svg PUBLIC "-//W3C//DTD SVG 1.1//EN" "http://www.w3.org/Graphics/SVG/1.1/DTD/svg11.dtd" >
<svg xmlns="http://www.w3.org/2000/svg" xmlns:xlink="http://www.w3.org/1999/xlink" version="1.1">
<metadata></metadata>
<defs>
<font id="f37_boltonthin" horiz-adv-x="0" >
<font-face units-per-em="2048" ascent="1638" descent="-410" />
<missing-glyph horiz-adv-x="538" />
<glyph unicode="fi" horiz-adv-x="987" d="M227 0v981h-184v74h184v141q0 147 71.5 209.5t209.5 62.5h305v-75h-311q-106 0 -151.5 -45.5t-45.5 -159.5v-133h232v-74h-232v-981h-78zM735 0v1055h78v-1055h-78z" />
<glyph unicode="fl" horiz-adv-x="1001" d="M895 70h59v-70h-71q-148 0 -148 141v1252h-243q-98 0 -142.5 -44.5t-44.5 -150.5v-143h232v-74h-232v-981h-78v981h-184v74h184v151q0 140 70 201t201 61h313v-1316q0 -82 84 -82z" />
<glyph unicode="&#xd;" horiz-adv-x="538" />
<glyph unicode=" "  horiz-adv-x="538" />
<glyph unicode="&#x09;" horiz-adv-x="538" />
<glyph unicode="&#xa0;" horiz-adv-x="538" />
<glyph unicode="!" horiz-adv-x="471" d="M211 369l-14 428v665h79v-665l-14 -428h-51zM233 -8q-33 0 -54 21t-21 55t21.5 55.5t53.5 21.5q33 0 55.5 -22t22.5 -55t-22.5 -54.5t-55.5 -21.5z" />
<glyph unicode="&#x22;" horiz-adv-x="630" d="M170 973l-29 489h95l-27 -489h-39zM422 973l-27 489h94l-26 -489h-41z" />
<glyph unicode="#" horiz-adv-x="1122" d="M256 0l59 459h-229v63h242l45 346h-232v62h244l59 469h64l-59 -469h309l59 469h62l-58 -469h213v-62h-225l-45 -346h213v-63h-223l-60 -459h-63l59 459h-311l-57 -459h-66zM391 522h309l43 346h-305z" />
<glyph unicode="$" horiz-adv-x="1153" d="M1051 369q0 -96 -34.5 -172.5t-95 -125t-139 -75.5t-170.5 -31v-176h-53v176q-217 8 -344.5 135.5t-124.5 362.5h78q0 -205 103.5 -308.5t287.5 -111.5v666q-72 20 -127.5 40.5t-113.5 53t-95.5 71t-61.5 94.5t-24 124q0 89 34.5 160.5t93.5 116.5t134 68.5t160 24.5v168 h53v-170q87 -5 159.5 -34.5t129 -82.5t89 -136.5t34.5 -190.5h-76q-7 176 -98 266.5t-238 101.5v-606q47 -14 72 -22.5t68.5 -24.5t68.5 -28t61 -33t57 -40.5t45 -48t37 -59t21.5 -70t8.5 -83.5zM215 1092q0 -50 19.5 -92t49.5 -71.5t77.5 -55.5t92.5 -43t105 -35v591 q-97 -2 -172.5 -33t-123.5 -98t-48 -163zM612 43q159 6 260 87t101 235q0 44 -11.5 82t-29.5 66t-48 53t-57.5 42t-68.5 34t-71 27t-75 23v-649z" />
<glyph unicode="%" horiz-adv-x="1763" d="M414 -68l858 1534h67l-856 -1534h-69zM416 719q-106 0 -186 50.5t-120 130t-40 173.5q0 151 97 255t249 104q156 0 252 -103t96 -256q0 -146 -97 -250t-251 -104zM416 786q125 0 202.5 85t77.5 202q0 127 -75 209t-205 82q-129 0 -204 -83.5t-75 -207.5q0 -119 76.5 -203 t202.5 -84zM1346 -12q-157 0 -252 105t-95 249q0 151 97.5 255.5t249.5 104.5q155 0 251.5 -103.5t96.5 -254.5q0 -146 -97 -251t-251 -105zM1346 57q125 0 202.5 84t77.5 201q0 127 -75 210t-205 83q-129 0 -204 -84.5t-75 -208.5q0 -119 76 -202t203 -83z" />
<glyph unicode="&#x26;" horiz-adv-x="1298" d="M1221 72h53v-72h-66q-69 0 -129.5 40t-130.5 118q-133 -185 -407 -185q-180 0 -303 113.5t-123 292.5q0 280 276 442q-98 119 -135 192.5t-37 157.5q0 140 86.5 216.5t210.5 76.5q120 0 198.5 -75.5t78.5 -202.5q0 -63 -23 -119t-66 -102t-90.5 -82.5t-111.5 -73.5 l434 -520q39 91 39 207v133h76v-129q-3 -157 -62 -275q61 -74 114.5 -113.5t117.5 -39.5zM516 1395q-96 0 -158.5 -57.5t-62.5 -157.5q0 -68 33 -135.5t131 -186.5q258 146 258 326q0 95 -58 153t-143 58zM543 51q239 0 356 166l-465 553q-120 -76 -180.5 -167.5 t-60.5 -217.5q0 -153 99.5 -243.5t250.5 -90.5z" />
<glyph unicode="'" horiz-adv-x="378" d="M170 973l-29 489h95l-27 -489h-39z" />
<glyph unicode="(" horiz-adv-x="507" d="M352 -365q-118 238 -174.5 460.5t-56.5 477.5q0 241 58.5 478.5t170.5 445.5h72q-223 -435 -223 -922q0 -499 223 -940h-70z" />
<glyph unicode=")" horiz-adv-x="507" d="M86 -365q223 435 223 922q0 503 -225 940h72q118 -238 174.5 -460.5t56.5 -477.5q0 -240 -59 -479.5t-170 -444.5h-72z" />
<glyph unicode="*" horiz-adv-x="821" d="M242 868l-47 39l172 213l-248 88l18 58l242 -88l-2 264h59v-264l252 86l17 -56l-252 -88l163 -223l-45 -37l-163 225z" />
<glyph unicode="+" horiz-adv-x="1167" d="M551 33v485h-459v68h459v483h65v-483h457v-68h-457v-485h-65z" />
<glyph unicode="," horiz-adv-x="458" d="M145 -254v55q95 36 95 191h-15q-33 0 -54 20t-21 56q0 33 21 54t52 21q86 0 86 -116q0 -106 -41 -181t-123 -100z" />
<glyph unicode="-" horiz-adv-x="686" d="M152 514v72h383v-72h-383z" />
<glyph unicode="." horiz-adv-x="434" d="M217 -6q-32 0 -54 23t-22 57q0 32 21.5 52.5t54.5 20.5t55.5 -20.5t22.5 -52.5q0 -34 -23 -57t-55 -23z" />
<glyph unicode="/" horiz-adv-x="839" d="M76 -35l620 1532h70l-621 -1532h-69z" />
<glyph unicode="0" horiz-adv-x="1224" d="M610 -25q-127 0 -222 58.5t-150.5 161.5t-82 229.5t-26.5 275.5t26.5 275t82 228.5t150.5 161t222 58.5q103 0 185.5 -39t138 -105.5t92.5 -159.5t53.5 -197t16.5 -222t-16.5 -222.5t-53.5 -198t-92.5 -160t-138 -105.5t-185.5 -39zM610 49q93 0 165.5 40.5t116 104.5 t71.5 152.5t38.5 174t10.5 179.5q0 93 -10.5 178t-38.5 173.5t-71.5 152.5t-116 105t-165.5 41q-92 0 -163.5 -41t-115 -105t-71.5 -152.5t-38.5 -174t-10.5 -177.5q0 -93 10.5 -179t38.5 -174.5t71.5 -152.5t115 -104.5t163.5 -40.5z" />
<glyph unicode="1" horiz-adv-x="710" d="M420 0v1255q-73 -63 -170 -114.5t-197 -73.5v74q141 32 221.5 87t155.5 171h70v-1399h-80z" />
<glyph unicode="2" horiz-adv-x="1126" d="M113 0q-1 70 21 135t57 117t95 109t115.5 99.5t139.5 100.5q87 60 144.5 106.5t114 107t84 126t27.5 137.5q0 148 -93 228t-249 80q-185 0 -271.5 -109.5t-86.5 -296.5h-82q2 230 116 356.5t326 126.5q189 0 304.5 -100t115.5 -283q0 -69 -25 -135.5t-61.5 -118t-99 -110 t-114.5 -98.5t-132 -97q-79 -56 -130.5 -97t-105.5 -94.5t-84 -107t-36 -108.5h821v-74h-911z" />
<glyph unicode="3" horiz-adv-x="1210" d="M600 -25q-231 0 -363 121t-120 336h80q-10 -182 99.5 -283.5t303.5 -101.5q110 0 199 37t145.5 116.5t56.5 190.5q0 156 -104.5 240t-282.5 84h-88v69h90q95 0 171 27.5t126 94t48 165.5q-2 93 -53.5 158.5t-128 94t-169.5 28.5q-85 0 -153 -20.5t-121 -63.5t-82 -115.5 t-29 -169.5h-80q-3 214 121 327t344 113q120 0 215.5 -37t156 -117.5t60.5 -195.5q0 -129 -65.5 -209t-179.5 -104l-19 -4l15 -2q132 -23 212 -115.5t80 -241.5q0 -102 -38 -183.5t-105 -133t-154 -78.5t-188 -27z" />
<glyph unicode="4" horiz-adv-x="1118" d="M743 0v354h-690v82l682 963h84v-975h230v-70h-230v-354h-76zM133 424h610v864h-4z" />
<glyph unicode="5" horiz-adv-x="1146" d="M569 -25q-213 0 -339.5 124.5t-120.5 334.5h79q-4 -177 100 -283t281 -106q179 0 283 112t104 302q0 181 -105 290t-280 109q-110 0 -199 -45.5t-145 -130.5h-80l105 717h721v-76h-660l-80 -547q53 67 142.5 110.5t199.5 43.5q206 0 332.5 -127.5t126.5 -343.5 q0 -217 -128 -350.5t-337 -133.5z" />
<glyph unicode="6" horiz-adv-x="1198" d="M610 -25q-101 0 -186.5 37.5t-151.5 112t-103.5 197t-37.5 282.5q0 819 502 819q176 0 283 -90.5t126 -251.5h-79q-23 129 -108.5 199t-223.5 70q-212 0 -313 -178.5t-107 -548.5v-15l4 13q30 131 140 219t263 88q201 0 331 -127t130 -344q0 -218 -131 -350t-338 -132z M610 47q176 0 283.5 113t107.5 295q0 184 -106 292.5t-285 108.5q-169 0 -273 -117t-104 -290q0 -176 107.5 -289t269.5 -113z" />
<glyph unicode="7" horiz-adv-x="997" d="M283 0q-1 355 156 693t431 630h-811v76h897v-84q-277 -288 -435.5 -621t-158.5 -694h-79z" />
<glyph unicode="8" horiz-adv-x="1175" d="M588 -25q-100 0 -184 25.5t-147.5 75.5t-99.5 130t-36 183q0 146 79 245t222 134q-108 28 -173 110.5t-65 198.5q0 113 55 192.5t144.5 116.5t204.5 37q177 0 289 -89t112 -257q0 -118 -64.5 -199t-170.5 -110q145 -34 223 -133t78 -246q0 -133 -64 -228.5t-168 -140.5 t-235 -45zM588 801q61 0 117 16t102.5 48t74 85t27.5 121q0 143 -89.5 211t-231.5 68q-67 0 -123.5 -15.5t-102.5 -47.5t-72 -87t-26 -129q0 -68 28 -121t75 -85t103.5 -48t117.5 -16zM588 49q80 0 148.5 20.5t122 61t84 107t30.5 153.5q0 86 -30.5 152.5t-84.5 106 t-122 59.5t-148 20t-148 -20t-122.5 -59.5t-85.5 -106t-31 -152.5q0 -87 30.5 -153.5t84 -107t122.5 -61t150 -20.5z" />
<glyph unicode="9" horiz-adv-x="1196" d="M559 -25q-175 0 -286.5 99t-125.5 260h80q8 -63 32.5 -114t58 -83t75.5 -53t83.5 -30t84.5 -9q86 0 152.5 24t112 72t76.5 108.5t48.5 145.5t25 170.5t9.5 194.5v12l-4 -12q-33 -126 -141.5 -210.5t-266.5 -84.5q-193 0 -321.5 133t-128.5 344t129 346t330 135 q231 0 356 -155t125 -457q0 -172 -15 -301t-50.5 -232.5t-93 -168.5t-143.5 -99.5t-202 -34.5zM582 537q173 0 278 115.5t105 291.5q0 182 -108.5 295t-274.5 113q-169 0 -275 -116.5t-106 -291.5q0 -177 105 -292t276 -115z" />
<glyph unicode=":" horiz-adv-x="458" d="M229 844q-32 0 -53.5 23t-21.5 57q0 32 21.5 52.5t53.5 20.5q33 0 55.5 -20.5t22.5 -52.5q0 -34 -23 -57t-55 -23zM229 -6q-32 0 -53.5 23t-21.5 57q0 32 21.5 52.5t53.5 20.5q33 0 55.5 -20.5t22.5 -52.5q0 -34 -23 -57t-55 -23z" />
<glyph unicode=";" horiz-adv-x="471" d="M236 803q-34 0 -57 22.5t-23 57.5t23 58.5t57 23.5t56.5 -23.5t22.5 -58.5t-22.5 -57.5t-56.5 -22.5zM154 -250v55q94 38 94 193q-6 -2 -15 -2q-32 0 -53.5 21t-21.5 55q0 35 21 56.5t52 21.5q39 0 62.5 -28.5t23.5 -88.5q0 -106 -40.5 -182t-122.5 -101z" />
<glyph unicode="&#x3c;" horiz-adv-x="1163" d="M1057 -16l-989 495v78l989 496v-72l-914 -463l914 -463v-71z" />
<glyph unicode="=" horiz-adv-x="1302" d="M160 723v65h983v-65h-983zM160 319v68h983v-68h-983z" />
<glyph unicode="&#x3e;" horiz-adv-x="1163" d="M106 -16v71l914 463l-914 463v72l990 -496v-78z" />
<glyph unicode="?" horiz-adv-x="1026" d="M467 373q0 48 2 71q8 109 51 189.5t144 171.5l51 49q145 123 145 281q0 132 -88.5 209t-243.5 77q-183 0 -278 -106.5t-92 -296.5h-80q-5 217 116 348t334 131q187 0 300.5 -93t113.5 -257q0 -113 -43.5 -189t-122.5 -151l-55 -51q-88 -81 -125.5 -147.5t-46.5 -166.5 q-2 -23 -2 -69h-80zM508 8q-29 0 -49.5 20.5t-20.5 49.5q0 28 20.5 48.5t49.5 20.5q28 0 49 -20.5t21 -48.5q0 -29 -21 -49.5t-49 -20.5z" />
<glyph unicode="@" horiz-adv-x="1660" d="M891 -254q-127 0 -241 30t-211.5 92.5t-168.5 151.5t-111 214t-40 274q0 177 59 325t159 244.5t231 149.5t276 53q199 0 356.5 -87.5t245.5 -243t88 -349.5q0 -104 -30.5 -192t-80 -143.5t-110.5 -86.5t-123 -31h-82v177q-34 -90 -108.5 -143.5t-180.5 -53.5 q-158 0 -250 109t-92 278t95.5 280t246.5 111q109 0 182 -53t105 -143v176h70v-674h16q47 0 92.5 23t85 68t64 122.5t24.5 175.5q0 172 -77.5 311t-218 219t-318.5 80q-185 0 -332 -85.5t-232 -246t-85 -370.5q0 -160 54 -291t149 -218t224 -134t279 -47h477v-72h-487z M823 193q134 0 209.5 92.5t75.5 230.5q0 134 -75 229t-208 95q-123 0 -199.5 -94t-76.5 -232q0 -136 73.5 -228.5t200.5 -92.5z" />
<glyph unicode="A" horiz-adv-x="1312" d="M1165 0l-184 504h-649l-191 -504h-86l557 1464h95l546 -1464h-88zM360 584h590l-288 786h-5z" />
<glyph unicode="B" horiz-adv-x="1341" d="M219 0v1464h535q182 0 294.5 -95.5t112.5 -274.5q0 -117 -56.5 -200.5t-137.5 -121.5v-2q40 -15 70 -30.5t63.5 -44.5t54.5 -65.5t35 -93.5t14 -128q0 -196 -129 -302t-338 -106h-518zM301 797h508q68 0 128 31.5t101 100.5t41 163q0 145 -91.5 219.5t-239.5 74.5h-447 v-589zM301 78h444q168 0 271.5 82t103.5 243q0 160 -84 239t-241 79h-494v-643z" />
<glyph unicode="C" horiz-adv-x="1458" d="M774 -35q-206 0 -354.5 96.5t-223.5 267t-75 398.5q0 222 74 394.5t223.5 274t355.5 101.5q131 0 239 -41t179.5 -112.5t113.5 -164.5t52 -200h-82q-18 185 -156 311.5t-348 126.5q-113 0 -207.5 -36.5t-160.5 -100t-112 -151t-67.5 -189t-21.5 -213.5q0 -114 22.5 -215 t68.5 -187t113 -148t161 -97t206 -35q108 0 200 36t153.5 96.5t100 136t48.5 159.5h80q-11 -103 -55 -194t-116 -161.5t-178 -111.5t-233 -41z" />
<glyph unicode="D" horiz-adv-x="1466" d="M219 0v1464h402q124 0 232.5 -27.5t199.5 -85.5t156.5 -143.5t102 -206.5t36.5 -268q0 -178 -54 -318.5t-152 -230.5t-231 -137t-293 -47h-399zM301 78h317q193 0 337.5 73.5t226.5 222.5t82 359q0 167 -47 293.5t-134.5 204.5t-206 116.5t-266.5 38.5h-309v-1308z" />
<glyph unicode="E" horiz-adv-x="1261" d="M219 0v1464h934v-78h-852v-589h768v-78h-768v-643h862v-76h-944z" />
<glyph unicode="F" horiz-adv-x="1155" d="M219 0v1464h877v-78h-795v-593h713v-78h-713v-715h-82z" />
<glyph unicode="G" horiz-adv-x="1542" d="M786 -35q-161 0 -290 60.5t-211 165.5t-125 242t-43 296q0 158 46 297t130 244t213 166t285 61q253 0 415 -127t205 -364h-84q-39 204 -179.5 307.5t-356.5 103.5q-180 0 -314.5 -89.5t-204 -244.5t-71.5 -354q2 -198 70.5 -351.5t202.5 -243t314 -89.5q264 0 413.5 152 t158.5 419h-455v76h535q2 -8 2 -26q0 -155 -42.5 -283t-123 -221.5t-206 -145t-284.5 -51.5z" />
<glyph unicode="H" horiz-adv-x="1509" d="M219 0v1464h82v-665h905v665h84v-1464h-84v721h-905v-721h-82z" />
<glyph unicode="I" horiz-adv-x="520" d="M219 0v1464h82v-1464h-82z" />
<glyph unicode="J" horiz-adv-x="1056" d="M459 -35q-204 0 -296.5 125.5t-92.5 362.5h82q2 -203 74.5 -306.5t232.5 -103.5t236.5 93t76.5 308v1020h82v-1042q0 -216 -95.5 -336.5t-299.5 -120.5z" />
<glyph unicode="K" horiz-adv-x="1349" d="M219 0v1464h82v-848l897 848h109l-650 -616l693 -848h-107l-645 793l-297 -281v-512h-82z" />
<glyph unicode="L" horiz-adv-x="1132" d="M219 0v1464h82v-1384h791v-80h-873z" />
<glyph unicode="M" horiz-adv-x="1763" d="M219 0v1464h80l586 -786l581 786h78v-1464h-78v1333l-548 -735h-72l-547 733v-1331h-80z" />
<glyph unicode="N" horiz-adv-x="1519" d="M219 0v1464h78l922 -1327v1327h81v-1464h-81l-922 1325v-1325h-78z" />
<glyph unicode="O" horiz-adv-x="1609" d="M805 -35q-161 0 -292.5 60.5t-217 165.5t-132 243t-46.5 295q0 158 46.5 297t132 244t217 166t292.5 61t293 -61t217.5 -166t131.5 -244t46 -297q0 -125 -28.5 -239t-86.5 -209.5t-139.5 -166t-192.5 -110t-241 -39.5zM805 45q139 0 254 52t191.5 143.5t118 217 t40.5 271.5q-1 198 -72 353t-209 245t-323 90t-322.5 -90t-208.5 -244.5t-73 -353.5q2 -197 73 -350.5t208.5 -243.5t322.5 -90z" />
<glyph unicode="P" horiz-adv-x="1273" d="M219 0v1462h561q203 0 311.5 -98.5t108.5 -282.5q0 -177 -115.5 -280t-304.5 -103h-479v-698h-82zM301 778h481q147 0 239.5 79.5t92.5 223.5q0 147 -86.5 224t-251.5 77h-475v-604z" />
<glyph unicode="Q" horiz-adv-x="1609" d="M1493 729q0 -155 -45 -291.5t-128 -240.5t-211.5 -166t-285.5 -66q3 -116 49 -165.5t148 -49.5h158v-76h-164q-143 0 -205.5 70t-65.5 223q-147 11 -266.5 76.5t-197.5 168.5t-120 235.5t-42 281.5q0 158 46.5 297t132 244t217 166t292.5 61t293 -61t217.5 -166 t131.5 -244t46 -297zM805 45q139 0 254 52t191.5 143.5t118 217t40.5 271.5q-1 198 -72 353t-209 245t-323 90t-322.5 -90t-208.5 -244.5t-73 -353.5q2 -197 73 -350.5t208.5 -243.5t322.5 -90z" />
<glyph unicode="R" horiz-adv-x="1296" d="M1212 0h-96l-440 709h-375v-709h-82v1462h461q243 0 360 -90t123 -272q4 -173 -109 -276.5t-288 -112.5zM301 1384v-598h404q81 0 147 18t118 54.5t80.5 98.5t28.5 145q0 135 -97.5 208.5t-281.5 73.5h-399z" />
<glyph unicode="S" horiz-adv-x="1267" d="M645 -35q-252 0 -397.5 123.5t-141.5 370.5h80q0 -214 121.5 -316t337.5 -102q91 0 166.5 18.5t134.5 56.5t92 100.5t33 145.5q0 55 -17.5 101t-49 79t-71 59t-88 45t-96 34t-98.5 29q-11 3 -16 4q-60 17 -106 31.5t-98.5 36t-90.5 44t-75 53.5t-60 66t-37 80.5t-14 97.5 q0 94 39 167.5t105.5 118t149 67t175.5 22.5q79 0 150 -14.5t135.5 -48.5t111.5 -84.5t76 -127.5t32 -173h-79q-4 100 -40 174t-96 116t-132.5 62t-157.5 20q-78 0 -146 -17t-124 -51t-88 -91.5t-32 -133.5q0 -42 12.5 -78t31.5 -63.5t53 -53.5t65.5 -43.5t82 -37.5 t88.5 -32.5t98 -31.5q197 -58 276 -98q161 -80 200 -217q13 -49 13 -106q0 -100 -40 -178t-110.5 -126t-161.5 -73t-196 -25z" />
<glyph unicode="T" horiz-adv-x="1136" d="M528 0v1386h-487v78h1055v-78h-486v-1386h-82z" />
<glyph unicode="U" horiz-adv-x="1443" d="M721 -35q-255 0 -388.5 149t-133.5 447v903h82v-903q0 -516 440 -516q225 0 332.5 130t107.5 386v903h84v-903q0 -297 -134 -446.5t-390 -149.5z" />
<glyph unicode="V" horiz-adv-x="1267" d="M592 0l-531 1462h84l398 -1091q49 -129 98 -279q39 132 96 283l381 1087h82l-516 -1462h-92z" />
<glyph unicode="W" horiz-adv-x="1943" d="M475 0l-403 1464h90l256 -948q63 -233 110 -420q62 231 121 430l273 938h102l274 -940q82 -278 123 -430q37 150 111 428l252 942h84l-398 -1464h-100l-264 883q-123 433 -135 477l-135 -479l-256 -881h-105z" />
<glyph unicode="X" horiz-adv-x="1216" d="M1184 0h-101l-477 686l-477 -686h-98l526 752l-498 710h103l448 -647l451 647h96l-495 -708z" />
<glyph unicode="Y" horiz-adv-x="1306" d="M612 0v608l-557 854h99l501 -774l502 774h94l-557 -854v-608h-82z" />
<glyph unicode="Z" horiz-adv-x="1183" d="M57 0v88l750 1034q115 157 199 262h-902v78h992v-88l-766 -1055q-100 -139 -183 -241h969v-78h-1059z" />
<glyph unicode="[" horiz-adv-x="538" d="M195 -365v1862h268v-70h-191v-1722h191v-70h-268z" />
<glyph unicode="\" horiz-adv-x="839" d="M694 -35l-620 1532h69l621 -1532h-70z" />
<glyph unicode="]" horiz-adv-x="538" d="M76 -365v70h190v1722h-190v70h268v-1862h-268z" />
<glyph unicode="^" horiz-adv-x="1116" d="M90 492l430 907h76l430 -907h-70l-399 839l-397 -839h-70z" />
<glyph unicode="_" horiz-adv-x="972" d="M0 -209v55h973v-55h-973z" />
<glyph unicode="`" horiz-adv-x="346" d="M309 1174h-57l-217 294h98z" />
<glyph unicode="a" horiz-adv-x="1067" d="M414 -25q-140 0 -228 73t-88 216q0 71 25.5 126.5t75 93t112 62.5t144.5 42l239 49q68 13 90.5 36t22.5 75q0 128 -68.5 193t-218.5 65q-155 0 -227 -67.5t-80 -193.5h-78q5 150 99.5 242t283.5 92q181 0 275 -81.5t94 -264.5v-588q0 -42 17 -58.5t50 -16.5h45v-70h-81 q-48 0 -77.5 27t-29.5 86v84q-54 -102 -157.5 -162t-239.5 -60zM426 49q99 0 187 41.5t142 117t54 165.5v237q-32 -30 -121 -47l-207 -43q-148 -32 -223.5 -89t-75.5 -163q0 -102 64 -160.5t180 -58.5z" />
<glyph unicode="b" horiz-adv-x="1189" d="M635 1079q208 0 327 -150t119 -399q0 -252 -121 -403.5t-325 -151.5q-133 0 -232 64t-153 186v-225h-76v1468h78v-643q54 121 153.5 187.5t229.5 66.5zM631 49q170 0 270 130.5t100 348.5q0 215 -98.5 345.5t-269.5 130.5q-172 0 -277.5 -133.5t-105.5 -342.5 q0 -226 105 -352.5t276 -126.5z" />
<glyph unicode="c" horiz-adv-x="1081" d="M567 -25q-143 0 -248 71t-157.5 192t-52.5 278q0 164 52.5 289.5t161.5 199.5t261 74q161 0 268 -91.5t127 -256.5h-80q-19 128 -102.5 200.5t-214.5 72.5q-83 0 -150 -26.5t-112 -72.5t-75 -108.5t-43.5 -132.5t-13.5 -148q0 -98 24.5 -182t71 -147.5t119.5 -99.5 t164 -36q140 0 230.5 70t107.5 196h80q-22 -160 -133.5 -251t-284.5 -91z" />
<glyph unicode="d" horiz-adv-x="1189" d="M936 1468h78v-1468h-76v217q-54 -112 -148.5 -177t-226.5 -65q-110 0 -197.5 42t-143 116.5t-84.5 174t-29 216.5q0 255 121.5 405t332.5 150q123 0 221 -65.5t154 -182.5zM563 49q89 0 162.5 39t118.5 101t69.5 135.5t24.5 146.5v88q0 185 -107 315t-268 130 q-173 0 -274 -129.5t-101 -350.5q0 -133 41 -238.5t127.5 -171t206.5 -65.5z" />
<glyph unicode="e" horiz-adv-x="1112" d="M938 512l-750 2v-8q2 -213 103.5 -334t279.5 -121q136 0 225.5 68.5t114.5 187.5h80q-30 -152 -141 -242t-281 -90q-214 0 -337 146t-123 401q0 244 128 400.5t332 156.5q213 0 330 -144.5t117 -391.5v-31h-78zM569 1004q-160 0 -265 -116.5t-116 -301.5h748 q-8 192 -103.5 305t-263.5 113z" />
<glyph unicode="f" horiz-adv-x="571" d="M227 0v981h-184v74h184v151q0 140 70 201t201 61h143v-75h-149q-98 0 -142.5 -44.5t-44.5 -150.5v-143h232v-74h-232v-981h-78z" />
<glyph unicode="g" horiz-adv-x="1189" d="M940 1055h76v-1063q0 -420 -371 -420h-401v76h372q173 0 247.5 90.5t74.5 261.5v223q-55 -119 -153.5 -183.5t-223.5 -64.5q-215 0 -333.5 149t-118.5 396q0 254 121 406.5t333 152.5q126 0 224.5 -63t152.5 -185v224zM565 49q163 0 269 131.5t106 343.5 q0 217 -99.5 348.5t-273.5 131.5q-179 0 -279 -132t-100 -352q0 -211 99 -341t278 -130z" />
<glyph unicode="h" horiz-adv-x="1130" d="M174 0v1468h78v-579q39 87 129.5 138.5t198.5 51.5q190 0 289.5 -109.5t99.5 -305.5v-664h-78v645q0 166 -83.5 263.5t-238.5 97.5q-95 0 -177 -51.5t-116 -141.5q-24 -60 -24 -145v-668h-78z" />
<glyph unicode="i" horiz-adv-x="428" d="M213 1292q-31 0 -53.5 22.5t-22.5 53.5q0 29 22.5 51.5t53.5 22.5q30 0 52 -22t22 -52q0 -31 -21.5 -53.5t-52.5 -22.5zM174 0v1055h78v-1055h-78z" />
<glyph unicode="j" horiz-adv-x="444" d="M231 1294q-29 0 -51 22t-22 52t22 52t51 22q31 0 52.5 -21.5t21.5 -52.5t-21.5 -52.5t-52.5 -21.5zM-59 -428v76h106q79 0 111 29.5t32 121.5v1256h78v-1272q0 -120 -53 -165.5t-158 -45.5h-116z" />
<glyph unicode="k" horiz-adv-x="997" d="M987 0h-92l-422 604l-221 -215v-389h-78v1468h78v-983l586 570h100l-408 -396z" />
<glyph unicode="l" horiz-adv-x="452" d="M317 0q-147 0 -147 141v1327h78v-1316q0 -82 84 -82h57v-70h-72z" />
<glyph unicode="m" horiz-adv-x="1693" d="M174 0v1055h78l-2 -160q37 84 115.5 134t177.5 50q126 0 206 -60.5t113 -172.5q40 116 128 174.5t190 58.5q170 0 261 -109.5t91 -299.5v-670h-78v653q0 163 -73 258t-210 95q-124 0 -201 -98t-77 -249v-659h-78v653q0 162 -74 257.5t-211 95.5q-124 0 -201 -89t-77 -225 v-692h-78z" />
<glyph unicode="n" horiz-adv-x="1130" d="M174 0v1055h78v-217q41 113 129.5 177t202.5 64q189 0 287 -112.5t98 -315.5v-651h-78v637q0 175 -80.5 272t-230.5 97q-139 0 -233.5 -112.5t-94.5 -268.5v-625h-78z" />
<glyph unicode="o" horiz-adv-x="1159" d="M578 -25q-140 0 -248 72.5t-166 197.5t-58 281q0 154 58 279.5t166.5 199.5t247.5 74q141 0 250 -73.5t166 -198.5t57 -281q0 -155 -57 -279.5t-165.5 -198t-250.5 -73.5zM578 49q179 0 287 134t108 343q0 207 -108.5 342.5t-286.5 135.5q-176 0 -285 -136t-109 -342 q0 -208 109 -342.5t285 -134.5z" />
<glyph unicode="p" horiz-adv-x="1189" d="M637 1079q201 0 321.5 -151t120.5 -398q0 -248 -119.5 -401.5t-326.5 -153.5q-132 0 -230 62t-151 184v-647h-78v1481h78v-234q54 124 154 191t231 67zM631 49q172 0 271 133t99 346q0 214 -99.5 345t-268.5 131t-276 -132.5t-107 -343.5q0 -228 105.5 -353.5 t275.5 -125.5z" />
<glyph unicode="q" horiz-adv-x="1189" d="M1114 -352h80v-76h-94q-78 0 -121 37t-43 125l2 495q-54 -120 -151 -187t-226 -67q-215 0 -333.5 150t-118.5 399q0 259 124.5 407t331.5 148q128 0 223 -65t150 -178v219h76v-1295q0 -67 26 -89.5t74 -22.5zM561 49q172 0 275.5 135t103.5 336v29q0 193 -102.5 324 t-272.5 131q-169 0 -273 -127t-104 -353q0 -211 99.5 -343t273.5 -132z" />
<glyph unicode="r" horiz-adv-x="667" d="M174 0v1055h76v-187q32 85 109.5 140t197.5 55h86v-76h-90q-62 0 -114 -19.5t-95 -61t-67.5 -116t-24.5 -176.5v-614h-78z" />
<glyph unicode="s" horiz-adv-x="978" d="M489 -25q-185 0 -291 84.5t-106 249.5h80q1 -125 86.5 -193.5t230.5 -68.5q87 0 153.5 21t109.5 70t43 122q0 79 -47 126.5t-158 84.5l-189 59q-38 13 -57 20t-52.5 22t-51 27.5t-41 34t-35.5 44.5t-20.5 56t-8.5 71q0 123 93.5 198.5t258.5 75.5q174 0 273.5 -81.5 t99.5 -252.5h-78q-1 134 -80.5 198.5t-214.5 64.5q-76 0 -132 -18t-85.5 -48.5t-43 -63.5t-13.5 -69q0 -35 9.5 -62.5t25 -47t43.5 -37t58 -29.5t75 -27l197 -65q136 -45 193.5 -106.5t57.5 -166.5q0 -76 -31 -134t-85.5 -92t-121.5 -50.5t-145 -16.5z" />
<glyph unicode="t" horiz-adv-x="636" d="M428 0q-89 0 -136.5 42t-47.5 146v793h-203v74h203v321h78v-321h274v-74h-274v-776q0 -46 9.5 -74t32.5 -40.5t45.5 -15.5t65.5 -3h129v-72h-176z" />
<glyph unicode="u" horiz-adv-x="1126" d="M524 -25q-166 0 -263 101t-97 286v693h78l-2 -678q0 -165 83 -245.5t214 -80.5q162 0 248.5 92t86.5 256v656h78v-1055h-76v160q-40 -84 -131 -134.5t-219 -50.5z" />
<glyph unicode="v" horiz-adv-x="1011" d="M469 0l-422 1055h88l346 -883l31 -92h4l29 92l321 883h82l-389 -1055h-90z" />
<glyph unicode="w" horiz-adv-x="1509" d="M369 0l-303 1055h79l273 -975l291 975h96l282 -975l279 975h80l-311 -1055h-93l-159 539l-123 422h-4l-129 -424l-162 -537h-96z" />
<glyph unicode="x" horiz-adv-x="960" d="M39 0l395 545l-360 510h94l315 -455l316 455h88l-361 -512l396 -543h-95l-348 485l-350 -485h-90z" />
<glyph unicode="y" horiz-adv-x="997" d="M123 -428v76h153q53 0 88 23.5t66 90.5q41 87 41 129q0 13 -4 28t-14.5 45.5t-14.5 41.5l-375 1049h89l200 -588l166 -471l156 481l182 578h84l-428 -1293q-35 -102 -90 -146t-143 -44h-156z" />
<glyph unicode="z" horiz-adv-x="970" d="M70 0v72l708 913h-682v70h774v-72l-712 -913h747v-70h-835z" />
<glyph unicode="{" horiz-adv-x="593" d="M401 -365q-83 0 -123 58t-40 178v342q0 124 -35.5 201t-118.5 127v61q64 10 109 104t45 216v344q0 119 39.5 175t123.5 56h125v-70h-98q-64 0 -88.5 -45t-24.5 -161v-334q0 -104 -39.5 -197.5t-115.5 -122.5q65 -29 110 -116.5t45 -202.5v-332q0 -121 25 -166t88 -45h98 v-70h-125z" />
<glyph unicode="|" horiz-adv-x="454" d="M193 -438v2048h67v-2048h-67z" />
<glyph unicode="}" horiz-adv-x="593" d="M193 1497q83 0 123 -57.5t40 -177.5v-342q0 -124 35.5 -201t118.5 -127v-62q-64 -10 -109 -103.5t-45 -215.5v-344q0 -120 -39.5 -176t-123.5 -56h-125v70h98q64 0 88.5 45.5t24.5 161.5v334q0 104 39.5 197t115.5 122q-65 29 -110 117t-45 203v332q0 121 -25 165.5 t-88 44.5h-98v70h125z" />
<glyph unicode="~" horiz-adv-x="1216" d="M199 426l-45 39q91 176 237 178q55 0 116 -21.5t107 -48t105.5 -48t111.5 -21.5q60 0 102.5 38.5t82.5 110.5l47 -39q-97 -178 -232 -178q-50 0 -98.5 14.5t-87.5 35t-78 40.5t-86.5 34.5t-95.5 14.5q-61 0 -104.5 -38.5t-81.5 -110.5z" />
<glyph unicode="&#xa1;" horiz-adv-x="438" d="M221 1081q33 0 54.5 -21t21.5 -54q0 -34 -22 -56t-54 -22q-33 0 -55.5 22.5t-22.5 55.5t22.5 54t55.5 21zM244 705l14 -429v-665h-80v665l15 429h51z" />
<glyph unicode="&#xa2;" horiz-adv-x="1116" d="M553 -242v217q-107 4 -192 50.5t-138.5 122.5t-81.5 172.5t-28 205.5q0 106 28.5 202t82 172.5t138.5 124t191 52.5v178h51v-178q167 -6 278.5 -97.5t129.5 -260.5h-80q-20 133 -107.5 204.5t-220.5 77.5v-950q140 1 229.5 84t108.5 223h78q-21 -178 -132.5 -278 t-283.5 -105v-217h-51zM553 51v950q-73 -4 -133.5 -32.5t-102.5 -74t-71 -105.5t-42.5 -126t-13.5 -137q0 -91 22.5 -173t65.5 -148.5t114 -108t161 -45.5z" />
<glyph unicode="&#xa3;" horiz-adv-x="1288" d="M1042 74h156v-74h-162q-67 0 -129.5 15t-128 49.5t-101.5 56.5t-104 69q-64 -206 -268 -206q-97 0 -157 55.5t-60 146.5t59 145t154 54q91 0 217 -72q2 25 2 76q0 71 -21.5 139.5t-62.5 157.5h-295v70h267q-78 183 -78 319q0 89 26 158t66.5 110t95.5 67.5t107 36 t108 9.5q191 0 293.5 -100.5t101.5 -292.5h-77q-9 319 -318 319q-50 0 -95.5 -10t-87 -33t-71 -57.5t-47.5 -87.5t-18 -119q0 -78 21 -151t61 -168h342v-70h-314q76 -178 76 -293q0 -78 -10 -127q7 -5 39.5 -26.5t42.5 -28t40 -25.5t44 -26t42.5 -22.5t46.5 -22t45.5 -16.5 t49.5 -14t49 -7.5t53 -3.5zM303 53q160 0 203 180q-123 80 -205 80q-65 0 -104 -37t-39 -92q0 -61 38.5 -96t106.5 -35z" />
<glyph unicode="&#xa4;" horiz-adv-x="1335" d="M213 205l-41 41l117 116q-131 143 -131 336q3 201 131 338l-117 117l41 41l117 -117q143 131 338 131t333 -129l119 117l43 -43l-116 -117q127 -139 127 -336q0 -196 -127 -338l114 -116l-41 -41l-116 117q-141 -129 -336 -129q-197 0 -338 129zM668 264 q179 0 304.5 128.5t125.5 307.5q0 178 -125.5 306.5t-304.5 128.5q-119 0 -218.5 -59t-156.5 -159.5t-57 -218.5q0 -179 125.5 -306.5t306.5 -127.5z" />
<glyph unicode="&#xa5;" horiz-adv-x="1243" d="M578 0v559h-367v62h360l-153 258h-273v61h236l-313 522h100l455 -774l462 774h95l-318 -522h225v-61h-262l-157 -258h360v-62h-366v-559h-84z" />
<glyph unicode="&#xa6;" horiz-adv-x="442" d="M186 842v512h68v-512h-68zM186 -182v512h68v-512h-68z" />
<glyph unicode="&#xa7;" horiz-adv-x="1024" d="M692 182q87 -54 132.5 -113.5t45.5 -156.5q0 -74 -28.5 -131.5t-77.5 -92t-110 -52t-130 -17.5q-78 0 -141 18.5t-114.5 60t-80 115t-28.5 175.5h84q0 -155 73 -223t211 -68q114 0 186 54.5t72 156.5q0 24 -3 44.5t-15 41t-21 35t-35.5 36.5t-42 34.5t-58.5 39.5 t-67 41.5t-83 50.5q-77 46 -123.5 76.5t-94.5 69.5t-72.5 73t-40 77.5t-15.5 93.5q0 103 62 176t149 114q-82 56 -124 116.5t-42 150.5q0 98 51.5 166t129 97t171.5 29q73 0 134.5 -19.5t113 -60.5t81 -114.5t29.5 -173.5h-84q0 150 -75.5 220.5t-202.5 70.5 q-116 0 -190 -53t-74 -158q0 -88 59 -143t250 -171q11 -7 16 -10q93 -56 146.5 -94t101 -85t67 -96t19.5 -110q0 -105 -62 -177.5t-149 -113.5zM391 375q26 -18 234 -150q80 33 138 93.5t58 144.5q0 69 -40.5 127.5t-133.5 118.5q-125 82 -254 159h-2q-83 -34 -138.5 -94 t-55.5 -145q0 -68 47 -127.5t147 -126.5z" />
<glyph unicode="&#xa8;" horiz-adv-x="495" d="M86 1292q-26 0 -46 20t-20 48q0 27 19.5 46t46.5 19q29 0 48.5 -18.5t19.5 -46.5t-19.5 -48t-48.5 -20zM408 1292q-26 0 -46 20t-20 48q0 27 19.5 46t46.5 19q28 0 47.5 -18.5t19.5 -46.5t-19.5 -48t-47.5 -20z" />
<glyph unicode="&#xa9;" horiz-adv-x="1767" d="M885 -35q-157 0 -299 59.5t-245.5 161t-164.5 244t-61 301.5t61 301.5t164.5 244t245.5 161t299 59.5q208 0 385 -100.5t281 -277t104 -388.5t-104 -388.5t-281 -277t-385 -100.5zM885 29q190 0 350.5 93t254 254.5t93.5 354.5q0 144 -55.5 274.5t-149 224t-222.5 149 t-271 55.5q-191 0 -352 -93.5t-254 -255.5t-93 -354q0 -193 93 -354.5t253.5 -254.5t352.5 -93zM901 260q-200 0 -324 134.5t-124 336.5q0 205 119.5 335t322.5 130q149 0 254 -82t125 -229h-64q-19 120 -106.5 184t-208.5 64q-174 0 -273.5 -112.5t-99.5 -287.5 q0 -174 103.5 -291.5t275.5 -117.5q110 0 195 68.5t114 189.5h64q-31 -146 -132 -234t-241 -88z" />
<glyph unicode="&#xaa;" horiz-adv-x="841" d="M332 774q-95 0 -153 44.5t-58 133.5q0 157 235 203l154 29q42 8 57 21.5t15 43.5q0 77 -43 114.5t-133 37.5q-182 0 -189 -152h-67q3 96 68 152.5t188 56.5q121 0 182 -51.5t61 -171.5v-344q0 -45 41 -45h29v-55h-64q-69 0 -69 65v51q-76 -133 -254 -133zM342 829 q95 0 168.5 59t73.5 144v125q-20 -17 -76 -29l-133 -22q-92 -16 -139.5 -51t-47.5 -97q0 -61 40 -95t114 -34z" />
<glyph unicode="&#xab;" horiz-adv-x="710" d="M328 256l-213 260v70l213 258v-92l-156 -201l156 -203v-92zM547 256l-213 260v70l213 258v-92l-156 -201l156 -203v-92z" />
<glyph unicode="&#xac;" horiz-adv-x="1304" d="M1075 193v491h-913v68h981v-559h-68z" />
<glyph unicode="&#xad;" horiz-adv-x="686" d="M152 514v72h383v-72h-383z" />
<glyph unicode="&#xae;" horiz-adv-x="1767" d="M885 -35q-157 0 -299 59.5t-245.5 161t-164.5 244t-61 301.5t61 301.5t164.5 244t245.5 161t299 59.5q208 0 385 -100.5t281 -277t104 -388.5t-104 -388.5t-281 -277t-385 -100.5zM885 29q190 0 350.5 93t254 254.5t93.5 354.5q0 144 -55.5 274.5t-149 224t-222.5 149 t-271 55.5q-191 0 -352 -93.5t-254 -255.5t-93 -354q0 -193 93 -354.5t253.5 -254.5t352.5 -93zM602 309v877h295q148 0 223.5 -61t75.5 -179q0 -106 -64.5 -163.5t-164.5 -65.5l264 -408h-76l-254 402h-235v-402h-64zM666 766h200q41 0 73 3t70 14t62.5 30t41.5 53.5 t17 81.5q0 54 -19.5 91t-55.5 55.5t-75.5 26t-90.5 7.5h-223v-362z" />
<glyph unicode="&#xaf;" horiz-adv-x="538" d="M20 1305v57h498v-57h-498z" />
<glyph unicode="&#xb0;" horiz-adv-x="786" d="M393 831q-118 0 -199 86t-81 213q0 119 82 206t198 87q117 0 199 -86.5t82 -206.5q0 -125 -81.5 -212t-199.5 -87zM393 885q95 0 160 70.5t65 174.5q0 99 -64 169.5t-161 70.5q-92 0 -158.5 -72t-66.5 -168q0 -105 66 -175t159 -70z" />
<glyph unicode="&#xb1;" horiz-adv-x="1284" d="M608 199v385h-456v67h456v385h66v-385h459v-67h-459v-385h-66zM152 0v68h981v-68h-981z" />
<glyph unicode="&#xb2;" horiz-adv-x="911" d="M139 565q0 46 16.5 87.5t33 68t63 64t67 51t85.5 54.5q13 9 20 13q49 32 78.5 53t66 52t56 57.5t33.5 61t14 71.5q0 78 -58.5 119t-158.5 41q-237 0 -234 -234h-67q3 149 75.5 225t229.5 76q127 0 205.5 -57t78.5 -168q0 -93 -55 -164.5t-217 -175.5q-56 -36 -89.5 -59.5 t-73 -55t-59 -59.5t-22.5 -55h537v-66h-625z" />
<glyph unicode="&#xb3;" horiz-adv-x="892" d="M455 551q-159 0 -249.5 79.5t-84.5 223.5h67q-7 -117 64.5 -177.5t200.5 -60.5q104 0 174.5 49.5t70.5 139.5q0 97 -67.5 139.5t-175.5 42.5h-49v60h49q95 0 158 38.5t63 122.5q0 152 -225 152q-121 0 -178.5 -50.5t-57.5 -162.5h-68q-4 132 80 205t228 73 q56 0 106 -11.5t92 -36t67 -67t25 -98.5q0 -83 -52 -135.5t-132 -54.5q95 -11 151 -68.5t56 -150.5q0 -115 -90.5 -183.5t-222.5 -68.5z" />
<glyph unicode="&#xb4;" horiz-adv-x="346" d="M35 1174l176 294h98l-217 -294h-57z" />
<glyph unicode="&#xb5;" horiz-adv-x="1198" d="M193 -365v1420h75v-678q0 -165 86 -245.5t224 -80.5q86 0 154.5 33.5t110.5 91t64.5 130t22.5 153.5v596h78v-1055h-78v221q-34 -111 -131 -178.5t-228 -67.5q-212 0 -303 162v-502h-75z" />
<glyph unicode="&#xb6;" horiz-adv-x="1157" d="M254 -328v72h76q110 2 148 44.5t38 170.5v721q-207 0 -326.5 109t-119.5 278q0 187 115 291t321 104h538v-69h-104v-1682h-72v1682h-280v-1446q0 -157 -60 -216t-198 -59h-76z" />
<glyph unicode="&#xb7;" horiz-adv-x="460" d="M231 600q-34 0 -56.5 22.5t-22.5 57.5t22.5 58.5t56.5 23.5q33 0 55.5 -23.5t22.5 -58.5q0 -34 -23 -57t-55 -23z" />
<glyph unicode="&#xb8;" horiz-adv-x="419" d="M195 -385q-113 3 -179 57l25 49q62 -49 149 -49q65 0 101.5 24.5t36.5 74.5q0 44 -29 65t-70 21q-67 0 -112 -25l-33 31l117 137h55l-86 -102l4 -2q27 12 72 12q71 0 112 -33t41 -96q0 -80 -56.5 -122t-147.5 -42z" />
<glyph unicode="&#xb9;" horiz-adv-x="552" d="M317 565v748q-36 -36 -101 -69.5t-138 -51.5v59q87 20 141.5 56t102.5 104h67v-846h-72z" />
<glyph unicode="&#xba;" horiz-adv-x="849" d="M424 784q-142 0 -227.5 95.5t-85.5 244.5q0 148 86 246t229 98q142 0 227.5 -97.5t85.5 -246.5q0 -148 -85 -244t-230 -96zM426 846q114 0 181 76.5t67 201.5q0 124 -67 202.5t-181 78.5q-115 0 -182.5 -78.5t-67.5 -202.5q0 -125 67.5 -201.5t182.5 -76.5z" />
<glyph unicode="&#xbb;" horiz-adv-x="716" d="M162 256v92l157 203l-157 201v92l215 -258v-70zM389 256v92l158 203l-158 201v92l215 -258v-70z" />
<glyph unicode="&#xbc;" horiz-adv-x="1482" d="M186 -66l908 1530h71l-907 -1530h-72zM313 565v748q-36 -36 -101 -69.5t-138 -51.5v59q87 20 141 56t102 104h68v-846h-72zM1200 0v199h-452v71l444 576h78v-586h153v-61h-153v-199h-70zM823 260h377v490h-2z" />
<glyph unicode="&#xbd;" horiz-adv-x="1648" d="M211 -66l905 1530h74l-901 -1530h-78zM309 565v744q-84 -77 -239 -119v61q89 20 143 56t100 104h72v-846h-76zM934 0q0 46 15 87t35 69.5t61 62.5t70 54t85 55q4 3 6.5 4.5t6 3.5t6.5 4q60 38 97 65.5t75.5 64t56.5 76.5t18 85q0 77 -58 118.5t-157 41.5 q-229 0 -229 -232h-78q2 142 80.5 222.5t228.5 80.5q129 0 209 -58t80 -169q0 -93 -56 -164.5t-220 -177.5q-61 -38 -89.5 -57t-69.5 -51t-59.5 -60.5t-21.5 -58.5h535v-66h-627z" />
<glyph unicode="&#xbe;" horiz-adv-x="1687" d="M416 -66l907 1530h72l-908 -1530h-71zM426 551q-159 0 -249.5 79.5t-84.5 223.5h68q-7 -117 64 -177.5t200 -60.5q104 0 175 49.5t71 139.5q0 97 -68 139.5t-176 42.5h-49v60h49q95 0 158 38.5t63 122.5q0 152 -225 152q-121 0 -178.5 -50.5t-57.5 -162.5h-67 q-4 132 79.5 205t227.5 73q56 0 106 -11.5t92.5 -36t67.5 -67t25 -98.5q0 -83 -52.5 -135.5t-132.5 -54.5q95 -11 151 -68.5t56 -150.5q0 -115 -90.5 -183.5t-222.5 -68.5zM1403 0v199h-453v71l443 576h80v-586h153v-61h-153v-199h-70zM1024 260h379v490h-4z" />
<glyph unicode="&#xbf;" horiz-adv-x="1007" d="M508 1092q29 0 49.5 -20.5t20.5 -49.5q0 -28 -20.5 -49t-49.5 -21q-28 0 -49 21t-21 49q0 29 21 49.5t49 20.5zM549 727q0 -49 -2 -72q-8 -108 -50.5 -188.5t-144.5 -171.5l-51 -49q-145 -123 -145 -281q0 -133 88 -210t243 -77q183 0 278.5 107t92.5 297h80 q5 -217 -116.5 -348t-334.5 -131q-187 0 -300 93t-113 257q0 113 43.5 189t122.5 151l55 51q88 81 125.5 147t46.5 166q2 23 2 70h80z" />
<glyph unicode="&#xc0;" horiz-adv-x="1312" d="M750 1589h-62l-242 264h101zM1165 0l-184 504h-649l-191 -504h-86l557 1464h95l546 -1464h-88zM360 584h590l-288 786h-5z" />
<glyph unicode="&#xc1;" horiz-adv-x="1312" d="M862 1853l-241 -264h-62l201 264h102zM1165 0l-184 504h-649l-191 -504h-86l557 1464h95l546 -1464h-88zM360 584h590l-288 786h-5z" />
<glyph unicode="&#xc2;" horiz-adv-x="1312" d="M651 1792l-190 -203h-66l226 264h65l225 -264h-69zM1165 0l-184 504h-649l-191 -504h-86l557 1464h95l546 -1464h-88zM360 584h590l-288 786h-5z" />
<glyph unicode="&#xc3;" horiz-adv-x="1312" d="M532 1743q-40 0 -62 -31.5t-24 -73.5h-63q3 73 41.5 121.5t101.5 48.5q42 0 88.5 -25.5t89 -51t76.5 -25.5q38 0 60.5 23t29.5 75h64q-18 -164 -146 -164q-35 0 -71.5 16t-62 35.5t-59 35.5t-63.5 16zM1165 0l-184 504h-649l-191 -504h-86l557 1464h95l546 -1464h-88z M360 584h590l-288 786h-5z" />
<glyph unicode="&#xc4;" horiz-adv-x="1312" d="M469 1649q-27 0 -46.5 19.5t-19.5 47.5q0 27 19.5 46.5t46.5 19.5q29 0 48.5 -19t19.5 -47t-19.5 -47.5t-48.5 -19.5zM840 1649q-26 0 -46 19.5t-20 47.5q0 27 19.5 46.5t46.5 19.5q28 0 47.5 -19t19.5 -47t-19.5 -47.5t-47.5 -19.5zM1165 0l-184 504h-649l-191 -504h-86 l557 1464h95l546 -1464h-88zM360 584h590l-288 786h-5z" />
<glyph unicode="&#xc5;" horiz-adv-x="1312" d="M653 1540q-79 0 -131.5 51.5t-52.5 128.5q0 78 52.5 131.5t131.5 53.5t133 -53.5t54 -131.5q0 -77 -54 -128.5t-133 -51.5zM653 1851q-54 0 -90.5 -37t-36.5 -94q0 -55 36.5 -92t90.5 -37t90.5 37t36.5 92q0 57 -36.5 94t-90.5 37zM1165 0l-184 504h-649l-191 -504h-86 l557 1464h95l546 -1464h-88zM360 584h590l-288 786h-5z" />
<glyph unicode="&#xc6;" horiz-adv-x="1779" d="M924 74h747v-74h-829v537h-473l-293 -537h-88l800 1462h877v-73h-741v-592h684v-72h-684v-651zM408 608h434v783h-8z" />
<glyph unicode="&#xc7;" horiz-adv-x="1458" d="M774 45q108 0 200 36t153.5 96.5t100 136t48.5 159.5h80q-11 -102 -53.5 -191.5t-112.5 -159.5t-173 -112t-226 -45l-58 -67l4 -2q27 12 72 12q71 0 112.5 -33t41.5 -96q0 -80 -57 -122t-148 -42q-112 3 -178 57l24 49q62 -49 150 -49q137 0 137 99q0 44 -28.5 65 t-69.5 21q-68 0 -113 -25l-33 31l88 102q-291 15 -452.5 221.5t-161.5 540.5q0 222 74 394.5t223.5 274t355.5 101.5q131 0 239 -41t179.5 -112.5t113.5 -164.5t52 -200h-82q-18 185 -156 311.5t-348 126.5q-113 0 -207.5 -36.5t-160.5 -100t-112 -151t-67.5 -189 t-21.5 -213.5q0 -114 22.5 -215t68.5 -187t113 -148t161 -97t206 -35z" />
<glyph unicode="&#xc8;" horiz-adv-x="1261" d="M694 1589l-241 264h100l203 -264h-62zM219 0v1464h934v-78h-852v-589h768v-78h-768v-643h862v-76h-944z" />
<glyph unicode="&#xc9;" horiz-adv-x="1261" d="M565 1589l201 264h102l-241 -264h-62zM219 0v1464h934v-78h-852v-589h768v-78h-768v-643h862v-76h-944z" />
<glyph unicode="&#xca;" horiz-adv-x="1261" d="M401 1589l226 264h65l226 -264h-70l-191 203l-190 -203h-66zM219 0v1464h934v-78h-852v-589h768v-78h-768v-643h862v-76h-944z" />
<glyph unicode="&#xcb;" horiz-adv-x="1261" d="M473 1649q-26 0 -45.5 19.5t-19.5 47.5t19 47t46 19q29 0 48.5 -19t19.5 -47t-19.5 -47.5t-48.5 -19.5zM844 1649q-26 0 -46 19.5t-20 47.5q0 27 19.5 46.5t46.5 19.5q28 0 47.5 -19t19.5 -47t-19.5 -47.5t-47.5 -19.5zM219 0v1464h934v-78h-852v-589h768v-78h-768v-643 h862v-76h-944z" />
<glyph unicode="&#xcc;" horiz-adv-x="520" d="M293 1589l-242 264h101l202 -264h-61zM219 0v1464h82v-1464h-82z" />
<glyph unicode="&#xcd;" horiz-adv-x="520" d="M164 1589l201 264h102l-242 -264h-61zM219 0v1464h82v-1464h-82z" />
<glyph unicode="&#xce;" horiz-adv-x="520" d="M0 1589l225 264h66l225 -264h-70l-190 203l-190 -203h-66zM219 0v1464h82v-1464h-82z" />
<glyph unicode="&#xcf;" horiz-adv-x="520" d="M74 1649q-26 0 -46 19.5t-20 47.5q0 27 19.5 46.5t46.5 19.5q29 0 48 -19t19 -47t-19 -47.5t-48 -19.5zM444 1649q-26 0 -45.5 19.5t-19.5 47.5t19.5 47t45.5 19q28 0 48 -19t20 -47t-20 -47.5t-48 -19.5zM219 0v1464h82v-1464h-82z" />
<glyph unicode="&#xd0;" horiz-adv-x="1470" d="M625 1464q124 0 232.5 -27.5t199.5 -85.5t156.5 -143.5t102 -206.5t36.5 -268q0 -178 -54 -318.5t-151.5 -230.5t-230.5 -137t-293 -47h-400v702h-164v64h164v698h402zM623 78q294 0 469.5 170.5t175.5 484.5q0 167 -47 293.5t-134.5 204.5t-206 116.5t-266.5 38.5h-309 v-620h316v-64h-316v-624h318z" />
<glyph unicode="&#xd1;" horiz-adv-x="1519" d="M489 1638q3 73 42 121.5t102 48.5q42 0 88.5 -25.5t89 -51t76.5 -25.5q38 0 60.5 23t29.5 75h63q-18 -164 -145 -164q-35 0 -71.5 16t-62 35.5t-59 35.5t-63.5 16q-40 0 -62 -31.5t-24 -73.5h-64zM219 0v1464h78l922 -1327v1327h81v-1464h-81l-922 1325v-1325h-78z" />
<glyph unicode="&#xd2;" horiz-adv-x="1609" d="M827 1589l-241 264h100l203 -264h-62zM805 -35q-161 0 -292.5 60.5t-217 165.5t-132 243t-46.5 295q0 158 46.5 297t132 244t217 166t292.5 61t293 -61t217.5 -166t131.5 -244t46 -297q0 -125 -28.5 -239t-86.5 -209.5t-139.5 -166t-192.5 -110t-241 -39.5zM805 45 q139 0 254 52t191.5 143.5t118 217t40.5 271.5q-1 198 -72 353t-209 245t-323 90t-322.5 -90t-208.5 -244.5t-73 -353.5q2 -197 73 -350.5t208.5 -243.5t322.5 -90z" />
<glyph unicode="&#xd3;" horiz-adv-x="1609" d="M721 1589l201 264h102l-242 -264h-61zM805 -35q-161 0 -292.5 60.5t-217 165.5t-132 243t-46.5 295q0 158 46.5 297t132 244t217 166t292.5 61t293 -61t217.5 -166t131.5 -244t46 -297q0 -125 -28.5 -239t-86.5 -209.5t-139.5 -166t-192.5 -110t-241 -39.5zM805 45 q139 0 254 52t191.5 143.5t118 217t40.5 271.5q-1 198 -72 353t-209 245t-323 90t-322.5 -90t-208.5 -244.5t-73 -353.5q2 -197 73 -350.5t208.5 -243.5t322.5 -90z" />
<glyph unicode="&#xd4;" horiz-adv-x="1609" d="M547 1589l225 264h66l225 -264h-70l-190 203l-191 -203h-65zM805 -35q-161 0 -292.5 60.5t-217 165.5t-132 243t-46.5 295q0 158 46.5 297t132 244t217 166t292.5 61t293 -61t217.5 -166t131.5 -244t46 -297q0 -125 -28.5 -239t-86.5 -209.5t-139.5 -166t-192.5 -110 t-241 -39.5zM805 45q139 0 254 52t191.5 143.5t118 217t40.5 271.5q-1 198 -72 353t-209 245t-323 90t-322.5 -90t-208.5 -244.5t-73 -353.5q2 -197 73 -350.5t208.5 -243.5t322.5 -90z" />
<glyph unicode="&#xd5;" horiz-adv-x="1609" d="M535 1638q3 73 41.5 121.5t101.5 48.5q42 0 88.5 -25.5t89 -51t76.5 -25.5q38 0 60.5 23t29.5 75h63q-18 -164 -145 -164q-35 0 -71.5 16t-62 35.5t-59 35.5t-63.5 16q-40 0 -62 -31.5t-24 -73.5h-63zM805 -35q-161 0 -292.5 60.5t-217 165.5t-132 243t-46.5 295 q0 158 46.5 297t132 244t217 166t292.5 61t293 -61t217.5 -166t131.5 -244t46 -297q0 -125 -28.5 -239t-86.5 -209.5t-139.5 -166t-192.5 -110t-241 -39.5zM805 45q139 0 254 52t191.5 143.5t118 217t40.5 271.5q-1 198 -72 353t-209 245t-323 90t-322.5 -90t-208.5 -244.5 t-73 -353.5q2 -197 73 -350.5t208.5 -243.5t322.5 -90z" />
<glyph unicode="&#xd6;" horiz-adv-x="1609" d="M618 1649q-26 0 -45.5 19.5t-19.5 47.5t19.5 47t45.5 19q29 0 48.5 -19t19.5 -47t-19.5 -47.5t-48.5 -19.5zM989 1649q-26 0 -45.5 19.5t-19.5 47.5t19 47t46 19q28 0 48 -19t20 -47t-20 -47.5t-48 -19.5zM805 -35q-161 0 -292.5 60.5t-217 165.5t-132 243t-46.5 295 q0 158 46.5 297t132 244t217 166t292.5 61t293 -61t217.5 -166t131.5 -244t46 -297q0 -125 -28.5 -239t-86.5 -209.5t-139.5 -166t-192.5 -110t-241 -39.5zM805 45q139 0 254 52t191.5 143.5t118 217t40.5 271.5q-1 198 -72 353t-209 245t-323 90t-322.5 -90t-208.5 -244.5 t-73 -353.5q2 -197 73 -350.5t208.5 -243.5t322.5 -90z" />
<glyph unicode="&#xd7;" horiz-adv-x="1067" d="M174 125l-47 47l358 379l-358 381l47 45l358 -381l361 381l47 -45l-360 -381l360 -379l-47 -47l-361 381z" />
<glyph unicode="&#xd8;" horiz-adv-x="1619" d="M1327 1264q172 -212 172 -535q0 -125 -28.5 -239t-86.5 -209.5t-139.5 -166t-192.5 -110t-241 -39.5q-292 0 -479 193l-133 -148l-47 41l139 154q-82 102 -125 237t-43 287q0 158 46.5 297t132 244t217 166t292.5 61q290 0 475 -188l137 151l45 -41zM207 729 q3 -277 139 -461l885 979q-164 170 -420 170q-185 0 -322.5 -90t-208.5 -244.5t-73 -353.5zM811 45q139 0 254 52t191.5 143.5t118 217t40.5 271.5q0 283 -143 471l-885 -981q163 -174 424 -174z" />
<glyph unicode="&#xd9;" horiz-adv-x="1443" d="M756 1589l-242 264h100l203 -264h-61zM721 -35q-255 0 -388.5 149t-133.5 447v903h82v-903q0 -516 440 -516q225 0 332.5 130t107.5 386v903h84v-903q0 -297 -134 -446.5t-390 -149.5z" />
<glyph unicode="&#xda;" horiz-adv-x="1443" d="M627 1589l200 264h103l-242 -264h-61zM721 -35q-255 0 -388.5 149t-133.5 447v903h82v-903q0 -516 440 -516q225 0 332.5 130t107.5 386v903h84v-903q0 -297 -134 -446.5t-390 -149.5z" />
<glyph unicode="&#xdb;" horiz-adv-x="1443" d="M463 1589l225 264h66l225 -264h-70l-190 203l-191 -203h-65zM721 -35q-255 0 -388.5 149t-133.5 447v903h82v-903q0 -516 440 -516q225 0 332.5 130t107.5 386v903h84v-903q0 -297 -134 -446.5t-390 -149.5z" />
<glyph unicode="&#xdc;" horiz-adv-x="1443" d="M537 1649q-27 0 -46.5 19.5t-19.5 47.5q0 27 19.5 46.5t46.5 19.5q29 0 48 -19t19 -47t-19 -47.5t-48 -19.5zM907 1649q-26 0 -45.5 19.5t-19.5 47.5t19 47t46 19q28 0 48 -19t20 -47t-20 -47.5t-48 -19.5zM721 -35q-255 0 -388.5 149t-133.5 447v903h82v-903 q0 -516 440 -516q225 0 332.5 130t107.5 386v903h84v-903q0 -297 -134 -446.5t-390 -149.5z" />
<glyph unicode="&#xdd;" horiz-adv-x="1306" d="M559 1589l201 264h102l-241 -264h-62zM612 0v608l-557 854h99l501 -774l502 774h94l-557 -854v-608h-82z" />
<glyph unicode="&#xde;" horiz-adv-x="1302" d="M219 0v1462h82v-315h492q208 0 319 -107t111 -303q0 -189 -122 -298t-327 -109h-473v-330h-82zM301 401h475q162 0 264.5 88t102.5 248q0 168 -93.5 253t-273.5 85h-475v-674z" />
<glyph unicode="&#xdf;" horiz-adv-x="1122" d="M174 0v1055q0 112 33 197t89.5 134.5t125.5 74t147 24.5q168 0 273.5 -94t105.5 -256q0 -125 -67 -213.5t-185 -116.5q149 -22 235.5 -122.5t86.5 -254.5q0 -201 -116.5 -314.5t-354.5 -113.5h-103v74h103q86 0 155 19t123 59.5t83.5 110.5t29.5 165q0 330 -408 334h-24 v74h24q96 0 171 30t122 98.5t47 168.5q0 130 -82 204t-219 74q-43 0 -83.5 -9t-83.5 -34t-75 -63.5t-52.5 -103t-20.5 -146.5v-1055h-80z" />
<glyph unicode="&#xe0;" horiz-adv-x="1073" d="M580 1174h-58l-217 294h98zM414 -25q-140 0 -228 73t-88 216q0 71 25.5 126.5t75 93t112 62.5t144.5 42l239 49q68 13 90.5 36t22.5 75q0 128 -68.5 193t-218.5 65q-155 0 -227 -67.5t-80 -193.5h-78q5 150 99.5 242t283.5 92q181 0 275 -81.5t94 -264.5v-588 q0 -42 17 -58.5t50 -16.5h45v-70h-81q-48 0 -77.5 27t-29.5 86v84q-54 -102 -157.5 -162t-239.5 -60zM426 49q99 0 187 41.5t142 117t54 165.5v237q-32 -30 -121 -47l-207 -43q-148 -32 -223.5 -89t-75.5 -163q0 -102 64 -160.5t180 -58.5z" />
<glyph unicode="&#xe1;" horiz-adv-x="1073" d="M432 1174l176 294h99l-218 -294h-57zM414 -25q-140 0 -228 73t-88 216q0 71 25.5 126.5t75 93t112 62.5t144.5 42l239 49q68 13 90.5 36t22.5 75q0 128 -68.5 193t-218.5 65q-155 0 -227 -67.5t-80 -193.5h-78q5 150 99.5 242t283.5 92q181 0 275 -81.5t94 -264.5v-588 q0 -42 17 -58.5t50 -16.5h45v-70h-81q-48 0 -77.5 27t-29.5 86v84q-54 -102 -157.5 -162t-239.5 -60zM426 49q99 0 187 41.5t142 117t54 165.5v237q-32 -30 -121 -47l-207 -43q-148 -32 -223.5 -89t-75.5 -163q0 -102 64 -160.5t180 -58.5z" />
<glyph unicode="&#xe2;" horiz-adv-x="1073" d="M272 1174l222 294h65l219 -294h-69l-187 233l-184 -233h-66zM414 -25q-140 0 -228 73t-88 216q0 71 25.5 126.5t75 93t112 62.5t144.5 42l239 49q68 13 90.5 36t22.5 75q0 128 -68.5 193t-218.5 65q-155 0 -227 -67.5t-80 -193.5h-78q5 150 99.5 242t283.5 92 q181 0 275 -81.5t94 -264.5v-588q0 -42 17 -58.5t50 -16.5h45v-70h-81q-48 0 -77.5 27t-29.5 86v84q-54 -102 -157.5 -162t-239.5 -60zM426 49q99 0 187 41.5t142 117t54 165.5v237q-32 -30 -121 -47l-207 -43q-148 -32 -223.5 -89t-75.5 -163q0 -102 64 -160.5t180 -58.5z " />
<glyph unicode="&#xe3;" horiz-adv-x="1073" d="M252 1255q3 73 41.5 121.5t101.5 48.5q42 0 88.5 -25t89 -50t76.5 -25q38 0 60.5 22t29.5 74h62q-15 -164 -144 -164q-35 0 -71.5 16t-62 35.5t-59 35.5t-63.5 16q-40 0 -62 -31.5t-24 -73.5h-63zM414 -25q-140 0 -228 73t-88 216q0 71 25.5 126.5t75 93t112 62.5 t144.5 42l239 49q68 13 90.5 36t22.5 75q0 128 -68.5 193t-218.5 65q-155 0 -227 -67.5t-80 -193.5h-78q5 150 99.5 242t283.5 92q181 0 275 -81.5t94 -264.5v-588q0 -42 17 -58.5t50 -16.5h45v-70h-81q-48 0 -77.5 27t-29.5 86v84q-54 -102 -157.5 -162t-239.5 -60zM426 49 q99 0 187 41.5t142 117t54 165.5v237q-32 -30 -121 -47l-207 -43q-148 -32 -223.5 -89t-75.5 -163q0 -102 64 -160.5t180 -58.5z" />
<glyph unicode="&#xe4;" horiz-adv-x="1073" d="M365 1292q-26 0 -46 20t-20 48q0 27 19.5 46t46.5 19q29 0 48 -18.5t19 -46.5t-19 -48t-48 -20zM686 1292q-26 0 -45.5 20t-19.5 48q0 27 19 46t46 19q28 0 48 -19t20 -46q0 -28 -20 -48t-48 -20zM414 -25q-140 0 -228 73t-88 216q0 71 25.5 126.5t75 93t112 62.5 t144.5 42l239 49q68 13 90.5 36t22.5 75q0 128 -68.5 193t-218.5 65q-155 0 -227 -67.5t-80 -193.5h-78q5 150 99.5 242t283.5 92q181 0 275 -81.5t94 -264.5v-588q0 -42 17 -58.5t50 -16.5h45v-70h-81q-48 0 -77.5 27t-29.5 86v84q-54 -102 -157.5 -162t-239.5 -60zM426 49 q99 0 187 41.5t142 117t54 165.5v237q-32 -30 -121 -47l-207 -43q-148 -32 -223.5 -89t-75.5 -163q0 -102 64 -160.5t180 -58.5z" />
<glyph unicode="&#xe5;" horiz-adv-x="1073" d="M524 1139q-80 0 -132 53t-52 135t52.5 136.5t131.5 54.5q80 0 133.5 -54.5t53.5 -136.5q0 -81 -53.5 -134.5t-133.5 -53.5zM524 1194q54 0 89.5 38t35.5 95q0 58 -35.5 96.5t-89.5 38.5t-89.5 -38.5t-35.5 -96.5q0 -57 35.5 -95t89.5 -38zM414 -25q-140 0 -228 73 t-88 216q0 71 25.5 126.5t75 93t112 62.5t144.5 42l239 49q68 13 90.5 36t22.5 75q0 128 -68.5 193t-218.5 65q-155 0 -227 -67.5t-80 -193.5h-78q5 150 99.5 242t283.5 92q181 0 275 -81.5t94 -264.5v-588q0 -42 17 -58.5t50 -16.5h45v-70h-81q-48 0 -77.5 27t-29.5 86v84 q-54 -102 -157.5 -162t-239.5 -60zM426 49q99 0 187 41.5t142 117t54 165.5v237q-32 -30 -121 -47l-207 -43q-148 -32 -223.5 -89t-75.5 -163q0 -102 64 -160.5t180 -58.5z" />
<glyph unicode="&#xe6;" horiz-adv-x="1816" d="M1720 512h-78l-749 2v-8q3 -213 104 -334t279 -121q138 0 227.5 68.5t114.5 187.5h78q-30 -152 -141 -242t-281 -90q-150 0 -257.5 75t-158.5 214q-51 -142 -169.5 -215.5t-274.5 -73.5q-138 0 -225 73t-87 216q0 73 26 128.5t77.5 92.5t113 61t146.5 42l233 49 q68 13 90.5 36t22.5 75q0 128 -69 193t-218 65q-292 0 -305 -261h-80q5 151 100 242.5t285 91.5q313 0 359 -250q60 118 161.5 184t231.5 66q213 0 329.5 -144.5t116.5 -391.5q0 -23 -2 -31zM1276 1004q-162 0 -265 -115t-114 -301l745 -2q-8 192 -103 305t-263 113z M813 373v237q-7 -6 -17 -12t-18 -10t-22 -8l-21 -6t-23 -6l-20 -5l-203 -43q-152 -32 -227.5 -87.5t-75.5 -164.5q0 -102 63.5 -160.5t176.5 -58.5q101 0 189.5 41.5t143 117t54.5 165.5z" />
<glyph unicode="&#xe7;" horiz-adv-x="1081" d="M985 317q-20 -149 -118 -238.5t-251 -101.5l-67 -79l4 -2q27 12 72 12q71 0 112 -33t41 -96q0 -80 -57 -122t-148 -42q-112 3 -178 57l25 49q62 -49 149 -49q65 0 101.5 24.5t36.5 74.5q0 44 -29 65t-70 21q-67 0 -112 -25l-33 31l96 112q-212 3 -331 153t-119 388 q0 164 52.5 289.5t161.5 199.5t261 74q161 0 268 -91.5t127 -256.5h-80q-19 128 -102.5 200.5t-214.5 72.5q-83 0 -150 -26.5t-112 -72.5t-75 -108.5t-43.5 -132.5t-13.5 -148q0 -98 24.5 -182t71 -147.5t119.5 -99.5t164 -36q140 0 230.5 70t107.5 196h80z" />
<glyph unicode="&#xe8;" horiz-adv-x="1112" d="M618 1174h-57l-217 294h98zM938 512l-750 2v-8q2 -213 103.5 -334t279.5 -121q136 0 225.5 68.5t114.5 187.5h80q-30 -152 -141 -242t-281 -90q-214 0 -337 146t-123 401q0 244 128 400.5t332 156.5q213 0 330 -144.5t117 -391.5v-31h-78zM569 1004q-160 0 -265 -116.5 t-116 -301.5h748q-8 192 -103.5 305t-263.5 113z" />
<glyph unicode="&#xe9;" horiz-adv-x="1112" d="M745 1468l-217 -294h-57l176 294h98zM938 512l-750 2v-8q2 -213 103.5 -334t279.5 -121q136 0 225.5 68.5t114.5 187.5h80q-30 -152 -141 -242t-281 -90q-214 0 -337 146t-123 401q0 244 128 400.5t332 156.5q213 0 330 -144.5t117 -391.5v-31h-78zM569 1004 q-160 0 -265 -116.5t-116 -301.5h748q-8 192 -103.5 305t-263.5 113z" />
<glyph unicode="&#xea;" horiz-adv-x="1112" d="M559 1407l-184 -233h-66l221 294h66l219 -294h-70zM938 512l-750 2v-8q2 -213 103.5 -334t279.5 -121q136 0 225.5 68.5t114.5 187.5h80q-30 -152 -141 -242t-281 -90q-214 0 -337 146t-123 401q0 244 128 400.5t332 156.5q213 0 330 -144.5t117 -391.5v-31h-78z M569 1004q-160 0 -265 -116.5t-116 -301.5h748q-8 192 -103.5 305t-263.5 113z" />
<glyph unicode="&#xeb;" horiz-adv-x="1112" d="M401 1292q-26 0 -45.5 20t-19.5 48q0 27 19 46t46 19q29 0 48.5 -18.5t19.5 -46.5t-19.5 -48t-48.5 -20zM723 1292q-26 0 -46 20t-20 48q0 27 19.5 46t46.5 19q28 0 48 -19t20 -46q0 -28 -20 -48t-48 -20zM938 512l-750 2v-8q2 -213 103.5 -334t279.5 -121 q136 0 225.5 68.5t114.5 187.5h80q-30 -152 -141 -242t-281 -90q-214 0 -337 146t-123 401q0 244 128 400.5t332 156.5q213 0 330 -144.5t117 -391.5v-31h-78zM569 1004q-160 0 -265 -116.5t-116 -301.5h748q-8 192 -103.5 305t-263.5 113z" />
<glyph unicode="&#xec;" horiz-adv-x="428" d="M268 1174h-57l-217 294h98zM174 0v1055h78v-1055h-78z" />
<glyph unicode="&#xed;" horiz-adv-x="428" d="M121 1174l176 294h98l-217 -294h-57zM174 0v1055h78v-1055h-78z" />
<glyph unicode="&#xee;" horiz-adv-x="428" d="M-41 1174l221 294h66l219 -294h-70l-186 233l-184 -233h-66zM174 0v1055h78v-1055h-78z" />
<glyph unicode="&#xef;" horiz-adv-x="428" d="M53 1292q-26 0 -45.5 20t-19.5 48q0 27 19 46t46 19q29 0 48.5 -18.5t19.5 -46.5t-19.5 -48t-48.5 -20zM375 1292q-26 0 -46 20t-20 48q0 27 19.5 46t46.5 19q28 0 47.5 -18.5t19.5 -46.5t-19.5 -48t-47.5 -20zM174 0v1055h78v-1055h-78z" />
<glyph unicode="&#xf0;" horiz-adv-x="1161" d="M1051 498v-4q-1 -146 -57 -263t-164.5 -186.5t-251.5 -69.5q-142 0 -250.5 69.5t-165 188t-56.5 267.5q0 147 56.5 265t165 187.5t250.5 69.5q180 0 307 -111q-62 117 -141 215t-148 158l-234 -135l-28 51l217 125q-81 67 -162 111l39 57q108 -60 193 -131l235 135 l31 -51l-219 -127q192 -192 284.5 -384.5t98.5 -414.5v-20v-2zM578 47q181 0 288 127t107 326q0 195 -107.5 322.5t-287.5 127.5q-178 0 -286 -127.5t-108 -322.5q0 -198 107.5 -325.5t286.5 -127.5z" />
<glyph unicode="&#xf1;" horiz-adv-x="1130" d="M293 1255q3 73 41.5 121.5t101.5 48.5q42 0 88.5 -25t89 -50t76.5 -25q38 0 60.5 22t29.5 74h62q-15 -164 -144 -164q-35 0 -71.5 16t-62 35.5t-59 35.5t-63.5 16q-40 0 -62 -31.5t-24 -73.5h-63zM174 0v1055h78v-217q41 113 129.5 177t202.5 64q189 0 287 -112.5 t98 -315.5v-651h-78v637q0 175 -80.5 272t-230.5 97q-139 0 -233.5 -112.5t-94.5 -268.5v-625h-78z" />
<glyph unicode="&#xf2;" horiz-adv-x="1159" d="M633 1174h-58l-217 294h99zM578 -25q-140 0 -248 72.5t-166 197.5t-58 281q0 154 58 279.5t166.5 199.5t247.5 74q141 0 250 -73.5t166 -198.5t57 -281q0 -155 -57 -279.5t-165.5 -198t-250.5 -73.5zM578 49q179 0 287 134t108 343q0 207 -108.5 342.5t-286.5 135.5 q-176 0 -285 -136t-109 -342q0 -208 109 -342.5t285 -134.5z" />
<glyph unicode="&#xf3;" horiz-adv-x="1159" d="M485 1174l177 294h98l-217 -294h-58zM578 -25q-140 0 -248 72.5t-166 197.5t-58 281q0 154 58 279.5t166.5 199.5t247.5 74q141 0 250 -73.5t166 -198.5t57 -281q0 -155 -57 -279.5t-165.5 -198t-250.5 -73.5zM578 49q179 0 287 134t108 343q0 207 -108.5 342.5 t-286.5 135.5q-176 0 -285 -136t-109 -342q0 -208 109 -342.5t285 -134.5z" />
<glyph unicode="&#xf4;" horiz-adv-x="1159" d="M326 1174l221 294h65l219 -294h-69l-187 233l-184 -233h-65zM578 -25q-140 0 -248 72.5t-166 197.5t-58 281q0 154 58 279.5t166.5 199.5t247.5 74q141 0 250 -73.5t166 -198.5t57 -281q0 -155 -57 -279.5t-165.5 -198t-250.5 -73.5zM578 49q179 0 287 134t108 343 q0 207 -108.5 342.5t-286.5 135.5q-176 0 -285 -136t-109 -342q0 -208 109 -342.5t285 -134.5z" />
<glyph unicode="&#xf5;" horiz-adv-x="1159" d="M303 1255q3 73 41.5 121.5t101.5 48.5q42 0 88.5 -25t89 -50t76.5 -25q39 0 61.5 22t29.5 74h61q-15 -164 -143 -164q-35 0 -71.5 16t-62 35.5t-59 35.5t-63.5 16q-40 0 -62 -31.5t-24 -73.5h-64zM578 -25q-140 0 -248 72.5t-166 197.5t-58 281q0 154 58 279.5 t166.5 199.5t247.5 74q141 0 250 -73.5t166 -198.5t57 -281q0 -155 -57 -279.5t-165.5 -198t-250.5 -73.5zM578 49q179 0 287 134t108 343q0 207 -108.5 342.5t-286.5 135.5q-176 0 -285 -136t-109 -342q0 -208 109 -342.5t285 -134.5z" />
<glyph unicode="&#xf6;" horiz-adv-x="1159" d="M418 1292q-26 0 -46 20t-20 48q0 27 19.5 46t46.5 19q29 0 48 -18.5t19 -46.5t-19 -48t-48 -20zM739 1292q-26 0 -45.5 20t-19.5 48q0 27 19 46t46 19q28 0 48 -19t20 -46q0 -28 -20 -48t-48 -20zM578 -25q-140 0 -248 72.5t-166 197.5t-58 281q0 154 58 279.5 t166.5 199.5t247.5 74q141 0 250 -73.5t166 -198.5t57 -281q0 -155 -57 -279.5t-165.5 -198t-250.5 -73.5zM578 49q179 0 287 134t108 343q0 207 -108.5 342.5t-286.5 135.5q-176 0 -285 -136t-109 -342q0 -208 109 -342.5t285 -134.5z" />
<glyph unicode="&#xf7;" horiz-adv-x="1284" d="M641 887q-43 0 -67.5 27.5t-24.5 70.5q0 41 26.5 68.5t65.5 27.5q38 0 66 -28t28 -68q0 -43 -23.5 -70.5t-70.5 -27.5zM152 518v68h981v-68h-981zM641 20q-43 0 -67.5 28.5t-24.5 70.5q0 41 26.5 68.5t65.5 27.5q38 0 66 -28t28 -68q0 -43 -23.5 -71t-70.5 -28z" />
<glyph unicode="&#xf8;" horiz-adv-x="1169" d="M1073 1006l-117 -123q101 -147 101 -357q0 -155 -57 -279.5t-165.5 -198t-250.5 -73.5q-203 0 -336 152l-111 -117l-39 37l115 123q-100 149 -100 356q0 154 57.5 279.5t166 199.5t247.5 74q206 0 342 -155l110 118zM190 526q0 -172 78 -299l602 639q-109 138 -286 138 q-176 0 -285 -136t-109 -342zM979 526q0 175 -78 297l-602 -641q111 -133 285 -133q179 0 287 134t108 343z" />
<glyph unicode="&#xf9;" horiz-adv-x="1126" d="M616 1174h-57l-217 294h98zM524 -25q-166 0 -263 101t-97 286v693h78l-2 -678q0 -165 83 -245.5t214 -80.5q162 0 248.5 92t86.5 256v656h78v-1055h-76v160q-40 -84 -131 -134.5t-219 -50.5z" />
<glyph unicode="&#xfa;" horiz-adv-x="1126" d="M469 1174l176 294h98l-217 -294h-57zM524 -25q-166 0 -263 101t-97 286v693h78l-2 -678q0 -165 83 -245.5t214 -80.5q162 0 248.5 92t86.5 256v656h78v-1055h-76v160q-40 -84 -131 -134.5t-219 -50.5z" />
<glyph unicode="&#xfb;" horiz-adv-x="1126" d="M307 1174l221 294h66l219 -294h-70l-186 233l-184 -233h-66zM524 -25q-166 0 -263 101t-97 286v693h78l-2 -678q0 -165 83 -245.5t214 -80.5q162 0 248.5 92t86.5 256v656h78v-1055h-76v160q-40 -84 -131 -134.5t-219 -50.5z" />
<glyph unicode="&#xfc;" horiz-adv-x="1126" d="M399 1292q-26 0 -45.5 20t-19.5 48q0 27 19 46t46 19q29 0 48.5 -18.5t19.5 -46.5t-19.5 -48t-48.5 -20zM721 1292q-26 0 -46 20t-20 48q0 27 19.5 46t46.5 19q28 0 47.5 -18.5t19.5 -46.5t-19.5 -48t-47.5 -20zM524 -25q-166 0 -263 101t-97 286v693h78l-2 -678 q0 -165 83 -245.5t214 -80.5q162 0 248.5 92t86.5 256v656h78v-1055h-76v160q-40 -84 -131 -134.5t-219 -50.5z" />
<glyph unicode="&#xfd;" horiz-adv-x="997" d="M410 1174l176 294h98l-217 -294h-57zM123 -428v76h153q53 0 88 23.5t66 90.5q41 87 41 129q0 13 -4 28t-14.5 45.5t-14.5 41.5l-375 1049h89l200 -588l166 -471l156 481l182 578h84l-428 -1293q-35 -102 -90 -146t-143 -44h-156z" />
<glyph unicode="&#xfe;" horiz-adv-x="1189" d="M637 1079q135 0 236.5 -71t154.5 -195t53 -283q0 -245 -123.5 -400t-324.5 -155q-133 0 -231 62t-150 182v-645h-78v1894h76v-655q54 127 155 196.5t232 69.5zM631 49q166 0 268 134t102 345q0 209 -100 342.5t-268 133.5q-169 0 -276 -132.5t-107 -343.5 q0 -229 104 -354t277 -125z" />
<glyph unicode="&#xff;" horiz-adv-x="997" d="M342 1292q-26 0 -46 20t-20 48q0 27 19.5 46t46.5 19q29 0 48.5 -18.5t19.5 -46.5t-19.5 -48t-48.5 -20zM664 1292q-26 0 -46 20t-20 48q0 27 19.5 46t46.5 19q28 0 47.5 -18.5t19.5 -46.5t-19.5 -48t-47.5 -20zM123 -428v76h153q53 0 88 23.5t66 90.5q41 87 41 129 q0 13 -4 28t-14.5 45.5t-14.5 41.5l-375 1049h89l200 -588l166 -471l156 481l182 578h84l-428 -1293q-35 -102 -90 -146t-143 -44h-156z" />
<glyph unicode="&#x131;" horiz-adv-x="428" d="M174 0v1055h78v-1055h-78z" />
<glyph unicode="&#x13f;" horiz-adv-x="1132" d="M219 0v1464h82v-1384h791v-80h-873zM834 700q-34 0 -57 22.5t-23 57.5t23 58.5t57 23.5q32 0 54.5 -23.5t22.5 -58.5q0 -34 -22.5 -57t-54.5 -23z" />
<glyph unicode="&#x140;" horiz-adv-x="485" d="M317 0q-147 0 -147 141v1327h78v-1316q0 -82 84 -82h57v-70h-72zM449 690q-34 0 -57 22.5t-23 57.5t23 58.5t57 23.5q32 0 54.5 -23.5t22.5 -58.5q0 -34 -22.5 -57t-54.5 -23z" />
<glyph unicode="&#x141;" horiz-adv-x="1155" d="M324 80h790v-80h-872v649l-197 -145v76l197 145v739h82v-678l239 179v-76l-239 -178v-631z" />
<glyph unicode="&#x142;" horiz-adv-x="528" d="M446 879l-147 -129v-598q0 -82 84 -82h57v-70h-71q-148 0 -148 141v539l-133 -117v76l133 117v712h78v-643l147 129v-75z" />
<glyph unicode="&#x152;" horiz-adv-x="2201" d="M791 -35q-127 0 -236 39.5t-189 109.5t-136.5 165.5t-84.5 208.5t-28 237q0 125 27.5 239t83.5 211.5t135.5 169t189 112t238.5 40.5q254 0 403 -162v129h903v-78h-821v-589h733v-78h-733v-643h823v-76h-905v127q-165 -162 -403 -162zM791 45q114 0 221 52t182 155v960 q-86 107 -178.5 156t-224.5 49q-269 0 -428 -190t-162 -502q2 -196 71.5 -349t204 -242t314.5 -89z" />
<glyph unicode="&#x153;" horiz-adv-x="1912" d="M557 -25q-112 0 -199.5 45.5t-141 123t-80.5 175t-27 207.5q0 86 16 165.5t51.5 150.5t86.5 123.5t126.5 83t167.5 30.5q157 0 264.5 -87.5t145.5 -235.5q40 148 141.5 234t267.5 89q109 1 195 -40.5t139 -115t80 -168t27 -204.5q0 -31 -2 -45h-809q2 -222 95 -338.5 t275 -116.5q151 0 236 81t110 214h76q-30 -173 -138.5 -272t-283.5 -99q-164 0 -270 82t-143 230q-43 -148 -145 -230t-261 -82zM557 49q79 0 142 25t105.5 68.5t70.5 104.5t40.5 130t12.5 149q0 99 -21 182.5t-64 151t-116.5 106t-169.5 38.5q-94 0 -167 -39t-116.5 -106 t-65.5 -151.5t-22 -181.5q0 -95 22 -178.5t65.5 -151.5t116.5 -107.5t167 -39.5zM1008 578h729q-3 89 -25.5 164.5t-64.5 135t-111.5 93t-159.5 33.5q-180 0 -269 -114.5t-99 -311.5z" />
<glyph unicode="&#x160;" horiz-adv-x="1267" d="M606 1589l-223 264h72l188 -204l188 204h64l-221 -264h-68zM645 -35q-252 0 -397.5 123.5t-141.5 370.5h80q0 -214 121.5 -316t337.5 -102q91 0 166.5 18.5t134.5 56.5t92 100.5t33 145.5q0 55 -17.5 101t-49 79t-71 59t-88 45t-96 34t-98.5 29q-11 3 -16 4 q-60 17 -106 31.5t-98.5 36t-90.5 44t-75 53.5t-60 66t-37 80.5t-14 97.5q0 94 39 167.5t105.5 118t149 67t175.5 22.5q79 0 150 -14.5t135.5 -48.5t111.5 -84.5t76 -127.5t32 -173h-79q-4 100 -40 174t-96 116t-132.5 62t-157.5 20q-78 0 -146 -17t-124 -51t-88 -91.5 t-32 -133.5q0 -42 12.5 -78t31.5 -63.5t53 -53.5t65.5 -43.5t82 -37.5t88.5 -32.5t98 -31.5q197 -58 276 -98q161 -80 200 -217q13 -49 13 -106q0 -100 -40 -178t-110.5 -126t-161.5 -73t-196 -25z" />
<glyph unicode="&#x161;" horiz-adv-x="978" d="M457 1174l-221 292h69l187 -237l186 237h63l-217 -292h-67zM489 -25q-185 0 -291 84.5t-106 249.5h80q1 -125 86.5 -193.5t230.5 -68.5q87 0 153.5 21t109.5 70t43 122q0 79 -47 126.5t-158 84.5l-189 59q-38 13 -57 20t-52.5 22t-51 27.5t-41 34t-35.5 44.5t-20.5 56 t-8.5 71q0 123 93.5 198.5t258.5 75.5q174 0 273.5 -81.5t99.5 -252.5h-78q-1 134 -80.5 198.5t-214.5 64.5q-76 0 -132 -18t-85.5 -48.5t-43 -63.5t-13.5 -69q0 -35 9.5 -62.5t25 -47t43.5 -37t58 -29.5t75 -27l197 -65q136 -45 193.5 -106.5t57.5 -166.5q0 -76 -31 -134 t-85.5 -92t-121.5 -50.5t-145 -16.5z" />
<glyph unicode="&#x178;" horiz-adv-x="1306" d="M469 1649q-27 0 -46.5 19.5t-19.5 47.5q0 27 19.5 46.5t46.5 19.5q29 0 48.5 -19t19.5 -47t-19.5 -47.5t-48.5 -19.5zM840 1649q-26 0 -46 19.5t-20 47.5q0 27 19.5 46.5t46.5 19.5q28 0 47.5 -19t19.5 -47t-19.5 -47.5t-47.5 -19.5zM612 0v608l-557 854h99l501 -774 l502 774h94l-557 -854v-608h-82z" />
<glyph unicode="&#x17d;" horiz-adv-x="1183" d="M561 1589l-223 264h72l188 -204l188 204h64l-221 -264h-68zM57 0v88l750 1034q115 157 199 262h-902v78h992v-88l-766 -1055q-100 -139 -183 -241h969v-78h-1059z" />
<glyph unicode="&#x17e;" horiz-adv-x="970" d="M442 1174l-221 292h70l186 -237l187 237h63l-217 -292h-68zM70 0v72l708 913h-682v70h774v-72l-712 -913h747v-70h-835z" />
<glyph unicode="&#x192;" horiz-adv-x="927" d="M-94 -324v72h135q87 0 132.5 53t64.5 154l157 858h-223l14 70h224l65 344q23 125 91 180t190 55h127v-71h-127q-89 0 -136 -42t-67 -145l-61 -321h239l-12 -70h-240l-160 -864q-48 -273 -270 -273h-143z" />
<glyph unicode="&#x2c6;" horiz-adv-x="546" d="M20 1174l222 294h65l219 -294h-69l-187 233l-184 -233h-66z" />
<glyph unicode="&#x2c7;" horiz-adv-x="546" d="M242 1174l-222 292h70l186 -237l187 237h63l-217 -292h-67z" />
<glyph unicode="&#x2c9;" horiz-adv-x="360" d="M-68 1305v57h496v-57h-496z" />
<glyph unicode="&#x2d8;" horiz-adv-x="546" d="M266 1227q-103 0 -169.5 62t-76.5 173h58q10 -88 60 -133t128 -45q86 0 141 45t64 133h55q-10 -111 -80.5 -173t-179.5 -62z" />
<glyph unicode="&#x2d9;" horiz-adv-x="190" d="M94 1292q-31 0 -52.5 22.5t-21.5 53.5q0 30 22 52t52 22t52 -22t22 -52q0 -31 -21.5 -53.5t-52.5 -22.5z" />
<glyph unicode="&#x2da;" horiz-adv-x="409" d="M211 1139q-80 0 -132 53t-52 135t52.5 136.5t131.5 54.5q80 0 133 -54.5t53 -136.5q0 -81 -53 -134.5t-133 -53.5zM211 1194q54 0 89.5 38t35.5 95q0 58 -35.5 96.5t-89.5 38.5t-89.5 -38.5t-35.5 -96.5q0 -57 35.5 -95t89.5 -38z" />
<glyph unicode="&#x2db;" horiz-adv-x="397" d="M182 -397q-74 0 -118 37t-44 98q0 76 63.5 143.5t152.5 118.5h55q-107 -79 -151 -135.5t-44 -112.5q0 -41 27.5 -66.5t73.5 -25.5q91 0 139 61l41 -26q-80 -92 -195 -92z" />
<glyph unicode="&#x2dc;" horiz-adv-x="587" d="M18 1255q3 73 42 121.5t102 48.5q42 0 88.5 -25t89 -50t76.5 -25q38 0 60.5 22t29.5 74h61q-15 -164 -143 -164q-35 0 -71.5 16t-62 35.5t-59 35.5t-63.5 16q-40 0 -62 -31.5t-24 -73.5h-64z" />
<glyph unicode="&#x2dd;" horiz-adv-x="636" d="M35 1174l172 294h96l-209 -294h-59zM328 1174l174 294h98l-215 -294h-57z" />
<glyph unicode="&#x300;" d="M0 1174h-57l-217 294h98z" />
<glyph unicode="&#x301;" d="M-348 1174l176 294h98l-217 -294h-57z" />
<glyph unicode="&#x302;" d="M-526 1174l221 294h65l220 -294h-70l-186 233l-185 -233h-65z" />
<glyph unicode="&#x303;" d="M-567 1255q3 73 41.5 121.5t101.5 48.5q42 0 88.5 -25t89 -50t76.5 -25q38 0 60.5 22t29.5 74h62q-15 -164 -144 -164q-35 0 -71.5 16t-62 35.5t-59 35.5t-63.5 16q-40 0 -62 -31.5t-24 -73.5h-63z" />
<glyph unicode="&#x304;" d="M-518 1305v57h498v-57h-498z" />
<glyph unicode="&#x306;" d="M-281 1227q-103 0 -169 62t-76 173h57q10 -88 60 -133t128 -45q86 0 141 45t64 133h56q-10 -111 -81 -173t-180 -62z" />
<glyph unicode="&#x307;" d="M-225 1292q-31 0 -52.5 22.5t-21.5 53.5q0 30 22 52t52 22t51.5 -22t21.5 -52q0 -31 -21.5 -53.5t-51.5 -22.5z" />
<glyph unicode="&#x308;" d="M-410 1292q-26 0 -45.5 20t-19.5 48q0 27 19 46t46 19q29 0 48.5 -18.5t19.5 -46.5t-19.5 -48t-48.5 -20zM-88 1292q-26 0 -46 20t-20 48q0 27 19.5 46t46.5 19q28 0 48 -19t20 -46q0 -28 -20 -48t-48 -20z" />
<glyph unicode="&#x30a;" d="M-205 1139q-80 0 -132 53t-52 135t52.5 136.5t131.5 54.5q80 0 133.5 -54.5t53.5 -136.5q0 -81 -53.5 -134.5t-133.5 -53.5zM-205 1194q54 0 89.5 38t35.5 95q0 58 -35.5 96.5t-89.5 38.5t-89.5 -38.5t-35.5 -96.5q0 -57 35.5 -95t89.5 -38z" />
<glyph unicode="&#x30b;" d="M-602 1174l172 294h96l-209 -294h-59zM-309 1174l174 294h98l-215 -294h-57z" />
<glyph unicode="&#x30c;" d="M-305 1174l-221 292h69l187 -237l186 237h64l-218 -292h-67z" />
<glyph unicode="&#x326;" d="M-360 -446v51q39 8 63.5 37.5t24.5 72.5h-7q-36 0 -58.5 21.5t-22.5 56.5q0 36 22 58t55 22q84 0 84 -104q0 -92 -44.5 -150.5t-116.5 -64.5z" />
<glyph unicode="&#x327;" d="M-240 -385q-112 3 -178 57l25 49q62 -49 149 -49q65 0 101.5 24.5t36.5 74.5q0 44 -29 65t-70 21q-67 0 -112 -25l-33 31l117 137h55l-86 -102l4 -2q27 12 72 12q71 0 112 -33t41 -96q0 -80 -57 -122t-148 -42z" />
<glyph unicode="&#x328;" d="M-215 -397q-74 0 -118 37t-44 98q0 53 35.5 106t80 88.5t99.5 67.5h56q-107 -79 -151 -135.5t-44 -112.5q0 -41 27 -66.5t73 -25.5q92 0 140 61l41 -26q-80 -92 -195 -92z" />
<glyph unicode="&#x335;" d="M-582 1239v64h562v-64h-562z" />
<glyph unicode="&#x336;" d="M-1182 1069h1073v-57h-1073v57z" />
<glyph unicode="&#x337;" d="M-379 614v76l359 316v-76z" />
<glyph unicode="&#x338;" d="M-1016 0l-39 37l938 995l37 -37z" />
<glyph unicode="&#x394;" horiz-adv-x="1286" d="M57 0l553 1458h58l565 -1458h-1176zM158 70h970l-489 1273z" />
<glyph unicode="&#x3a9;" horiz-adv-x="1433" d="M123 0v70h379v202q-183 58 -281 216t-98 364q0 129 46.5 245t125.5 199t189.5 132t232.5 49q166 0 302.5 -82.5t214 -225.5t77.5 -317q0 -209 -96 -363t-281 -217v-202h377v-70h-439v328q174 40 268.5 183t94.5 341q0 148 -67 275t-186.5 202.5t-264.5 75.5 q-143 0 -262.5 -75.5t-186.5 -202.5t-67 -275q0 -198 96.5 -345.5t269.5 -178.5v-328h-444z" />
<glyph unicode="&#x3bc;" horiz-adv-x="1136" d="M174 -362v1417h78v-678q0 -85 23.5 -149t65 -102t93.5 -56.5t113 -18.5q167 0 252.5 94.5t85.5 253.5v656h78v-1055h-76v160q-38 -79 -127.5 -132t-214.5 -53q-215 0 -291 164v-501h-80z" />
<glyph unicode="&#x3c0;" horiz-adv-x="1138" d="M930 -10q-43 0 -70.5 16.5t-39.5 49t-15.5 61.5t-3.5 73v680h-498v-870h-70v870h-165v68h970v-68h-168v-673q0 -24 0.5 -37.5t4.5 -36.5t11.5 -35.5t23.5 -22.5t38 -10q43 0 82 31v-66q-46 -30 -100 -30z" />
<glyph unicode="&#x2000;" horiz-adv-x="952" />
<glyph unicode="&#x2001;" horiz-adv-x="1905" />
<glyph unicode="&#x2002;" horiz-adv-x="952" />
<glyph unicode="&#x2003;" horiz-adv-x="1905" />
<glyph unicode="&#x2004;" horiz-adv-x="635" />
<glyph unicode="&#x2005;" horiz-adv-x="476" />
<glyph unicode="&#x2006;" horiz-adv-x="317" />
<glyph unicode="&#x2007;" horiz-adv-x="317" />
<glyph unicode="&#x2008;" horiz-adv-x="238" />
<glyph unicode="&#x2009;" horiz-adv-x="381" />
<glyph unicode="&#x200a;" horiz-adv-x="105" />
<glyph unicode="&#x2010;" horiz-adv-x="686" d="M152 514v72h383v-72h-383z" />
<glyph unicode="&#x2011;" horiz-adv-x="686" d="M152 514v72h383v-72h-383z" />
<glyph unicode="&#x2012;" horiz-adv-x="686" d="M152 514v72h383v-72h-383z" />
<glyph unicode="&#x2013;" horiz-adv-x="1275" d="M152 514v72h972v-72h-972z" />
<glyph unicode="&#x2014;" horiz-adv-x="1742" d="M152 514v72h1439v-72h-1439z" />
<glyph unicode="&#x2018;" horiz-adv-x="428" d="M215 1085q-86 0 -86 115q0 88 41 157t123 91v-55q-48 -15 -72.5 -58.5t-21.5 -99.5q4 2 14 2q32 0 54 -21t22 -57q0 -33 -21.5 -53.5t-52.5 -20.5z" />
<glyph unicode="&#x2019;" horiz-adv-x="425" d="M221 1448q86 0 86 -115q0 -88 -41 -157t-123 -91v56q48 15 73 58t22 99q-4 -2 -15 -2q-32 0 -54 21t-22 57q0 33 21.5 53.5t52.5 20.5z" />
<glyph unicode="&#x201a;" horiz-adv-x="458" d="M221 143q86 0 86 -114q0 -88 -41 -157t-123 -91v55q48 15 73 58.5t22 99.5q-4 -2 -15 -2q-32 0 -54 21t-22 57q0 33 21 53t53 20z" />
<glyph unicode="&#x201c;" horiz-adv-x="671" d="M215 1085q-86 0 -86 115q0 88 41 157t123 91v-55q-48 -15 -72.5 -58.5t-21.5 -99.5q4 2 14 2q32 0 54 -21t22 -57q0 -33 -21.5 -53.5t-52.5 -20.5zM459 1085q-86 0 -86 115q0 88 41 157t123 91v-55q-48 -15 -73 -58.5t-22 -99.5q4 2 15 2q32 0 53.5 -21t21.5 -57 q0 -33 -21 -53.5t-52 -20.5z" />
<glyph unicode="&#x201d;" horiz-adv-x="671" d="M221 1448q86 0 86 -115q0 -88 -41 -157t-123 -91v56q48 15 73 58t22 99q-4 -2 -15 -2q-32 0 -54 21t-22 57q0 33 21.5 53.5t52.5 20.5zM465 1448q86 0 86 -115q0 -88 -41 -157t-123 -91v56q48 15 72.5 58t21.5 99q-4 -2 -14 -2q-32 0 -54 21t-22 57q0 33 21.5 53.5 t52.5 20.5z" />
<glyph unicode="&#x201e;" horiz-adv-x="710" d="M221 143q86 0 86 -114q0 -88 -41 -157t-123 -91v55q48 15 73 58.5t22 99.5q-4 -2 -15 -2q-32 0 -54 21t-22 57q0 33 21 53t53 20zM475 143q86 0 86 -114q0 -88 -41 -157t-123 -91v55q48 15 73 58.5t22 99.5q-4 -2 -15 -2q-32 0 -54 21t-22 57q0 33 21 53t53 20z" />
<glyph unicode="&#x2020;" horiz-adv-x="1142" d="M532 -295v1204h-397v70h397v483h76v-483h400v-70h-400v-1204h-76z" />
<glyph unicode="&#x2021;" horiz-adv-x="1142" d="M532 -295v404h-397v69h397v811h-397v70h397v403h76v-403h400v-70h-400v-811h400v-69h-400v-404h-76z" />
<glyph unicode="&#x2022;" horiz-adv-x="913" d="M457 319q-120 0 -203.5 89t-83.5 215q0 127 83.5 215t203.5 88t204 -88t84 -215q0 -126 -84 -215t-204 -89z" />
<glyph unicode="&#x2026;" horiz-adv-x="1327" d="M217 -6q-32 0 -54 23t-22 57q0 32 21.5 52.5t54.5 20.5t55.5 -20.5t22.5 -52.5q0 -34 -23 -57t-55 -23zM670 -6q-32 0 -54 23t-22 57q0 32 21.5 52.5t54.5 20.5t55.5 -20.5t22.5 -52.5q0 -34 -23 -57t-55 -23zM1108 -6q-32 0 -54 23t-22 57q0 32 21.5 52.5t54.5 20.5 t55.5 -20.5t22.5 -52.5q0 -34 -23 -57t-55 -23z" />
<glyph unicode="&#x202f;" horiz-adv-x="381" />
<glyph unicode="&#x2030;" horiz-adv-x="2385" d="M322 -68l858 1534h67l-856 -1534h-69zM420 719q-106 0 -186 50.5t-120 130t-40 173.5q0 151 97 255t249 104q156 0 252 -103t96 -256q0 -146 -97 -250t-251 -104zM420 786q125 0 202.5 85t77.5 202q0 127 -75 209t-205 82q-129 0 -204 -83.5t-75 -207.5q0 -119 76.5 -203 t202.5 -84zM1174 -12q-156 0 -250.5 105t-94.5 249q0 151 97 255.5t248 104.5q156 0 253 -103.5t97 -254.5q0 -146 -98 -251t-252 -105zM1968 -12q-157 0 -251.5 105t-94.5 249q0 151 97 255.5t249 104.5q156 0 252 -103t96 -255q0 -146 -97 -251t-251 -105zM1174 57 q126 0 204 84t78 201q0 127 -75.5 210t-206.5 83q-127 0 -202 -84.5t-75 -208.5q0 -119 75.5 -202t201.5 -83zM1968 57q125 0 203 84t78 201q0 127 -75.5 210t-205.5 83q-129 0 -203.5 -84.5t-74.5 -208.5q0 -119 76 -202t202 -83z" />
<glyph unicode="&#x2039;" horiz-adv-x="491" d="M328 256l-213 260v70l213 258v-92l-156 -201l156 -203v-92z" />
<glyph unicode="&#x203a;" horiz-adv-x="491" d="M162 256v92l157 203l-157 201v92l215 -258v-70z" />
<glyph unicode="&#x2044;" horiz-adv-x="983" d="M2 -66l907 1530h72l-907 -1530h-72z" />
<glyph unicode="&#x205f;" horiz-adv-x="476" />
<glyph unicode="&#x20ac;" horiz-adv-x="1249" d="M692 -33q-193 0 -321 164t-148 442h-129v58h125q-2 35 -2 98q0 59 2 88h-125v57h129q18 180 76 314t160.5 212.5t238.5 78.5q181 0 293 -109.5t135 -335.5h-75q-25 190 -118 280.5t-237 90.5q-85 0 -154 -39.5t-116 -112t-76.5 -168t-40.5 -211.5h600v-57h-602 q-2 -29 -2 -88q0 -65 4 -98h600v-58h-598q19 -241 123 -385.5t258 -144.5q320 0 361 406h77q-23 -242 -138 -362t-300 -120z" />
<glyph unicode="&#x2122;" horiz-adv-x="1847" d="M350 618v781h-282v61h632v-61h-280v-781h-70zM870 618v842h82l318 -471l317 471h78v-842h-66v740l-303 -445h-57l-299 445v-740h-70z" />
<glyph unicode="&#x2212;" horiz-adv-x="1292" d="M160 518v68h973v-68h-973z" />
<glyph unicode="&#x25fc;" horiz-adv-x="1054" d="M0 1055h1055v-1055h-1055v1055z" />
<glyph unicode="&#xf004;" horiz-adv-x="542" d="M184 -446v51q38 8 62.5 37t25.5 71h-8q-36 0 -59 22t-23 58t23 58t57 22q39 0 61.5 -25t22.5 -75q0 -101 -44.5 -157t-117.5 -62z" />
<glyph unicode="&#xf6be;" horiz-adv-x="444" d="M-59 -428v76h106q79 0 111 29.5t32 121.5v1256h78v-1272q0 -120 -53 -165.5t-158 -45.5h-116z" />
<glyph unicode="&#xf8ff;" horiz-adv-x="1830" d="M489 1468h762v-245h-503v-387q70 -25 156.5 -69.5t160.5 -86.5t154 -81.5t165.5 -64t165.5 -24.5q24 0 48 2t36 4l13 2q-2 -3 -5.5 -7t-19.5 -15.5t-36.5 -20t-57 -15.5t-80.5 -7q-153 0 -327 64t-373 167v-684h-259v791q-49 20 -106 20q-69 0 -114.5 -30t-45.5 -87 q0 -40 21 -72t55 -44q-54 3 -84.5 37.5t-30.5 91.5q0 82 68.5 133t189.5 51q29 0 47 -4v581z" />
<glyph horiz-adv-x="1193" d="M940 1055h78v-1055h-78v225q-54 -121 -153.5 -185.5t-233.5 -64.5q-139 0 -241 73.5t-152.5 196.5t-50.5 279q0 160 53.5 285t157.5 197.5t243 72.5q133 0 229 -64t148 -181v221zM555 49q177 0 282 130.5t105 348.5q0 208 -100 342t-277 134q-172 0 -273.5 -134.5 t-101.5 -345.5q0 -131 42.5 -238t126.5 -172t196 -65z" />
<glyph horiz-adv-x="1193" d="M768 1468l-217 -294h-57l176 294h98zM940 1055h78v-1055h-78v225q-54 -121 -153.5 -185.5t-233.5 -64.5q-139 0 -241 73.5t-152.5 196.5t-50.5 279q0 160 53.5 285t157.5 197.5t243 72.5q133 0 229 -64t148 -181v221zM555 49q177 0 282 130.5t105 348.5q0 208 -100 342 t-277 134q-172 0 -273.5 -134.5t-101.5 -345.5q0 -131 42.5 -238t126.5 -172t196 -65z" />
<glyph horiz-adv-x="1193" d="M582 1407l-185 -233h-65l221 294h65l220 -294h-70zM940 1055h78v-1055h-78v225q-54 -121 -153.5 -185.5t-233.5 -64.5q-139 0 -241 73.5t-152.5 196.5t-50.5 279q0 160 53.5 285t157.5 197.5t243 72.5q133 0 229 -64t148 -181v221zM555 49q177 0 282 130.5t105 348.5 q0 208 -100 342t-277 134q-172 0 -273.5 -134.5t-101.5 -345.5q0 -131 42.5 -238t126.5 -172t196 -65z" />
<glyph horiz-adv-x="1193" d="M426 1292q-26 0 -46 20t-20 48q0 27 19.5 46t46.5 19q29 0 48.5 -18.5t19.5 -46.5t-19.5 -48t-48.5 -20zM748 1292q-26 0 -46 20t-20 48q0 27 19.5 46t46.5 19q28 0 47.5 -18.5t19.5 -46.5t-19.5 -48t-47.5 -20zM940 1055h78v-1055h-78v225q-54 -121 -153.5 -185.5 t-233.5 -64.5q-139 0 -241 73.5t-152.5 196.5t-50.5 279q0 160 53.5 285t157.5 197.5t243 72.5q133 0 229 -64t148 -181v221zM555 49q177 0 282 130.5t105 348.5q0 208 -100 342t-277 134q-172 0 -273.5 -134.5t-101.5 -345.5q0 -131 42.5 -238t126.5 -172t196 -65z" />
<glyph horiz-adv-x="1193" d="M641 1174h-57l-217 294h98zM940 1055h78v-1055h-78v225q-54 -121 -153.5 -185.5t-233.5 -64.5q-139 0 -241 73.5t-152.5 196.5t-50.5 279q0 160 53.5 285t157.5 197.5t243 72.5q133 0 229 -64t148 -181v221zM555 49q177 0 282 130.5t105 348.5q0 208 -100 342t-277 134 q-172 0 -273.5 -134.5t-101.5 -345.5q0 -131 42.5 -238t126.5 -172t196 -65z" />
<glyph horiz-adv-x="1193" d="M586 1139q-80 0 -132.5 53t-52.5 135t53 136.5t132 54.5q80 0 133 -54.5t53 -136.5q0 -81 -53 -134.5t-133 -53.5zM586 1462q-54 0 -89.5 -38.5t-35.5 -96.5q0 -57 35.5 -95t89.5 -38t89.5 38t35.5 95q0 58 -35.5 96.5t-89.5 38.5zM940 1055h78v-1055h-78v225 q-54 -121 -153.5 -185.5t-233.5 -64.5q-139 0 -241 73.5t-152.5 196.5t-50.5 279q0 160 53.5 285t157.5 197.5t243 72.5q133 0 229 -64t148 -181v221zM555 49q177 0 282 130.5t105 348.5q0 208 -100 342t-277 134q-172 0 -273.5 -134.5t-101.5 -345.5q0 -131 42.5 -238 t126.5 -172t196 -65z" />
<glyph horiz-adv-x="1193" d="M461 1360q-40 0 -62 -31.5t-24 -73.5h-64q3 73 42 121.5t102 48.5q42 0 88.5 -25t89 -50t76.5 -25q38 0 60.5 22t29.5 74h61q-15 -164 -143 -164q-35 0 -71.5 16t-62 35.5t-59 35.5t-63.5 16zM940 1055h78v-1055h-78v225q-54 -121 -153.5 -185.5t-233.5 -64.5 q-139 0 -241 73.5t-152.5 196.5t-50.5 279q0 160 53.5 285t157.5 197.5t243 72.5q133 0 229 -64t148 -181v221zM555 49q177 0 282 130.5t105 348.5q0 208 -100 342t-277 134q-172 0 -273.5 -134.5t-101.5 -345.5q0 -131 42.5 -238t126.5 -172t196 -65z" />
<glyph horiz-adv-x="1204" d="M1053 1055h82v-72h-56q-32 0 -48.5 -13.5t-16.5 -49.5v-904q0 -228 -88 -336t-291 -108h-391v76h372q167 0 243.5 85.5t76.5 274.5v213q-54 -116 -150 -181t-229 -65q-111 0 -198 43t-141 118.5t-81.5 174.5t-27.5 215q0 155 49.5 278t153 199t247.5 76q137 0 232.5 -65 t146.5 -183v113q0 55 30.5 83t84.5 28zM565 49q116 0 201.5 63.5t128.5 171t43 242.5q0 134 -39.5 240t-124.5 172t-205 66q-124 0 -212.5 -66t-129.5 -172t-41 -240q0 -136 40 -241.5t127 -170.5t212 -65z" />
<glyph horiz-adv-x="987" d="M981 0h-102l-435 526l-192 -2v-524h-78v1462h78v-862h188l387 455h99l-416 -484z" />
<glyph horiz-adv-x="612" d="M264 0v981h-229v74h229v323h78v-323h248v-74h-248v-981h-78z" />
<glyph horiz-adv-x="1013" d="M223 -428v76h139q74 0 102 28.5t28 108.5v176l-435 1094h84l394 -1006l344 1006h82l-390 -1100v-211q0 -93 -44.5 -132.5t-139.5 -39.5h-164z" />
<glyph horiz-adv-x="1013" d="M434 1174l176 294h99l-217 -294h-58zM223 -428v76h139q74 0 102 28.5t28 108.5v176l-435 1094h84l394 -1006l344 1006h82l-390 -1100v-211q0 -93 -44.5 -132.5t-139.5 -39.5h-164z" />
<glyph horiz-adv-x="1013" d="M365 1292q-26 0 -46 20t-20 48q0 27 19.5 46t46.5 19q29 0 48 -18.5t19 -46.5t-19 -48t-48 -20zM686 1292q-26 0 -45.5 20t-19.5 48q0 27 19 46t46 19q28 0 48 -19t20 -46q0 -28 -20 -48t-48 -20zM223 -428v76h139q74 0 102 28.5t28 108.5v176l-435 1094h84l394 -1006 l344 1006h82l-390 -1100v-211q0 -93 -44.5 -132.5t-139.5 -39.5h-164z" />
<glyph horiz-adv-x="1257" d="M627 -18q-102 0 -186.5 29.5t-144 81t-101 122.5t-61 153.5t-19.5 174.5q0 112 32 211.5t93 178.5t161 125t226 46q127 0 228 -46t163 -125t94.5 -178.5t32.5 -211.5q0 -92 -20 -174.5t-62 -153.5t-102.5 -122.5t-146 -81t-187.5 -29.5zM627 51q79 0 144.5 20t112 56 t81.5 83t55.5 103t30.5 113t10 117q0 71 -13.5 137.5t-46 131.5t-81 113t-124 77.5t-169.5 29.5q-92 0 -166.5 -29.5t-123 -77.5t-81 -113t-46 -131.5t-13.5 -137.5q0 -72 13.5 -140t46 -133t81 -113t123 -77t166.5 -29z" />
<glyph horiz-adv-x="653" d="M387 0v938q-63 -42 -151.5 -77t-178.5 -52v68q128 22 202 65t138 133h68v-1075h-78z" />
<glyph horiz-adv-x="1073" d="M104 0q-1 70 27.5 132.5t86 116.5t123 97.5t155.5 89.5q56 28 85 43.5t72.5 41t65.5 43.5t50 45t41 53t22.5 59.5t9.5 71.5q0 115 -83.5 176t-228.5 61q-167 0 -249 -80t-82 -213h-80q2 174 110 270.5t303 96.5q179 0 286.5 -80.5t107.5 -230.5q0 -53 -13 -98.5 t-41 -83.5t-59 -68.5t-81 -61.5t-91.5 -54t-104.5 -56l-12 -6q-139 -70 -227 -144.5t-94 -146.5h786v-74h-885z" />
<glyph horiz-adv-x="1175" d="M580 -348q-229 0 -360.5 120.5t-121.5 338.5h80q-9 -184 100 -285.5t302 -101.5q83 0 154.5 21.5t127 63.5t87.5 108.5t32 150.5q0 154 -104 235.5t-285 81.5h-88v68h92q72 0 134 17t112.5 51.5t78.5 93.5t27 137q-1 57 -21 104t-53.5 79t-79 54.5t-96 32.5t-106.5 10 q-85 0 -153.5 -21t-121.5 -63.5t-81 -115t-27 -168.5h-80q-3 213 121 326.5t342 113.5q91 0 169 -21.5t139 -63.5t95.5 -110t34.5 -155q0 -133 -69.5 -217.5t-186.5 -106.5l-16 -4l14 -2q133 -21 213 -112.5t80 -237.5q0 -102 -38 -183.5t-105 -133t-154 -78.5t-188 -27z " />
<glyph horiz-adv-x="1153" d="M797 -354v354h-748v82l742 991h83v-1001h230v-72h-230v-354h-77zM129 72h668v891h-4z" />
<glyph horiz-adv-x="1110" d="M553 -346q-213 0 -340 124.5t-121 334.5h80q-4 -177 100 -282t281 -105q179 0 283 111.5t104 299.5q0 182 -105 291t-280 109q-110 0 -199 -45.5t-145 -129.5h-80l105 715h720v-73h-659l-80 -549q53 67 143 110t201 43q205 0 331 -127.5t126 -343.5q0 -217 -128 -350 t-337 -133z" />
<glyph horiz-adv-x="1183" d="M604 -25q-102 0 -187.5 37.5t-151.5 112t-103 197t-37 282.5q0 819 502 819q176 0 284 -90.5t127 -251.5h-80q-22 129 -107.5 200t-223.5 71q-214 0 -316 -178.5t-108 -550.5v-15l4 13q32 131 142 219t263 88q201 0 331 -127t130 -344q0 -218 -131 -350t-338 -132z M604 47q176 0 283.5 113t107.5 295q0 184 -106 292.5t-285 108.5q-168 0 -273.5 -117.5t-105.5 -289.5q0 -173 108.5 -287.5t270.5 -114.5z" />
<glyph horiz-adv-x="960" d="M258 -322q0 355 157.5 693.5t430.5 632.5h-809v73h895v-84q-180 -188 -309 -389.5t-206.5 -441.5t-78.5 -484h-80z" />
<glyph horiz-adv-x="1161" d="M582 -25q-136 0 -240 45t-166.5 140t-62.5 229q0 145 78.5 243.5t220.5 135.5q-105 28 -169.5 110t-64.5 197q0 86 31.5 153.5t86.5 109.5t127.5 63.5t158.5 21.5q177 0 288 -89t111 -259q0 -117 -63.5 -197.5t-167.5 -109.5q144 -34 221.5 -133t77.5 -246 q0 -133 -64 -228.5t-168 -140.5t-235 -45zM582 803q61 0 117 16t102.5 47.5t74 85t27.5 121.5q0 73 -26 127.5t-71.5 86.5t-101.5 47.5t-122 15.5q-140 0 -232 -68t-92 -209q0 -69 28 -122t74.5 -84.5t103 -47.5t118.5 -16zM582 49q80 0 148.5 20.5t122 61t84 107 t30.5 153.5q0 86 -30.5 151.5t-84.5 105t-122 59.5t-148 20t-148.5 -20t-122.5 -59.5t-85 -105t-31 -151.5q0 -87 30.5 -153.5t84 -107t122.5 -61t150 -20.5z" />
<glyph horiz-adv-x="1159" d="M539 -348q-175 0 -286.5 99t-125.5 259h78q8 -63 32.5 -113.5t58 -82t76 -52.5t84.5 -29.5t85 -8.5q74 0 133.5 18.5t102.5 51t75.5 83t53 108t34 133t19 150.5t6.5 168v15l-4 -15q-33 -125 -141 -209t-267 -84q-193 0 -322 132t-129 343t129 346.5t330 135.5 q231 0 356 -155t125 -458q0 -172 -15 -300.5t-50 -232.5t-93 -169t-143.5 -99t-201.5 -34zM561 213q173 0 278 116t105 292q0 184 -108 296.5t-275 112.5q-169 0 -275 -117t-106 -292q0 -177 105 -292.5t276 -115.5z" />
<glyph horiz-adv-x="1212" d="M604 -25q-127 0 -222 58.5t-150.5 161.5t-82 229.5t-26.5 275.5t26.5 275t82 228.5t150.5 161t222 58.5q103 0 185.5 -39t138 -105.5t92.5 -159.5t53.5 -197t16.5 -222t-16.5 -222.5t-53.5 -198t-92.5 -160t-138 -105.5t-185.5 -39zM604 49q78 0 142 27.5t107 77.5 t74 112t48.5 137.5t25 147.5t7.5 149q0 92 -10.5 177.5t-39 174t-72 152.5t-116.5 105t-166 41q-92 0 -163.5 -41t-115 -105t-71.5 -152.5t-38.5 -174t-10.5 -177.5q0 -93 10.5 -179t38.5 -174.5t71.5 -152.5t115 -104.5t163.5 -40.5z" />
<glyph horiz-adv-x="1212" d="M653 0v1255q-70 -62 -167.5 -114t-196.5 -74v74q141 32 221.5 87.5t153.5 170.5h69v-1399h-80z" />
<glyph horiz-adv-x="1212" d="M162 0q-1 70 21 135t57 117t95.5 109t116.5 99.5t140 100.5q69 48 116 84t99 85t82.5 93.5t51 100.5t20.5 114q0 147 -93.5 227.5t-249.5 80.5q-96 0 -166.5 -30t-112 -86t-61.5 -128t-20 -162h-78q0 230 114 356.5t327 126.5q188 0 303.5 -99.5t115.5 -283.5 q0 -70 -24 -136t-60 -118t-97.5 -109t-115.5 -98.5t-135 -97.5q-65 -46 -108 -79t-91.5 -76.5t-78 -80.5t-51.5 -81.5t-27 -89.5h821v-74h-911z" />
<glyph horiz-adv-x="1212" d="M602 -25q-233 0 -362 120.5t-117 336.5h78q-9 -181 99 -281t302 -100q172 0 289 88.5t117 251.5q0 156 -105.5 240t-284.5 84h-88v69h93q70 0 131 16t110.5 49t77.5 90t27 132q-3 135 -104 206t-249 71q-179 0 -283.5 -90t-101.5 -275h-77q-4 213 121 326.5t341 113.5 q88 0 165 -21.5t137 -63.5t94.5 -109.5t34.5 -153.5q0 -129 -67 -210t-179 -105l-19 -4l17 -2q131 -23 209.5 -115.5t78.5 -241.5q0 -102 -38 -183.5t-105 -133t-154 -78.5t-188 -27z" />
<glyph horiz-adv-x="1212" d="M848 0v354h-746v78l738 967h86v-977h227v-68h-227v-354h-78zM184 422h664v866h-6z" />
<glyph horiz-adv-x="1212" d="M616 -25q-212 0 -337 124t-119 335h78q-5 -177 97.5 -283t280.5 -106q181 0 286.5 112t105.5 302q0 181 -105 290t-280 109q-112 0 -201 -45.5t-146 -130.5h-77l104 717h721v-76h-659l-80 -547q53 67 142.5 110.5t199.5 43.5q207 0 332.5 -126.5t125.5 -344.5 q0 -217 -129 -350.5t-340 -133.5z" />
<glyph horiz-adv-x="1212" d="M621 -25q-102 0 -187 36.5t-151.5 110.5t-104 197t-37.5 285q0 819 504 819q174 0 283 -91t129 -251h-80q-22 128 -108.5 199.5t-225.5 71.5q-213 0 -314.5 -179t-107.5 -550v-15l4 13q32 131 142 219t264 88q201 0 331 -125.5t130 -345.5q0 -218 -131 -350t-340 -132z M623 47q179 0 285 112.5t106 295.5q0 184 -106 292.5t-285 108.5q-168 0 -273.5 -118t-105.5 -289q0 -176 108 -289t271 -113z" />
<glyph horiz-adv-x="1212" d="M428 0q0 356 157 694t431 629h-860v76h946v-84q-591 -616 -594 -1315h-80z" />
<glyph horiz-adv-x="1212" d="M623 -25q-100 0 -184 25.5t-147.5 75.5t-99.5 130t-36 183q0 146 78 245t223 134q-108 28 -173 110.5t-65 198.5q0 113 55 192.5t144.5 116.5t204.5 37q177 0 288 -89t111 -257q0 -118 -64 -199t-170 -110q145 -34 223.5 -133t78.5 -246q0 -133 -64 -228.5t-168 -140.5 t-235 -45zM623 801q61 0 117 16t102.5 48t74 85t27.5 121q0 143 -89.5 211t-231.5 68q-67 0 -123.5 -15.5t-102.5 -47.5t-72 -87t-26 -129q0 -68 28 -121t75 -85t103.5 -48t117.5 -16zM623 49q80 0 148.5 20.5t122 61t84 107t30.5 153.5q0 86 -30.5 152.5t-84.5 106 t-122 59.5t-148 20t-148 -20t-122.5 -59.5t-85.5 -106t-31 -152.5q0 -87 30.5 -153.5t84 -107t122.5 -61t150 -20.5z" />
<glyph horiz-adv-x="1212" d="M580 -25q-175 0 -286.5 99t-125.5 260h78q10 -78 44 -136.5t83.5 -90.5t101.5 -47t107 -15q86 0 152.5 24t112 72t76.5 108.5t48.5 145.5t25 170.5t9.5 194.5v12l-5 -12q-33 -126 -141 -210.5t-266 -84.5q-193 0 -323 133t-130 344t130 346t331 135q231 0 357 -155 t126 -457q0 -172 -15 -301t-50.5 -232.5t-93.5 -168.5t-144 -99.5t-202 -34.5zM602 537q174 0 278.5 115t104.5 292q0 182 -108.5 295t-274.5 113q-169 0 -275 -116.5t-106 -291.5q0 -177 105 -292t276 -115z" />
<glyph horiz-adv-x="1062" d="M958 283q0 -98 -53.5 -168t-140 -104t-199.5 -38v-133h-51v133q-193 5 -307 100.5t-111 278.5h78q0 -290 340 -303v473q-89 14 -152.5 34t-117.5 53t-81.5 85t-27.5 123q0 91 53 157t137 96.5t189 31.5v133h51v-135q160 -10 262.5 -93.5t106.5 -240.5h-78 q-4 123 -83.5 187.5t-207.5 72.5v-434q96 -16 161.5 -36t121 -54.5t83 -89t27.5 -129.5zM213 821q0 -50 22.5 -87.5t66 -62.5t93.5 -40.5t119 -28.5v426q-133 -2 -217 -54t-84 -153zM565 49q139 5 226.5 61t87.5 169q0 54 -22.5 94.5t-68 67t-97.5 43t-126 30.5v-465z" />
<glyph horiz-adv-x="1161" d="M641 -25q-181 0 -301.5 124.5t-140.5 334.5h-115v49h111q0 12 -1 34.5t-1 37.5q0 10 1 30.5t1 30.5h-111v50h117q27 204 141.5 327t300.5 123q109 0 192.5 -33t141 -110.5t72.5 -194.5h-78q-48 269 -328 269q-158 0 -249.5 -104t-112.5 -277h555v-50h-564q-2 -23 -2 -63 q0 -47 4 -70h562v-49h-555q19 -176 117 -283.5t245 -107.5q292 0 330 289h78q-13 -122 -71.5 -204t-143.5 -117.5t-195 -35.5z" />
<glyph horiz-adv-x="729" d="M575 1106h117v-72h-114q-81 0 -126 -31t-55 -104l-37 -235h207l-14 -64h-201l-96 -629q-28 -219 -250 -219h-129v72h123q151 0 174 149l94 627h-209l15 64h205l38 254q15 99 80 143.5t178 44.5z" />
<glyph horiz-adv-x="1150" d="M942 72h109v-72h-119q-74 0 -138.5 11t-118.5 33t-88.5 40.5t-80.5 48.5q-33 -68 -93.5 -107.5t-138.5 -39.5q-86 0 -138 39.5t-52 115.5q0 70 52.5 112t135.5 42q95 0 189 -53q4 36 4 57q0 79 -66 211h-268v59h240q-74 148 -74 244q0 64 21 114.5t55.5 83t82.5 54 t99 30.5t107 9q172 0 264 -79t92 -230h-78q-3 113 -72.5 175t-205.5 62q-77 0 -138.5 -20t-104 -70.5t-42.5 -126.5q0 -37 14 -84t27 -75.5t41 -86.5h299v-59h-271q58 -127 58 -209q0 -48 -13 -102q51 -31 80 -46.5t83 -38t115 -32.5t132 -10zM272 51q122 0 170 123 q-92 57 -170 57q-55 0 -86.5 -26t-31.5 -64q0 -42 31 -66t87 -24z" />
<glyph horiz-adv-x="1116" d="M516 0v406h-330v59h324l-137 190h-246v60h211l-279 391h101l399 -571l408 571h96l-283 -391h203v-60h-238l-141 -190h322v-59h-328v-406h-82z" />
<glyph d="M-219 1167v45q90 3 86 129q-4 -2 -12 -2q-30 0 -50 20t-20 50q0 31 20.5 51.5t51.5 20.5q32 0 53.5 -22t21.5 -68q0 -102 -38.5 -163t-112.5 -61z" />
<glyph d="M-276 1221q-39 0 -61.5 25t-22.5 75q0 101 44 157t117 62v-51q-37 -6 -62 -35.5t-26 -73.5h8q36 0 59 -21t23 -56q0 -36 -22.5 -59t-56.5 -23z" />
<glyph d="M-459 1649q-26 0 -45.5 19.5t-19.5 47.5t19 47t46 19q29 0 48.5 -19t19.5 -47t-19.5 -47.5t-48.5 -19.5zM-88 1649q-26 0 -46 19.5t-20 47.5q0 27 19.5 46.5t46.5 19.5q28 0 48 -19t20 -47t-20 -47.5t-48 -19.5z" />
<glyph d="M-225 1649q-31 0 -52.5 21t-21.5 52t21.5 52.5t52.5 21.5t52 -21.5t21 -52.5t-21 -52t-52 -21z" />
<glyph d="M-88 1589l-242 264h101l202 -264h-61z" />
<glyph d="M-330 1589l201 264h102l-241 -264h-62z" />
<glyph d="M-590 1589l150 264h90l-182 -264h-58zM-299 1589l154 264h90l-185 -264h-59z" />
<glyph d="M-537 1589l226 264h65l226 -264h-70l-191 203l-190 -203h-66z" />
<glyph d="M-307 1589l-223 264h71l189 -204l188 204h64l-222 -264h-67z" />
<glyph d="M-279 1604q-106 0 -171.5 61.5t-75.5 175.5h57q10 -87 61.5 -132.5t128.5 -45.5q85 0 139.5 45.5t63.5 132.5h56q-10 -113 -80.5 -175t-178.5 -62z" />
<glyph d="M-205 1540q-79 0 -131.5 51.5t-52.5 128.5q0 78 52.5 131.5t131.5 53.5t133 -53.5t54 -131.5q0 -77 -54 -128.5t-133 -51.5zM-205 1591q54 0 90.5 37t36.5 92q0 57 -36.5 94t-90.5 37t-90.5 -37t-36.5 -94q0 -55 36.5 -92t90.5 -37z" />
<glyph d="M-569 1638q3 73 41.5 121.5t101.5 48.5q42 0 88.5 -25.5t89 -51t76.5 -25.5q38 0 60.5 23t29.5 75h64q-18 -164 -146 -164q-35 0 -71.5 16t-62 35.5t-59 35.5t-63.5 16q-40 0 -62 -31.5t-24 -73.5h-63z" />
<glyph d="M-518 1675v60h498v-60h-498z" />
<glyph d="M-608 489v76l518 385v-76z" />
<glyph d="M-1354 -2l-47 41l1272 1409l45 -41z" />
<glyph horiz-adv-x="221" d="M35 1167v45q90 3 86 129q-4 -2 -12 -2q-30 0 -50 20t-20 50q0 31 20.5 51.5t51.5 20.5q32 0 53.5 -22t21.5 -68q0 -102 -38.5 -163t-112.5 -61z" />
<glyph horiz-adv-x="346" d="M20 1589l201 264h103l-242 -264h-62z" />
<glyph horiz-adv-x="546" d="M268 1604q-106 0 -172 61.5t-76 175.5h58q10 -87 61.5 -132.5t128.5 -45.5q85 0 139.5 45.5t63.5 132.5h55q-10 -113 -80 -175t-178 -62z" />
<glyph horiz-adv-x="552" d="M244 1589l-224 264h72l189 -204l188 204h63l-221 -264h-67z" />
<glyph horiz-adv-x="557" d="M20 1589l226 264h65l226 -264h-70l-191 203l-190 -203h-66z" />
<glyph horiz-adv-x="544" d="M86 1649q-26 0 -46 19.5t-20 47.5q0 27 19.5 46.5t46.5 19.5q29 0 48.5 -19t19.5 -47t-19.5 -47.5t-48.5 -19.5zM457 1649q-27 0 -46.5 19.5t-19.5 47.5q0 27 19.5 46.5t46.5 19.5q28 0 47.5 -19t19.5 -47t-19.5 -47.5t-47.5 -19.5z" />
<glyph horiz-adv-x="190" d="M94 1649q-31 0 -52.5 21t-21.5 52t21.5 52.5t52.5 21.5t52.5 -21.5t21.5 -52.5t-21.5 -52t-52.5 -21z" />
<glyph horiz-adv-x="346" d="M262 1589l-242 264h101l203 -264h-62z" />
<glyph horiz-adv-x="575" d="M20 1589l150 264h90l-182 -264h-58zM311 1589l154 264h90l-184 -264h-60z" />
<glyph horiz-adv-x="538" d="M20 1675v60h498v-60h-498z" />
<glyph horiz-adv-x="409" d="M203 1540q-79 0 -132 51.5t-53 128.5q0 78 53 131.5t132 53.5t132.5 -53.5t53.5 -131.5q0 -77 -53.5 -128.5t-132.5 -51.5zM203 1591q54 0 90.5 37t36.5 92q0 57 -36.5 94t-90.5 37t-90.5 -37t-36.5 -94q0 -55 36.5 -92t90.5 -37z" />
<glyph horiz-adv-x="587" d="M23 1638q3 73 41.5 121.5t101.5 48.5q42 0 88.5 -25.5t89 -51t76.5 -25.5q38 0 60.5 23t29.5 75h63q-18 -164 -145 -164q-35 0 -71.5 16t-62 35.5t-59 35.5t-63.5 16q-40 0 -62 -31.5t-24 -73.5h-63z" />
</font>
</defs>
</svg>
