<?xml version="1.0" standalone="no"?>
<!DOCTYPE svg PUBLIC "-//W3C//DTD SVG 1.1//EN" "http://www.w3.org/Graphics/SVG/1.1/DTD/svg11.dtd" >
<svg xmlns="http://www.w3.org/2000/svg" xmlns:xlink="http://www.w3.org/1999/xlink" version="1.1">
<metadata></metadata>
<defs>
<font id="f37_boltonregular" horiz-adv-x="0" >
<font-face units-per-em="2048" ascent="1638" descent="-410" />
<missing-glyph horiz-adv-x="497" />
<glyph unicode="fi" horiz-adv-x="1120" d="M231 0v889h-190v168h190v53q0 194 83 276t282 82h377v-174h-379q-103 0 -140.5 -37.5t-37.5 -138.5v-61h219v-168h-219v-889h-185zM788 0v1057h185v-1057h-185z" />
<glyph unicode="fl" horiz-adv-x="1167" d="M1044 156h78v-156h-118q-97 0 -157.5 46t-60.5 153v1095h-233q-72 0 -104.5 -32t-32.5 -103v-102h219v-168h-219v-889h-185v889h-190v168h190v94q0 163 78 240t246 77h414v-1241q0 -42 19 -56.5t56 -14.5z" />
<glyph unicode="&#xd;" horiz-adv-x="497" />
<glyph unicode=" "  horiz-adv-x="497" />
<glyph unicode="&#x09;" horiz-adv-x="497" />
<glyph unicode="&#xa0;" horiz-adv-x="497" />
<glyph unicode="!" horiz-adv-x="522" d="M209 358l-43 570v534h190v-534l-43 -570h-104zM260 -14q-53 0 -89 37t-36 90t35.5 89t89.5 36q53 0 90 -36.5t37 -88.5q0 -53 -37.5 -90t-89.5 -37z" />
<glyph unicode="&#x22;" horiz-adv-x="768" d="M174 887l-72 575h213l-71 -575h-70zM524 887l-67 575h209l-70 -575h-72z" />
<glyph unicode="#" horiz-adv-x="1103" d="M211 0l57 432h-192v123h211l39 301h-193v123h211l57 436h131l-57 -436h244l57 436h129l-55 -436h176v-123h-195l-38 -301h176v-123h-195l-55 -432h-131l55 432h-244l-55 -432h-133zM418 555h244l36 301h-239z" />
<glyph unicode="$" horiz-adv-x="1157" d="M1073 414q0 -195 -122.5 -314t-325.5 -131v-168h-97v168q-204 15 -330 152.5t-126 349.5h190q0 -129 70 -212.5t196 -102.5v518q-68 20 -119.5 41t-108 57t-93 79.5t-60.5 109.5t-24 147q0 161 116.5 271.5t288.5 125.5v146h97v-146q195 -13 305 -137t110 -313h-190 q-3 111 -59 184t-166 84v-469l10 -4q49 -16 79 -26.5t81.5 -33t84.5 -44t73 -56t63.5 -72.5t40 -91t16.5 -113zM317 1110q0 -86 52 -136t159 -89v436q-98 -12 -154.5 -68.5t-56.5 -142.5zM625 154q116 8 185 72t69 165q0 98 -61.5 153.5t-192.5 98.5v-489z" />
<glyph unicode="%" horiz-adv-x="1804" d="M410 -59l839 1534h135l-841 -1534h-133zM432 705q-153 0 -261 107.5t-108 262.5t108 263t261 108q154 0 262.5 -108t108.5 -263t-108.5 -262.5t-262.5 -107.5zM432 852q92 0 157.5 65.5t65.5 157.5q0 94 -65.5 161t-157.5 67q-91 0 -156 -67t-65 -161q0 -92 65 -157.5 t156 -65.5zM1372 -25q-153 0 -260.5 108.5t-107.5 262.5q0 155 107 264t261 109t261.5 -109t107.5 -264q0 -154 -107.5 -262.5t-261.5 -108.5zM1372 125q91 0 157 64.5t66 156.5q0 95 -66 161t-157 66q-93 0 -158 -66t-65 -161q0 -92 65.5 -156.5t157.5 -64.5z" />
<glyph unicode="&#x26;" horiz-adv-x="1341" d="M1241 166h64v-166h-111q-64 0 -119.5 22.5t-116.5 92.5q-155 -142 -378 -142q-224 0 -354 125t-130 314q0 263 248 413q-75 90 -111 166t-36 156q0 145 96 235.5t248 90.5q144 0 231.5 -83.5t87.5 -218.5q0 -116 -62 -200.5t-196 -167.5l336 -393q18 60 18 135v151h187 v-141q0 -158 -72 -299q79 -90 170 -90zM532 1321q-74 0 -118.5 -42t-44.5 -114q0 -105 137 -254q184 112 184 252q0 73 -42 115.5t-116 42.5zM283 436q0 -122 80.5 -199t218.5 -77q167 0 262 88l-398 459q-89 -63 -126 -125t-37 -146z" />
<glyph unicode="'" horiz-adv-x="417" d="M174 887l-72 575h213l-71 -575h-70z" />
<glyph unicode="(" horiz-adv-x="571" d="M344 -369q-244 461 -244 930q0 240 63.5 489t180.5 447h158q-217 -427 -217 -924q0 -509 217 -942h-158z" />
<glyph unicode=")" horiz-adv-x="571" d="M70 -369q217 427 217 924q0 509 -217 942h155q246 -462 246 -930q0 -241 -64 -491.5t-182 -444.5h-155z" />
<glyph unicode="*" horiz-adv-x="851" d="M252 784l-88 72l176 217l-246 90l37 105l236 -84l-7 258h115v-262l252 84l33 -107l-256 -82l180 -229l-84 -68l-178 230z" />
<glyph unicode="+" horiz-adv-x="1134" d="M496 41v446h-420v144h420v444h141v-444h422v-144h-422v-446h-141z" />
<glyph unicode="," horiz-adv-x="487" d="M115 -287v97q49 0 89.5 43t37.5 112h-2q-52 0 -87.5 33.5t-35.5 91.5q0 56 36.5 90.5t88.5 34.5q58 0 93.5 -40t35.5 -122q0 -154 -76.5 -247t-179.5 -93z" />
<glyph unicode="-" horiz-adv-x="765" d="M133 475v160h500v-160h-500z" />
<glyph unicode="." horiz-adv-x="473" d="M236 -14q-53 0 -89 37t-36 90t35.5 89t89.5 36q53 0 89.5 -36.5t36.5 -88.5q0 -53 -37 -90t-89 -37z" />
<glyph unicode="/" horiz-adv-x="854" d="M63 -35l578 1532h152l-578 -1532h-152z" />
<glyph unicode="0" horiz-adv-x="1210" d="M602 -27q-233 0 -362 191.5t-129 546.5q0 351 129 542t362 191q236 0 367 -191t131 -542q0 -355 -131 -546.5t-367 -191.5zM602 141q53 0 97 20.5t74 54t53 81.5t36 97.5t21.5 108t11 107.5t2.5 101q0 51 -2.5 99t-11 106t-21.5 107t-36 97t-53 81.5t-74 54t-97 20.5 t-96 -20.5t-72.5 -54t-52 -81.5t-35 -97t-20.5 -107.5t-10.5 -106t-2.5 -98.5q0 -62 4 -119t14.5 -125.5t31.5 -123.5t51.5 -102t78.5 -73.5t109 -26.5z" />
<glyph unicode="1" horiz-adv-x="790" d="M387 0v1012h-338v143q67 4 110 9.5t86.5 17t69.5 28.5t51 45.5t41.5 68t30.5 95.5h142v-1419h-193z" />
<glyph unicode="2" horiz-adv-x="1175" d="M109 0q0 198 103.5 347.5t373.5 318.5q146 87 211 170t65 188q0 236 -266 236q-79 0 -134.5 -24.5t-87 -71.5t-45.5 -108t-14 -141h-194q0 251 129 389t354 138q217 0 336 -109t119 -301q0 -79 -31.5 -152t-94 -140.5t-137.5 -126.5t-180 -126q-112 -71 -186.5 -155 t-89.5 -160h739v-172h-970z" />
<glyph unicode="3" horiz-adv-x="1216" d="M600 -27q-235 0 -367.5 122.5t-136.5 344.5h195q9 -144 86 -225.5t223 -81.5q136 0 221.5 73.5t85.5 203.5q0 45 -7.5 80.5t-30 71.5t-60.5 60t-103 39t-153 15h-53v147h65q295 0 295 234q0 103 -72.5 164t-181.5 61q-44 0 -79.5 -5t-77 -23.5t-70 -49.5t-49.5 -87.5 t-25 -133.5h-194q0 220 128.5 339.5t366.5 119.5q213 0 333 -98.5t120 -278.5q0 -208 -180 -287l-17 -8l17 -4q35 -11 66.5 -27t63 -44t54.5 -63.5t37 -87.5t14 -114q0 -147 -68 -252t-182.5 -155t-263.5 -50z" />
<glyph unicode="4" horiz-adv-x="1198" d="M743 0v328h-692v176l686 911h183v-923h198v-164h-198v-328h-177zM242 492h501v663h-6z" />
<glyph unicode="5" horiz-adv-x="1148" d="M578 -27q-231 0 -361.5 118.5t-130.5 305.5h190q3 -107 83 -186.5t219 -79.5q140 0 217 88t77 242q0 144 -76 231.5t-218 87.5q-184 0 -277 -118h-172l109 753h751v-172h-610l-60 -403q31 36 103 68t170 32q211 0 338 -126.5t127 -352.5q0 -214 -131.5 -351t-347.5 -137z " />
<glyph unicode="6" horiz-adv-x="1179" d="M602 -27q-247 0 -369 176t-122 488q0 184 30 329.5t92 253t162.5 165t235.5 57.5q188 0 297.5 -103t109.5 -266h-194q0 89 -57 146t-160 57q-82 0 -141 -35t-96 -105.5t-57.5 -161.5t-31.5 -218l-2 -25l10 19q40 71 128 120.5t200 49.5q202 0 321 -125.5t119 -337.5 q0 -217 -130 -350.5t-345 -133.5zM604 133q130 0 209.5 88t79.5 230q0 149 -75 228t-214 79q-130 0 -202 -87.5t-72 -221.5q0 -144 73 -230t201 -86z" />
<glyph unicode="7" horiz-adv-x="1015" d="M250 0q12 330 151.5 651t368.5 592h-719v172h920v-166q-228 -246 -376 -582.5t-151 -666.5h-194z" />
<glyph unicode="8" horiz-adv-x="1173" d="M590 -27q-226 0 -358 117t-132 318q0 256 256 372q-192 84 -192 303q0 157 120 259t306 102q185 0 302.5 -102t117.5 -259q0 -203 -193 -303q256 -93 256 -372q0 -189 -137 -312t-346 -123zM590 854q102 0 165.5 58t63.5 151q0 98 -59 155.5t-172 57.5q-110 0 -171 -58 t-61 -155q0 -92 65.5 -150.5t168.5 -58.5zM590 141q130 0 207 75.5t77 197.5q0 127 -77.5 203.5t-208.5 76.5q-132 0 -210.5 -77t-78.5 -203q0 -122 79 -197.5t212 -75.5z" />
<glyph unicode="9" horiz-adv-x="1179" d="M547 -27q-190 0 -305 104.5t-115 270.5h195q0 -100 60 -158.5t165 -58.5q70 0 123.5 24t90 66t62 109t39.5 144.5t23 180.5l2 25l-13 -21q-29 -47 -65.5 -80t-105.5 -57t-160 -24q-201 0 -320 124.5t-119 335.5q0 217 128.5 350.5t342.5 133.5q494 0 494 -664 q0 -148 -16.5 -268.5t-55 -222t-98.5 -170t-148.5 -106.5t-203.5 -38zM573 657q136 0 208.5 82.5t72.5 227.5q0 150 -74 232.5t-207 82.5q-128 0 -206 -87.5t-78 -229.5q0 -149 73.5 -228.5t210.5 -79.5z" />
<glyph unicode=":" horiz-adv-x="514" d="M256 784q-53 0 -89 37t-36 90t35.5 89t89.5 36q53 0 90 -36.5t37 -88.5q0 -53 -37.5 -90t-89.5 -37zM256 -14q-53 0 -89 37t-36 90t35.5 89t89.5 36q53 0 90 -36.5t37 -88.5q0 -53 -37.5 -90t-89.5 -37z" />
<glyph unicode=";" horiz-adv-x="526" d="M260 770q-53 0 -89 37t-36 90t35.5 89t89.5 36q53 0 90 -36.5t37 -88.5q0 -53 -37.5 -90t-89.5 -37zM135 -266v96q49 0 89.5 43.5t37.5 112.5h-2q-52 0 -87.5 33.5t-35.5 91.5q0 56 36.5 90.5t88.5 34.5q58 0 93.5 -40t35.5 -122q0 -154 -76.5 -247t-179.5 -93z" />
<glyph unicode="&#x3c;" horiz-adv-x="1161" d="M1055 -16l-989 454v160l989 455v-154l-807 -381l807 -381v-153z" />
<glyph unicode="=" horiz-adv-x="1261" d="M139 696v144h983v-144h-983zM139 276v144h983v-144h-983z" />
<glyph unicode="&#x3e;" horiz-adv-x="1161" d="M106 -16v153l805 381l-805 381v154l990 -455v-160z" />
<glyph unicode="?" horiz-adv-x="1052" d="M414 375q0 47 2 67q5 108 41.5 182.5t138.5 176.5l80 80q98 98 98 204q0 111 -61.5 174.5t-180.5 63.5q-137 0 -200 -64.5t-72 -220.5h-197q6 217 130 337t342 120q197 0 321.5 -94t124.5 -268q0 -115 -39 -193.5t-139 -181.5l-103 -105q-44 -44 -65 -92.5t-27 -122.5 q-2 -20 -2 -63h-192zM514 -27q-51 0 -88 36.5t-37 88.5q0 51 37 88t88 37q52 0 89.5 -37t37.5 -88q0 -52 -37 -88.5t-90 -36.5z" />
<glyph unicode="@" horiz-adv-x="1765" d="M918 -287q-140 0 -263 32.5t-225.5 99t-176 162.5t-114.5 230t-41 295q0 146 44 273.5t120.5 221t178 161.5t218.5 101.5t240 33.5q168 0 311.5 -56.5t241.5 -153t153.5 -227.5t55.5 -278q0 -109 -33 -202t-86 -152.5t-118 -93t-132 -33.5h-205v129q-29 -67 -93 -108.5 t-154 -41.5q-162 0 -255 107.5t-93 298.5q0 186 100 290.5t248 104.5q93 0 155.5 -41t81.5 -96v121h160v-625h49q77 0 137 88.5t60 253.5q0 249 -159.5 402t-424.5 153q-128 0 -241.5 -45.5t-198 -126t-134 -200t-49.5 -259.5q0 -309 178.5 -484t473.5 -175h577v-160h-587z M850 248q105 0 166 73.5t61 190.5q0 112 -59.5 185t-157.5 73q-96 0 -153.5 -71t-57.5 -187q0 -117 53 -190.5t148 -73.5z" />
<glyph unicode="A" horiz-adv-x="1353" d="M1114 0l-164 459h-555l-168 -459h-198l542 1468h215l535 -1468h-207zM465 651h416l-205 570h-4z" />
<glyph unicode="B" horiz-adv-x="1370" d="M188 0v1468h578q211 0 334 -99.5t123 -285.5q0 -205 -172 -303v-2q96 -40 154.5 -126t58.5 -218q0 -141 -68.5 -241t-179 -146.5t-250.5 -46.5h-578zM389 838h387q118 0 183 58.5t65 174.5q0 106 -74.5 159.5t-206.5 53.5h-354v-446zM389 184h361q141 0 225 59.5 t84 186.5q0 120 -80.5 176t-216.5 56h-373v-478z" />
<glyph unicode="C" horiz-adv-x="1478" d="M782 -35q-149 0 -276.5 54t-218 152t-142 240.5t-51.5 313.5q0 156 50 297t138.5 246t219 167t282.5 62q142 0 257 -44t189 -119.5t117.5 -168.5t55.5 -198h-195q-30 152 -144.5 246t-283.5 94q-119 0 -213 -49t-151 -132t-87 -185.5t-30 -215.5q0 -158 56 -286 t168 -205.5t261 -77.5q79 0 145 20.5t108 49.5t78 73t54 78.5t37 79.5h195q-20 -93 -71 -179.5t-127 -157t-185.5 -113t-235.5 -42.5z" />
<glyph unicode="D" horiz-adv-x="1492" d="M188 0v1468h478q148 0 279 -48t233 -138t161.5 -231.5t59.5 -315.5q0 -158 -54.5 -294t-151.5 -233.5t-238 -152.5t-308 -55h-459zM389 182h258q113 0 211.5 35.5t174 103t119.5 174t44 240.5q0 268 -154.5 408.5t-414.5 140.5h-238v-1102z" />
<glyph unicode="E" horiz-adv-x="1271" d="M188 0v1468h967v-182h-766v-448h709v-181h-709v-477h778v-180h-979z" />
<glyph unicode="F" horiz-adv-x="1185" d="M188 0v1468h930v-186h-729v-461h643v-184h-643v-637h-201z" />
<glyph unicode="G" horiz-adv-x="1519" d="M784 -35q-162 0 -293.5 58.5t-217 161.5t-131.5 241.5t-46 300.5q0 160 47.5 300t135 244.5t219 165t290.5 60.5q265 0 426.5 -130.5t198.5 -369.5h-194q-65 310 -435 310q-152 0 -262.5 -77t-165 -206.5t-55.5 -296.5q1 -121 33.5 -225t93.5 -181t154.5 -121t208.5 -44 q116 0 200.5 28.5t135.5 84t78 126.5t36 166h-436v180h627q2 -14 2 -45q0 -126 -21 -233t-69 -200.5t-122 -158.5t-185.5 -102t-252.5 -37z" />
<glyph unicode="H" horiz-adv-x="1503" d="M188 0v1468h201v-624h721v624h205v-1468h-205v659h-721v-659h-201z" />
<glyph unicode="I" horiz-adv-x="577" d="M188 0v1468h201v-1468h-201z" />
<glyph unicode="J" horiz-adv-x="1099" d="M485 -35q-145 0 -244.5 63t-145.5 171t-46 254h195q7 -144 62 -222.5t179 -78.5q238 0 238 294v1022h203v-1022q0 -219 -112 -350t-329 -131z" />
<glyph unicode="K" horiz-adv-x="1382" d="M188 0v1468h201v-729l713 729h254l-590 -594l635 -874h-248l-526 731l-238 -239v-492h-201z" />
<glyph unicode="L" horiz-adv-x="1157" d="M188 0v1468h201v-1278h731v-190h-932z" />
<glyph unicode="M" horiz-adv-x="1753" d="M188 0v1468h191l508 -745l487 745h191v-1468h-191v1165l-418 -645h-159l-418 641v-1161h-191z" />
<glyph unicode="N" horiz-adv-x="1542" d="M188 0v1468h189l784 -1138v1138h193v-1468h-193l-784 1137v-1137h-189z" />
<glyph unicode="O" horiz-adv-x="1603" d="M803 -35q-162 0 -297 60.5t-224.5 164t-138.5 242t-49 295.5q0 160 49 300t138.5 244.5t224 165t297.5 60.5t297 -60.5t223 -165t137.5 -244.5t48.5 -300q0 -157 -48.5 -295.5t-137.5 -242.5t-223.5 -164t-296.5 -60zM803 156q156 0 272.5 77.5t174.5 206t57 287.5 q0 164 -58 294t-173.5 208t-272.5 78t-272.5 -78t-173 -208t-58.5 -294q1 -119 34.5 -222.5t96 -181t159 -122.5t214.5 -45z" />
<glyph unicode="P" horiz-adv-x="1273" d="M188 0v1462h555q236 0 355 -111.5t119 -301.5q0 -185 -110.5 -306.5t-305.5 -121.5h-412v-621h-201zM389 811h367q112 0 180 58.5t68 179.5q0 105 -72.5 164t-196.5 59h-346v-461z" />
<glyph unicode="Q" horiz-adv-x="1603" d="M1509 727q0 -194 -70.5 -356t-209.5 -269.5t-326 -130.5q3 -67 34 -99t93 -32h199v-174h-217q-297 0 -303 305q-189 22 -330 129t-213 269.5t-72 357.5q0 160 49 300t138.5 244.5t224 165t297.5 60.5t297 -60.5t223 -165t137.5 -244.5t48.5 -300zM803 156 q156 0 272.5 77.5t174.5 206t57 287.5q0 164 -58 294t-173.5 208t-272.5 78t-272.5 -78t-173 -208t-58.5 -294q1 -119 34.5 -222.5t96 -181t159 -122.5t214.5 -45z" />
<glyph unicode="R" horiz-adv-x="1343" d="M1288 0h-235l-387 623h-277v-623h-201v1462h566q204 0 324.5 -109t123.5 -296q3 -158 -86.5 -276.5t-230.5 -149.5zM389 1278v-469h371q109 0 174 65t65 183q0 96 -65.5 158.5t-159.5 62.5h-385z" />
<glyph unicode="S" horiz-adv-x="1277" d="M643 -35q-262 0 -406.5 122.5t-144.5 369.5h195q-1 -158 92.5 -235t267.5 -77q332 0 332 232q0 50 -19 89.5t-47.5 66.5t-81 52t-98.5 40t-121 37q-63 19 -109 34t-99.5 37.5t-90 45t-73 54.5t-58.5 68t-35.5 83.5t-13.5 102.5q0 102 42.5 182.5t114 129t158.5 73.5 t183 25q105 0 195 -25t165.5 -77t120 -143.5t47.5 -213.5h-194q-3 75 -31.5 130.5t-76 87t-104 46.5t-122.5 15q-299 0 -299 -207q0 -53 14.5 -88t59.5 -67t109 -57.5t181 -63.5q67 -21 109 -35t98 -37.5t91 -45.5t73.5 -54.5t59.5 -68.5t35 -84.5t14 -105.5 q0 -201 -147.5 -319.5t-385.5 -118.5z" />
<glyph unicode="T" horiz-adv-x="1169" d="M485 0v1286h-450v182h1100v-182h-449v-1286h-201z" />
<glyph unicode="U" horiz-adv-x="1460" d="M729 -35q-271 0 -415 162.5t-144 480.5v860h201v-858q0 -103 18 -182.5t58 -142t111 -96t171 -33.5q189 0 273.5 113t84.5 341v858h203v-860q0 -316 -145.5 -479.5t-415.5 -163.5z" />
<glyph unicode="V" horiz-adv-x="1288" d="M530 0l-487 1462h211l313 -942q56 -169 84 -309q8 41 17 77.5t19.5 71.5l16.5 55t18.5 57t16.5 48l303 942h203l-487 -1462h-228z" />
<glyph unicode="W" horiz-adv-x="1964" d="M436 0l-385 1468h221l197 -819q57 -228 92 -420q36 185 98 424l213 815h232l205 -813q72 -284 100 -434q44 230 96 438l197 809h211l-385 -1468h-236l-137 532q-126 489 -170 682q-51 -226 -170 -686l-137 -528h-242z" />
<glyph unicode="X" horiz-adv-x="1275" d="M1270 0h-248l-389 590l-389 -590h-234l508 754l-479 708h246l360 -557l354 557h230l-467 -706z" />
<glyph unicode="Y" horiz-adv-x="1327" d="M561 0v582l-538 880h231l416 -688l411 688h226l-543 -876v-586h-203z" />
<glyph unicode="Z" horiz-adv-x="1292" d="M76 0v180l592 750q105 134 284 348h-856v184h1092v-180l-631 -797q-11 -14 -54 -69.5t-61 -77.5t-55 -66.5t-76 -87.5h914v-184h-1149z" />
<glyph unicode="[" horiz-adv-x="643" d="M174 -369v1866h401v-149h-217v-1567h217v-150h-401z" />
<glyph unicode="\" horiz-adv-x="854" d="M639 -35l-578 1532h152l578 -1532h-152z" />
<glyph unicode="]" horiz-adv-x="643" d="M68 -369v150h217v1567h-217v149h401v-1866h-401z" />
<glyph unicode="^" horiz-adv-x="1073" d="M70 567l379 848h176l379 -848h-156l-311 703l-312 -703h-155z" />
<glyph unicode="_" horiz-adv-x="972" d="M0 -256v102h973v-102h-973z" />
<glyph unicode="`" horiz-adv-x="374" d="M354 1174h-125l-209 294h209z" />
<glyph unicode="a" horiz-adv-x="1105" d="M410 -27q-140 0 -239 83.5t-99 222.5q0 76 25 134.5t73 97.5t108 63.5t138 39.5l227 43q70 13 91.5 36.5t21.5 70.5q0 61 -51 102t-168 41q-116 0 -172 -42.5t-54 -123.5h-190q1 159 112.5 250.5t298.5 91.5q92 0 163 -18t129 -59.5t89 -117t31 -181.5v-480q0 -39 16 -55 t56 -16h24v-156h-149q-59 0 -90 29t-31 84v22q-119 -162 -360 -162zM453 145q137 0 223 78t86 189v125q-34 -20 -88 -31l-182 -39q-114 -24 -163.5 -61.5t-49.5 -108.5t45 -111.5t129 -40.5z" />
<glyph unicode="b" horiz-adv-x="1183" d="M639 1083q207 0 332 -153t125 -398q0 -248 -127.5 -403.5t-331.5 -155.5q-203 0 -313 144v-117h-177v1468h185l-2 -518q112 133 309 133zM629 145q129 0 205.5 107.5t76.5 277.5q0 166 -76.5 273.5t-203.5 107.5q-139 0 -221.5 -102t-81.5 -279q1 -182 83.5 -283.5 t217.5 -101.5z" />
<glyph unicode="c" horiz-adv-x="1097" d="M569 -27q-223 0 -352 152t-129 395q0 163 56 289t169 200t269 74q181 0 299.5 -100.5t132.5 -302.5h-191q-3 105 -68.5 166t-174.5 61q-79 0 -139.5 -31.5t-96 -86t-53 -122t-17.5 -145.5q0 -107 30.5 -189t99 -132.5t167.5 -50.5q118 0 177.5 48t74.5 158h191 q-20 -186 -138 -284.5t-307 -98.5z" />
<glyph unicode="d" horiz-adv-x="1181" d="M850 1468h184v-1468h-176v111q-113 -138 -303 -138q-220 0 -343.5 149.5t-123.5 407.5q0 245 128.5 399t340.5 154q182 0 297 -131zM854 528v2q0 176 -80.5 278.5t-212.5 102.5q-135 0 -213 -107t-78 -274q0 -169 80.5 -277t210.5 -108t211.5 101.5t81.5 281.5z" />
<glyph unicode="e" horiz-adv-x="1122" d="M274 465q7 -144 93.5 -229.5t214.5 -85.5q103 0 171.5 43.5t86.5 125.5h180q-29 -157 -149 -251.5t-293 -94.5q-216 0 -353 146.5t-137 408.5q0 247 138.5 401t351.5 154q218 0 343.5 -145t125.5 -383q0 -49 -3 -90h-770zM575 907q-122 0 -202.5 -73.5t-93.5 -202.5h577 q-8 119 -83 197.5t-198 78.5z" />
<glyph unicode="f" horiz-adv-x="671" d="M231 0v889h-190v168h190v94q0 163 78 240t246 77h174v-174h-176q-72 0 -104.5 -32t-32.5 -103v-102h219v-168h-219v-889h-185z" />
<glyph unicode="g" horiz-adv-x="1183" d="M860 1057h176v-1057q0 -229 -103.5 -332.5t-307.5 -103.5h-396v174h342q153 0 217 60t64 212v90q-121 -127 -305 -127q-214 0 -336.5 148.5t-122.5 402.5q0 247 126.5 403t330.5 156q195 0 315 -133v107zM559 147q139 0 218 106.5t79 274.5q0 173 -77.5 278t-217.5 105 q-135 0 -212 -107t-77 -276t76 -275t211 -106z" />
<glyph unicode="h" horiz-adv-x="1161" d="M147 0v1468h183v-512q49 60 128.5 93.5t170.5 33.5q185 0 290 -110t105 -305v-668h-184l2 623q0 131 -66.5 207.5t-187.5 76.5q-74 0 -137 -42.5t-89 -102.5q-30 -64 -30 -191v-571h-185z" />
<glyph unicode="i" horiz-adv-x="479" d="M240 1231q-50 0 -86.5 35.5t-36.5 87.5q0 51 36.5 87t86.5 36q52 0 88.5 -36t36.5 -87q0 -52 -36 -87.5t-89 -35.5zM147 0v1057h185v-1057h-185z" />
<glyph unicode="j" horiz-adv-x="495" d="M256 1233q-50 0 -86.5 36.5t-36.5 88.5q0 50 36.5 86.5t86.5 36.5q52 0 87.5 -36.5t35.5 -86.5q0 -53 -35.5 -89t-87.5 -36zM-74 -436v176h131q59 0 83 22.5t24 85.5v1209h184v-1231q0 -143 -60 -202.5t-192 -59.5h-170z" />
<glyph unicode="k" horiz-adv-x="1044" d="M1044 0h-223l-348 537l-141 -140v-397h-185v1468h185v-850l452 439h224l-402 -391z" />
<glyph unicode="l" horiz-adv-x="522" d="M358 0q-97 0 -157 46t-60 153v1269h183v-1241q0 -42 19 -56.5t56 -14.5h78v-156h-119z" />
<glyph unicode="m" horiz-adv-x="1736" d="M147 0v1059h179v-107q39 59 113.5 95t164.5 36q213 0 295 -165q108 165 324 165q173 0 274.5 -112t101.5 -307v-664h-184l2 627q0 131 -59 205.5t-168 74.5q-103 0 -163 -80t-60 -206v-621h-185v627q0 131 -58.5 205.5t-166.5 74.5q-102 0 -163.5 -76t-61.5 -194v-637 h-185z" />
<glyph unicode="n" horiz-adv-x="1161" d="M147 0v1057h179v-109q45 60 128.5 97.5t178.5 37.5q185 0 288 -114t103 -318v-651h-184l2 621q0 135 -62.5 210.5t-165.5 75.5q-126 0 -204 -85t-78 -224v-598h-185z" />
<glyph unicode="o" horiz-adv-x="1161" d="M580 -27q-222 0 -358 156.5t-136 398.5q0 153 60 278.5t173.5 201t260.5 75.5q222 0 358.5 -157.5t136.5 -397.5q0 -153 -59.5 -278.5t-173.5 -201t-262 -75.5zM580 145q140 0 225.5 106t85.5 277q0 170 -85.5 276.5t-225.5 106.5t-225 -106.5t-85 -276.5q0 -171 85 -277 t225 -106z" />
<glyph unicode="p" horiz-adv-x="1181" d="M641 1083q198 0 325.5 -154.5t127.5 -396.5q0 -248 -127.5 -403.5t-331.5 -155.5q-196 0 -307 136l4 -543h-185v1491h179v-109q112 135 315 135zM625 145q131 0 207.5 107t76.5 278q0 167 -76.5 274t-205.5 107q-134 0 -217.5 -102.5t-83.5 -278.5q0 -180 84 -282.5 t215 -102.5z" />
<glyph unicode="q" horiz-adv-x="1181" d="M1128 -262h80v-174h-139q-107 0 -163 56.5t-56 162.5l2 321q-112 -131 -293 -131q-222 0 -346.5 149t-124.5 408q0 245 129 399t342 154q189 0 299 -135v109h176v-1215q0 -59 25.5 -81.5t68.5 -22.5zM559 145q131 0 214 102t83 283v2q0 175 -81.5 277t-215.5 102 q-128 0 -207.5 -108t-79.5 -273q0 -169 79.5 -277t207.5 -108z" />
<glyph unicode="r" horiz-adv-x="729" d="M147 0v1057h177v-129q47 69 126 109t175 40h77v-180h-96q-51 0 -98.5 -20t-87.5 -59t-64 -103.5t-24 -145.5v-569h-185z" />
<glyph unicode="s" horiz-adv-x="999" d="M504 -27q-91 0 -165.5 19.5t-134.5 60.5t-93 111.5t-33 165.5h190q7 -96 66 -142.5t172 -46.5q227 0 227 140q0 54 -36.5 81t-139.5 64l-137 47q-50 17 -83 29.5t-72.5 32t-64.5 41t-47.5 49.5t-33 65t-10.5 82q0 149 110 230t281 81q85 0 155 -18.5t125.5 -57.5 t86.5 -106.5t32 -159.5h-190q-4 89 -61 131.5t-152 42.5q-199 0 -199 -127q0 -51 34 -75.5t138 -61.5l195 -69q125 -44 187 -106.5t62 -174.5q0 -87 -33.5 -152.5t-92.5 -102.5t-129.5 -55t-153.5 -18z" />
<glyph unicode="t" horiz-adv-x="741" d="M504 0q-62 0 -106.5 9.5t-82.5 34.5t-57.5 74t-19.5 122v649h-199v168h199v299h184v-299h258v-168h-258v-608q0 -70 29 -93.5t100 -23.5h133v-164h-180z" />
<glyph unicode="u" horiz-adv-x="1153" d="M512 -27q-180 0 -277.5 108.5t-97.5 305.5v670h185l-3 -633q0 -142 65 -208t173 -66q68 0 120.5 27.5t83 73.5t45.5 101t15 115v590h185v-1057h-179v106q-37 -58 -124 -95.5t-191 -37.5z" />
<glyph unicode="v" horiz-adv-x="1034" d="M418 0l-385 1057h200l183 -537l110 -330h2l101 330l178 537h188l-370 -1057h-207z" />
<glyph unicode="w" horiz-adv-x="1513" d="M330 0l-279 1057h193l192 -848l232 848h190l221 -848l199 848h188l-284 -1057h-203l-129 471l-88 338h-4l-92 -342l-134 -467h-202z" />
<glyph unicode="x" horiz-adv-x="1013" d="M20 0l375 547l-346 510h221l244 -379l240 379h207l-347 -518l379 -539h-221l-272 406l-273 -406h-207z" />
<glyph unicode="y" horiz-adv-x="1056" d="M141 -436v174h150q82 0 121 31q41 33 41 88q0 51 -35 151l-377 1049h213l176 -547l129 -393l115 393l145 547h201l-387 -1237q-45 -145 -111.5 -200.5t-187.5 -55.5h-193z" />
<glyph unicode="z" horiz-adv-x="991" d="M72 0v143l585 752h-559v162h793v-142l-590 -753h625v-162h-854z" />
<glyph unicode="{" horiz-adv-x="708" d="M449 -369q-84 0 -146.5 67t-62.5 189v371q0 184 -170 250v119q63 5 116.5 75t53.5 177v364q0 122 62.5 188t146.5 66h192v-149h-104q-65 0 -89 -45t-24 -134v-321q0 -103 -45 -181.5t-133 -103.5q67 -21 122.5 -90.5t55.5 -181.5v-330q0 -92 24.5 -136t88.5 -44h104v-150 h-192z" />
<glyph unicode="|" horiz-adv-x="487" d="M172 -438v2048h143v-2048h-143z" />
<glyph unicode="}" horiz-adv-x="708" d="M260 1497q84 0 146.5 -67t62.5 -189v-371q0 -183 170 -249v-119q-63 -5 -116.5 -75t-53.5 -177v-365q0 -122 -62.5 -188t-146.5 -66h-192v150h104q65 0 89 44.5t24 133.5v322q0 103 45 181t133 103q-67 21 -122.5 91t-55.5 182v329q0 92 -24.5 136.5t-88.5 44.5h-104v149 h192z" />
<glyph unicode="~" horiz-adv-x="1155" d="M195 410l-64 114q85 171 238 176q56 2 139 -33t160.5 -70.5t119.5 -35.5q23 0 45 10t36 20t35 36.5t28 37t29 44.5l63 -115q-25 -40 -44.5 -66t-48 -54t-63.5 -42t-75 -14q-43 0 -86 14.5t-80 35t-74.5 40.5t-85.5 34.5t-98 14.5q-60 0 -101 -39.5t-73 -107.5z" />
<glyph unicode="&#xa1;" horiz-adv-x="497" d="M250 1087q54 0 89.5 -36.5t35.5 -89.5t-35.5 -89t-89.5 -36q-53 0 -90 36.5t-37 88.5t37 89t90 37zM301 715l43 -570v-534h-190v534l43 570h104z" />
<glyph unicode="&#xa2;" horiz-adv-x="1107" d="M545 -221v194q-209 12 -329 163t-120 384q0 236 118 391t331 170v174h82v-174q170 -10 279 -110t122 -291h-190q-10 97 -66 155.5t-145 69.5v-753q94 7 145.5 55.5t73.5 148.5h186q-15 -174 -122 -271.5t-283 -109.5v-196h-82zM545 152v753q-90 -11 -150.5 -68.5 t-86 -137t-25.5 -177.5q0 -154 66 -255.5t196 -114.5z" />
<glyph unicode="&#xa3;" horiz-adv-x="1296" d="M1040 170h156v-170h-178q-193 0 -422 137q-96 -153 -277 -153q-108 0 -178.5 64.5t-70.5 172.5q0 104 69.5 164.5t169.5 60.5q77 0 172 -45v33q0 79 -45 209h-286v158h231q-43 127 -43 231q0 103 32 182.5t79 124t108.5 73t110.5 37.5t96 9q187 0 300 -107t107 -288h-182 q-9 215 -225 215q-63 0 -108 -20t-69 -55.5t-35 -77t-11 -93.5q0 -82 49 -231h346v-158h-297q37 -130 37 -205q0 -70 -14 -139q105 -61 193 -95t185 -34zM311 145q90 0 133 84q-88 50 -135 50q-37 0 -57.5 -21.5t-20.5 -46.5q0 -27 20.5 -46.5t59.5 -19.5z" />
<glyph unicode="&#xa4;" horiz-adv-x="1304" d="M219 197l-78 79l117 117q-115 127 -115 314q3 197 115 315l-117 119l80 80l117 -117q60 54 143.5 83.5t173.5 29.5q86 0 168 -29.5t140 -81.5l118 117l84 -84l-116 -115q54 -57 82 -140t28 -175q0 -190 -110 -318l114 -115l-78 -77l-116 118q-122 -116 -316 -116 t-317 114zM653 365q142 0 233 101.5t91 242.5t-90.5 242.5t-231.5 101.5q-144 0 -236.5 -101.5t-92.5 -244.5q0 -142 92 -242t235 -100z" />
<glyph unicode="&#xa5;" horiz-adv-x="1398" d="M598 0v504h-358v125h333l-139 225h-241v123h165l-303 485h240l414 -694l411 694h226l-297 -485h143v-123h-221l-146 -225h338v-125h-360v-504h-205z" />
<glyph unicode="&#xa6;" horiz-adv-x="475" d="M166 842v512h143v-512h-143zM166 -182v512h143v-512h-143z" />
<glyph unicode="&#xa7;" horiz-adv-x="1064" d="M807 213q131 -115 131 -248q0 -159 -108 -254.5t-298 -95.5q-177 0 -293 105.5t-116 289.5h209q0 -211 219 -211q182 0 182 146q0 63 -43 103t-201 138q-32 20 -49 31q-56 35 -84 53t-69.5 48t-62 49.5t-46.5 48t-37 54.5t-19.5 59.5t-8.5 70.5q0 83 40 153t105 117 q-131 115 -131 248q0 159 108 254.5t297 95.5q177 0 293.5 -105.5t116.5 -289.5h-209q0 211 -219 211q-182 0 -182 -145q0 -63 45.5 -105t203.5 -141l15 -9t13.5 -8.5t15.5 -9.5q56 -35 84 -53t69.5 -48t62 -49.5t46.5 -48t37 -54.5t19.5 -59.5t8.5 -70.5q0 -83 -40 -153 t-105 -117zM434 469q119 -82 230 -154q86 48 86 131q0 45 -26.5 83.5t-92.5 84.5q-119 82 -230 154q-86 -48 -86 -131q0 -46 26 -86t93 -82z" />
<glyph unicode="&#xa8;" horiz-adv-x="622" d="M131 1229q-46 0 -78.5 32t-32.5 78q0 44 32.5 76.5t78.5 32.5t78.5 -32.5t32.5 -76.5q0 -46 -32.5 -78t-78.5 -32zM492 1229q-46 0 -78.5 32t-32.5 78q0 44 32.5 76.5t78.5 32.5t78 -32t32 -77q0 -46 -32 -78t-78 -32z" />
<glyph unicode="&#xa9;" horiz-adv-x="1753" d="M877 -35q-156 0 -298.5 56.5t-249 156t-170 243.5t-63.5 310t63.5 310.5t170 243.5t249 155.5t298.5 56.5t298 -56.5t248.5 -155.5t170 -243.5t63.5 -310.5t-63.5 -310t-170 -243.5t-248.5 -156t-298 -56.5zM877 92q170 0 312.5 82.5t226 229.5t83.5 327q0 179 -84 326.5 t-226.5 231t-311.5 83.5q-171 0 -314 -83.5t-226 -231t-83 -326.5q0 -135 49 -254t132.5 -203.5t198.5 -133t243 -48.5zM891 268q-198 0 -320 131t-122 330q0 202 118.5 331.5t319.5 129.5q147 0 250 -83t123 -233h-125q-18 89 -86 139t-162 50q-136 0 -212.5 -91.5 t-76.5 -240.5q0 -140 81.5 -238t211.5 -98q94 0 159.5 51.5t84.5 143.5h129q-26 -148 -129 -235t-244 -87z" />
<glyph unicode="&#xaa;" horiz-adv-x="845" d="M319 776q-96 0 -157.5 49.5t-61.5 139.5q0 87 59 138.5t160 67.5l142 23q40 6 54.5 16t14.5 37q0 94 -127 94q-131 0 -131 -94h-149q1 105 80 161t205 56q128 0 200 -57t72 -199v-254q0 -21 10.5 -32t26.5 -11h22v-118h-123q-33 0 -55 15t-22 44v22q-71 -98 -220 -98z M352 895q78 0 129 52t51 130v31q-15 -15 -51 -21l-119 -18q-57 -9 -84.5 -31.5t-27.5 -62.5q0 -80 102 -80z" />
<glyph unicode="&#xab;" horiz-adv-x="790" d="M367 199l-265 268v174l265 266v-172l-170 -182l170 -182v-172zM649 199l-264 268v174l264 266v-172l-170 -182l170 -182v-172z" />
<glyph unicode="&#xac;" horiz-adv-x="1259" d="M967 197v450h-838v144h981v-594h-143z" />
<glyph unicode="&#xad;" horiz-adv-x="765" d="M133 475v160h500v-160h-500z" />
<glyph unicode="&#xae;" horiz-adv-x="1753" d="M877 -35q-156 0 -298.5 56.5t-249 156t-170 244.5t-63.5 311t63.5 310t170 242.5t249 155t298.5 56.5t298 -56.5t248.5 -155t170 -242.5t63.5 -310t-63.5 -311t-170 -244.5t-248.5 -156t-298 -56.5zM877 92q127 0 241.5 48.5t198 133t133 204t49.5 255.5q0 177 -84 324.5 t-226.5 231t-311.5 83.5q-128 0 -243 -49.5t-198.5 -134t-132.5 -203.5t-49 -252q0 -136 49 -255.5t132.5 -204t198.5 -133t243 -48.5zM582 303v866h317q320 0 320 -245q0 -108 -64.5 -166t-161.5 -68l242 -387h-148l-225 381h-147v-381h-133zM715 786h164q44 0 75.5 5 t62.5 19t47.5 44t16.5 76q0 40 -16.5 68t-47.5 41.5t-63 18.5t-73 5h-166v-277z" />
<glyph unicode="&#xaf;" horiz-adv-x="659" d="M20 1286v107h619v-107h-619z" />
<glyph unicode="&#xb0;" horiz-adv-x="753" d="M377 844q-120 0 -202.5 87t-82.5 214q0 124 83 211.5t202 87.5t202 -87.5t83 -211.5q0 -126 -82.5 -213.5t-202.5 -87.5zM377 932q79 0 132.5 60.5t53.5 152.5q0 88 -53.5 149.5t-132.5 61.5q-78 0 -133.5 -61.5t-55.5 -149.5q0 -91 55 -152t134 -61z" />
<glyph unicode="&#xb1;" horiz-adv-x="1236" d="M547 240v327h-420v142h420v327h141v-327h422v-142h-422v-327h-141zM127 0v143h983v-143h-983z" />
<glyph unicode="&#xb2;" horiz-adv-x="913" d="M121 563q0 46 7.5 83.5t25.5 70.5t38 58.5t57 56t68.5 53t85.5 57.5t73.5 48.5t55 41t48.5 45.5t24.5 45t11.5 56q0 58 -40.5 92.5t-114.5 34.5q-94 0 -141.5 -50t-47.5 -139h-145q3 157 92.5 245.5t255.5 88.5q134 0 217.5 -69.5t83.5 -192.5q0 -53 -12.5 -91.5t-49 -79 t-83 -76.5t-133.5 -95q-48 -32 -75.5 -51.5t-57.5 -48.5t-37 -52h460v-131h-667z" />
<glyph unicode="&#xb3;" horiz-adv-x="876" d="M436 545q-159 0 -250 83.5t-88 233.5h146q-3 -89 47 -136.5t145 -47.5q87 0 138 38t51 107q0 71 -48.5 106.5t-136.5 35.5h-55v108h43q74 0 121 30t47 97q0 113 -160 113q-93 0 -131.5 -37t-38.5 -127h-145q0 142 81.5 220.5t239.5 78.5q130 0 215.5 -62t85.5 -172 q0 -71 -35 -122t-81 -62q62 -15 105.5 -72.5t43.5 -144.5q0 -122 -97 -195t-243 -73z" />
<glyph unicode="&#xb4;" horiz-adv-x="374" d="M20 1174l125 294h209l-209 -294h-125z" />
<glyph unicode="&#xb5;" horiz-adv-x="1212" d="M172 -369v1426h184l-2 -633q0 -142 65 -208t173 -66q68 0 120.5 27.5t83 73.5t45.5 101t15 115v590h184v-1057h-178v106q-38 -60 -117.5 -96.5t-173.5 -36.5q-146 0 -217 78v-420h-182z" />
<glyph unicode="&#xb6;" horiz-adv-x="1271" d="M330 -346v164h10q44 0 76 5.5t55.5 13.5t38.5 25t24.5 34t13.5 48.5t5.5 60t1.5 75.5v620q-492 0 -492 381q0 168 121 274.5t324 106.5h657v-151h-110v-1604h-160v1604h-180v-1231q0 -123 -17 -201.5t-60.5 -130t-114 -72.5t-181.5 -22h-12z" />
<glyph unicode="&#xb7;" horiz-adv-x="503" d="M254 508q-53 0 -90 36.5t-37 90.5q0 53 37.5 90t89.5 37q50 0 86.5 -37t36.5 -90q0 -51 -37 -89t-86 -38z" />
<glyph unicode="&#xb8;" horiz-adv-x="481" d="M231 -399q-132 6 -225 80l47 75q64 -49 156 -49q50 0 76 18t26 50q0 30 -19 47.5t-52 17.5q-49 0 -95 -16l-41 59l117 117h98l-77 -76l4 -4q24 4 47 4q79 0 126.5 -36.5t47.5 -100.5q0 -87 -68.5 -136.5t-167.5 -49.5z" />
<glyph unicode="&#xb9;" horiz-adv-x="595" d="M295 563v627q-111 -32 -229 -43v119q106 8 167.5 46t88.5 120h135v-869h-162z" />
<glyph unicode="&#xba;" horiz-adv-x="833" d="M416 776q-148 0 -238 97t-90 249q0 145 91.5 244.5t238.5 99.5q146 0 235.5 -96.5t89.5 -247.5q0 -148 -89.5 -247t-237.5 -99zM418 913q80 0 128 56.5t48 152.5q0 95 -48 151t-128 56q-82 0 -131 -56t-49 -151q0 -96 49 -152.5t131 -56.5z" />
<glyph unicode="&#xbb;" horiz-adv-x="821" d="M141 199v172l170 182l-170 182v172l265 -266v-174zM455 199v172l170 182l-170 182v172l264 -266v-174z" />
<glyph unicode="&#xbc;" horiz-adv-x="1624" d="M246 -55l852 1528h145l-850 -1528h-147zM295 563v627q-111 -32 -229 -43v119q106 8 167.5 46t88.5 120h135v-869h-162zM1270 2v174h-436v137l432 553h161v-561h140v-129h-140v-174h-157zM991 305h279v352h-4z" />
<glyph unicode="&#xbd;" horiz-adv-x="1759" d="M297 -53l846 1526h151l-843 -1526h-154zM295 563v627q-111 -32 -229 -43v119q106 8 167.5 46t88.5 120h135v-869h-162zM1004 2q0 46 7.5 83.5t25.5 70.5t38 58.5t57 56t68.5 53t85.5 57.5q119 78 153 110q60 58 60 125q0 57 -41 91t-115 34q-87 0 -131.5 -49.5 t-44.5 -136.5h-161q3 156 94.5 245t257.5 89q136 0 220.5 -69.5t84.5 -192.5q0 -100 -56 -164.5t-227 -177.5q-48 -32 -75.5 -51.5t-57.5 -48.5t-37 -52h461v-131h-667z" />
<glyph unicode="&#xbe;" horiz-adv-x="1777" d="M459 -55l852 1528h145l-850 -1528h-147zM416 545q-159 0 -250 83.5t-88 233.5h145q-3 -89 47 -136.5t146 -47.5q86 0 137 38t51 107q0 71 -48 106.5t-136 35.5h-55v108h43q74 0 120.5 30t46.5 97q0 113 -159 113q-93 0 -131.5 -37t-38.5 -127h-146q0 142 81.5 220.5 t240.5 78.5q130 0 215.5 -62t85.5 -172q0 -71 -35.5 -122t-81.5 -62q62 -15 106 -72.5t44 -144.5q0 -122 -97 -195t-243 -73zM1423 2v174h-436v137l432 553h162v-561h139v-129h-139v-174h-158zM1145 305h278v352h-4z" />
<glyph unicode="&#xbf;" horiz-adv-x="1042" d="M532 1094q51 0 88 -36.5t37 -88.5q0 -51 -37 -88t-88 -37q-52 0 -89 37t-37 88q0 52 36.5 88.5t89.5 36.5zM633 692q0 -47 -2 -67q-5 -108 -41.5 -182.5t-138.5 -176.5l-80 -80q-99 -99 -99 -204q0 -111 61.5 -174.5t180.5 -63.5q137 0 200 64.5t72 220.5h197 q-6 -217 -129.5 -337t-341.5 -120q-197 0 -321.5 94t-124.5 268q0 115 39 193.5t139 181.5l102 105q44 44 65 92.5t27 122.5q2 20 2 63h193z" />
<glyph unicode="&#xc0;" horiz-adv-x="1353" d="M829 1581h-141l-250 274h226zM1114 0l-164 459h-555l-168 -459h-198l542 1468h215l535 -1468h-207zM465 651h416l-205 570h-4z" />
<glyph unicode="&#xc1;" horiz-adv-x="1353" d="M911 1855l-249 -274h-142l166 274h225zM1114 0l-164 459h-555l-168 -459h-198l542 1468h215l535 -1468h-207zM465 651h416l-205 570h-4z" />
<glyph unicode="&#xc2;" horiz-adv-x="1353" d="M668 1724l-164 -143h-150l242 274h160l239 -274h-151zM1114 0l-164 459h-555l-168 -459h-198l542 1468h215l535 -1468h-207zM465 651h416l-205 570h-4z" />
<glyph unicode="&#xc3;" horiz-adv-x="1353" d="M584 1671q-56 0 -56 -53h-127q0 93 44 141.5t112 48.5q50 0 129.5 -25.5t112.5 -25.5q57 0 57 53h125q0 -93 -44 -142.5t-112 -49.5q-50 0 -129 26.5t-112 26.5zM1114 0l-164 459h-555l-168 -459h-198l542 1468h215l535 -1468h-207zM465 651h416l-205 570h-4z" />
<glyph unicode="&#xc4;" horiz-adv-x="1353" d="M481 1610q-46 0 -78 32t-32 78q0 44 32.5 76.5t77.5 32.5q46 0 78.5 -32.5t32.5 -76.5q0 -46 -32.5 -78t-78.5 -32zM868 1610q-46 0 -78 32t-32 78q0 44 32 76.5t78 32.5t78.5 -32.5t32.5 -76.5q0 -46 -32.5 -78t-78.5 -32zM1114 0l-164 459h-555l-168 -459h-198 l542 1468h215l535 -1468h-207zM465 651h416l-205 570h-4z" />
<glyph unicode="&#xc5;" horiz-adv-x="1353" d="M676 1509q-91 0 -153 59.5t-62 149.5q0 91 62 152t153 61q90 0 152.5 -61.5t62.5 -151.5t-62.5 -149.5t-152.5 -59.5zM676 1839q-48 0 -81.5 -34.5t-33.5 -86.5t33.5 -85.5t81.5 -33.5q50 0 82.5 33.5t32.5 85.5t-32.5 86.5t-82.5 34.5zM1114 0l-164 459h-555l-168 -459 h-198l542 1468h215l535 -1468h-207zM465 651h416l-205 570h-4z" />
<glyph unicode="&#xc6;" horiz-adv-x="1857" d="M1049 172h702v-172h-899v467h-428l-236 -467h-215l756 1462h1010v-172h-690v-452h643v-162h-643v-504zM504 623h348v669h-10z" />
<glyph unicode="&#xc7;" horiz-adv-x="1478" d="M784 156q79 0 145 20.5t108 49.5t78 73t54 78.5t37 79.5h195q-16 -72 -49 -140.5t-85.5 -130.5t-118.5 -109.5t-153 -77.5t-184 -34l-43 -41l4 -4q24 4 47 4q79 0 126.5 -36.5t47.5 -100.5q0 -87 -68 -136.5t-167 -49.5q-133 6 -226 80l48 75q64 -49 155 -49 q50 0 76.5 18.5t26.5 49.5q0 30 -19.5 47.5t-52.5 17.5q-48 0 -94 -16l-41 59l84 84q-136 12 -251 71.5t-196.5 156t-127.5 233t-46 297.5q0 156 50 297t138.5 246t219 167t282.5 62q142 0 257 -44t189 -119.5t117.5 -168.5t55.5 -198h-195q-30 152 -144.5 246t-283.5 94 q-119 0 -213 -49t-151 -132t-87 -185.5t-30 -215.5q0 -158 56 -286t168 -205.5t261 -77.5z" />
<glyph unicode="&#xc8;" horiz-adv-x="1271" d="M702 1581l-249 274h225l166 -274h-142zM188 0v1468h967v-182h-766v-448h709v-181h-709v-477h778v-180h-979z" />
<glyph unicode="&#xc9;" horiz-adv-x="1271" d="M535 1581l165 274h226l-250 -274h-141zM188 0v1468h967v-182h-766v-448h709v-181h-709v-477h778v-180h-979z" />
<glyph unicode="&#xca;" horiz-adv-x="1271" d="M369 1581l241 274h160l240 -274h-152l-176 143l-164 -143h-149zM188 0v1468h967v-182h-766v-448h709v-181h-709v-477h778v-180h-979z" />
<glyph unicode="&#xcb;" horiz-adv-x="1271" d="M496 1610q-46 0 -78.5 32t-32.5 78q0 44 32.5 76.5t78.5 32.5t78 -32.5t32 -76.5q0 -46 -32 -78t-78 -32zM883 1610q-46 0 -78.5 32t-32.5 78q0 44 32.5 76.5t78.5 32.5q45 0 77.5 -32.5t32.5 -76.5q0 -46 -32 -78t-78 -32zM188 0v1468h967v-182h-766v-448h709v-181h-709 v-477h778v-180h-979z" />
<glyph unicode="&#xcc;" horiz-adv-x="577" d="M301 1581l-250 274h225l166 -274h-141zM188 0v1468h201v-1468h-201z" />
<glyph unicode="&#xcd;" horiz-adv-x="577" d="M133 1581l166 274h225l-250 -274h-141zM188 0v1468h201v-1468h-201z" />
<glyph unicode="&#xce;" horiz-adv-x="577" d="M-33 1581l242 274h160l239 -274h-151l-176 143l-164 -143h-150zM188 0v1468h201v-1468h-201z" />
<glyph unicode="&#xcf;" horiz-adv-x="577" d="M94 1610q-46 0 -78 32t-32 78q0 44 32 76.5t78 32.5t78.5 -32.5t32.5 -76.5q0 -46 -32.5 -78t-78.5 -32zM481 1610q-46 0 -78 32t-32 78q0 44 32.5 76.5t77.5 32.5q46 0 78.5 -32.5t32.5 -76.5q0 -46 -32.5 -78t-78.5 -32zM188 0v1468h201v-1468h-201z" />
<glyph unicode="&#xd0;" horiz-adv-x="1505" d="M678 1468q148 0 279 -48t233 -138t161.5 -231.5t59.5 -315.5q0 -158 -54.5 -294t-151.5 -233.5t-238 -152.5t-308 -55h-458v664h-172v133h172v671h477zM659 182q113 0 211.5 35.5t174 103t119.5 174t44 240.5q0 268 -154.5 408.5t-414.5 140.5h-238v-487h279v-133h-279 v-482h258z" />
<glyph unicode="&#xd1;" horiz-adv-x="1542" d="M498 1618q0 93 43.5 141.5t111.5 48.5q50 0 129.5 -25.5t112.5 -25.5q57 0 57 53h125q0 -93 -43.5 -142.5t-111.5 -49.5q-50 0 -129.5 26.5t-112.5 26.5q-55 0 -55 -53h-127zM188 0v1468h189l784 -1138v1138h193v-1468h-193l-784 1137v-1137h-189z" />
<glyph unicode="&#xd2;" horiz-adv-x="1603" d="M764 1581l-250 274h225l166 -274h-141zM803 -35q-162 0 -297 60.5t-224.5 164t-138.5 242t-49 295.5q0 160 49 300t138.5 244.5t224 165t297.5 60.5t297 -60.5t223 -165t137.5 -244.5t48.5 -300q0 -157 -48.5 -295.5t-137.5 -242.5t-223.5 -164t-296.5 -60zM803 156 q156 0 272.5 77.5t174.5 206t57 287.5q0 164 -58 294t-173.5 208t-272.5 78t-272.5 -78t-173 -208t-58.5 -294q1 -119 34.5 -222.5t96 -181t159 -122.5t214.5 -45z" />
<glyph unicode="&#xd3;" horiz-adv-x="1603" d="M688 1581l166 274h225l-250 -274h-141zM803 -35q-162 0 -297 60.5t-224.5 164t-138.5 242t-49 295.5q0 160 49 300t138.5 244.5t224 165t297.5 60.5t297 -60.5t223 -165t137.5 -244.5t48.5 -300q0 -157 -48.5 -295.5t-137.5 -242.5t-223.5 -164t-296.5 -60zM803 156 q156 0 272.5 77.5t174.5 206t57 287.5q0 164 -58 294t-173.5 208t-272.5 78t-272.5 -78t-173 -208t-58.5 -294q1 -119 34.5 -222.5t96 -181t159 -122.5t214.5 -45z" />
<glyph unicode="&#xd4;" horiz-adv-x="1603" d="M481 1581l242 274h160l239 -274h-151l-176 143l-164 -143h-150zM803 -35q-162 0 -297 60.5t-224.5 164t-138.5 242t-49 295.5q0 160 49 300t138.5 244.5t224 165t297.5 60.5t297 -60.5t223 -165t137.5 -244.5t48.5 -300q0 -157 -48.5 -295.5t-137.5 -242.5t-223.5 -164 t-296.5 -60zM803 156q156 0 272.5 77.5t174.5 206t57 287.5q0 164 -58 294t-173.5 208t-272.5 78t-272.5 -78t-173 -208t-58.5 -294q1 -119 34.5 -222.5t96 -181t159 -122.5t214.5 -45z" />
<glyph unicode="&#xd5;" horiz-adv-x="1603" d="M528 1618q0 93 44 141.5t112 48.5q50 0 129.5 -25.5t112.5 -25.5q57 0 57 53h125q0 -93 -44 -142.5t-112 -49.5q-50 0 -129 26.5t-112 26.5q-56 0 -56 -53h-127zM803 -35q-162 0 -297 60.5t-224.5 164t-138.5 242t-49 295.5q0 160 49 300t138.5 244.5t224 165t297.5 60.5 t297 -60.5t223 -165t137.5 -244.5t48.5 -300q0 -157 -48.5 -295.5t-137.5 -242.5t-223.5 -164t-296.5 -60zM803 156q156 0 272.5 77.5t174.5 206t57 287.5q0 164 -58 294t-173.5 208t-272.5 78t-272.5 -78t-173 -208t-58.5 -294q1 -119 34.5 -222.5t96 -181t159 -122.5 t214.5 -45z" />
<glyph unicode="&#xd6;" horiz-adv-x="1603" d="M608 1610q-46 0 -78 32t-32 78q0 44 32 76.5t78 32.5t78.5 -32.5t32.5 -76.5q0 -46 -32.5 -78t-78.5 -32zM995 1610q-46 0 -78 32t-32 78q0 44 32.5 76.5t77.5 32.5q46 0 78.5 -32.5t32.5 -76.5q0 -46 -32.5 -78t-78.5 -32zM803 -35q-162 0 -297 60.5t-224.5 164 t-138.5 242t-49 295.5q0 160 49 300t138.5 244.5t224 165t297.5 60.5t297 -60.5t223 -165t137.5 -244.5t48.5 -300q0 -157 -48.5 -295.5t-137.5 -242.5t-223.5 -164t-296.5 -60zM803 156q156 0 272.5 77.5t174.5 206t57 287.5q0 164 -58 294t-173.5 208t-272.5 78 t-272.5 -78t-173 -208t-58.5 -294q1 -119 34.5 -222.5t96 -181t159 -122.5t214.5 -45z" />
<glyph unicode="&#xd7;" horiz-adv-x="1073" d="M201 104l-101 101l334 354l-332 354l101 101l332 -355l333 355l103 -101l-336 -354l336 -354l-103 -101l-333 355z" />
<glyph unicode="&#xd8;" horiz-adv-x="1611" d="M1350 1243q163 -208 163 -516q0 -157 -48.5 -295.5t-137.5 -242.5t-223.5 -164t-296.5 -60q-270 0 -461 164l-149 -168l-91 84l156 174q-164 209 -164 508q0 160 49 300t138.5 244.5t224 165t297.5 60.5q271 0 459 -164l149 168l90 -84zM303 727q0 -202 96 -356l734 817 q-132 119 -326 119q-157 0 -272.5 -78t-173 -208t-58.5 -294zM807 156q156 0 272.5 77.5t174.5 206t57 287.5q0 218 -99 365l-733 -816q129 -120 328 -120z" />
<glyph unicode="&#xd9;" horiz-adv-x="1460" d="M743 1581l-249 274h225l166 -274h-142zM729 -35q-271 0 -415 162.5t-144 480.5v860h201v-858q0 -103 18 -182.5t58 -142t111 -96t171 -33.5q189 0 273.5 113t84.5 341v858h203v-860q0 -316 -145.5 -479.5t-415.5 -163.5z" />
<glyph unicode="&#xda;" horiz-adv-x="1460" d="M575 1581l166 274h226l-250 -274h-142zM729 -35q-271 0 -415 162.5t-144 480.5v860h201v-858q0 -103 18 -182.5t58 -142t111 -96t171 -33.5q189 0 273.5 113t84.5 341v858h203v-860q0 -316 -145.5 -479.5t-415.5 -163.5z" />
<glyph unicode="&#xdb;" horiz-adv-x="1460" d="M410 1581l241 274h160l240 -274h-152l-176 143l-164 -143h-149zM729 -35q-271 0 -415 162.5t-144 480.5v860h201v-858q0 -103 18 -182.5t58 -142t111 -96t171 -33.5q189 0 273.5 113t84.5 341v858h203v-860q0 -316 -145.5 -479.5t-415.5 -163.5z" />
<glyph unicode="&#xdc;" horiz-adv-x="1460" d="M537 1610q-46 0 -78.5 32t-32.5 78q0 44 32.5 76.5t78.5 32.5q45 0 77.5 -32.5t32.5 -76.5q0 -46 -32 -78t-78 -32zM924 1610q-46 0 -78.5 32t-32.5 78q0 44 32.5 76.5t78.5 32.5t78 -32.5t32 -76.5q0 -46 -32 -78t-78 -32zM729 -35q-271 0 -415 162.5t-144 480.5v860 h201v-858q0 -103 18 -182.5t58 -142t111 -96t171 -33.5q189 0 273.5 113t84.5 341v858h203v-860q0 -316 -145.5 -479.5t-415.5 -163.5z" />
<glyph unicode="&#xdd;" horiz-adv-x="1327" d="M510 1581l166 274h225l-250 -274h-141zM561 0v582l-538 880h231l416 -688l411 688h226l-543 -876v-586h-203z" />
<glyph unicode="&#xde;" horiz-adv-x="1310" d="M188 0v1462h201v-284h402q115 0 203.5 -33t143 -93t82 -138.5t27.5 -174.5q0 -193 -120.5 -315.5t-346.5 -122.5h-391v-301h-201zM389 461h348q67 0 122 15t99 46.5t68.5 87t24.5 129.5q0 279 -314 279h-348v-557z" />
<glyph unicode="&#xdf;" horiz-adv-x="1161" d="M147 0v1024q0 208 124 333.5t321 125.5q199 0 316.5 -103.5t117.5 -289.5q0 -103 -52 -192t-120 -128q84 -26 151.5 -119t67.5 -225q0 -205 -123 -315.5t-358 -110.5h-139v166h139q140 0 216.5 67t76.5 195q0 122 -78.5 183t-190.5 61h-51v172h51q102 0 163 69t61 172 q0 107 -71 165.5t-177 58.5q-66 0 -117 -23t-79.5 -62t-43 -84.5t-14.5 -95.5v-1044h-191z" />
<glyph unicode="&#xe0;" horiz-adv-x="1105" d="M618 1174h-124l-209 294h209zM410 -27q-140 0 -239 83.5t-99 222.5q0 76 25 134.5t73 97.5t108 63.5t138 39.5l227 43q70 13 91.5 36.5t21.5 70.5q0 61 -51 102t-168 41q-116 0 -172 -42.5t-54 -123.5h-190q1 159 112.5 250.5t298.5 91.5q92 0 163 -18t129 -59.5t89 -117 t31 -181.5v-480q0 -39 16 -55t56 -16h24v-156h-149q-59 0 -90 29t-31 84v22q-119 -162 -360 -162zM453 145q137 0 223 78t86 189v125q-34 -20 -88 -31l-182 -39q-114 -24 -163.5 -61.5t-49.5 -108.5t45 -111.5t129 -40.5z" />
<glyph unicode="&#xe1;" horiz-adv-x="1105" d="M440 1174l125 294h209l-209 -294h-125zM410 -27q-140 0 -239 83.5t-99 222.5q0 76 25 134.5t73 97.5t108 63.5t138 39.5l227 43q70 13 91.5 36.5t21.5 70.5q0 61 -51 102t-168 41q-116 0 -172 -42.5t-54 -123.5h-190q1 159 112.5 250.5t298.5 91.5q92 0 163 -18 t129 -59.5t89 -117t31 -181.5v-480q0 -39 16 -55t56 -16h24v-156h-149q-59 0 -90 29t-31 84v22q-119 -162 -360 -162zM453 145q137 0 223 78t86 189v125q-34 -20 -88 -31l-182 -39q-114 -24 -163.5 -61.5t-49.5 -108.5t45 -111.5t129 -40.5z" />
<glyph unicode="&#xe2;" horiz-adv-x="1105" d="M236 1176l221 292h159l220 -292h-152l-156 161l-147 -161h-145zM410 -27q-140 0 -239 83.5t-99 222.5q0 76 25 134.5t73 97.5t108 63.5t138 39.5l227 43q70 13 91.5 36.5t21.5 70.5q0 61 -51 102t-168 41q-116 0 -172 -42.5t-54 -123.5h-190q1 159 112.5 250.5 t298.5 91.5q92 0 163 -18t129 -59.5t89 -117t31 -181.5v-480q0 -39 16 -55t56 -16h24v-156h-149q-59 0 -90 29t-31 84v22q-119 -162 -360 -162zM453 145q137 0 223 78t86 189v125q-34 -20 -88 -31l-182 -39q-114 -24 -163.5 -61.5t-49.5 -108.5t45 -111.5t129 -40.5z" />
<glyph unicode="&#xe3;" horiz-adv-x="1105" d="M248 1247q0 93 43.5 142t111.5 49q49 0 127 -26t111 -26q24 0 40.5 13t16.5 41h125q0 -93 -43.5 -143t-111.5 -50q-48 0 -126 26.5t-112 26.5q-55 0 -55 -53h-127zM410 -27q-140 0 -239 83.5t-99 222.5q0 76 25 134.5t73 97.5t108 63.5t138 39.5l227 43q70 13 91.5 36.5 t21.5 70.5q0 61 -51 102t-168 41q-116 0 -172 -42.5t-54 -123.5h-190q1 159 112.5 250.5t298.5 91.5q92 0 163 -18t129 -59.5t89 -117t31 -181.5v-480q0 -39 16 -55t56 -16h24v-156h-149q-59 0 -90 29t-31 84v22q-119 -162 -360 -162zM453 145q137 0 223 78t86 189v125 q-34 -20 -88 -31l-182 -39q-114 -24 -163.5 -61.5t-49.5 -108.5t45 -111.5t129 -40.5z" />
<glyph unicode="&#xe4;" horiz-adv-x="1105" d="M356 1229q-46 0 -78 32t-32 78q0 45 32 77t78 32t78.5 -32.5t32.5 -76.5q0 -46 -32.5 -78t-78.5 -32zM717 1229q-46 0 -78.5 32t-32.5 78q0 44 32.5 76.5t78.5 32.5q45 0 77.5 -32t32.5 -77q0 -46 -32 -78t-78 -32zM410 -27q-140 0 -239 83.5t-99 222.5q0 76 25 134.5 t73 97.5t108 63.5t138 39.5l227 43q70 13 91.5 36.5t21.5 70.5q0 61 -51 102t-168 41q-116 0 -172 -42.5t-54 -123.5h-190q1 159 112.5 250.5t298.5 91.5q92 0 163 -18t129 -59.5t89 -117t31 -181.5v-480q0 -39 16 -55t56 -16h24v-156h-149q-59 0 -90 29t-31 84v22 q-119 -162 -360 -162zM453 145q137 0 223 78t86 189v125q-34 -20 -88 -31l-182 -39q-114 -24 -163.5 -61.5t-49.5 -108.5t45 -111.5t129 -40.5z" />
<glyph unicode="&#xe5;" horiz-adv-x="1105" d="M537 1124q-91 0 -153 62t-62 155q0 94 62 157t153 63q90 0 152.5 -63.5t62.5 -156.5t-62.5 -155t-152.5 -62zM537 1223q47 0 77.5 33t30.5 85t-30.5 85.5t-77.5 33.5q-48 0 -79.5 -33.5t-31.5 -85.5t31.5 -85t79.5 -33zM410 -27q-140 0 -239 83.5t-99 222.5 q0 76 25 134.5t73 97.5t108 63.5t138 39.5l227 43q70 13 91.5 36.5t21.5 70.5q0 61 -51 102t-168 41q-116 0 -172 -42.5t-54 -123.5h-190q1 159 112.5 250.5t298.5 91.5q92 0 163 -18t129 -59.5t89 -117t31 -181.5v-480q0 -39 16 -55t56 -16h24v-156h-149q-59 0 -90 29 t-31 84v22q-119 -162 -360 -162zM453 145q137 0 223 78t86 189v125q-34 -20 -88 -31l-182 -39q-114 -24 -163.5 -61.5t-49.5 -108.5t45 -111.5t129 -40.5z" />
<glyph unicode="&#xe6;" horiz-adv-x="1796" d="M948 465q7 -144 93 -229.5t214 -85.5q103 0 171.5 43.5t86.5 125.5h181q-29 -156 -149 -251t-294 -95q-133 0 -239 58t-170 166q-131 -224 -432 -224q-140 0 -239 83.5t-99 222.5q0 76 25 134.5t73 97.5t108 63.5t138 39.5l227 43q70 13 91.5 36.5t21.5 70.5 q0 61 -51 102t-168 41q-116 0 -172 -42.5t-54 -123.5h-190q1 159 112.5 250.5t298.5 91.5q274 0 363 -159q67 76 158.5 117.5t197.5 41.5q218 0 343.5 -145t125.5 -383q0 -63 -2 -90h-770zM1249 907q-122 0 -203 -73.5t-94 -202.5h578q-8 119 -83 197.5t-198 78.5zM762 412 v125q-34 -20 -88 -31l-182 -39q-114 -24 -163.5 -61.5t-49.5 -108.5q0 -70 46 -110t128 -40q137 0 223 78t86 187z" />
<glyph unicode="&#xe7;" horiz-adv-x="1097" d="M571 150q118 0 177.5 48t74.5 158h191q-18 -169 -118 -266t-263 -115l-53 -51l4 -4q24 4 47 4q79 0 126.5 -36.5t47.5 -100.5q0 -87 -68.5 -136.5t-167.5 -49.5q-132 6 -225 80l47 75q64 -49 156 -49q50 0 76 18t26 50q0 30 -19 47.5t-52 17.5q-49 0 -95 -16l-41 59 l93 92q-209 12 -328 162t-119 383q0 163 56 289t169 200t269 74q181 0 299.5 -100.5t132.5 -302.5h-191q-3 105 -68.5 166t-174.5 61q-79 0 -139.5 -31.5t-96 -86t-53 -122t-17.5 -145.5q0 -107 30.5 -189t99 -132.5t167.5 -50.5z" />
<glyph unicode="&#xe8;" horiz-adv-x="1122" d="M657 1174h-125l-208 294h208zM274 465q7 -144 93.5 -229.5t214.5 -85.5q103 0 171.5 43.5t86.5 125.5h180q-29 -157 -149 -251.5t-293 -94.5q-216 0 -353 146.5t-137 408.5q0 247 138.5 401t351.5 154q218 0 343.5 -145t125.5 -383q0 -49 -3 -90h-770zM575 907 q-122 0 -202.5 -73.5t-93.5 -202.5h577q-8 119 -83 197.5t-198 78.5z" />
<glyph unicode="&#xe9;" horiz-adv-x="1122" d="M813 1468l-209 -294h-125l125 294h209zM274 465q7 -144 93.5 -229.5t214.5 -85.5q103 0 171.5 43.5t86.5 125.5h180q-29 -157 -149 -251.5t-293 -94.5q-216 0 -353 146.5t-137 408.5q0 247 138.5 401t351.5 154q218 0 343.5 -145t125.5 -383q0 -49 -3 -90h-770zM575 907 q-122 0 -202.5 -73.5t-93.5 -202.5h577q-8 119 -83 197.5t-198 78.5z" />
<glyph unicode="&#xea;" horiz-adv-x="1122" d="M567 1337l-147 -161h-146l222 292h159l219 -292h-151zM274 465q7 -144 93.5 -229.5t214.5 -85.5q103 0 171.5 43.5t86.5 125.5h180q-29 -157 -149 -251.5t-293 -94.5q-216 0 -353 146.5t-137 408.5q0 247 138.5 401t351.5 154q218 0 343.5 -145t125.5 -383q0 -49 -3 -90 h-770zM575 907q-122 0 -202.5 -73.5t-93.5 -202.5h577q-8 119 -83 197.5t-198 78.5z" />
<glyph unicode="&#xeb;" horiz-adv-x="1122" d="M395 1229q-46 0 -78 32t-32 78q0 45 32.5 77t77.5 32q46 0 78.5 -32.5t32.5 -76.5q0 -46 -32.5 -78t-78.5 -32zM756 1229q-46 0 -78.5 32t-32.5 78q0 44 32.5 76.5t78.5 32.5t78 -32t32 -77q0 -46 -32 -78t-78 -32zM274 465q7 -144 93.5 -229.5t214.5 -85.5 q103 0 171.5 43.5t86.5 125.5h180q-29 -157 -149 -251.5t-293 -94.5q-216 0 -353 146.5t-137 408.5q0 247 138.5 401t351.5 154q218 0 343.5 -145t125.5 -383q0 -49 -3 -90h-770zM575 907q-122 0 -202.5 -73.5t-93.5 -202.5h577q-8 119 -83 197.5t-198 78.5z" />
<glyph unicode="&#xec;" horiz-adv-x="479" d="M322 1174h-125l-209 294h209zM147 0v1057h185v-1057h-185z" />
<glyph unicode="&#xed;" horiz-adv-x="479" d="M143 1174l125 294h209l-209 -294h-125zM147 0v1057h185v-1057h-185z" />
<glyph unicode="&#xee;" horiz-adv-x="479" d="M-61 1176l221 292h159l220 -292h-152l-156 161l-147 -161h-145zM147 0v1057h185v-1057h-185z" />
<glyph unicode="&#xef;" horiz-adv-x="479" d="M59 1229q-46 0 -78 32t-32 78q0 45 32.5 77t77.5 32q46 0 78.5 -32.5t32.5 -76.5q0 -46 -32.5 -78t-78.5 -32zM420 1229q-46 0 -78.5 32t-32.5 78q0 44 32.5 76.5t78.5 32.5t78 -32t32 -77q0 -46 -32 -78t-78 -32zM147 0v1057h185v-1057h-185z" />
<glyph unicode="&#xf0;" horiz-adv-x="1169" d="M1075 537v-15v-14q0 -147 -59.5 -268t-174 -194t-261.5 -73q-222 0 -358 151t-136 384q0 148 60 269t173.5 193t260.5 72q108 0 192 -34q-97 150 -194 233l-224 -125l-53 94l191 107q-72 60 -134 90l84 125q147 -81 205 -131l232 129l57 -92l-203 -113 q171 -171 256.5 -364.5t85.5 -423.5zM580 139q140 0 225.5 102t85.5 267q0 164 -85.5 266.5t-225.5 102.5t-225 -102.5t-85 -266.5q0 -165 85 -267t225 -102z" />
<glyph unicode="&#xf1;" horiz-adv-x="1161" d="M297 1247q0 93 44 142t112 49q49 0 126 -26t111 -26q24 0 41 13t17 41h124q0 -93 -43.5 -143t-111.5 -50q-49 0 -127 26.5t-111 26.5q-55 0 -55 -53h-127zM147 0v1057h179v-109q45 60 128.5 97.5t178.5 37.5q185 0 288 -114t103 -318v-651h-184l2 621q0 135 -62.5 210.5 t-165.5 75.5q-126 0 -204 -85t-78 -224v-598h-185z" />
<glyph unicode="&#xf2;" horiz-adv-x="1161" d="M657 1174h-125l-208 294h208zM580 -27q-222 0 -358 156.5t-136 398.5q0 153 60 278.5t173.5 201t260.5 75.5q222 0 358.5 -157.5t136.5 -397.5q0 -153 -59.5 -278.5t-173.5 -201t-262 -75.5zM580 145q140 0 225.5 106t85.5 277q0 170 -85.5 276.5t-225.5 106.5 t-225 -106.5t-85 -276.5q0 -171 85 -277t225 -106z" />
<glyph unicode="&#xf3;" horiz-adv-x="1161" d="M479 1174l125 294h209l-209 -294h-125zM580 -27q-222 0 -358 156.5t-136 398.5q0 153 60 278.5t173.5 201t260.5 75.5q222 0 358.5 -157.5t136.5 -397.5q0 -153 -59.5 -278.5t-173.5 -201t-262 -75.5zM580 145q140 0 225.5 106t85.5 277q0 170 -85.5 276.5t-225.5 106.5 t-225 -106.5t-85 -276.5q0 -171 85 -277t225 -106z" />
<glyph unicode="&#xf4;" horiz-adv-x="1161" d="M274 1176l222 292h159l219 -292h-151l-156 161l-147 -161h-146zM580 -27q-222 0 -358 156.5t-136 398.5q0 153 60 278.5t173.5 201t260.5 75.5q222 0 358.5 -157.5t136.5 -397.5q0 -153 -59.5 -278.5t-173.5 -201t-262 -75.5zM580 145q140 0 225.5 106t85.5 277 q0 170 -85.5 276.5t-225.5 106.5t-225 -106.5t-85 -276.5q0 -171 85 -277t225 -106z" />
<glyph unicode="&#xf5;" horiz-adv-x="1161" d="M287 1247q0 93 43.5 142t111.5 49q48 0 126 -26t112 -26q24 0 40.5 13t16.5 41h125q0 -93 -43.5 -143t-111.5 -50q-49 0 -126.5 26.5t-111.5 26.5q-55 0 -55 -53h-127zM580 -27q-222 0 -358 156.5t-136 398.5q0 153 60 278.5t173.5 201t260.5 75.5q222 0 358.5 -157.5 t136.5 -397.5q0 -153 -59.5 -278.5t-173.5 -201t-262 -75.5zM580 145q140 0 225.5 106t85.5 277q0 170 -85.5 276.5t-225.5 106.5t-225 -106.5t-85 -276.5q0 -171 85 -277t225 -106z" />
<glyph unicode="&#xf6;" horiz-adv-x="1161" d="M395 1229q-46 0 -78 32t-32 78q0 45 32.5 77t77.5 32q46 0 78.5 -32.5t32.5 -76.5q0 -46 -32.5 -78t-78.5 -32zM756 1229q-46 0 -78.5 32t-32.5 78q0 44 32.5 76.5t78.5 32.5t78 -32t32 -77q0 -46 -32 -78t-78 -32zM580 -27q-222 0 -358 156.5t-136 398.5q0 153 60 278.5 t173.5 201t260.5 75.5q222 0 358.5 -157.5t136.5 -397.5q0 -153 -59.5 -278.5t-173.5 -201t-262 -75.5zM580 145q140 0 225.5 106t85.5 277q0 170 -85.5 276.5t-225.5 106.5t-225 -106.5t-85 -276.5q0 -171 85 -277t225 -106z" />
<glyph unicode="&#xf7;" horiz-adv-x="1204" d="M602 852q-56 0 -94.5 39.5t-38.5 95.5q0 58 39 96.5t94 38.5q53 0 92 -39.5t39 -95.5q0 -54 -37 -94.5t-94 -40.5zM111 487v144h983v-144h-983zM602 -6q-56 0 -94.5 40t-38.5 95q0 57 39.5 96t93.5 39q53 0 92 -39.5t39 -95.5q0 -54 -37 -94.5t-94 -40.5z" />
<glyph unicode="&#xf8;" horiz-adv-x="1171" d="M1100 1030l-127 -139q108 -148 108 -363q0 -153 -59.5 -278.5t-173.5 -201t-262 -75.5q-193 0 -328 125l-119 -131l-65 58l127 139q-109 149 -109 364q0 153 60 278.5t173.5 201t260.5 75.5q196 0 329 -127l119 134zM276 528q0 -125 50 -223l469 518q-85 88 -209 88 q-140 0 -225 -106.5t-85 -276.5zM897 528q0 129 -49 222l-469 -519q80 -86 207 -86q140 0 225.5 106t85.5 277z" />
<glyph unicode="&#xf9;" horiz-adv-x="1153" d="M655 1174h-125l-208 294h208zM512 -27q-180 0 -277.5 108.5t-97.5 305.5v670h185l-3 -633q0 -142 65 -208t173 -66q68 0 120.5 27.5t83 73.5t45.5 101t15 115v590h185v-1057h-179v106q-37 -58 -124 -95.5t-191 -37.5z" />
<glyph unicode="&#xfa;" horiz-adv-x="1153" d="M477 1174l125 294h209l-209 -294h-125zM512 -27q-180 0 -277.5 108.5t-97.5 305.5v670h185l-3 -633q0 -142 65 -208t173 -66q68 0 120.5 27.5t83 73.5t45.5 101t15 115v590h185v-1057h-179v106q-37 -58 -124 -95.5t-191 -37.5z" />
<glyph unicode="&#xfb;" horiz-adv-x="1153" d="M272 1176l222 292h159l219 -292h-151l-156 161l-147 -161h-146zM512 -27q-180 0 -277.5 108.5t-97.5 305.5v670h185l-3 -633q0 -142 65 -208t173 -66q68 0 120.5 27.5t83 73.5t45.5 101t15 115v590h185v-1057h-179v106q-37 -58 -124 -95.5t-191 -37.5z" />
<glyph unicode="&#xfc;" horiz-adv-x="1153" d="M393 1229q-46 0 -78 32t-32 78q0 45 32.5 77t77.5 32q46 0 78.5 -32.5t32.5 -76.5q0 -46 -32.5 -78t-78.5 -32zM754 1229q-46 0 -78.5 32t-32.5 78q0 44 32.5 76.5t78.5 32.5t78 -32t32 -77q0 -46 -32 -78t-78 -32zM512 -27q-180 0 -277.5 108.5t-97.5 305.5v670h185 l-3 -633q0 -142 65 -208t173 -66q68 0 120.5 27.5t83 73.5t45.5 101t15 115v590h185v-1057h-179v106q-37 -58 -124 -95.5t-191 -37.5z" />
<glyph unicode="&#xfd;" horiz-adv-x="1056" d="M440 1174l125 294h209l-209 -294h-125zM141 -436v174h150q82 0 121 31q41 33 41 88q0 51 -35 151l-377 1049h213l176 -547l129 -393l115 393l145 547h201l-387 -1237q-45 -145 -111.5 -200.5t-187.5 -55.5h-193z" />
<glyph unicode="&#xfe;" horiz-adv-x="1185" d="M641 1083q209 0 333 -152.5t124 -398.5q0 -248 -129 -403.5t-334 -155.5q-196 0 -307 136l4 -543h-185v1902h170v-546q118 161 324 161zM625 145q133 0 210.5 107.5t77.5 277.5q0 166 -77.5 273.5t-208.5 107.5q-133 0 -215 -102.5t-82 -278.5q0 -181 83 -283t212 -102z " />
<glyph unicode="&#xff;" horiz-adv-x="1056" d="M356 1229q-46 0 -78 32t-32 78q0 45 32 77t78 32t78.5 -32.5t32.5 -76.5q0 -46 -32.5 -78t-78.5 -32zM717 1229q-46 0 -78.5 32t-32.5 78q0 44 32.5 76.5t78.5 32.5q45 0 77.5 -32t32.5 -77q0 -46 -32 -78t-78 -32zM141 -436v174h150q82 0 121 31q41 33 41 88 q0 51 -35 151l-377 1049h213l176 -547l129 -393l115 393l145 547h201l-387 -1237q-45 -145 -111.5 -200.5t-187.5 -55.5h-193z" />
<glyph unicode="&#x131;" horiz-adv-x="479" d="M147 0v1057h185v-1057h-185z" />
<glyph unicode="&#x13f;" horiz-adv-x="1159" d="M188 0v1468h201v-1278h731v-190h-932zM877 666q-53 0 -90 36.5t-37 90.5q0 53 37.5 90t89.5 37q50 0 86 -37t36 -90q0 -51 -36.5 -89t-85.5 -38z" />
<glyph unicode="&#x140;" horiz-adv-x="577" d="M358 0q-97 0 -157 46t-60 153v1269h183v-1241q0 -42 19 -56.5t56 -14.5h78v-156h-119zM516 659q-53 0 -90 36.5t-37 90.5q0 53 37.5 90t89.5 37q50 0 86.5 -37t36.5 -90q0 -51 -37 -89t-86 -38z" />
<glyph unicode="&#x141;" horiz-adv-x="1202" d="M432 190h731v-190h-932v571l-188 -137v154l188 137v743h201v-598l256 187v-152l-256 -186v-529z" />
<glyph unicode="&#x142;" horiz-adv-x="614" d="M539 897l-164 -137v-533q0 -42 19.5 -56.5t56.5 -14.5h77v-156h-118q-97 0 -157 46t-60 153v407l-109 -90v141l109 91v720h182v-567l164 137v-141z" />
<glyph unicode="&#x152;" horiz-adv-x="2228" d="M764 -35q-153 0 -280 60.5t-211.5 164t-130.5 242t-46 295.5q0 160 46 300t130.5 244.5t211.5 165t280 60.5q237 0 405 -143v114h942v-182h-741v-448h684v-181h-684v-477h754v-180h-955v109q-170 -144 -405 -144zM764 156q141 0 245 72.5t160 197.5v604 q-56 129 -159.5 203t-245.5 74q-109 0 -197 -45t-145.5 -123.5t-88.5 -184t-32 -227.5q1 -119 32 -222.5t88.5 -181t145.5 -122.5t197 -45z" />
<glyph unicode="&#x153;" horiz-adv-x="1925" d="M580 -27q-222 0 -358 156.5t-136 398.5q0 153 60 278.5t173.5 201t260.5 75.5q130 0 233.5 -57t169.5 -158q65 102 168.5 158.5t228.5 56.5q218 0 343.5 -145t125.5 -383q0 -63 -2 -90h-770q7 -144 93 -229.5t214 -85.5q103 0 171.5 43.5t86.5 125.5h181 q-29 -156 -149 -251t-294 -95q-128 0 -232.5 54.5t-170.5 156.5q-65 -98 -167.5 -154.5t-229.5 -56.5zM580 145q140 0 225.5 106t85.5 277q0 170 -85.5 276.5t-225.5 106.5t-225 -106.5t-85 -276.5q0 -171 85 -277t225 -106zM1081 631h578q-8 119 -83 197.5t-198 78.5 q-122 0 -203 -73.5t-94 -202.5z" />
<glyph unicode="&#x160;" horiz-adv-x="1277" d="M557 1581l-227 274h153l166 -157l162 157h143l-229 -274h-168zM643 -35q-262 0 -406.5 122.5t-144.5 369.5h195q-1 -158 92.5 -235t267.5 -77q332 0 332 232q0 50 -19 89.5t-47.5 66.5t-81 52t-98.5 40t-121 37q-63 19 -109 34t-99.5 37.5t-90 45t-73 54.5t-58.5 68 t-35.5 83.5t-13.5 102.5q0 102 42.5 182.5t114 129t158.5 73.5t183 25q105 0 195 -25t165.5 -77t120 -143.5t47.5 -213.5h-194q-3 75 -31.5 130.5t-76 87t-104 46.5t-122.5 15q-299 0 -299 -207q0 -53 14.5 -88t59.5 -67t109 -57.5t181 -63.5q67 -21 109 -35t98 -37.5 t91 -45.5t73.5 -54.5t59.5 -68.5t35 -84.5t14 -105.5q0 -201 -147.5 -319.5t-385.5 -118.5z" />
<glyph unicode="&#x161;" horiz-adv-x="999" d="M412 1176l-215 286h153l154 -170l149 170h144l-217 -286h-168zM504 -27q-91 0 -165.5 19.5t-134.5 60.5t-93 111.5t-33 165.5h190q7 -96 66 -142.5t172 -46.5q227 0 227 140q0 54 -36.5 81t-139.5 64l-137 47q-50 17 -83 29.5t-72.5 32t-64.5 41t-47.5 49.5t-33 65 t-10.5 82q0 149 110 230t281 81q85 0 155 -18.5t125.5 -57.5t86.5 -106.5t32 -159.5h-190q-4 89 -61 131.5t-152 42.5q-199 0 -199 -127q0 -51 34 -75.5t138 -61.5l195 -69q125 -44 187 -106.5t62 -174.5q0 -87 -33.5 -152.5t-92.5 -102.5t-129.5 -55t-153.5 -18z" />
<glyph unicode="&#x178;" horiz-adv-x="1327" d="M471 1610q-46 0 -78.5 32t-32.5 78q0 44 32.5 76.5t78.5 32.5t78.5 -32.5t32.5 -76.5q0 -46 -32.5 -78t-78.5 -32zM858 1610q-46 0 -78 32t-32 78q0 44 32 76.5t78 32.5t78.5 -32.5t32.5 -76.5q0 -46 -32.5 -78t-78.5 -32zM561 0v582l-538 880h231l416 -688l411 688h226 l-543 -876v-586h-203z" />
<glyph unicode="&#x17d;" horiz-adv-x="1292" d="M565 1581l-227 274h154l165 -157l162 157h144l-230 -274h-168zM76 0v180l592 750q105 134 284 348h-856v184h1092v-180l-631 -797q-11 -14 -54 -69.5t-61 -77.5t-55 -66.5t-76 -87.5h914v-184h-1149z" />
<glyph unicode="&#x17e;" horiz-adv-x="991" d="M395 1176l-215 286h154l153 -170l150 170h143l-217 -286h-168zM72 0v143l585 752h-559v162h793v-142l-590 -753h625v-162h-854z" />
<glyph unicode="&#x192;" horiz-adv-x="978" d="M-68 -324v158h142q77 0 113.5 43t52.5 133l129 723h-201l31 152h198l54 284q29 160 107.5 226.5t236.5 66.5h147v-164h-133q-81 0 -119 -34.5t-53 -120.5l-49 -258h215l-29 -152h-215l-125 -719q-15 -86 -36.5 -144t-60 -104t-99.5 -68t-148 -22h-158z" />
<glyph unicode="&#x2c6;" horiz-adv-x="641" d="M20 1176l222 292h159l220 -292h-152l-156 161l-147 -161h-146z" />
<glyph unicode="&#x2c7;" horiz-adv-x="641" d="M236 1176l-216 286h154l154 -170l149 170h144l-218 -286h-167z" />
<glyph unicode="&#x2c9;" horiz-adv-x="659" d="M20 1286v107h619v-107h-619z" />
<glyph unicode="&#x2d8;" horiz-adv-x="626" d="M305 1176q-128 0 -204.5 71.5t-80.5 214.5h117q6 -86 51.5 -126t116.5 -40q77 0 128.5 40t62.5 126h110q-15 -144 -92.5 -215t-208.5 -71z" />
<glyph unicode="&#x2d9;" horiz-adv-x="288" d="M143 1231q-50 0 -86.5 35.5t-36.5 87.5q0 51 36.5 87t86.5 36q52 0 88.5 -36t36.5 -87q0 -52 -36 -87.5t-89 -35.5z" />
<glyph unicode="&#x2da;" horiz-adv-x="471" d="M268 1124q-91 0 -153 62t-62 155q0 94 62 157t153 63q90 0 152.5 -63.5t62.5 -156.5t-62.5 -155t-152.5 -62zM268 1223q48 0 78.5 33t30.5 85t-31 85.5t-78 33.5q-48 0 -79 -33.5t-31 -85.5t31 -85t79 -33z" />
<glyph unicode="&#x2db;" horiz-adv-x="442" d="M209 -432q-79 0 -134 39.5t-55 116.5q0 48 21.5 92.5t57.5 79.5t70 59t73 45h90q-77 -61 -119.5 -116.5t-42.5 -119.5q0 -44 24.5 -69t67.5 -25q34 0 61 16.5t39 37.5l60 -37q-75 -119 -213 -119z" />
<glyph unicode="&#x2dc;" horiz-adv-x="604" d="M14 1247q0 93 44 142t112 49q48 0 126 -26t112 -26q24 0 40.5 13t16.5 41h125q0 -93 -44 -143t-112 -50q-48 0 -126 26.5t-111 26.5q-56 0 -56 -53h-127z" />
<glyph unicode="&#x2dd;" horiz-adv-x="710" d="M20 1174l125 294h209l-209 -294h-125zM336 1174l145 294h209l-229 -294h-125z" />
<glyph unicode="&#x300;" d="M-113 1174h-125l-208 294h208z" />
<glyph unicode="&#x301;" d="M-446 1174l124 294h209l-209 -294h-124z" />
<glyph unicode="&#x302;" d="M-621 1176l222 292h159l220 -292h-152l-156 161l-147 -161h-146z" />
<glyph unicode="&#x303;" d="M-584 1247q0 93 44 142t112 49q48 0 126 -26t112 -26q24 0 40.5 13t16.5 41h125q0 -93 -44 -143t-112 -50q-48 0 -126 26.5t-111 26.5q-56 0 -56 -53h-127z" />
<glyph unicode="&#x304;" d="M-639 1286v107h619v-107h-619z" />
<glyph unicode="&#x306;" d="M-322 1176q-128 0 -204 71.5t-80 214.5h117q6 -86 51 -126t116 -40q77 0 128.5 40t62.5 126h111q-15 -144 -93 -215t-209 -71z" />
<glyph unicode="&#x307;" d="M-227 1231q-50 0 -86.5 35.5t-36.5 87.5q0 51 36.5 87t86.5 36q52 0 88.5 -36t36.5 -87q0 -52 -36 -87.5t-89 -35.5z" />
<glyph unicode="&#x308;" d="M-492 1229q-46 0 -78 32t-32 78q0 45 32 77t78 32t78.5 -32.5t32.5 -76.5q0 -46 -32.5 -78t-78.5 -32zM-131 1229q-46 0 -78.5 32t-32.5 78q0 44 32.5 76.5t78.5 32.5t78.5 -32.5t32.5 -76.5q0 -46 -32.5 -78t-78.5 -32z" />
<glyph unicode="&#x30a;" d="M-236 1124q-91 0 -153 62t-62 155q0 94 62 157t153 63q90 0 153 -63.5t63 -156.5t-63 -155t-153 -62zM-236 1223q48 0 78.5 33t30.5 85t-31 85.5t-78 33.5q-48 0 -79 -33.5t-31 -85.5t31 -85t79 -33z" />
<glyph unicode="&#x30b;" d="M-690 1174l125 294h209l-209 -294h-125zM-375 1174l146 294h209l-230 -294h-125z" />
<glyph unicode="&#x30c;" d="M-406 1176l-215 286h154l154 -170l149 170h144l-218 -286h-168z" />
<glyph unicode="&#x326;" d="M-365 -508v96q47 0 87 21t40 51h-2q-53 0 -89 33.5t-36 91.5q0 57 37 91t90 34q61 0 98.5 -40t37.5 -122q0 -117 -73.5 -186.5t-189.5 -69.5z" />
<glyph unicode="&#x327;" d="M-319 -399q-133 6 -226 80l47 75q64 -49 156 -49q50 0 76 18t26 50q0 30 -19 47.5t-52 17.5q-49 0 -95 -16l-40 59l116 117h99l-78 -76l4 -4q24 4 47 4q79 0 126.5 -36.5t47.5 -100.5q0 -87 -68 -136.5t-167 -49.5z" />
<glyph unicode="&#x328;" d="M-233 -432q-79 0 -134 39.5t-55 116.5q0 48 21 92.5t57 79.5t70.5 59t72.5 45h90q-76 -60 -118.5 -116t-42.5 -120q0 -44 24.5 -69t67.5 -25q34 0 61 16.5t39 37.5l60 -37q-75 -119 -213 -119z" />
<glyph unicode="&#x335;" d="M-672 1188v133h652v-133h-652z" />
<glyph unicode="&#x336;" d="M-1247 1120h1126v-106h-1126v106z" />
<glyph unicode="&#x337;" d="M-475 547v141l455 381v-141z" />
<glyph unicode="&#x338;" d="M-1071 -45l-66 57l961 1065l65 -59z" />
<glyph unicode="&#x394;" horiz-adv-x="1314" d="M33 0l528 1458h176l553 -1458h-1257zM268 162h776l-395 1083z" />
<glyph unicode="&#x3a9;" horiz-adv-x="1466" d="M113 0v156h360v96q-119 51 -201 143t-120.5 205t-38.5 242q0 136 48.5 254.5t132 201.5t197.5 131t242 48q129 0 244 -47.5t198.5 -130t132 -201t48.5 -254.5q0 -129 -39 -242t-122 -205t-202 -145v-96h361v-156h-502v373q154 42 234.5 164.5t80.5 304.5q0 194 -121 326 t-311 132q-189 0 -312.5 -133t-123.5 -325q0 -185 81 -306.5t238 -162.5v-373h-505z" />
<glyph unicode="&#x3bc;" horiz-adv-x="1163" d="M147 -365v1422h185l-2 -633q0 -143 64.5 -208.5t172.5 -65.5q68 0 120.5 27.5t83 73.5t45.5 101t15 115v590h185v-1057h-178v106q-37 -57 -120 -95t-175 -38q-138 0 -213 78v-416h-183z" />
<glyph unicode="&#x3c0;" horiz-adv-x="1206" d="M963 -12q-44 0 -76.5 12.5t-52 33.5t-31 53t-15.5 65.5t-4 76.5v586h-385v-815h-168v815h-178v156h1059v-156h-162v-547q0 -24 0.5 -37.5t4.5 -35.5t11.5 -33.5t23.5 -21t38 -9.5q42 0 82 27v-129q-74 -41 -147 -41z" />
<glyph unicode="&#x2000;" horiz-adv-x="965" />
<glyph unicode="&#x2001;" horiz-adv-x="1931" />
<glyph unicode="&#x2002;" horiz-adv-x="965" />
<glyph unicode="&#x2003;" horiz-adv-x="1931" />
<glyph unicode="&#x2004;" horiz-adv-x="643" />
<glyph unicode="&#x2005;" horiz-adv-x="482" />
<glyph unicode="&#x2006;" horiz-adv-x="321" />
<glyph unicode="&#x2007;" horiz-adv-x="321" />
<glyph unicode="&#x2008;" horiz-adv-x="241" />
<glyph unicode="&#x2009;" horiz-adv-x="386" />
<glyph unicode="&#x200a;" horiz-adv-x="107" />
<glyph unicode="&#x2010;" horiz-adv-x="765" d="M133 475v160h500v-160h-500z" />
<glyph unicode="&#x2011;" horiz-adv-x="765" d="M133 475v160h500v-160h-500z" />
<glyph unicode="&#x2012;" horiz-adv-x="765" d="M133 475v160h500v-160h-500z" />
<glyph unicode="&#x2013;" horiz-adv-x="1239" d="M133 475v160h973v-160h-973z" />
<glyph unicode="&#x2014;" horiz-adv-x="1705" d="M133 475v160h1440v-160h-1440z" />
<glyph unicode="&#x2018;" horiz-adv-x="475" d="M236 977q-58 0 -95 39t-37 119q0 140 76 228.5t180 96.5v-96q-47 0 -87 -40.5t-40 -100.5h3q52 0 87 -33.5t35 -91.5q0 -55 -35.5 -88t-86.5 -33z" />
<glyph unicode="&#x2019;" horiz-adv-x="477" d="M252 1458q58 0 94.5 -39t36.5 -119q0 -140 -76 -228.5t-180 -96.5v96q47 0 87 40.5t40 100.5h-2q-52 0 -87.5 33.5t-35.5 91.5q0 55 35.5 88t87.5 33z" />
<glyph unicode="&#x201a;" horiz-adv-x="489" d="M240 215q58 0 94.5 -39t36.5 -119q0 -140 -76 -228.5t-180 -96.5v96q47 0 87 40.5t40 100.5h-2q-52 0 -87.5 33.5t-35.5 91.5q0 55 35.5 88t87.5 33z" />
<glyph unicode="&#x201c;" horiz-adv-x="817" d="M236 977q-58 0 -95 39t-37 119q0 140 76 228.5t180 96.5v-96q-47 0 -87 -40.5t-40 -100.5h3q52 0 87 -33.5t35 -91.5q0 -55 -35.5 -88t-86.5 -33zM578 977q-58 0 -95 39t-37 119q0 140 76 228.5t180 96.5v-96q-47 0 -87 -40.5t-40 -100.5h3q52 0 87 -33.5t35 -91.5 q0 -55 -35.5 -88t-86.5 -33z" />
<glyph unicode="&#x201d;" horiz-adv-x="819" d="M252 1458q58 0 94.5 -39t36.5 -119q0 -140 -76 -228.5t-180 -96.5v96q47 0 87 40.5t40 100.5h-2q-52 0 -87.5 33.5t-35.5 91.5q0 55 35.5 88t87.5 33zM594 1458q58 0 94.5 -39t36.5 -119q0 -140 -76 -228.5t-180 -96.5v96q47 0 87 40.5t40 100.5h-2q-52 0 -87.5 33.5 t-35.5 91.5q0 55 35.5 88t87.5 33z" />
<glyph unicode="&#x201e;" horiz-adv-x="831" d="M240 215q58 0 94.5 -39t36.5 -119q0 -140 -76 -228.5t-180 -96.5v96q47 0 87 40.5t40 100.5h-2q-52 0 -87.5 33.5t-35.5 91.5q0 55 35.5 88t87.5 33zM582 215q58 0 94.5 -39t36.5 -119q0 -140 -76 -228.5t-180 -96.5v96q47 0 87 40.5t40 100.5h-2q-52 0 -87.5 33.5 t-35.5 91.5q0 55 35.5 88t87.5 33z" />
<glyph unicode="&#x2020;" horiz-adv-x="1169" d="M496 -317v1181h-379v154h379v444h176v-444h381v-154h-381v-1181h-176z" />
<glyph unicode="&#x2021;" horiz-adv-x="1169" d="M496 -317v399h-379v154h379v667h-379v156h379v403h176v-403h381v-156h-381v-667h381v-154h-381v-399h-176z" />
<glyph unicode="&#x2022;" horiz-adv-x="897" d="M449 365q-126 0 -215 93.5t-89 225.5q0 133 89 226.5t215 93.5t214.5 -93.5t88.5 -226.5q0 -132 -88.5 -225.5t-214.5 -93.5z" />
<glyph unicode="&#x2026;" horiz-adv-x="1468" d="M236 -14q-53 0 -89 37t-36 90t35.5 89t89.5 36q53 0 89.5 -36.5t36.5 -88.5q0 -53 -37 -90t-89 -37zM727 -14q-53 0 -89 37t-36 90t35.5 89t89.5 36q53 0 90 -36.5t37 -88.5q0 -53 -37 -90t-90 -37zM1231 -14q-53 0 -89 37t-36 90t35.5 89t89.5 36q53 0 90 -36.5 t37 -88.5q0 -53 -37 -90t-90 -37z" />
<glyph unicode="&#x202f;" horiz-adv-x="386" />
<glyph unicode="&#x2030;" horiz-adv-x="2484" d="M332 -59l839 1534h136l-842 -1534h-133zM436 705q-153 0 -260.5 107.5t-107.5 262.5t107.5 263t260.5 108q154 0 262.5 -108t108.5 -263t-108.5 -262.5t-262.5 -107.5zM436 852q92 0 157.5 65.5t65.5 157.5q0 94 -65.5 161t-157.5 67q-91 0 -156 -67t-65 -161 q0 -92 65 -157.5t156 -65.5zM1212 -25q-153 0 -260.5 108.5t-107.5 262.5q0 155 107 264t261 109t261.5 -109t107.5 -264q0 -154 -107.5 -262.5t-261.5 -108.5zM2052 -25q-154 0 -261.5 108.5t-107.5 262.5q0 155 107.5 264t261.5 109t261.5 -109t107.5 -264 q0 -154 -107.5 -262.5t-261.5 -108.5zM1212 125q91 0 157.5 64.5t66.5 156.5q0 94 -66 160.5t-158 66.5q-93 0 -158 -66t-65 -161q0 -92 65.5 -156.5t157.5 -64.5zM2052 125q91 0 157 64.5t66 156.5q0 95 -66 161t-157 66q-93 0 -158 -66t-65 -161q0 -92 65.5 -156.5 t157.5 -64.5z" />
<glyph unicode="&#x2039;" horiz-adv-x="507" d="M367 199l-265 268v174l265 266v-172l-170 -182l170 -182v-172z" />
<glyph unicode="&#x203a;" horiz-adv-x="507" d="M141 199v172l170 182l-170 182v172l265 -266v-174z" />
<glyph unicode="&#x2044;" horiz-adv-x="993" d="M0 -55l852 1528h145l-850 -1528h-147z" />
<glyph unicode="&#x205f;" horiz-adv-x="482" />
<glyph unicode="&#x20ac;" horiz-adv-x="1288" d="M707 -37q-214 0 -344.5 148t-147.5 415h-137v125h129v70v61h-129v125h137q30 279 163 424.5t347 145.5q213 0 334 -122.5t139 -334.5h-190q-17 133 -94.5 206.5t-192.5 73.5q-129 0 -200.5 -97.5t-90.5 -295.5h449v-125h-453v-61v-70h453v-125h-449q12 -191 84 -286 t193 -95q146 0 215.5 83.5t85.5 240.5h190q-19 -232 -145.5 -369t-345.5 -137z" />
<glyph unicode="&#x2122;" horiz-adv-x="1908" d="M324 618v715h-256v123h665v-123h-254v-715h-155zM868 618v838h179l268 -391l264 391h170v-838h-147v621l-238 -360h-111l-235 360l-2 -621h-148z" />
<glyph unicode="&#x2212;" horiz-adv-x="1220" d="M139 487v144h942v-144h-942z" />
<glyph unicode="&#x25fc;" horiz-adv-x="1054" d="M0 1055h1055v-1055h-1055v1055z" />
<glyph unicode="&#xf004;" horiz-adv-x="464" d="M106 -508v96q47 0 87 21t40 51h-2q-53 0 -89 33.5t-36 91.5q0 57 37 91t90 34q61 0 98.5 -40t37.5 -122q0 -117 -73.5 -186.5t-189.5 -69.5z" />
<glyph unicode="&#xf6be;" horiz-adv-x="495" d="M-74 -436v176h131q59 0 83 22.5t24 85.5v1209h184v-1231q0 -143 -60 -202.5t-192 -59.5h-170z" />
<glyph unicode="&#xf8ff;" horiz-adv-x="1830" d="M489 1468h762v-245h-503v-387q70 -25 156.5 -69.5t160.5 -86.5t154 -81.5t165.5 -64t165.5 -24.5q24 0 48 2t36 4l13 2q-2 -3 -5.5 -7t-19.5 -15.5t-36.5 -20t-57 -15.5t-80.5 -7q-153 0 -327 64t-373 167v-684h-259v791q-49 20 -106 20q-69 0 -114.5 -30t-45.5 -87 q0 -40 21 -72t55 -44q-54 3 -84.5 37.5t-30.5 91.5q0 82 68.5 133t189.5 51q29 0 47 -4v581z" />
<glyph horiz-adv-x="1196" d="M864 1057h185v-1057h-185v109q-114 -136 -301 -136q-221 0 -348 150t-127 407q0 244 132 398.5t349 154.5q186 0 295 -118v92zM575 145q133 0 212 104.5t79 282.5q0 175 -80 277t-211 102q-130 0 -211 -108.5t-81 -272.5q0 -169 80.5 -277t211.5 -108z" />
<glyph horiz-adv-x="1196" d="M844 1468l-209 -294h-125l125 294h209zM864 1057h185v-1057h-185v109q-114 -136 -301 -136q-221 0 -348 150t-127 407q0 244 132 398.5t349 154.5q186 0 295 -118v92zM575 145q133 0 212 104.5t79 282.5q0 175 -80 277t-211 102q-130 0 -211 -108.5t-81 -272.5 q0 -169 80.5 -277t211.5 -108z" />
<glyph horiz-adv-x="1196" d="M598 1337l-147 -161h-146l221 292h160l219 -292h-151zM864 1057h185v-1057h-185v109q-114 -136 -301 -136q-221 0 -348 150t-127 407q0 244 132 398.5t349 154.5q186 0 295 -118v92zM575 145q133 0 212 104.5t79 282.5q0 175 -80 277t-211 102q-130 0 -211 -108.5 t-81 -272.5q0 -169 80.5 -277t211.5 -108z" />
<glyph horiz-adv-x="1196" d="M426 1229q-46 0 -78.5 32t-32.5 78q0 44 32.5 76.5t78.5 32.5t78.5 -32.5t32.5 -76.5q0 -46 -32.5 -78t-78.5 -32zM786 1229q-46 0 -78 32t-32 78q0 45 32 77t78 32t78.5 -32.5t32.5 -76.5q0 -46 -32.5 -78t-78.5 -32zM864 1057h185v-1057h-185v109q-114 -136 -301 -136 q-221 0 -348 150t-127 407q0 244 132 398.5t349 154.5q186 0 295 -118v92zM575 145q133 0 212 104.5t79 282.5q0 175 -80 277t-211 102q-130 0 -211 -108.5t-81 -272.5q0 -169 80.5 -277t211.5 -108z" />
<glyph horiz-adv-x="1196" d="M688 1174h-125l-209 294h209zM864 1057h185v-1057h-185v109q-114 -136 -301 -136q-221 0 -348 150t-127 407q0 244 132 398.5t349 154.5q186 0 295 -118v92zM575 145q133 0 212 104.5t79 282.5q0 175 -80 277t-211 102q-130 0 -211 -108.5t-81 -272.5q0 -169 80.5 -277 t211.5 -108z" />
<glyph horiz-adv-x="1196" d="M606 1124q-91 0 -153 62t-62 155q0 94 62 157t153 63q90 0 152.5 -63.5t62.5 -156.5t-62.5 -155t-152.5 -62zM606 1460q-48 0 -79 -33.5t-31 -85.5t31 -85t79 -33t78.5 33t30.5 85t-31 85.5t-78 33.5zM864 1057h185v-1057h-185v109q-114 -136 -301 -136q-221 0 -348 150 t-127 407q0 244 132 398.5t349 154.5q186 0 295 -118v92zM575 145q133 0 212 104.5t79 282.5q0 175 -80 277t-211 102q-130 0 -211 -108.5t-81 -272.5q0 -169 80.5 -277t211.5 -108z" />
<glyph horiz-adv-x="1196" d="M500 1300q-56 0 -56 -53h-127q0 93 44 142t112 49q49 0 127 -26t111 -26q24 0 40.5 13t16.5 41h125q0 -93 -44 -143t-112 -50q-49 0 -126 26.5t-111 26.5zM864 1057h185v-1057h-185v109q-114 -136 -301 -136q-221 0 -348 150t-127 407q0 244 132 398.5t349 154.5 q186 0 295 -118v92zM575 145q133 0 212 104.5t79 282.5q0 175 -80 277t-211 102q-130 0 -211 -108.5t-81 -272.5q0 -169 80.5 -277t211.5 -108z" />
<glyph horiz-adv-x="1212" d="M1012 1057h131v-154h-45q-62 0 -62 -65v-801q0 -248 -94.5 -360.5t-312.5 -112.5h-400v174h355q80 0 131.5 16t81.5 53t42 89.5t13 132.5v80q-120 -136 -307 -136q-147 0 -251.5 73.5t-155 199.5t-50.5 293q0 156 56.5 279.5t163 194t245.5 70.5q193 0 309 -135 q12 109 150 109zM567 145q134 0 212.5 110.5t78.5 285.5q0 166 -79 268t-208 102q-139 0 -219 -103t-80 -267q0 -179 74.5 -287.5t220.5 -108.5z" />
<glyph horiz-adv-x="1052" d="M1055 0h-232l-362 465l-129 -2v-463h-185v1462h185v-829h131l338 424h217l-402 -496z" />
<glyph horiz-adv-x="790" d="M305 0v889h-260v168h260v301h184v-301h271v-168h-271v-889h-184z" />
<glyph horiz-adv-x="1040" d="M180 -436v174h152q65 0 93 20.5t28 77.5v121l-418 1100h198l318 -889l266 889h191l-369 -1112v-187q0 -103 -49 -148.5t-158 -45.5h-252z" />
<glyph horiz-adv-x="1040" d="M438 1174l125 294h209l-209 -294h-125zM180 -436v174h152q65 0 93 20.5t28 77.5v121l-418 1100h198l318 -889l266 889h191l-369 -1112v-187q0 -103 -49 -148.5t-158 -45.5h-252z" />
<glyph horiz-adv-x="1040" d="M354 1229q-46 0 -78 32t-32 78q0 45 32 77t78 32t78.5 -32.5t32.5 -76.5q0 -46 -32.5 -78t-78.5 -32zM715 1229q-46 0 -78.5 32t-32.5 78q0 44 32.5 76.5t78.5 32.5q45 0 77.5 -32t32.5 -77q0 -46 -32 -78t-78 -32zM180 -436v174h152q65 0 93 20.5t28 77.5v121l-418 1100 h198l318 -889l266 889h191l-369 -1112v-187q0 -103 -49 -148.5t-158 -45.5h-252z" />
<glyph horiz-adv-x="1224" d="M610 -20q-233 0 -374.5 149.5t-141.5 417.5q0 250 143.5 406.5t372.5 156.5t374.5 -156.5t145.5 -406.5q0 -268 -143 -417.5t-377 -149.5zM610 143q72 0 128.5 23t92.5 60.5t59 90.5t32.5 109.5t9.5 120.5q0 57 -9.5 110.5t-33 106.5t-59 92t-92 63.5t-128.5 24.5 q-71 0 -127 -24.5t-90.5 -63.5t-57 -92t-31.5 -106t-9 -111q0 -81 16 -149.5t50.5 -127.5t98 -93t150.5 -34z" />
<glyph horiz-adv-x="714" d="M342 0v745h-307v140q167 5 244.5 47t111.5 162h141v-1094h-190z" />
<glyph horiz-adv-x="1097" d="M96 0q0 175 96.5 293.5t329.5 228.5q70 34 112 57.5t78 53.5t51 63.5t15 75.5q0 80 -57.5 125t-175.5 45q-250 0 -250 -223h-191q-1 184 121.5 287.5t327.5 103.5q202 0 314 -88t112 -246q0 -74 -28.5 -136.5t-85.5 -113t-121 -89.5t-156 -81q-99 -45 -172.5 -99.5 t-73.5 -88.5h674v-168h-920z" />
<glyph horiz-adv-x="1183" d="M582 -371q-239 0 -369.5 117t-134.5 350h190q9 -147 87 -227t227 -80q143 0 225 72.5t82 204.5q0 56 -13.5 98t-49 81t-109 60t-182.5 21h-54v147h66q295 0 295 252q0 103 -73 164t-183 61q-44 0 -79 -5t-77 -23.5t-70 -49.5t-48 -87.5t-21 -133.5h-191q0 219 127.5 339 t358.5 120q214 0 334 -98.5t120 -278.5q0 -210 -180 -305l-16 -8l16 -4q94 -23 163 -108.5t69 -225.5q0 -219 -141 -336t-369 -117z" />
<glyph horiz-adv-x="1165" d="M735 -328v328h-684v178l678 903h189v-915h194v-166h-194v-328h-183zM242 166h493v655h-6z" />
<glyph horiz-adv-x="1114" d="M561 -365q-231 0 -361 118.5t-130 305.5h190q3 -107 82.5 -186.5t218.5 -79.5q140 0 217.5 88t77.5 242q0 143 -76.5 229t-218.5 86q-184 0 -276 -114h-172l108 753h752v-172h-611l-59 -403q29 35 102 67.5t177 32.5q207 0 332.5 -126.5t125.5 -352.5q0 -214 -131.5 -351 t-347.5 -137z" />
<glyph horiz-adv-x="1163" d="M596 -27q-127 0 -222.5 47t-154 135t-87 208.5t-28.5 273.5q0 184 30.5 329.5t92 253t162.5 165t236 57.5q189 0 302 -103.5t113 -265.5h-190q0 91 -60.5 151t-164.5 60q-68 0 -120.5 -24t-89 -67.5t-62.5 -110.5t-41 -145.5t-23 -180.5l-2 -25l10 19q39 71 129.5 120.5 t204.5 49.5q203 0 321.5 -123.5t118.5 -339.5q0 -217 -130 -350.5t-345 -133.5zM598 133q130 0 209.5 88t79.5 230q0 150 -74.5 229.5t-210.5 79.5q-132 0 -208.5 -88.5t-76.5 -222.5q0 -137 76 -226.5t205 -89.5z" />
<glyph horiz-adv-x="991" d="M233 -338q12 330 152 651t369 592h-719v172h919v-166q-228 -246 -375.5 -582.5t-150.5 -666.5h-195z" />
<glyph horiz-adv-x="1159" d="M582 -27q-232 0 -361 119t-129 311q0 255 242 377q-88 43 -133 120.5t-45 174.5q0 162 120 265.5t306 103.5t302.5 -103t116.5 -266q0 -192 -178 -295q125 -50 183.5 -148.5t58.5 -228.5q0 -186 -137 -308t-346 -122zM582 860q104 0 167.5 57t63.5 148q0 93 -64 150 t-169 57q-103 0 -168.5 -57.5t-65.5 -149.5q0 -91 66 -148t170 -57zM582 145q129 0 206.5 75t77.5 194q0 122 -77.5 196t-208.5 74q-132 0 -210.5 -74t-78.5 -196q0 -119 79.5 -194t211.5 -75z" />
<glyph horiz-adv-x="1142" d="M526 -371q-190 0 -305 104.5t-115 270.5h187q0 -100 62.5 -158.5t170.5 -58.5q70 0 123.5 24t90 66t62 109t39.5 144.5t23 180.5l2 25l-12 -21q-98 -161 -332 -161q-201 0 -319.5 124.5t-118.5 335.5q0 217 128.5 350.5t342.5 133.5q492 0 492 -664q0 -187 -27.5 -330 t-87.5 -252t-162 -166t-244 -57zM553 311q136 0 208.5 82.5t72.5 229.5q0 150 -74 232.5t-207 82.5q-128 0 -206.5 -87.5t-78.5 -229.5q0 -150 74 -230t211 -80z" />
<glyph horiz-adv-x="1167" d="M582 -27q-233 0 -362.5 191.5t-129.5 546.5q0 351 129.5 542t362.5 191q236 0 366.5 -190.5t130.5 -542.5q0 -356 -130.5 -547t-366.5 -191zM582 141q63 0 112.5 26.5t80.5 73.5t52.5 102t32.5 123.5t15 125.5t4 119q0 60 -4 116.5t-15 124t-32.5 122.5t-52.5 102 t-81 73.5t-112 26.5t-110.5 -26.5t-79 -73.5t-51.5 -102t-31.5 -123t-14.5 -123.5t-4 -116.5q0 -62 4 -119t14.5 -125.5t32 -123.5t52 -102t79 -73.5t109.5 -26.5z" />
<glyph horiz-adv-x="1167" d="M592 0v1012h-338v143q67 4 110 9.5t86.5 17t69.5 28.5t51 45.5t41.5 68t30.5 95.5h141v-1419h-192z" />
<glyph horiz-adv-x="1167" d="M123 0q0 198 103.5 347.5t373.5 318.5q147 87 212 170.5t65 187.5q0 113 -67 174.5t-200 61.5q-157 0 -222.5 -89t-65.5 -256h-187q0 252 129.5 389.5t353.5 137.5q216 0 334.5 -108t118.5 -302q0 -85 -26.5 -156t-85 -137t-134 -124.5t-192.5 -131.5 q-133 -83 -198.5 -157t-80.5 -154h740v-172h-971z" />
<glyph horiz-adv-x="1167" d="M551 -27q-243 0 -364 120t-126 347h189q10 -138 80.5 -213t220.5 -75q143 0 232 68t89 190q0 45 -7.5 80.5t-30.5 72t-61.5 60t-104.5 38.5t-156 15h-53v147h65q307 0 307 234q0 98 -68.5 151.5t-197.5 53.5q-49 0 -87.5 -5.5t-79.5 -23t-68.5 -47t-45 -81t-18.5 -122.5 h-186q0 216 132 337.5t353 121.5q212 0 332.5 -98t120.5 -275q0 -102 -49 -176.5t-131 -114.5l-17 -8l17 -4q43 -14 80 -37.5t71 -62t54 -99.5t20 -137q0 -147 -68 -252t-182 -155t-262 -50z" />
<glyph horiz-adv-x="1167" d="M743 0v328h-692v166l686 921h191v-934h192v-153h-192v-328h-185zM242 481h501v674h-6z" />
<glyph horiz-adv-x="1167" d="M582 -27q-231 0 -353.5 117.5t-122.5 306.5h185q2 -51 19.5 -97t51 -84.5t90.5 -61.5t130 -23q147 0 229 88.5t82 241.5q0 143 -76.5 230t-218.5 87q-182 0 -276 -116h-172l108 753h752v-172h-611l-59 -403q31 35 104.5 67.5t173.5 32.5q213 0 337 -125t124 -354 q0 -213 -137 -350.5t-360 -137.5z" />
<glyph horiz-adv-x="1167" d="M588 -27q-498 0 -498 664q0 184 30.5 329.5t93 253t164.5 165t238 57.5q188 0 301 -103.5t113 -265.5h-186q0 90 -62.5 149.5t-171.5 59.5q-82 0 -141 -35.5t-96.5 -107t-58 -163t-31.5 -218.5l-2 -25l10 19q40 70 129.5 119t202.5 49q207 0 324.5 -119t117.5 -342 q0 -217 -130 -351.5t-347 -134.5zM590 133q141 0 215 86t74 232q0 150 -75 229.5t-214 79.5q-126 0 -203.5 -90.5t-77.5 -220.5q0 -143 76.5 -229.5t204.5 -86.5z" />
<glyph horiz-adv-x="1167" d="M379 0q12 334 148.5 656t367.5 587h-735v172h940v-166q-253 -271 -388.5 -590t-138.5 -659h-194z" />
<glyph horiz-adv-x="1167" d="M600 -27q-226 0 -357.5 116.5t-131.5 316.5q0 258 256 374q-193 84 -193 303q0 157 120 259t306 102q185 0 302.5 -102t117.5 -259q0 -203 -193 -303q256 -93 256 -374q0 -188 -137 -310.5t-346 -122.5zM600 854q102 0 165.5 58t63.5 151q0 98 -59 155.5t-172 57.5 q-110 0 -170.5 -58t-60.5 -155q0 -92 65 -150.5t168 -58.5zM600 141q130 0 207.5 75.5t77.5 197.5q0 127 -78 203.5t-209 76.5q-132 0 -210.5 -77t-78.5 -203q0 -122 79 -197.5t212 -75.5z" />
<glyph horiz-adv-x="1167" d="M567 -27q-190 0 -305 104.5t-115 270.5h187q0 -100 62.5 -158.5t170.5 -58.5q70 0 123.5 24t90 66t62 109t39.5 144.5t23 180.5l2 25l-12 -21q-98 -161 -332 -161q-203 0 -322.5 124.5t-119.5 335.5q0 217 130 350.5t345 133.5q498 0 498 -664q0 -148 -17 -268.5 t-56 -222t-99.5 -170t-150 -106.5t-204.5 -38zM594 655q136 0 208 82.5t72 229.5q0 150 -74 232.5t-206 82.5q-128 0 -206.5 -87.5t-78.5 -229.5q0 -150 74 -230t211 -80z" />
<glyph horiz-adv-x="1054" d="M967 309q0 -149 -107 -237t-289 -97v-129h-92v129q-183 10 -290.5 105t-106.5 282h190q0 -103 52.5 -153t154.5 -59v325q-85 19 -145.5 42.5t-113 60.5t-79 92t-26.5 129q0 140 100 220t264 89v141h92v-141q169 -11 270 -96t101 -236h-190q-6 142 -181 164v-293 q2 -1 6.5 -2t6.5 -2q43 -12 65 -18.5t59 -18t56.5 -20t49 -22t45.5 -26.5t36.5 -31t31 -37.5t21.5 -44t15 -53.5t4 -63zM307 817q0 -53 40.5 -84t131.5 -59v268q-172 -12 -172 -125zM571 147q99 3 151 36.5t52 113.5q0 59 -48.5 93.5t-154.5 62.5v-306z" />
<glyph horiz-adv-x="1171" d="M643 -27q-188 0 -307 115t-139 320h-123v104h112v45v35h-112v104h125q34 201 152 307.5t304 106.5q117 0 209.5 -35t154 -114.5t71.5 -196.5h-191q-19 101 -81 142.5t-165 41.5q-220 0 -268 -252h420v-104h-436v-37v-43h436v-104h-422q18 -129 86.5 -201t185.5 -72 q114 0 171 46t73 138h191q-7 -88 -44.5 -155.5t-98 -108.5t-137 -61.5t-167.5 -20.5z" />
<glyph horiz-adv-x="755" d="M594 942q-73 0 -109.5 -24t-42.5 -80l-22 -189h211l-27 -133h-198l-58 -487q-18 -147 -90 -216t-233 -69h-144v162h127q70 0 103 30t41 91l59 489h-162l29 133h149l27 211q17 134 94 190t230 56h137v-164h-121z" />
<glyph horiz-adv-x="1144" d="M922 164h127v-164h-158q-183 0 -375 92q-87 -112 -244 -112q-92 0 -150.5 45.5t-58.5 136.5q0 82 58 130t143 48q62 0 142 -25v17q0 51 -29 129h-250v129h195q-46 112 -46 194q0 154 106 239t286 85q169 0 268.5 -89.5t99.5 -250.5h-182q-3 72 -49 125t-137 53 q-195 0 -195 -151q0 -63 57 -205h289v-129h-241q18 -70 18 -121q0 -48 -12 -100q183 -76 338 -76zM264 125q70 0 103 41q-71 29 -103 29q-22 0 -33.5 -10t-11.5 -25q0 -35 45 -35z" />
<glyph horiz-adv-x="1208" d="M502 0v328h-314v123h295l-121 170h-223v122h152l-264 363h241l346 -498l338 498h232l-260 -361h133v-122h-207l-127 -172h299v-123h-315v-328h-205z" />
<glyph d="M-326 1110v82q53 0 82.5 28t28.5 78h-2q-46 0 -77.5 29t-31.5 80q0 48 33 77t78 29q52 0 86.5 -35.5t34.5 -107.5q0 -120 -63.5 -190t-168.5 -70z" />
<glyph d="M-223 1182q-61 0 -99 38t-38 117q0 117 74.5 189.5t189.5 72.5v-96q-47 0 -87 -21t-40 -50h2q53 0 89 -33.5t36 -91.5q0 -57 -37 -91t-90 -34z" />
<glyph d="M-518 1610q-46 0 -78.5 32t-32.5 78q0 44 32.5 76.5t78.5 32.5t78 -32.5t32 -76.5q0 -46 -32 -78t-78 -32zM-131 1610q-46 0 -78.5 32t-32.5 78q0 44 32.5 76.5t78.5 32.5t78.5 -32.5t32.5 -76.5q0 -46 -32.5 -78t-78.5 -32z" />
<glyph d="M-227 1595q-50 0 -86.5 35.5t-36.5 87.5q0 51 36.5 87t86.5 36q52 0 88.5 -36t36.5 -87q0 -52 -36 -87.5t-89 -35.5z" />
<glyph d="M-182 1581l-250 274h225l166 -274h-141z" />
<glyph d="M-432 1581l166 274h225l-250 -274h-141z" />
<glyph d="M-705 1581l140 274h209l-224 -274h-125zM-389 1581l160 274h209l-244 -274h-125z" />
<glyph d="M-662 1581l242 274h160l240 -274h-152l-176 143l-164 -143h-150z" />
<glyph d="M-406 1581l-227 274h154l166 -157l161 157h144l-230 -274h-168z" />
<glyph d="M-315 1583q-134 0 -210.5 67t-80.5 203h117q14 -149 174 -149q74 0 124 36t58 113h113q-15 -136 -91.5 -203t-203.5 -67z" />
<glyph d="M-236 1509q-91 0 -153 59.5t-62 149.5q0 91 62 152t153 61q90 0 153 -61.5t63 -151.5t-63 -149.5t-153 -59.5zM-236 1599q50 0 82.5 33.5t32.5 85.5t-32.5 86.5t-82.5 34.5q-48 0 -81 -34.5t-33 -86.5t33 -85.5t81 -33.5z" />
<glyph d="M-598 1618q0 93 44 141.5t112 48.5q50 0 129 -25.5t112 -25.5q24 0 41 12.5t17 40.5h125q0 -93 -44 -142.5t-112 -49.5q-50 0 -129.5 26.5t-112.5 26.5q-55 0 -55 -53h-127z" />
<glyph d="M-639 1649v106h619v-106h-619z" />
<glyph d="M-729 422v153l645 469v-151z" />
<glyph d="M-1329 -37l-90 84l1308 1456l91 -84z" />
<glyph horiz-adv-x="272" d="M20 1110v82q53 0 82.5 28t28.5 78h-2q-46 0 -77.5 29t-31.5 80q0 48 33 77t78 29q52 0 86.5 -35.5t34.5 -107.5q0 -120 -63.5 -190t-168.5 -70z" />
<glyph horiz-adv-x="432" d="M20 1581l166 274h226l-250 -274h-142z" />
<glyph horiz-adv-x="626" d="M311 1583q-134 0 -210.5 67t-80.5 203h117q14 -149 174 -149q74 0 124.5 36t58.5 113h112q-15 -136 -91.5 -203t-203.5 -67z" />
<glyph horiz-adv-x="665" d="M248 1581l-228 274h154l166 -157l162 157h143l-229 -274h-168z" />
<glyph horiz-adv-x="681" d="M20 1581l242 274h160l240 -274h-152l-176 143l-164 -143h-150z" />
<glyph horiz-adv-x="649" d="M131 1610q-46 0 -78.5 32t-32.5 78q0 44 32.5 76.5t78.5 32.5t78.5 -32.5t32.5 -76.5q0 -46 -32.5 -78t-78.5 -32zM518 1610q-46 0 -78 32t-32 78q0 44 32 76.5t78 32.5t78.5 -32.5t32.5 -76.5q0 -46 -32.5 -78t-78.5 -32z" />
<glyph horiz-adv-x="288" d="M143 1595q-50 0 -86.5 35.5t-36.5 87.5q0 51 36.5 87t86.5 36q52 0 88.5 -36t36.5 -87q0 -52 -36 -87.5t-89 -35.5z" />
<glyph horiz-adv-x="432" d="M270 1581l-250 274h226l166 -274h-142z" />
<glyph horiz-adv-x="724" d="M20 1581l140 274h209l-224 -274h-125zM336 1581l160 274h209l-244 -274h-125z" />
<glyph horiz-adv-x="659" d="M20 1649v106h619v-106h-619z" />
<glyph horiz-adv-x="471" d="M236 1509q-91 0 -153.5 59.5t-62.5 149.5t62.5 151.5t153.5 61.5q90 0 152.5 -61.5t62.5 -151.5t-62.5 -149.5t-152.5 -59.5zM236 1599q50 0 82 33.5t32 85.5q0 53 -32.5 87t-81.5 34q-48 0 -81.5 -34.5t-33.5 -86.5t33.5 -85.5t81.5 -33.5z" />
<glyph horiz-adv-x="604" d="M29 1618q0 93 43.5 141.5t111.5 48.5q50 0 129.5 -25.5t112.5 -25.5q57 0 57 53h125q0 -93 -43.5 -142.5t-111.5 -49.5q-50 0 -129.5 26.5t-112.5 26.5q-55 0 -55 -53h-127z" />
</font>
</defs>
</svg>
