<?xml version="1.0" standalone="no"?>
<!DOCTYPE svg PUBLIC "-//W3C//DTD SVG 1.1//EN" "http://www.w3.org/Graphics/SVG/1.1/DTD/svg11.dtd" >
<svg xmlns="http://www.w3.org/2000/svg" xmlns:xlink="http://www.w3.org/1999/xlink" version="1.1">
<metadata></metadata>
<defs>
<font id="f37_boltonitalic" horiz-adv-x="0" >
<font-face units-per-em="2048" ascent="1638" descent="-410" />
<missing-glyph horiz-adv-x="497" />
<glyph unicode="fi" horiz-adv-x="1130" d="M231 0l158 889h-190l28 168h191l10 53q37 195 132.5 276.5t293.5 81.5h387l-31 -174h-389q-103 0 -147.5 -37.5t-61.5 -138.5l-10 -61h240l-29 -168h-240l-157 -889h-185zM799 0l186 1057h184l-186 -1057h-184z" />
<glyph unicode="fl" horiz-adv-x="1179" d="M1022 227q-7 -42 8.5 -56.5t52.5 -14.5h78l-26 -156h-119q-97 0 -149 46t-33 153l192 1095h-246q-72 0 -109.5 -32t-49.5 -103l-19 -102h250l-29 -168h-250l-157 -889h-185l158 889h-190l28 168h191l16 94q28 163 119.5 240t259.5 77h428z" />
<glyph unicode="&#xd;" horiz-adv-x="497" />
<glyph unicode=" "  horiz-adv-x="497" />
<glyph unicode="&#x09;" horiz-adv-x="497" />
<glyph unicode="&#xa0;" horiz-adv-x="497" />
<glyph unicode="!" horiz-adv-x="522" d="M272 358l58 570l94 534h190l-94 -534l-143 -570h-105zM258 -14q-47 0 -75.5 30.5t-28.5 77.5q0 59 43.5 101.5t103.5 42.5q47 0 78 -31t31 -76q0 -58 -47 -101.5t-105 -43.5z" />
<glyph unicode="&#x22;" horiz-adv-x="768" d="M330 887l30 575h213l-174 -575h-69zM680 887l35 575h209l-172 -575h-72z" />
<glyph unicode="#" horiz-adv-x="1103" d="M211 0l133 432h-192l22 123h211l92 301h-192l20 123h211l135 436h131l-135 -436h244l135 436h129l-133 -436h176l-20 -123h-195l-92 -301h176l-23 -123h-194l-131 -432h-131l131 432h-244l-131 -432h-133zM516 555h244l90 301h-240z" />
<glyph unicode="$" horiz-adv-x="1157" d="M1227 1055h-201q15 104 -29.5 176.5t-140.5 85.5l-82 -463l10 -4q56 -19 93.5 -35t93 -50t89.5 -72.5t59.5 -101t25.5 -138.5q0 -199 -149.5 -334.5t-377.5 -149.5l-28 -168h-96l28 168q-199 15 -301.5 152.5t-64.5 349.5h200q-23 -129 30.5 -212t170.5 -103l90 520 q-63 21 -107 40.5t-90 51t-74 69.5t-45.5 93.5t-17.5 124.5q0 128 65 229t173.5 157t243.5 64l24 146h96l-26 -146q186 -17 278 -141.5t60 -308.5zM516 1096q0 -80 42 -127t126 -82l76 432q-116 -12 -180 -73t-64 -150zM946 430q0 80 -51 127.5t-158 85.5l-86 -489 q129 8 212 84.5t83 191.5z" />
<glyph unicode="%" horiz-adv-x="1804" d="M399 -59l1110 1534h136l-1113 -1534h-133zM598 707q-149 0 -246.5 96.5t-97.5 238.5q0 125 57 218.5t144.5 138.5t189.5 45q152 0 249 -96.5t97 -239.5q0 -125 -56.5 -218t-144.5 -138t-192 -45zM621 854q90 0 155.5 63.5t65.5 169.5q0 91 -61 152t-156 61 q-88 0 -155 -65.5t-67 -169.5q0 -88 62 -149.5t156 -61.5zM1413 -23q-149 0 -246.5 97t-97.5 239q0 125 57 218.5t144.5 138.5t189.5 45q152 0 249 -96.5t97 -239.5q0 -94 -32.5 -172t-88 -127t-125.5 -76t-147 -27zM1436 125q90 0 155.5 63.5t65.5 169.5q0 91 -61 152 t-156 61q-88 0 -154.5 -65.5t-66.5 -169.5q0 -88 61.5 -149.5t155.5 -61.5z" />
<glyph unicode="&#x26;" horiz-adv-x="1341" d="M1270 166h63l-28 -166h-111q-62 0 -112 22.5t-97 92.5q-176 -142 -410 -142q-199 0 -307 104t-108 267q0 309 334 483q-105 148 -105 283q0 166 107.5 264.5t271.5 98.5q142 0 223.5 -69t81.5 -187q0 -135 -78.5 -235.5t-249.5 -190.5l267 -383q33 80 41 137l26 151h183 l-25 -141q-26 -161 -121 -299q63 -90 154 -90zM750 1321q-77 0 -128 -49.5t-51 -128.5q0 -87 93 -234q131 70 183 140t52 145q0 59 -39.5 93t-109.5 34zM358 389q0 -107 66 -171t186 -64q170 0 283 94l-313 454q-129 -74 -175.5 -143.5t-46.5 -169.5z" />
<glyph unicode="'" horiz-adv-x="417" d="M330 887l30 575h213l-174 -575h-69z" />
<glyph unicode="(" horiz-adv-x="571" d="M279 -369q-109 310 -109 668q0 306 116.5 619t321.5 579h158q-416 -604 -416 -1239q0 -159 22.5 -328.5t63.5 -298.5h-157z" />
<glyph unicode=")" horiz-adv-x="571" d="M4 -369q208 302 312 607t104 632q0 159 -22.5 328.5t-63.5 298.5h155q52 -149 81.5 -326.5t29.5 -345.5q0 -303 -118 -618t-322 -576h-156z" />
<glyph unicode="*" horiz-adv-x="851" d="M391 784l-76 72l213 217l-229 90l55 105l221 -84l39 258h115l-45 -262l266 84l15 -107l-271 -82l140 -229l-97 -68l-137 230z" />
<glyph unicode="+" horiz-adv-x="1134" d="M504 41l78 446h-420l24 144h420l80 444h141l-79 -444h421l-24 -144h-422l-78 -446h-141z" />
<glyph unicode="," horiz-adv-x="487" d="M63 -287l19 97q49 0 97.5 43t56.5 112h-3q-44 0 -73 27.5t-29 75.5q0 66 45.5 106.5t104.5 40.5q47 0 75.5 -30.5t28.5 -92.5q0 -80 -29 -152t-75.5 -121t-104 -77.5t-113.5 -28.5z" />
<glyph unicode="-" horiz-adv-x="765" d="M217 475l29 160h499l-28 -160h-500z" />
<glyph unicode="." horiz-adv-x="473" d="M233 -14q-47 0 -75.5 30.5t-28.5 77.5q0 59 43.5 101.5t103.5 42.5q47 0 78 -31t31 -76q0 -58 -47 -101.5t-105 -43.5z" />
<glyph unicode="/" horiz-adv-x="854" d="M57 -35l848 1532h152l-848 -1532h-152z" />
<glyph unicode="0" horiz-adv-x="1210" d="M645 -20q-209 0 -321.5 135t-112.5 387q0 173 38.5 336.5t110.5 299t189 218t262 82.5q212 0 324 -136t112 -389q0 -138 -23.5 -271t-73 -253t-119 -211t-169.5 -144.5t-217 -53.5zM659 143q89 0 163.5 68t121.5 177t72.5 239.5t25.5 261.5q0 82 -11 146t-36.5 120.5 t-75.5 87.5t-122 31q-88 0 -162 -69t-120 -179t-71.5 -240t-25.5 -260q0 -65 6.5 -119t23 -104t43 -84.5t69.5 -55t99 -20.5z" />
<glyph unicode="1" horiz-adv-x="765" d="M387 0l178 1012h-338l25 143q82 5 132.5 12.5t100 23.5t82 44.5t63 72.5t58.5 111h141l-249 -1419h-193z" />
<glyph unicode="2" horiz-adv-x="1175" d="M123 0q10 101 40 182.5t93 163.5t168 160.5t260 159.5q206 108 284.5 195.5t78.5 197.5q0 98 -61 151.5t-183 53.5q-154 0 -232.5 -79.5t-105.5 -248.5h-195q23 163 101 278t194 171.5t262 56.5q190 0 301 -96t111 -263q0 -80 -26 -150.5t-69 -127.5t-116.5 -115.5 t-149 -106t-186.5 -108.5q-57 -33 -92.5 -55t-78 -53t-67.5 -57.5t-47 -60.5t-32 -71h733l-35 -178h-950z" />
<glyph unicode="3" horiz-adv-x="1183" d="M643 -39q-257 0 -378.5 122t-84.5 345h195q-20 -143 51 -223t244 -80q160 0 241.5 77t81.5 208q0 247 -313 247h-55l26 148h66q158 0 249 66.5t91 211.5q0 88 -67.5 140.5t-172.5 52.5q-48 0 -84 -5t-77.5 -23t-71.5 -48.5t-56 -85.5t-41 -131h-194q32 220 170.5 339.5 t363.5 119.5q189 0 302.5 -92t113.5 -250q0 -270 -242 -359q195 -94 195 -307q0 -226 -146.5 -349.5t-406.5 -123.5z" />
<glyph unicode="4" horiz-adv-x="1198" d="M743 0l58 328h-701l33 168l846 919h199l-164 -932h194l-28 -155h-195l-57 -328h-185zM319 483h508l121 674h-6z" />
<glyph unicode="5" horiz-adv-x="1114" d="M610 -27q-115 0 -205.5 33t-144.5 90.5t-76.5 134.5t-9.5 166h195q-5 -53 4 -97.5t36 -84t83.5 -62t138.5 -22.5q154 0 243 104t89 279q0 126 -69 195t-204 69q-166 0 -270 -116h-172l178 753h774l-31 -172h-610l-98 -403q36 40 112.5 72t180.5 32q185 0 291 -102.5 t106 -286.5q0 -165 -64.5 -296.5t-189 -208.5t-287.5 -77z" />
<glyph unicode="6" horiz-adv-x="1163" d="M756 920q193 0 300 -104.5t107 -289.5q0 -243 -143 -398t-358 -155q-224 0 -338.5 122.5t-114.5 359.5q0 126 16.5 245.5t49.5 230.5t87 203.5t124 161.5t164.5 107.5t205.5 38.5q201 0 292 -94t91 -275h-195q0 211 -225 211q-150 0 -255 -137t-144 -393q113 166 336 166 zM674 133q124 0 212.5 104t88.5 261q0 130 -65 196t-189 66q-153 0 -237.5 -93t-84.5 -245q0 -126 66.5 -207.5t208.5 -81.5z" />
<glyph unicode="7" horiz-adv-x="1015" d="M250 0q69 330 265.5 651t473.5 592h-719l31 172h920l-29 -166q-278 -251 -483 -580t-265 -669h-194z" />
<glyph unicode="8" horiz-adv-x="1159" d="M612 -27q-217 0 -332.5 105t-115.5 276q0 149 86.5 266t241.5 162q-152 82 -152 267q0 170 126 282.5t327 112.5q186 0 294.5 -93.5t108.5 -230.5q0 -117 -65.5 -212.5t-184.5 -135.5q98 -37 153.5 -123.5t55.5 -189.5q0 -221 -145 -353.5t-398 -132.5zM756 856 q111 0 179.5 57.5t68.5 167.5q0 89 -56.5 142t-165.5 53q-119 0 -183 -59.5t-64 -167.5q0 -98 58 -145.5t163 -47.5zM639 141q154 0 236.5 78t82.5 221q0 113 -71 177.5t-211 64.5q-145 0 -227 -83t-82 -220q0 -109 66 -173.5t206 -64.5z" />
<glyph unicode="9" horiz-adv-x="1163" d="M774 1442q224 0 338.5 -122t114.5 -359q0 -152 -23 -293t-74 -268.5t-125 -221.5t-183.5 -149.5t-241.5 -55.5q-201 0 -292 94t-91 275h194q0 -211 225 -211q150 0 255.5 137.5t144.5 393.5q-113 -166 -336 -166q-193 0 -300.5 104t-107.5 289q0 243 143.5 398t358.5 155 zM715 655q153 0 237 93t84 245q0 126 -66 207.5t-208 81.5q-124 0 -212.5 -103.5t-88.5 -260.5q0 -130 65 -196.5t189 -66.5z" />
<glyph unicode=":" horiz-adv-x="514" d="M395 784q-47 0 -76.5 31.5t-29.5 77.5q0 58 44.5 100.5t104.5 42.5q47 0 77 -30.5t30 -75.5q0 -58 -46 -102t-104 -44zM254 -14q-47 0 -75.5 30.5t-28.5 77.5q0 59 43.5 101.5t103.5 42.5q47 0 78 -31t31 -76q0 -58 -47 -101.5t-105 -43.5z" />
<glyph unicode=";" horiz-adv-x="526" d="M395 770q-46 0 -75 31t-29 78q0 58 44.5 100.5t104.5 42.5q45 0 76 -31t31 -76q0 -58 -46.5 -101.5t-105.5 -43.5zM88 -266l16 96q49 0 97.5 43.5t58.5 112.5h-2q-46 0 -75 27t-29 75q0 66 45 107t104 41q48 0 77.5 -30.5t29.5 -92.5q0 -80 -29 -152t-75.5 -121 t-104 -77.5t-113.5 -28.5z" />
<glyph unicode="&#x3c;" horiz-adv-x="1161" d="M1053 -16l-910 454l27 160l1071 455l-31 -170l-870 -365l739 -381z" />
<glyph unicode="=" horiz-adv-x="1261" d="M262 696l25 144h983l-25 -144h-983zM188 276l25 144h983l-25 -144h-983z" />
<glyph unicode="&#x3e;" horiz-adv-x="1161" d="M104 -16l31 161l869 373l-740 381l29 154l907 -455l-26 -160z" />
<glyph unicode="?" horiz-adv-x="1052" d="M479 375q2 14 8 37t7 30q25 110 74.5 184t168.5 175l94 80q61 54 89 95q51 75 51 159q0 89 -51.5 138.5t-153.5 49.5q-137 0 -211.5 -64.5t-112.5 -220.5h-196q44 217 189.5 337t363.5 120q175 0 282 -79.5t107 -225.5q0 -67 -6 -106t-30.5 -90t-75.5 -105t-140 -131 l-121 -105q-50 -42 -78.5 -90t-50.5 -125q-7 -24 -14 -63h-193zM510 -27q-45 0 -74.5 31t-29.5 76q0 56 45.5 99.5t101.5 43.5q46 0 76 -31.5t30 -76.5q0 -56 -45.5 -99t-103.5 -43z" />
<glyph unicode="@" horiz-adv-x="1765" d="M866 -287q-153 0 -279.5 42.5t-218.5 124.5t-143 209t-51 288q0 146 39.5 278t108 234.5t161 185.5t199.5 136.5t222 82.5t229 29q149 0 272 -47t204.5 -129.5t126 -193t44.5 -238.5q0 -107 -29 -202.5t-77 -164.5t-108.5 -120t-125 -76t-125.5 -25h-205l23 129 q-40 -66 -112.5 -108t-162.5 -42q-136 0 -211.5 83t-75.5 233q0 113 36 207t96.5 153.5t137 92t158.5 32.5q93 0 149 -41t64 -96l23 121h160l-111 -625h49q43 0 88.5 28t86 79.5t66 137.5t25.5 191q0 209 -132 335t-363 126q-144 0 -279 -54.5t-239.5 -150.5t-167 -239.5 t-62.5 -310.5q0 -252 147 -393.5t402 -141.5h578l-29 -160h-588zM893 248q123 0 202 91.5t79 223.5q0 92 -47.5 149.5t-131.5 57.5q-114 0 -188 -90.5t-74 -228.5q0 -91 40.5 -147t119.5 -56z" />
<glyph unicode="A" horiz-adv-x="1353" d="M1114 0l-84 459h-555l-248 -459h-198l800 1468h215l277 -1468h-207zM582 655h411l-102 566h-4z" />
<glyph unicode="B" horiz-adv-x="1370" d="M188 0l258 1468h564q189 0 300 -84.5t111 -236.5q0 -138 -64.5 -235t-178.5 -136v-2q76 -33 123 -101.5t47 -168.5q0 -97 -30.5 -179.5t-84 -141.5t-126.5 -101t-158.5 -62t-178.5 -20h-582zM537 840h364q136 0 226 73.5t90 188.5q0 89 -64.5 132.5t-181.5 43.5h-357z M422 190h360q77 0 140 16t112.5 48.5t77 87t27.5 127.5q0 97 -69.5 142.5t-190.5 45.5h-373z" />
<glyph unicode="C" horiz-adv-x="1478" d="M846 -35q-293 0 -466 184t-173 494q0 185 60 346t162 271.5t239.5 173.5t289.5 63q147 0 260 -44t181.5 -120t106 -167.5t46.5 -198.5h-194q-19 84 -49.5 143.5t-80.5 105.5t-126 68.5t-180 22.5q-96 0 -179 -36.5t-142.5 -98t-102 -142.5t-63.5 -171.5t-21 -182.5 q0 -111 27.5 -204.5t82 -164.5t142.5 -111t202 -40q73 0 137.5 19t110 49.5t82 70.5t58.5 79.5t34 80.5h197q-24 -94 -79 -180.5t-135 -156.5t-191.5 -111.5t-235.5 -41.5z" />
<glyph unicode="D" horiz-adv-x="1492" d="M188 0l258 1468h478q131 0 243 -40t195.5 -115t131.5 -190.5t48 -258.5q0 -182 -64 -341t-178.5 -274.5t-280.5 -182t-362 -66.5h-469zM420 176h254q139 0 259.5 44t210.5 126.5t141.5 210t51.5 285.5q0 214 -124.5 331t-329.5 117h-265z" />
<glyph unicode="E" horiz-adv-x="1271" d="M188 0l258 1468h967l-31 -182h-766l-79 -448h708l-31 -181h-708l-84 -477h778l-33 -180h-979z" />
<glyph unicode="F" horiz-adv-x="1185" d="M188 0l258 1468h930l-33 -186h-729l-79 -461h643l-33 -184h-643l-113 -637h-201z" />
<glyph unicode="G" horiz-adv-x="1519" d="M819 -35q-149 0 -266 51t-191.5 142.5t-113.5 214t-39 268.5q0 172 55 327t153.5 272.5t247.5 187t326 69.5q243 0 391.5 -138t167.5 -362h-194q-39 160 -138 235t-266 75q-122 0 -224 -52t-169 -140t-104 -202t-37 -239q0 -113 27 -207t80 -164.5t138 -109.5t195 -39 q192 0 309 108.5t154 296.5h-418l33 182h620q-35 -379 -229 -577.5t-508 -198.5z" />
<glyph unicode="H" horiz-adv-x="1503" d="M188 0l258 1468h201l-108 -624h721l108 624h205l-258 -1468h-205l117 659h-721l-117 -659h-201z" />
<glyph unicode="I" horiz-adv-x="577" d="M188 0l258 1468h201l-258 -1468h-201z" />
<glyph unicode="J" horiz-adv-x="1099" d="M498 -35q-189 0 -285 92t-96 260q0 65 12 136h195q-9 -46 -9 -88q0 -113 45.5 -163t157.5 -50q126 0 192 74t93 231l178 1011h203l-178 -1011q-42 -244 -165.5 -368t-342.5 -124z" />
<glyph unicode="K" horiz-adv-x="1382" d="M188 0l258 1468h201l-127 -729l834 729h260l-705 -612l467 -856h-225l-395 731l-281 -239l-86 -492h-201z" />
<glyph unicode="L" horiz-adv-x="1157" d="M188 0l258 1468h201l-227 -1280h731l-31 -188h-932z" />
<glyph unicode="M" horiz-adv-x="1753" d="M188 0l258 1468h191l358 -757l637 757h191l-258 -1468h-191l205 1161l-532 -637h-160l-299 654l-209 -1178h-191z" />
<glyph unicode="N" horiz-adv-x="1542" d="M188 0l258 1468h175l598 -1159l200 1159h193l-258 -1468h-176l-598 1163l-203 -1163h-189z" />
<glyph unicode="O" horiz-adv-x="1603" d="M877 -37q-298 0 -479 185t-181 479q0 196 58 360t159.5 275t241 173t299.5 62q149 0 273.5 -51t208 -140t129.5 -211t46 -264q0 -196 -58.5 -360.5t-160 -275t-239.5 -171.5t-297 -61zM889 156q161 0 284.5 83t190 230.5t66.5 335.5q0 143 -54.5 255.5t-162.5 179.5 t-255 67q-159 0 -281.5 -84.5t-188.5 -233t-66 -336.5q0 -220 122 -358.5t345 -138.5z" />
<glyph unicode="P" horiz-adv-x="1273" d="M188 0l258 1462h555q205 0 306.5 -91.5t101.5 -248.5q0 -134 -59.5 -247.5t-175 -183.5t-265.5 -70h-411l-109 -621h-201zM532 811h388q114 0 193 70t79 204q0 88 -51.5 137.5t-143.5 49.5h-385z" />
<glyph unicode="Q" horiz-adv-x="1603" d="M1632 831q0 -189 -54 -348t-148.5 -269t-223.5 -175t-278 -74q-9 -64 16.5 -94.5t85.5 -30.5h199l-31 -174h-217q-299 0 -248 309q-237 43 -376.5 219.5t-139.5 432.5q0 196 58 360t159.5 275t241 173t299.5 62q149 0 273.5 -51t208 -140t129.5 -211t46 -264zM422 653 q0 -220 122 -358.5t345 -138.5q161 0 284.5 83t190 230.5t66.5 335.5q0 143 -54.5 255.5t-162.5 179.5t-255 67q-159 0 -281.5 -84.5t-188.5 -233t-66 -336.5z" />
<glyph unicode="R" horiz-adv-x="1343" d="M1395 1106q0 -184 -105 -312.5t-286 -160.5l284 -633h-231l-271 623h-286l-111 -623h-201l258 1462h566q182 0 282.5 -93.5t100.5 -262.5zM614 1278l-82 -469h371q136 0 211.5 76.5t75.5 199.5q0 91 -56.5 142t-154.5 51h-365z" />
<glyph unicode="S" horiz-adv-x="1277" d="M688 -35q-257 0 -395.5 92.5t-138.5 282.5q0 52 12 117h196q-6 -37 -6 -70q0 -127 85 -186.5t253 -59.5q177 0 269 65.5t92 192.5q0 49 -12.5 85.5t-33 63t-62.5 51.5t-86 43.5t-118 45.5q-180 63 -246 100q-135 74 -168 191q-12 45 -12 98q0 132 74.5 228.5t196.5 144 t274 47.5q80 0 150 -12t132.5 -39.5t107 -68.5t70.5 -103.5t26 -140.5q0 -45 -9 -95h-196q4 32 4 45q0 67 -23.5 115t-65 75t-92 39.5t-112.5 12.5q-70 0 -128 -11.5t-106 -36t-75 -68.5t-27 -105q0 -24 3.5 -43t15 -37t21.5 -31t35.5 -28.5t44 -25t59.5 -26.5t69 -27.5 t86 -31.5q77 -29 128 -52.5t108.5 -60.5t91 -77.5t55.5 -99t22 -130.5q0 -144 -74.5 -251.5t-202.5 -162.5t-292 -55z" />
<glyph unicode="T" horiz-adv-x="1169" d="M485 0l228 1290h-451l31 178h1100l-31 -178h-449l-227 -1290h-201z" />
<glyph unicode="U" horiz-adv-x="1460" d="M723 -35q-227 0 -346 114.5t-119 338.5q0 85 18 190l152 860h203l-152 -858q-16 -88 -16 -157q0 -297 293 -297q189 0 295 113.5t145 340.5l152 858h200l-151 -860q-56 -316 -230 -479.5t-444 -163.5z" />
<glyph unicode="V" horiz-adv-x="1288" d="M530 0l-229 1462h205l147 -950q28 -194 33 -289q46 111 135 289l473 950h209l-745 -1462h-228z" />
<glyph unicode="W" horiz-adv-x="1964" d="M438 0l-129 1468h219l54 -813q21 -327 22 -419q54 151 172 423l354 809h234l61 -806q24 -319 27 -435q72 207 170 439l338 802h211l-647 -1468h-236l-43 532q-24 299 -43 697q-109 -290 -291 -701l-233 -528h-240z" />
<glyph unicode="X" horiz-adv-x="1275" d="M1487 1462l-594 -712l371 -750h-230l-291 602l-499 -602h-238l649 770l-350 692h227l269 -561l452 561h234z" />
<glyph unicode="Y" horiz-adv-x="1327" d="M561 0l103 582l-383 880h219l299 -692l528 692h223l-684 -880l-102 -582h-203z" />
<glyph unicode="Z" horiz-adv-x="1292" d="M76 0l33 174l718 756q135 142 344 348h-852l33 184h1094l-31 -174l-770 -803q-24 -25 -68 -71.5t-70.5 -74.5t-70 -70.5t-88.5 -84.5h901l-32 -184h-1141z" />
<glyph unicode="[" horiz-adv-x="643" d="M109 -369l329 1866h402l-27 -149h-217l-277 -1567h218l-27 -150h-401z" />
<glyph unicode="\" horiz-adv-x="854" d="M633 -35l-307 1532h151l307 -1532h-151z" />
<glyph unicode="]" horiz-adv-x="643" d="M2 -369l27 150h217l276 1567h-217l27 149h401l-330 -1866h-401z" />
<glyph unicode="^" horiz-adv-x="1073" d="M170 567l528 848h176l230 -848h-156l-188 703l-434 -703h-156z" />
<glyph unicode="_" horiz-adv-x="972" d="M-45 -256l18 102h973l-18 -102h-973z" />
<glyph unicode="`" horiz-adv-x="374" d="M670 1174h-113l-209 294h197z" />
<glyph unicode="a" horiz-adv-x="1105" d="M422 -27q-131 0 -215 73.5t-84 197.5q0 83 29.5 147.5t85.5 107t125 69.5t159 44l238 45q79 15 107 41.5t28 85.5q0 54 -49 90.5t-160 36.5q-220 0 -258 -174h-178q29 162 150.5 254t301.5 92q377 0 377 -278q0 -36 -10 -98l-84 -469q-2 -8 -2 -25q0 -25 14 -36t47 -11 h25l-29 -166h-170q-38 0 -61 21.5t-23 60.5q0 6 5 31l4 22q-149 -162 -373 -162zM479 143q137 0 235.5 78t119.5 191l22 125q-36 -20 -92 -31l-191 -39q-137 -28 -191 -70t-54 -127q0 -61 38.5 -94t112.5 -33z" />
<glyph unicode="b" horiz-adv-x="1183" d="M788 1083q126 0 222 -60.5t144 -157t48 -210.5q0 -170 -43.5 -303.5t-118.5 -214.5t-171 -122.5t-207 -41.5q-230 0 -314 170l-24 -143h-177l259 1468h184l-88 -497q121 112 286 112zM682 145q151 0 245.5 127.5t94.5 341.5q0 87 -25 150.5t-87.5 103t-159.5 39.5 q-158 0 -246 -131.5t-88 -333.5q0 -140 71 -218.5t195 -78.5z" />
<glyph unicode="c" horiz-adv-x="1091" d="M600 -27q-196 0 -310 122.5t-114 338.5q0 186 66 332.5t193.5 231.5t295.5 85q111 0 199 -43t143 -136t55 -224h-178q-21 123 -78.5 176t-179.5 53q-84 0 -150 -37t-106 -101t-60 -143.5t-20 -170.5q0 -144 62 -225.5t194 -81.5q108 0 178.5 47.5t110.5 158.5h178 q-46 -186 -175 -284.5t-304 -98.5z" />
<glyph unicode="d" horiz-adv-x="1181" d="M1108 1468h184l-258 -1468h-176l14 90q-123 -117 -297 -117q-186 0 -296.5 117.5t-110.5 315.5q0 152 41 280t111.5 214.5t167.5 134.5t208 48q233 0 320 -159zM606 150q91 0 159.5 38.5t108.5 106.5t59 151.5t19 182.5q0 140 -61.5 211t-202.5 71q-143 0 -242.5 -128.5 t-99.5 -331.5q0 -149 67 -225t193 -76z" />
<glyph unicode="e" horiz-adv-x="1122" d="M352 469q1 -163 70.5 -243.5t191.5 -80.5q98 0 171.5 45t105.5 129h178q-48 -160 -172.5 -253t-294.5 -93q-189 0 -308.5 123t-119.5 340q0 188 67 335t191.5 229.5t286.5 82.5q186 0 301 -126t115 -322q0 -55 -19 -166h-764zM373 631h583q-2 55 -17.5 103.5t-46 89 t-82.5 64t-120 23.5q-123 0 -203 -79t-114 -201z" />
<glyph unicode="f" horiz-adv-x="671" d="M231 0l158 889h-190l28 168h191l16 94q28 163 119.5 240t259.5 77h174l-31 -174h-176q-72 0 -109.5 -32t-49.5 -103l-19 -102h219l-28 -168h-220l-157 -889h-185z" />
<glyph unicode="g" horiz-adv-x="1183" d="M1047 1057h176l-187 -1057q-40 -229 -162.5 -332.5t-326.5 -103.5h-395l30 174h342q153 0 228 60t102 212l12 70q-120 -107 -282 -107q-189 0 -301.5 118t-112.5 317q0 202 69 356.5t188 236.5t267 82q236 0 326 -172zM614 150q90 0 157.5 38t106 105t57.5 150t19 182 q0 133 -64.5 209.5t-203.5 76.5q-142 0 -240 -128.5t-98 -331.5q0 -149 68.5 -225t197.5 -76z" />
<glyph unicode="h" horiz-adv-x="1161" d="M147 0l259 1468h182l-99 -534q59 75 144.5 112t183.5 37q144 0 239 -84t95 -229q0 -40 -10 -102l-117 -668h-184l112 623q6 41 6 73q0 98 -53 154.5t-153 56.5q-129 0 -210.5 -87t-109.5 -249l-100 -571h-185z" />
<glyph unicode="i" horiz-adv-x="479" d="M467 1231q-48 0 -80.5 30t-32.5 80q0 56 35.5 96t95.5 40q50 0 82.5 -31.5t32.5 -81.5q0 -56 -33.5 -94.5t-99.5 -38.5zM147 0l187 1057h184l-186 -1057h-185z" />
<glyph unicode="j" horiz-adv-x="495" d="M475 1231q-48 0 -80.5 30t-32.5 80q0 56 36 96t96 40q50 0 82 -31t32 -82q0 -56 -33.5 -94.5t-99.5 -38.5zM-152 -436l33 176h131q59 0 87 22.5t38 85.5l213 1209h185l-218 -1231q-26 -143 -96.5 -202.5t-202.5 -59.5h-170z" />
<glyph unicode="k" horiz-adv-x="1044" d="M1194 1057l-537 -455l387 -602h-215l-311 483l-119 -100l-67 -383h-185l259 1468h184l-146 -825l490 414h260z" />
<glyph unicode="l" horiz-adv-x="522" d="M358 0q-97 0 -149 46t-33 153l223 1269h185l-219 -1241q-7 -42 8.5 -56.5t52.5 -14.5h78l-27 -156h-119z" />
<glyph unicode="m" horiz-adv-x="1736" d="M147 0l187 1059h178l-18 -107q50 59 131 95t170 36q214 0 266 -165q136 165 352 165q173 0 255.5 -112t47.5 -307l-117 -664h-184l113 627q24 131 -22.5 205.5t-155.5 74.5q-104 0 -178.5 -80t-96.5 -206l-108 -621h-185l111 627q23 130 -22.5 205t-153.5 75 q-102 0 -177 -76t-96 -194l-112 -637h-185z" />
<glyph unicode="n" horiz-adv-x="1161" d="M147 0l187 1057h178l-25 -129q55 73 140.5 114t177.5 41q162 0 253 -88t91 -231q0 -48 -10 -113l-115 -651h-184l110 621q8 39 8 81q0 93 -54.5 149t-147.5 56q-122 0 -208 -80.5t-112 -228.5l-104 -598h-185z" />
<glyph unicode="o" horiz-adv-x="1161" d="M627 -27q-204 0 -328.5 132t-124.5 346q0 177 68.5 321t193.5 227.5t281 83.5q201 0 320.5 -127t127.5 -342q5 -142 -36.5 -263.5t-116 -203.5t-174.5 -128t-211 -46zM637 145q155 0 249.5 123.5t94.5 323.5q0 155 -75.5 237t-200.5 82q-110 0 -190 -61t-118.5 -159.5 t-38.5 -219.5q0 -154 78 -240t201 -86z" />
<glyph unicode="p" horiz-adv-x="1181" d="M788 1083q126 0 222 -60.5t144 -157t48 -210.5q0 -170 -43.5 -303.5t-118.5 -214.5t-171 -122.5t-207 -41.5q-225 0 -310 162l-96 -569h-184l262 1491h178l-16 -90q125 116 292 116zM682 145q151 0 245.5 127.5t94.5 341.5q0 87 -25 150.5t-87.5 103t-159.5 39.5 q-158 0 -246 -131.5t-88 -333.5q0 -140 71 -218.5t195 -78.5z" />
<glyph unicode="q" horiz-adv-x="1181" d="M1004 -190q0 -72 77 -72h80l-31 -174h-139q-92 0 -139 41.5t-47 120.5q0 27 6 57l55 301q-124 -111 -291 -111q-186 0 -296.5 117.5t-110.5 315.5q0 311 147 494t375 183q239 0 330 -168l24 142h177l-215 -1215q-2 -12 -2 -32zM606 150q92 0 160 35.5t108 100t59 146.5 t19 184q0 295 -270 295q-144 0 -240 -126.5t-96 -338.5q0 -146 67 -221t193 -75z" />
<glyph unicode="r" horiz-adv-x="729" d="M147 0l187 1057h176l-23 -129q60 69 146 109t182 40h78l-33 -180h-96q-51 0 -102 -20t-98 -59t-82.5 -103.5t-49.5 -145.5l-100 -569h-185z" />
<glyph unicode="s" horiz-adv-x="999" d="M528 -27q-196 0 -296.5 68t-100.5 221q0 43 4 68h178q-2 -12 -2 -33q0 -86 56 -125t186 -39q119 0 175 37t56 113q0 54 -32 82t-117 61l-131 51q-61 24 -102 45.5t-81.5 54t-60.5 76.5t-20 99q0 160 116.5 245.5t311.5 85.5q163 0 263.5 -66t100.5 -200q0 -35 -6 -76 h-178q4 24 4 35q0 144 -209 144q-105 0 -157 -37t-52 -95q0 -49 32.5 -79t113.5 -62l182 -72q101 -40 155 -100t54 -156q0 -92 -36 -160.5t-99 -108t-140 -58.5t-168 -19z" />
<glyph unicode="t" horiz-adv-x="741" d="M504 0q-41 0 -72 4t-61 13.5t-48.5 27t-33 44t-14.5 64t6 87.5l114 649h-198l28 168h199l53 299h185l-54 -299h258l-28 -168h-260l-107 -608q-13 -70 12 -93.5t97 -23.5h133l-29 -164h-180z" />
<glyph unicode="u" horiz-adv-x="1153" d="M508 -27q-179 0 -258 112t-43 321l117 651h184l-113 -633q-50 -274 189 -274q68 0 125.5 27.5t95.5 73.5t62.5 101t35.5 115l105 590h184l-186 -1057h-179l19 106q-46 -58 -140 -95.5t-198 -37.5z" />
<glyph unicode="v" horiz-adv-x="1034" d="M418 0l-199 1057h195l88 -537l53 -342h2l156 340l270 539h199l-557 -1057h-207z" />
<glyph unicode="w" horiz-adv-x="1513" d="M330 0l-92 1057h192l43 -848l381 848h190l72 -848l348 848h189l-471 -1057h-203l-45 471l-29 338h-4l-153 -342l-216 -467h-202z" />
<glyph unicode="x" horiz-adv-x="1013" d="M18 0l480 553l-256 504h202l187 -377l291 377h213l-430 -520l276 -537h-203l-203 408l-344 -408h-213z" />
<glyph unicode="y" horiz-adv-x="1056" d="M63 -436l31 174h150q82 0 127 31q59 42 59 122q0 63 -10 117l-193 1049h211l78 -547l59 -393l185 393l248 547h200l-606 -1237q-71 -145 -148 -200.5t-198 -55.5h-193z" />
<glyph unicode="z" horiz-adv-x="991" d="M66 0l26 147l705 748h-580l27 162h819l-27 -148l-712 -749h628l-26 -160h-860z" />
<glyph unicode="{" horiz-adv-x="708" d="M383 -369q-84 0 -135 67t-29 189l66 371q32 184 -125 250l20 119q63 5 129.5 75.5t85.5 176.5l64 364q22 122 96 188t158 66h192l-26 -149h-105q-65 0 -96.5 -45t-46.5 -134l-58 -321q-18 -103 -77.5 -181.5t-151.5 -103.5q29 -9 54.5 -28.5t48.5 -53.5t30 -80.5 t-2 -109.5l-57 -330q-18 -86 -1 -133t81 -47h104l-27 -150h-192z" />
<glyph unicode="|" horiz-adv-x="487" d="M94 -438l363 2048h143l-362 -2048h-144z" />
<glyph unicode="}" horiz-adv-x="708" d="M524 1497q84 0 135 -67t29 -189l-65 -371q-32 -184 125 -249l-21 -119q-63 -5 -129.5 -75.5t-85.5 -176.5l-63 -365q-22 -122 -96 -188t-158 -66h-193l27 150h104q65 0 98 45t48 133l55 322q18 103 77.5 181t151.5 103q-28 9 -53.5 29t-48.5 54t-30 80.5t1 109.5l60 329 q18 86 0 133.5t-82 47.5h-105l27 149h192z" />
<glyph unicode="~" horiz-adv-x="1155" d="M266 410l-43 114q116 171 269 176q57 2 134 -33t148 -70.5t113 -35.5q28 0 54 11t55 38.5t42.5 43t46.5 55.5l43 -115q-66 -83 -126 -129.5t-136 -46.5q-43 0 -83.5 14.5t-73.5 35t-67.5 40.5t-79.5 34.5t-95 14.5q-60 0 -108 -39.5t-93 -107.5z" />
<glyph unicode="&#xa1;" horiz-adv-x="497" d="M442 1087q47 0 76 -31t29 -77q0 -58 -45 -100.5t-105 -42.5q-45 0 -75.5 30.5t-30.5 75.5q0 58 46 101.5t105 43.5zM428 715l-57 -570l-97 -534h-190l96 534l144 570h104z" />
<glyph unicode="&#xa2;" horiz-adv-x="1107" d="M506 -221l35 194q-174 10 -269.5 130t-95.5 309q0 173 66.5 320t195.5 242t297 107l31 174h82l-31 -174q166 -10 255.5 -110t70.5 -291h-178q6 97 -41 155.5t-138 69.5l-133 -753q98 7 160 55.5t102 148.5h175q-46 -173 -169.5 -271t-297.5 -110l-35 -196h-82zM571 152 l134 753q-86 -10 -153 -56t-106.5 -113.5t-60 -144t-20.5 -155.5q0 -119 51.5 -196.5t154.5 -87.5z" />
<glyph unicode="&#xa3;" horiz-adv-x="1296" d="M1368 1063h-186q27 215 -193 215q-65 0 -114.5 -20t-78.5 -50.5t-47.5 -73t-25 -82t-6.5 -83.5q0 -65 14 -168h346l-28 -158h-297q8 -90 8 -129q0 -101 -43 -217q93 -60 175.5 -93.5t178.5 -33.5h156l-31 -170h-178q-190 0 -393 133q-125 -149 -308 -149 q-96 0 -154.5 53.5t-58.5 144.5q0 120 85 192t198 72q75 0 168 -49q8 44 8 99q0 58 -14 147h-287l29 158h233q-12 73 -12 147q0 90 20.5 165t54 126.5t79.5 91.5t92.5 63.5t97 38.5t90.5 20t76 5q186 0 281 -106.5t65 -288.5zM338 145q90 0 149 82q-79 52 -129 52 q-40 0 -65 -25t-25 -51q0 -25 17.5 -41.5t52.5 -16.5z" />
<glyph unicode="&#xa4;" horiz-adv-x="1304" d="M774 201q-194 0 -317 114l-117 -118l-78 79l117 117q-118 131 -115 314q3 197 115 315l-117 119l80 80l117 -117q60 54 143.5 83.5t173.5 29.5q86 0 167.5 -29.5t139.5 -81.5l119 117l84 -84l-117 -115q54 -57 82.5 -140t28.5 -175q0 -189 -111 -318l115 -115l-78 -77 l-116 118q-122 -116 -316 -116zM774 344q151 0 247.5 107.5t96.5 257.5q0 149 -96 256.5t-246 107.5q-152 0 -250 -107.5t-98 -258.5q0 -150 98 -256.5t248 -106.5z" />
<glyph unicode="&#xa5;" horiz-adv-x="1398" d="M598 0l88 504h-358l22 125h334l-98 225h-242l21 123h165l-217 485h246l285 -674l526 674h234l-383 -485h143l-21 -123h-221l-186 -225h338l-23 -125h-360l-88 -504h-205z" />
<glyph unicode="&#xa6;" horiz-adv-x="475" d="M313 842l93 512h143l-92 -512h-144zM133 -182l90 512h144l-91 -512h-143z" />
<glyph unicode="&#xa7;" horiz-adv-x="1064" d="M1130 1073h-208q38 211 -181 211q-211 0 -211 -170q0 -49 38.5 -87.5t160.5 -125.5q32 -23 49 -35q59 -43 90 -66.5t70.5 -59.5t58 -64t32 -66t13.5 -80q0 -98 -55.5 -180.5t-142.5 -136.5q92 -98 92 -209q0 -167 -129.5 -278t-341.5 -111q-177 0 -275 105.5t-65 289.5 h209q-38 -211 182 -211q211 0 211 170q0 51 -40.5 90.5t-172.5 132.5q-23 16 -35 25q-59 42 -91 66t-71 59.5t-58 64.5t-32.5 66.5t-13.5 79.5q0 98 56 180.5t143 136.5q-93 99 -93 209q0 167 130 278t342 111q177 0 274.5 -105.5t64.5 -289.5zM831 469q0 73 -92 145 q-109 85 -204 154q-109 -54 -109 -156q0 -76 90 -143q85 -67 205 -154q110 54 110 154z" />
<glyph unicode="&#xa8;" horiz-adv-x="622" d="M356 1229q-41 0 -68.5 27.5t-27.5 70.5q0 59 33.5 90t81.5 31q43 0 70.5 -27.5t27.5 -70.5q0 -60 -32.5 -90.5t-84.5 -30.5zM719 1229q-41 0 -68.5 27.5t-27.5 70.5q0 59 33 90t81 31q43 0 71 -27.5t28 -70.5q0 -60 -32.5 -90.5t-84.5 -30.5z" />
<glyph unicode="&#xa9;" horiz-adv-x="1753" d="M911 -35q-196 0 -355 81t-251 230.5t-92 339.5q0 162 47.5 304t131 246.5t195 179.5t242.5 113t271 38q196 0 355 -80.5t251 -229.5t92 -339q0 -162 -47.5 -304t-131 -247t-195 -180.5t-242.5 -113.5t-271 -38zM934 92q144 0 272.5 52t224 145.5t151.5 233t56 306.5 q0 234 -158 388.5t-403 154.5q-116 0 -222 -33t-193.5 -97t-152 -153t-100.5 -206.5t-36 -251.5q0 -154 70.5 -277t199 -192.5t291.5 -69.5zM938 268q-171 0 -270 107.5t-99 275.5q0 110 39 208.5t107 171.5t167 116t214 43q147 0 235.5 -83.5t81.5 -232.5h-125 q-1 89 -60 139t-153 50q-161 0 -257.5 -113.5t-96.5 -277.5q0 -119 64 -198t176 -79q94 0 168.5 51.5t109.5 143.5h129q-52 -148 -170.5 -235t-259.5 -87z" />
<glyph unicode="&#xaa;" horiz-adv-x="849" d="M459 776q-85 0 -137 45t-52 125q0 94 70.5 149t187.5 74l150 23q51 8 65.5 20.5t14.5 53.5q0 82 -115 82q-132 0 -151 -99h-144q20 104 107.5 159.5t214.5 55.5q54 0 94 -9t72 -30t48 -59.5t15 -93.5q0 -30 -6 -64l-41 -233q-6 -30 -6 -41q0 -25 31 -25h24l-20 -116h-121 q-32 0 -52 14t-16 43q1 4 2 13.5t2 13.5h-2q-91 -101 -235 -101zM508 887q80 0 144 54t81 140l4 21q-23 -13 -59 -17l-127 -14q-67 -8 -101 -32t-34 -72q0 -80 92 -80z" />
<glyph unicode="&#xab;" horiz-adv-x="790" d="M401 199l-217 268l31 174l311 266l-30 -172l-201 -182l137 -182zM684 199l-217 268l31 174l311 266l-31 -172l-200 -182l137 -182z" />
<glyph unicode="&#xac;" horiz-adv-x="1259" d="M1001 197l80 450h-837l24 144h981l-104 -594h-144z" />
<glyph unicode="&#xad;" horiz-adv-x="765" d="M217 475l29 160h499l-28 -160h-500z" />
<glyph unicode="&#xae;" horiz-adv-x="1753" d="M911 -35q-196 0 -355 81t-251 230.5t-92 339.5q0 162 47.5 304t131 246.5t195 179.5t242.5 113t271 38q196 0 355 -80.5t251 -229.5t92 -339q0 -162 -47.5 -304t-131 -247t-195 -180.5t-242.5 -113.5t-271 -38zM934 92q144 0 272.5 52t224 145.5t151.5 233t56 306.5 q0 234 -158 388.5t-403 154.5q-116 0 -222 -33t-193.5 -97t-152 -153t-100.5 -206.5t-36 -251.5q0 -154 70.5 -277t199 -192.5t291.5 -69.5zM635 303l153 866h318q280 0 280 -200q0 -66 -23 -118.5t-62.5 -85t-86.5 -51t-100 -24.5l174 -387h-147l-158 381h-147l-68 -381 h-133zM854 786h164q49 0 85 6t71.5 22.5t54 51t18.5 86.5q0 111 -178 111h-166z" />
<glyph unicode="&#xaf;" horiz-adv-x="659" d="M248 1286l18 107h619l-19 -107h-618z" />
<glyph unicode="&#xb0;" horiz-adv-x="753" d="M547 844q-119 0 -188.5 71.5t-69.5 182.5q0 149 98 247.5t223 98.5q118 0 188 -72.5t70 -181.5q0 -150 -98 -248t-223 -98zM561 932q77 0 144 68.5t67 175.5q0 77 -47 128.5t-129 51.5q-77 0 -145 -69t-68 -175q0 -78 48.5 -129t129.5 -51z" />
<glyph unicode="&#xb1;" horiz-adv-x="1236" d="M590 240l57 327h-420l25 142h420l57 327h141l-57 -327h422l-25 -142h-422l-57 -327h-141zM127 0l25 143h983l-25 -143h-983z" />
<glyph unicode="&#xb2;" horiz-adv-x="913" d="M221 563q10 57 31.5 104t48 82t77.5 74.5t97 69t129 78.5q59 35 86 51.5t61 41t46.5 42t22 41t9.5 51.5q0 53 -39.5 82t-119.5 29q-90 0 -141 -50t-56 -143h-151q12 154 110.5 243t255.5 89q141 0 221 -56.5t80 -158.5q0 -54 -10 -91.5t-42 -78.5t-87 -81.5t-148 -96.5 q-9 -6 -26 -16q-81 -50 -117 -73t-72 -53t-49 -55h469l-22 -125h-664z" />
<glyph unicode="&#xb3;" horiz-adv-x="876" d="M545 545q-165 0 -244.5 83t-50.5 234h143q-19 -91 25 -140.5t145 -49.5q102 0 155.5 46t53.5 130q0 58 -42 87.5t-120 29.5h-55l18 108h43q87 0 142 35t55 113q0 49 -42 73.5t-109 24.5q-83 0 -132.5 -38t-62.5 -132h-143q23 145 121 222t241 77q123 0 200 -52t77 -157 q0 -78 -52 -138.5t-123 -72.5q62 -12 99 -58t37 -118q0 -139 -106 -223t-273 -84z" />
<glyph unicode="&#xb4;" horiz-adv-x="374" d="M328 1174l176 294h209l-260 -294h-125z" />
<glyph unicode="&#xb5;" horiz-adv-x="1212" d="M106 -369l252 1426h185l-113 -633q-26 -142 27 -208t161 -66q68 0 125.5 27.5t96 73.5t63 101t35.5 115l104 590h185l-187 -1057h-178l19 106q-50 -60 -135.5 -96.5t-178.5 -36.5q-147 0 -205 78l-73 -420h-183z" />
<glyph unicode="&#xb6;" horiz-adv-x="1271" d="M268 -346l29 164h10q51 0 87.5 5.5t63 20.5t43.5 32t30 51t20.5 66t17.5 87l109 620q-222 0 -327 81.5t-105 228.5q0 197 145.5 324.5t374.5 127.5h657l-26 -151h-111l-282 -1604h-160l282 1604h-180l-217 -1231q-43 -242 -137.5 -334t-310.5 -92h-13z" />
<glyph unicode="&#xb7;" horiz-adv-x="503" d="M344 508q-47 0 -76.5 31t-29.5 77q0 59 46.5 102.5t104.5 43.5q43 0 73 -31.5t30 -77.5q0 -56 -46.5 -100.5t-101.5 -44.5z" />
<glyph unicode="&#xb8;" horiz-adv-x="481" d="M254 -397q-127 0 -215 71l63 82q55 -49 148 -49q59 0 91 21.5t32 58.5q0 51 -72 51q-36 0 -94 -14l-31 59l137 117h99l-93 -76l5 -4q24 4 47 4q71 0 112 -32t41 -89q0 -91 -80.5 -145.5t-189.5 -54.5z" />
<glyph unicode="&#xb9;" horiz-adv-x="595" d="M397 563l117 651q-105 -63 -244 -63l21 113q88 7 165 47.5t117 118.5h129l-153 -867h-152z" />
<glyph unicode="&#xba;" horiz-adv-x="835" d="M553 778q-127 0 -199.5 78t-72.5 205q0 166 114.5 285.5t280.5 119.5q127 0 199.5 -77.5t72.5 -204.5q0 -168 -113.5 -287t-281.5 -119zM578 909q99 0 162 72t63 186q0 77 -40 122.5t-110 45.5q-98 0 -162.5 -71.5t-64.5 -184.5q0 -78 41 -124t111 -46z" />
<glyph unicode="&#xbb;" horiz-adv-x="821" d="M176 199l31 172l203 182l-140 182l31 172l217 -266l-31 -174zM489 199l31 172l203 182l-139 182l30 172l217 -266l-30 -174z" />
<glyph unicode="&#xbc;" horiz-adv-x="1624" d="M236 -55l1122 1528h145l-1120 -1528h-147zM395 563l115 639q-130 -38 -242 -51l21 113q106 9 173 47t109 119h129l-153 -867h-152zM1264 2l30 176h-434l25 131l526 555h156l-99 -565h142l-23 -121h-141l-31 -176h-151zM1030 299h287l63 367h-4z" />
<glyph unicode="&#xbd;" horiz-adv-x="1751" d="M281 -55l1122 1528h145l-1120 -1528h-147zM395 563l115 639q-130 -38 -242 -51l21 113q106 9 173 47t109 119h129l-153 -867h-152zM999 2q10 54 31 98.5t46.5 77t72 69t87 62.5t112.5 68q138 79 175 109q83 70 85 151q0 51 -37.5 81t-104.5 30q-88 0 -144 -52t-71 -141 h-151q30 156 135.5 244t269.5 88q119 0 189.5 -57t70.5 -160q0 -42 -4 -70.5t-18.5 -59t-35 -53t-63 -55.5t-92 -64.5t-131.5 -80.5q-55 -33 -87.5 -54.5t-67.5 -51t-49 -54.5h469l-23 -125h-664z" />
<glyph unicode="&#xbe;" horiz-adv-x="1777" d="M449 -55l1122 1528h145l-1120 -1528h-147zM524 545q-165 0 -244.5 83t-50.5 234h144q-19 -91 25 -140.5t145 -49.5q102 0 155.5 46t53.5 130q0 58 -42 87.5t-120 29.5h-55l18 108h43q87 0 142 35t55 113q0 49 -42.5 73.5t-109.5 24.5q-83 0 -132.5 -38t-62.5 -132h-143 q23 145 121.5 222t241.5 77q123 0 199.5 -52t76.5 -157q0 -78 -51.5 -138.5t-122.5 -72.5q62 -12 98.5 -58t36.5 -118q0 -139 -106 -223t-273 -84zM1419 2l31 176h-428l20 131l525 555h155l-98 -565h139l-20 -121h-141l-31 -176h-152zM1190 299h283l67 356h-4z" />
<glyph unicode="&#xbf;" horiz-adv-x="1042" d="M725 1096q45 0 74.5 -31t29.5 -76q0 -56 -45.5 -99.5t-101.5 -43.5q-46 0 -76.5 31.5t-30.5 76.5q0 56 46 99t104 43zM756 694q-2 -14 -8 -37t-7 -30q-25 -110 -74.5 -184t-168.5 -175l-95 -80q-63 -56 -92 -100q-47 -73 -47 -154q0 -89 51.5 -138.5t153.5 -49.5 q137 0 211.5 64.5t112.5 220.5h196q-44 -217 -189.5 -337t-363.5 -120q-175 0 -282 79.5t-107 225.5q0 67 6 106t30.5 90t75.5 105t140 131l121 105q50 42 78.5 90t50.5 125q7 24 14 63h193z" />
<glyph unicode="&#xc0;" horiz-adv-x="1353" d="M1051 1581h-142l-200 274h225zM1114 0l-84 459h-555l-248 -459h-198l800 1468h215l277 -1468h-207zM582 655h411l-102 566h-4z" />
<glyph unicode="&#xc1;" horiz-adv-x="1353" d="M1280 1855l-299 -274h-141l215 274h225zM1114 0l-84 459h-555l-248 -459h-198l800 1468h215l277 -1468h-207zM582 655h411l-102 566h-4z" />
<glyph unicode="&#xc2;" horiz-adv-x="1353" d="M969 1724l-170 -143h-154l264 274h160l176 -274h-147zM1114 0l-84 459h-555l-248 -459h-198l800 1468h215l277 -1468h-207zM582 655h411l-102 566h-4z" />
<glyph unicode="&#xc3;" horiz-adv-x="1353" d="M856 1671q-55 0 -65 -53h-127q17 93 69.5 141.5t120.5 48.5q48 0 121 -25.5t106 -25.5q58 0 68 53h125q-17 -93 -70 -142.5t-121 -49.5q-49 0 -121 26.5t-106 26.5zM1114 0l-84 459h-555l-248 -459h-198l800 1468h215l277 -1468h-207zM582 655h411l-102 566h-4z" />
<glyph unicode="&#xc4;" horiz-adv-x="1353" d="M778 1610q-46 0 -78 32t-32 78q0 44 32 76.5t78 32.5t78.5 -32.5t32.5 -76.5q0 -46 -32.5 -78t-78.5 -32zM1165 1610q-46 0 -78 32t-32 78q0 44 32.5 76.5t77.5 32.5q46 0 78.5 -32.5t32.5 -76.5q0 -46 -32.5 -78t-78.5 -32zM1114 0l-84 459h-555l-248 -459h-198 l800 1468h215l277 -1468h-207zM582 655h411l-102 566h-4z" />
<glyph unicode="&#xc5;" horiz-adv-x="1353" d="M938 1509q-93 0 -149.5 59.5t-49.5 149.5q7 91 74 152t158 61q90 0 147.5 -61.5t50.5 -151.5t-74.5 -149.5t-156.5 -59.5zM840 1718q-4 -52 26 -85.5t80 -33.5q48 0 83.5 33.5t39.5 85.5t-26 86.5t-80 34.5q-48 0 -83.5 -34.5t-39.5 -86.5zM1114 0l-84 459h-555 l-248 -459h-198l800 1468h215l277 -1468h-207zM582 655h411l-102 566h-4z" />
<glyph unicode="&#xc6;" horiz-adv-x="1857" d="M1966 1290h-690l-80 -452h643l-29 -162h-643l-88 -504h703l-31 -172h-899l82 467h-428l-318 -467h-215l1014 1462h1010zM961 623l118 669h-10l-457 -669h349z" />
<glyph unicode="&#xc7;" horiz-adv-x="1478" d="M868 156q73 0 137.5 19t110 49.5t82 70.5t58.5 79.5t34 80.5h197q-23 -87 -72.5 -168.5t-121 -149t-170.5 -112.5t-210 -56l-53 -45l4 -4q24 4 47 4q71 0 112.5 -32t41.5 -89q0 -91 -80.5 -145.5t-189.5 -54.5q-127 0 -215 71l63 82q55 -49 148 -49q59 0 90.5 21.5 t31.5 58.5q0 51 -71 51q-36 0 -94 -14l-31 59l96 82q-279 10 -442.5 194t-163.5 484q0 185 60 346t162 271.5t239.5 173.5t289.5 63q147 0 260 -44t181.5 -120t106 -167.5t46.5 -198.5h-194q-19 84 -49.5 143.5t-80.5 105.5t-126 68.5t-180 22.5q-96 0 -179 -36.5 t-142.5 -98t-102 -142.5t-63.5 -171.5t-21 -182.5q0 -111 27.5 -204.5t82 -164.5t142.5 -111t202 -40z" />
<glyph unicode="&#xc8;" horiz-adv-x="1271" d="M922 1581l-201 274h225l117 -274h-141zM188 0l258 1468h967l-31 -182h-766l-79 -448h708l-31 -181h-708l-84 -477h778l-33 -180h-979z" />
<glyph unicode="&#xc9;" horiz-adv-x="1271" d="M862 1581l215 274h226l-299 -274h-142zM188 0l258 1468h967l-31 -182h-766l-79 -448h708l-31 -181h-708l-84 -477h778l-33 -180h-979z" />
<glyph unicode="&#xca;" horiz-adv-x="1271" d="M651 1581l264 274h160l176 -274h-147l-129 143l-170 -143h-154zM188 0l258 1468h967l-31 -182h-766l-79 -448h708l-31 -181h-708l-84 -477h778l-33 -180h-979z" />
<glyph unicode="&#xcb;" horiz-adv-x="1271" d="M793 1610q-46 0 -78.5 32t-32.5 78q0 44 32.5 76.5t78.5 32.5q45 0 77.5 -32.5t32.5 -76.5q0 -46 -32 -78t-78 -32zM1180 1610q-46 0 -78.5 32t-32.5 78q0 44 32.5 76.5t78.5 32.5t78 -32.5t32 -76.5q0 -46 -32 -78t-78 -32zM188 0l258 1468h967l-31 -182h-766l-79 -448 h708l-31 -181h-708l-84 -477h778l-33 -180h-979z" />
<glyph unicode="&#xcc;" horiz-adv-x="577" d="M518 1581l-201 274h226l116 -274h-141zM188 0l258 1468h201l-258 -1468h-201z" />
<glyph unicode="&#xcd;" horiz-adv-x="577" d="M463 1581l215 274h225l-299 -274h-141zM188 0l258 1468h201l-258 -1468h-201z" />
<glyph unicode="&#xce;" horiz-adv-x="577" d="M258 1581l264 274h160l176 -274h-147l-129 143l-170 -143h-154zM188 0l258 1468h201l-258 -1468h-201z" />
<glyph unicode="&#xcf;" horiz-adv-x="577" d="M385 1610q-46 0 -78.5 32t-32.5 78q0 44 32.5 76.5t78.5 32.5t78.5 -32.5t32.5 -76.5q0 -46 -32.5 -78t-78.5 -32zM772 1610q-46 0 -78 32t-32 78q0 44 32 76.5t78 32.5t78.5 -32.5t32.5 -76.5q0 -46 -32.5 -78t-78.5 -32zM188 0l258 1468h201l-258 -1468h-201z" />
<glyph unicode="&#xd0;" horiz-adv-x="1492" d="M924 1468q131 0 243 -40t195.5 -115t131.5 -190.5t48 -258.5q0 -182 -64 -341t-178.5 -274.5t-280.5 -182t-362 -66.5h-469l115 649h-211l29 146h207l118 673h478zM674 176q139 0 259.5 44t210.5 126.5t141.5 210t51.5 285.5q0 214 -124.5 331t-329.5 117h-265l-88 -495 h242l-29 -146h-239l-84 -473h254z" />
<glyph unicode="&#xd1;" horiz-adv-x="1542" d="M739 1618q16 92 69.5 141t121.5 49q48 0 121 -25.5t106 -25.5q58 0 68 53h125q-17 -93 -70 -142.5t-121 -49.5q-49 0 -121 26.5t-106 26.5q-56 0 -66 -53h-127zM188 0l258 1468h175l598 -1159l200 1159h193l-258 -1468h-176l-598 1163l-203 -1163h-189z" />
<glyph unicode="&#xd2;" horiz-adv-x="1603" d="M934 1581l-201 274h225l117 -274h-141zM877 -37q-298 0 -479 185t-181 479q0 196 58 360t159.5 275t241 173t299.5 62q149 0 273.5 -51t208 -140t129.5 -211t46 -264q0 -196 -58.5 -360.5t-160 -275t-239.5 -171.5t-297 -61zM889 156q161 0 284.5 83t190 230.5 t66.5 335.5q0 143 -54.5 255.5t-162.5 179.5t-255 67q-159 0 -281.5 -84.5t-188.5 -233t-66 -336.5q0 -220 122 -358.5t345 -138.5z" />
<glyph unicode="&#xd3;" horiz-adv-x="1603" d="M903 1581l215 274h225l-299 -274h-141zM877 -37q-298 0 -479 185t-181 479q0 196 58 360t159.5 275t241 173t299.5 62q149 0 273.5 -51t208 -140t129.5 -211t46 -264q0 -196 -58.5 -360.5t-160 -275t-239.5 -171.5t-297 -61zM889 156q161 0 284.5 83t190 230.5 t66.5 335.5q0 143 -54.5 255.5t-162.5 179.5t-255 67q-159 0 -281.5 -84.5t-188.5 -233t-66 -336.5q0 -220 122 -358.5t345 -138.5z" />
<glyph unicode="&#xd4;" horiz-adv-x="1603" d="M688 1581l264 274h160l176 -274h-147l-129 143l-170 -143h-154zM877 -37q-298 0 -479 185t-181 479q0 196 58 360t159.5 275t241 173t299.5 62q149 0 273.5 -51t208 -140t129.5 -211t46 -264q0 -196 -58.5 -360.5t-160 -275t-239.5 -171.5t-297 -61zM889 156 q161 0 284.5 83t190 230.5t66.5 335.5q0 143 -54.5 255.5t-162.5 179.5t-255 67q-159 0 -281.5 -84.5t-188.5 -233t-66 -336.5q0 -220 122 -358.5t345 -138.5z" />
<glyph unicode="&#xd5;" horiz-adv-x="1603" d="M727 1618q16 92 69.5 141t121.5 49q48 0 121 -25.5t106 -25.5q57 0 67 53h125q-17 -93 -69.5 -142.5t-120.5 -49.5q-49 0 -121 26.5t-106 26.5q-56 0 -66 -53h-127zM877 -37q-298 0 -479 185t-181 479q0 196 58 360t159.5 275t241 173t299.5 62q149 0 273.5 -51t208 -140 t129.5 -211t46 -264q0 -196 -58.5 -360.5t-160 -275t-239.5 -171.5t-297 -61zM889 156q161 0 284.5 83t190 230.5t66.5 335.5q0 143 -54.5 255.5t-162.5 179.5t-255 67q-159 0 -281.5 -84.5t-188.5 -233t-66 -336.5q0 -220 122 -358.5t345 -138.5z" />
<glyph unicode="&#xd6;" horiz-adv-x="1603" d="M823 1610q-46 0 -78 32t-32 78q0 44 32.5 76.5t77.5 32.5q46 0 78.5 -32.5t32.5 -76.5q0 -46 -32.5 -78t-78.5 -32zM1210 1610q-46 0 -78 32t-32 78q0 44 32 76.5t78 32.5t78.5 -32.5t32.5 -76.5q0 -46 -32.5 -78t-78.5 -32zM877 -37q-298 0 -479 185t-181 479 q0 196 58 360t159.5 275t241 173t299.5 62q149 0 273.5 -51t208 -140t129.5 -211t46 -264q0 -196 -58.5 -360.5t-160 -275t-239.5 -171.5t-297 -61zM889 156q161 0 284.5 83t190 230.5t66.5 335.5q0 143 -54.5 255.5t-162.5 179.5t-255 67q-159 0 -281.5 -84.5t-188.5 -233 t-66 -336.5q0 -220 122 -358.5t345 -138.5z" />
<glyph unicode="&#xd7;" horiz-adv-x="1073" d="M219 104l-82 101l395 354l-268 354l117 101l270 -355l396 355l86 -101l-400 -354l275 -354l-121 -101l-273 355z" />
<glyph unicode="&#xd8;" horiz-adv-x="1603" d="M1473 1288q159 -182 159 -457q0 -196 -58.5 -360.5t-160 -275t-239.5 -171.5t-297 -61q-269 0 -449 156l-125 -142l-82 76l131 148q-135 170 -135 426q0 196 58 360t159.5 275t241 173t299.5 62q248 0 416 -133l137 154l82 -76zM422 653q0 -169 74 -293l759 850 q-124 97 -297 97q-159 0 -281.5 -84.5t-188.5 -233t-66 -336.5zM889 156q161 0 284.5 83t190 230.5t66.5 335.5q0 196 -99 325l-766 -858q122 -116 324 -116z" />
<glyph unicode="&#xd9;" horiz-adv-x="1460" d="M971 1581l-201 274h225l117 -274h-141zM723 -35q-227 0 -346 114.5t-119 338.5q0 85 18 190l152 860h203l-152 -858q-16 -88 -16 -157q0 -297 293 -297q189 0 295 113.5t145 340.5l152 858h200l-151 -860q-56 -316 -230 -479.5t-444 -163.5z" />
<glyph unicode="&#xda;" horiz-adv-x="1460" d="M862 1581l215 274h226l-299 -274h-142zM723 -35q-227 0 -346 114.5t-119 338.5q0 85 18 190l152 860h203l-152 -858q-16 -88 -16 -157q0 -297 293 -297q189 0 295 113.5t145 340.5l152 858h200l-151 -860q-56 -316 -230 -479.5t-444 -163.5z" />
<glyph unicode="&#xdb;" horiz-adv-x="1460" d="M694 1581l264 274h160l176 -274h-147l-129 143l-170 -143h-154zM723 -35q-227 0 -346 114.5t-119 338.5q0 85 18 190l152 860h203l-152 -858q-16 -88 -16 -157q0 -297 293 -297q189 0 295 113.5t145 340.5l152 858h200l-151 -860q-56 -316 -230 -479.5t-444 -163.5z" />
<glyph unicode="&#xdc;" horiz-adv-x="1460" d="M850 1610q-46 0 -78.5 32t-32.5 78q0 44 32.5 76.5t78.5 32.5t78.5 -32.5t32.5 -76.5q0 -46 -32.5 -78t-78.5 -32zM1237 1610q-46 0 -78.5 32t-32.5 78q0 44 32.5 76.5t78.5 32.5t78.5 -32.5t32.5 -76.5q0 -46 -32.5 -78t-78.5 -32zM723 -35q-227 0 -346 114.5 t-119 338.5q0 85 18 190l152 860h203l-152 -858q-16 -88 -16 -157q0 -297 293 -297q189 0 295 113.5t145 340.5l152 858h200l-151 -860q-56 -316 -230 -479.5t-444 -163.5z" />
<glyph unicode="&#xdd;" horiz-adv-x="1327" d="M823 1581l215 274h226l-299 -274h-142zM561 0l103 582l-383 880h219l299 -692l528 692h223l-684 -880l-102 -582h-203z" />
<glyph unicode="&#xde;" horiz-adv-x="1310" d="M188 0l258 1462h201l-51 -284h375q209 0 312 -97t103 -258q0 -107 -35 -201t-100.5 -166t-168 -113.5t-228.5 -41.5h-412l-53 -301h-201zM471 461h375q70 0 129.5 18.5t108.5 57t76.5 105t27.5 155.5q0 221 -270 221h-349z" />
<glyph unicode="&#xdf;" horiz-adv-x="1161" d="M147 0l181 1024q36 208 182.5 333.5t343.5 125.5q173 0 273 -85t100 -239q0 -130 -74 -236t-164 -153q66 -22 116 -98.5t50 -184.5q0 -224 -146.5 -355.5t-416.5 -131.5h-139l30 172h140q160 0 251 79t91 220q0 100 -65.5 150.5t-164.5 50.5h-51l31 172h51 q115 0 191.5 83t76.5 195q0 90 -59 138.5t-152 48.5q-66 0 -121 -23t-90.5 -62t-58 -84.5t-31.5 -95.5l-184 -1044h-191z" />
<glyph unicode="&#xe0;" horiz-adv-x="1105" d="M813 1174h-113l-208 294h196zM422 -27q-131 0 -215 73.5t-84 197.5q0 83 29.5 147.5t85.5 107t125 69.5t159 44l238 45q79 15 107 41.5t28 85.5q0 54 -49 90.5t-160 36.5q-220 0 -258 -174h-178q29 162 150.5 254t301.5 92q377 0 377 -278q0 -36 -10 -98l-84 -469 q-2 -8 -2 -25q0 -25 14 -36t47 -11h25l-29 -166h-170q-38 0 -61 21.5t-23 60.5q0 6 5 31l4 22q-149 -162 -373 -162zM479 143q137 0 235.5 78t119.5 191l22 125q-36 -20 -92 -31l-191 -39q-137 -28 -191 -70t-54 -127q0 -61 38.5 -94t112.5 -33z" />
<glyph unicode="&#xe1;" horiz-adv-x="1105" d="M655 1174l176 294h209l-260 -294h-125zM422 -27q-131 0 -215 73.5t-84 197.5q0 83 29.5 147.5t85.5 107t125 69.5t159 44l238 45q79 15 107 41.5t28 85.5q0 54 -49 90.5t-160 36.5q-220 0 -258 -174h-178q29 162 150.5 254t301.5 92q377 0 377 -278q0 -36 -10 -98 l-84 -469q-2 -8 -2 -25q0 -25 14 -36t47 -11h25l-29 -166h-170q-38 0 -61 21.5t-23 60.5q0 6 5 31l4 22q-149 -162 -373 -162zM479 143q137 0 235.5 78t119.5 191l22 125q-36 -20 -92 -31l-191 -39q-137 -28 -191 -70t-54 -127q0 -61 38.5 -94t112.5 -33z" />
<glyph unicode="&#xe2;" horiz-adv-x="1105" d="M453 1176l272 292h160l168 -292h-152l-127 161l-176 -161h-145zM422 -27q-131 0 -215 73.5t-84 197.5q0 83 29.5 147.5t85.5 107t125 69.5t159 44l238 45q79 15 107 41.5t28 85.5q0 54 -49 90.5t-160 36.5q-220 0 -258 -174h-178q29 162 150.5 254t301.5 92 q377 0 377 -278q0 -36 -10 -98l-84 -469q-2 -8 -2 -25q0 -25 14 -36t47 -11h25l-29 -166h-170q-38 0 -61 21.5t-23 60.5q0 6 5 31l4 22q-149 -162 -373 -162zM479 143q137 0 235.5 78t119.5 191l22 125q-36 -20 -92 -31l-191 -39q-137 -28 -191 -70t-54 -127q0 -61 38.5 -94 t112.5 -33z" />
<glyph unicode="&#xe3;" horiz-adv-x="1105" d="M465 1247q17 93 69.5 142t120.5 49q49 0 122 -26t106 -26q56 0 67 54h125q-17 -93 -69.5 -143t-120.5 -50q-49 0 -122 26.5t-106 26.5q-55 0 -65 -53h-127zM422 -27q-131 0 -215 73.5t-84 197.5q0 83 29.5 147.5t85.5 107t125 69.5t159 44l238 45q79 15 107 41.5t28 85.5 q0 54 -49 90.5t-160 36.5q-220 0 -258 -174h-178q29 162 150.5 254t301.5 92q377 0 377 -278q0 -36 -10 -98l-84 -469q-2 -8 -2 -25q0 -25 14 -36t47 -11h25l-29 -166h-170q-38 0 -61 21.5t-23 60.5q0 6 5 31l4 22q-149 -162 -373 -162zM479 143q137 0 235.5 78t119.5 191 l22 125q-36 -20 -92 -31l-191 -39q-137 -28 -191 -70t-54 -127q0 -61 38.5 -94t112.5 -33z" />
<glyph unicode="&#xe4;" horiz-adv-x="1105" d="M584 1229q-42 0 -69.5 27.5t-27.5 70.5q0 59 33.5 90t81.5 31q43 0 70.5 -27.5t27.5 -70.5q0 -60 -32 -90.5t-84 -30.5zM946 1229q-41 0 -68.5 27.5t-27.5 70.5q0 59 33.5 90t81.5 31q43 0 70.5 -27.5t27.5 -70.5q0 -60 -32.5 -90.5t-84.5 -30.5zM422 -27 q-131 0 -215 73.5t-84 197.5q0 83 29.5 147.5t85.5 107t125 69.5t159 44l238 45q79 15 107 41.5t28 85.5q0 54 -49 90.5t-160 36.5q-220 0 -258 -174h-178q29 162 150.5 254t301.5 92q377 0 377 -278q0 -36 -10 -98l-84 -469q-2 -8 -2 -25q0 -25 14 -36t47 -11h25l-29 -166 h-170q-38 0 -61 21.5t-23 60.5q0 6 5 31l4 22q-149 -162 -373 -162zM479 143q137 0 235.5 78t119.5 191l22 125q-36 -20 -92 -31l-191 -39q-137 -28 -191 -70t-54 -127q0 -61 38.5 -94t112.5 -33z" />
<glyph unicode="&#xe5;" horiz-adv-x="1105" d="M735 1124q-79 0 -129.5 52t-50.5 131q0 105 77 179.5t179 74.5q79 0 129.5 -53.5t50.5 -133.5q0 -104 -77 -177t-179 -73zM752 1223q56 0 94.5 39.5t38.5 99.5q0 43 -24.5 70.5t-65.5 27.5q-55 0 -95.5 -40t-40.5 -99q0 -43 26 -70.5t67 -27.5zM422 -27q-131 0 -215 73.5 t-84 197.5q0 83 29.5 147.5t85.5 107t125 69.5t159 44l238 45q79 15 107 41.5t28 85.5q0 54 -49 90.5t-160 36.5q-220 0 -258 -174h-178q29 162 150.5 254t301.5 92q377 0 377 -278q0 -36 -10 -98l-84 -469q-2 -8 -2 -25q0 -25 14 -36t47 -11h25l-29 -166h-170 q-38 0 -61 21.5t-23 60.5q0 6 5 31l4 22q-149 -162 -373 -162zM479 143q137 0 235.5 78t119.5 191l22 125q-36 -20 -92 -31l-191 -39q-137 -28 -191 -70t-54 -127q0 -61 38.5 -94t112.5 -33z" />
<glyph unicode="&#xe6;" horiz-adv-x="1816" d="M1053 465v-6q0 -142 60 -225.5t175 -83.5q103 0 179.5 43.5t109.5 125.5h180q-127 -346 -504 -346q-128 0 -222.5 57t-141.5 165q-167 -222 -463 -222q-138 0 -224.5 72.5t-86.5 196.5q0 83 30.5 148t87.5 108.5t127.5 71t161.5 44.5l238 43q77 13 105 40.5t28 86.5 q0 53 -46 88t-151 35q-224 0 -262 -170h-184q31 162 158.5 254t314.5 92q267 0 334 -153q159 153 370 153q199 0 304.5 -113.5t105.5 -307.5q0 -23 -9.5 -85t-21.5 -112h-753zM1395 907q-122 0 -204 -75.5t-116 -200.5h572q13 121 -51.5 198.5t-200.5 77.5zM834 412l22 125 q-36 -20 -92 -31l-191 -39q-137 -28 -191 -70t-54 -127q0 -59 38.5 -92t112.5 -33q137 0 235.5 78t119.5 189z" />
<glyph unicode="&#xe7;" horiz-adv-x="1097" d="M612 150q108 0 178.5 47.5t110.5 158.5h178q-43 -172 -156.5 -269.5t-269.5 -111.5l-63 -51l4 -4q24 4 47 4q71 0 112.5 -32t41.5 -89q0 -91 -81 -145.5t-190 -54.5q-127 0 -215 71l64 82q55 -49 147 -49q59 0 91 21.5t32 58.5q0 51 -72 51q-36 0 -94 -14l-31 59l109 92 q-176 14 -277.5 135t-101.5 324q0 186 66 332.5t193.5 231.5t295.5 85q111 0 199 -43t143 -136t55 -224h-178q-21 123 -78.5 176t-179.5 53q-84 0 -150 -37t-106 -101t-60 -143.5t-20 -170.5q0 -144 62 -225.5t194 -81.5z" />
<glyph unicode="&#xe8;" horiz-adv-x="1122" d="M780 1174h-112l-209 294h196zM352 469q1 -163 70.5 -243.5t191.5 -80.5q98 0 171.5 45t105.5 129h178q-48 -160 -172.5 -253t-294.5 -93q-189 0 -308.5 123t-119.5 340q0 188 67 335t191.5 229.5t286.5 82.5q186 0 301 -126t115 -322q0 -55 -19 -166h-764zM373 631h583 q-2 55 -17.5 103.5t-46 89t-82.5 64t-120 23.5q-123 0 -203 -79t-114 -201z" />
<glyph unicode="&#xe9;" horiz-adv-x="1122" d="M991 1468l-260 -294h-125l176 294h209zM352 469q1 -163 70.5 -243.5t191.5 -80.5q98 0 171.5 45t105.5 129h178q-48 -160 -172.5 -253t-294.5 -93q-189 0 -308.5 123t-119.5 340q0 188 67 335t191.5 229.5t286.5 82.5q186 0 301 -126t115 -322q0 -55 -19 -166h-764z M373 631h583q-2 55 -17.5 103.5t-46 89t-82.5 64t-120 23.5q-123 0 -203 -79t-114 -201z" />
<glyph unicode="&#xea;" horiz-adv-x="1122" d="M735 1337l-176 -161h-145l272 292h160l168 -292h-152zM352 469q1 -163 70.5 -243.5t191.5 -80.5q98 0 171.5 45t105.5 129h178q-48 -160 -172.5 -253t-294.5 -93q-189 0 -308.5 123t-119.5 340q0 188 67 335t191.5 229.5t286.5 82.5q186 0 301 -126t115 -322 q0 -55 -19 -166h-764zM373 631h583q-2 55 -17.5 103.5t-46 89t-82.5 64t-120 23.5q-123 0 -203 -79t-114 -201z" />
<glyph unicode="&#xeb;" horiz-adv-x="1122" d="M549 1229q-41 0 -68.5 27.5t-27.5 70.5q0 59 33 90t81 31q43 0 71 -27.5t28 -70.5q0 -60 -32.5 -90.5t-84.5 -30.5zM911 1229q-41 0 -68.5 27.5t-27.5 70.5q0 59 33.5 90t81.5 31q43 0 70.5 -27.5t27.5 -70.5q0 -60 -32.5 -90.5t-84.5 -30.5zM352 469q1 -163 70.5 -243.5 t191.5 -80.5q98 0 171.5 45t105.5 129h178q-48 -160 -172.5 -253t-294.5 -93q-189 0 -308.5 123t-119.5 340q0 188 67 335t191.5 229.5t286.5 82.5q186 0 301 -126t115 -322q0 -55 -19 -166h-764zM373 631h583q-2 55 -17.5 103.5t-46 89t-82.5 64t-120 23.5q-123 0 -203 -79 t-114 -201z" />
<glyph unicode="&#xec;" horiz-adv-x="479" d="M506 1174h-113l-209 294h197zM147 0l187 1057h184l-186 -1057h-185z" />
<glyph unicode="&#xed;" horiz-adv-x="479" d="M328 1174l176 294h209l-260 -294h-125zM147 0l187 1057h184l-186 -1057h-185z" />
<glyph unicode="&#xee;" horiz-adv-x="479" d="M180 1176l246 292h143l152 -292h-137l-115 161l-158 -161h-131zM147 0l187 1057h184l-186 -1057h-185z" />
<glyph unicode="&#xef;" horiz-adv-x="479" d="M279 1229q-41 0 -69 27.5t-28 70.5q0 59 33.5 90t81.5 31q43 0 70.5 -27.5t27.5 -70.5q0 -60 -32 -90.5t-84 -30.5zM641 1229q-41 0 -68.5 27.5t-27.5 70.5q0 59 33 90t81 31q43 0 71 -27.5t28 -70.5q0 -60 -32.5 -90.5t-84.5 -30.5zM147 0l187 1057h184l-186 -1057h-185 z" />
<glyph unicode="&#xf0;" horiz-adv-x="1169" d="M967 1325q110 -137 163.5 -277.5t53.5 -312.5q0 -210 -39 -342q-50 -193 -193 -306.5t-325 -113.5q-204 0 -328.5 132t-124.5 346q0 280 152 456t383 176q150 0 268 -88q-89 159 -174 248l-248 -125l-41 90l215 111q-77 64 -123 88l107 125q135 -84 182 -131l254 129 l41 -92zM637 145q156 0 250 120t94 319q0 152 -80.5 239.5t-204.5 87.5q-157 0 -247.5 -121.5t-90.5 -318.5q0 -154 78 -240t201 -86z" />
<glyph unicode="&#xf1;" horiz-adv-x="1161" d="M483 1247q17 93 70 142t121 49q49 0 121.5 -26t105.5 -26q57 0 68 54h125q-17 -93 -70 -143t-121 -50q-49 0 -121 26.5t-106 26.5q-56 0 -66 -53h-127zM147 0l187 1057h178l-25 -129q55 73 140.5 114t177.5 41q162 0 253 -88t91 -231q0 -48 -10 -113l-115 -651h-184 l110 621q8 39 8 81q0 93 -54.5 149t-147.5 56q-122 0 -208 -80.5t-112 -228.5l-104 -598h-185z" />
<glyph unicode="&#xf2;" horiz-adv-x="1161" d="M813 1174h-113l-208 294h196zM627 -27q-204 0 -328.5 132t-124.5 346q0 177 68.5 321t193.5 227.5t281 83.5q201 0 320.5 -127t127.5 -342q5 -142 -36.5 -263.5t-116 -203.5t-174.5 -128t-211 -46zM637 145q155 0 249.5 123.5t94.5 323.5q0 155 -75.5 237t-200.5 82 q-110 0 -190 -61t-118.5 -159.5t-38.5 -219.5q0 -154 78 -240t201 -86z" />
<glyph unicode="&#xf3;" horiz-adv-x="1161" d="M594 1174l176 294h209l-260 -294h-125zM627 -27q-204 0 -328.5 132t-124.5 346q0 177 68.5 321t193.5 227.5t281 83.5q201 0 320.5 -127t127.5 -342q5 -142 -36.5 -263.5t-116 -203.5t-174.5 -128t-211 -46zM637 145q155 0 249.5 123.5t94.5 323.5q0 155 -75.5 237 t-200.5 82q-110 0 -190 -61t-118.5 -159.5t-38.5 -219.5q0 -154 78 -240t201 -86z" />
<glyph unicode="&#xf4;" horiz-adv-x="1161" d="M453 1176l272 292h160l168 -292h-152l-127 161l-176 -161h-145zM627 -27q-204 0 -328.5 132t-124.5 346q0 177 68.5 321t193.5 227.5t281 83.5q201 0 320.5 -127t127.5 -342q5 -142 -36.5 -263.5t-116 -203.5t-174.5 -128t-211 -46zM637 145q155 0 249.5 123.5 t94.5 323.5q0 155 -75.5 237t-200.5 82q-110 0 -190 -61t-118.5 -159.5t-38.5 -219.5q0 -154 78 -240t201 -86z" />
<glyph unicode="&#xf5;" horiz-adv-x="1161" d="M446 1247q17 93 70 142t121 49q49 0 121.5 -26t105.5 -26q57 0 68 54h125q-17 -93 -70 -143t-121 -50q-48 0 -121 26.5t-106 26.5q-56 0 -66 -53h-127zM627 -27q-204 0 -328.5 132t-124.5 346q0 177 68.5 321t193.5 227.5t281 83.5q201 0 320.5 -127t127.5 -342 q5 -142 -36.5 -263.5t-116 -203.5t-174.5 -128t-211 -46zM637 145q155 0 249.5 123.5t94.5 323.5q0 155 -75.5 237t-200.5 82q-110 0 -190 -61t-118.5 -159.5t-38.5 -219.5q0 -154 78 -240t201 -86z" />
<glyph unicode="&#xf6;" horiz-adv-x="1161" d="M561 1229q-41 0 -68.5 27.5t-27.5 70.5q0 59 33.5 90t81.5 31q43 0 70.5 -27.5t27.5 -70.5q0 -60 -32.5 -90.5t-84.5 -30.5zM924 1229q-42 0 -69.5 27.5t-27.5 70.5q0 59 33.5 90t81.5 31q43 0 70.5 -27.5t27.5 -70.5q0 -60 -32 -90.5t-84 -30.5zM627 -27 q-204 0 -328.5 132t-124.5 346q0 177 68.5 321t193.5 227.5t281 83.5q201 0 320.5 -127t127.5 -342q5 -142 -36.5 -263.5t-116 -203.5t-174.5 -128t-211 -46zM637 145q155 0 249.5 123.5t94.5 323.5q0 155 -75.5 237t-200.5 82q-110 0 -190 -61t-118.5 -159.5t-38.5 -219.5 q0 -154 78 -240t201 -86z" />
<glyph unicode="&#xf7;" horiz-adv-x="1204" d="M752 852q-49 0 -80 33.5t-31 81.5q0 64 49 109.5t111 45.5q46 0 77 -32.5t31 -81.5q0 -60 -46.5 -108t-110.5 -48zM197 487l24 144h983l-24 -144h-983zM600 -6q-48 0 -79.5 34.5t-31.5 82.5q0 62 49.5 107.5t110.5 45.5q46 0 77.5 -32.5t31.5 -81.5q0 -60 -47 -108 t-111 -48z" />
<glyph unicode="&#xf8;" horiz-adv-x="1161" d="M1165 614q5 -142 -36.5 -263.5t-116 -203.5t-174.5 -128t-211 -46q-118 0 -205 43l-113 -202l-71 36l114 207q-85 62 -131.5 164t-46.5 230q0 177 68.5 321t193.5 227.5t281 83.5q109 0 188 -36l96 172l72 -39l-96 -172q86 -59 135 -160.5t53 -233.5zM358 471 q0 -161 86 -250l373 670q-47 20 -112 20q-110 0 -190 -61t-118.5 -159.5t-38.5 -219.5zM637 145q155 0 249.5 123.5t94.5 323.5q0 172 -94 256l-377 -674q63 -29 127 -29z" />
<glyph unicode="&#xf9;" horiz-adv-x="1153" d="M846 1174h-113l-209 294h197zM508 -27q-179 0 -258 112t-43 321l117 651h184l-113 -633q-50 -274 189 -274q68 0 125.5 27.5t95.5 73.5t62.5 101t35.5 115l105 590h184l-186 -1057h-179l19 106q-46 -58 -140 -95.5t-198 -37.5z" />
<glyph unicode="&#xfa;" horiz-adv-x="1153" d="M647 1174l176 294h209l-260 -294h-125zM508 -27q-179 0 -258 112t-43 321l117 651h184l-113 -633q-50 -274 189 -274q68 0 125.5 27.5t95.5 73.5t62.5 101t35.5 115l105 590h184l-186 -1057h-179l19 106q-46 -58 -140 -95.5t-198 -37.5z" />
<glyph unicode="&#xfb;" horiz-adv-x="1153" d="M461 1176l272 292h160l168 -292h-152l-127 161l-176 -161h-145zM508 -27q-179 0 -258 112t-43 321l117 651h184l-113 -633q-50 -274 189 -274q68 0 125.5 27.5t95.5 73.5t62.5 101t35.5 115l105 590h184l-186 -1057h-179l19 106q-46 -58 -140 -95.5t-198 -37.5z" />
<glyph unicode="&#xfc;" horiz-adv-x="1153" d="M606 1229q-41 0 -68.5 27.5t-27.5 70.5q0 59 33.5 90t81.5 31q43 0 70.5 -27.5t27.5 -70.5q0 -60 -32.5 -90.5t-84.5 -30.5zM969 1229q-41 0 -69 27.5t-28 70.5q0 59 33.5 90t81.5 31q43 0 70.5 -27.5t27.5 -70.5q0 -60 -32 -90.5t-84 -30.5zM508 -27q-179 0 -258 112 t-43 321l117 651h184l-113 -633q-50 -274 189 -274q68 0 125.5 27.5t95.5 73.5t62.5 101t35.5 115l105 590h184l-186 -1057h-179l19 106q-46 -58 -140 -95.5t-198 -37.5z" />
<glyph unicode="&#xfd;" horiz-adv-x="1056" d="M647 1174l176 294h209l-260 -294h-125zM63 -436l31 174h150q82 0 127 31q59 42 59 122q0 63 -10 117l-193 1049h211l78 -547l59 -393l185 393l248 547h200l-606 -1237q-71 -145 -148 -200.5t-198 -55.5h-193z" />
<glyph unicode="&#xfe;" horiz-adv-x="1185" d="M791 1083q177 0 295 -122.5t118 -329.5q0 -183 -66 -332.5t-190 -237.5t-282 -88q-226 0 -314 158l-96 -565h-184l334 1902h169l-88 -503q127 118 304 118zM672 145q70 0 128 25t98.5 68t68.5 101.5t41.5 126.5t13.5 142q0 143 -68 223t-209 80q-51 0 -97.5 -15.5 t-89.5 -51t-74.5 -87.5t-50.5 -131t-19 -175q0 -141 63.5 -223.5t194.5 -82.5z" />
<glyph unicode="&#xff;" horiz-adv-x="1056" d="M582 1229q-42 0 -69.5 27.5t-27.5 70.5q0 59 33.5 90t81.5 31q43 0 70.5 -27.5t27.5 -70.5q0 -60 -32 -90.5t-84 -30.5zM944 1229q-41 0 -68.5 27.5t-27.5 70.5q0 59 33.5 90t81.5 31q43 0 70.5 -27.5t27.5 -70.5q0 -60 -32.5 -90.5t-84.5 -30.5zM63 -436l31 174h150 q82 0 127 31q59 42 59 122q0 63 -10 117l-193 1049h211l78 -547l59 -393l185 393l248 547h200l-606 -1237q-71 -145 -148 -200.5t-198 -55.5h-193z" />
<glyph unicode="&#x131;" horiz-adv-x="479" d="M147 0l187 1057h184l-186 -1057h-185z" />
<glyph unicode="&#x13f;" horiz-adv-x="1159" d="M188 0l258 1468h201l-227 -1280h731l-31 -188h-932zM961 692q-47 0 -77 31.5t-30 77.5q0 59 47 102t105 43q43 0 72.5 -31t29.5 -77q0 -56 -46 -101t-101 -45z" />
<glyph unicode="&#x140;" horiz-adv-x="577" d="M358 0q-97 0 -149 46t-33 153l223 1269h185l-219 -1241q-7 -42 8.5 -56.5t52.5 -14.5h78l-27 -156h-119zM637 637q-47 0 -77 31t-30 77q0 59 47 102.5t105 43.5q43 0 72.5 -31.5t29.5 -77.5q0 -56 -46 -100.5t-101 -44.5z" />
<glyph unicode="&#x141;" horiz-adv-x="1157" d="M420 188h731l-31 -188h-932l103 582l-215 -140l28 154l213 137l129 735h201l-104 -589l288 186l-26 -152l-289 -186z" />
<glyph unicode="&#x142;" horiz-adv-x="522" d="M465 797l-100 -570q-7 -42 8.5 -56.5t52.5 -14.5h78l-27 -156h-119q-97 0 -149 46t-33 153l78 444l-143 -104l28 151l142 103l118 675h185l-92 -520l170 123l-29 -151z" />
<glyph unicode="&#x152;" horiz-adv-x="2228" d="M758 -35q-174 0 -300 84t-187.5 222.5t-61.5 314.5q0 143 37.5 279t109 249.5t168 200t221.5 134.5t263 48q264 0 395 -170l24 141h943l-31 -182h-742l-79 -448h684l-31 -181h-684l-84 -477h754l-33 -180h-955l23 139q-180 -174 -434 -174zM791 156q141 0 259 72.5 t195 197.5l107 604q-33 129 -125 203t-234 74q-131 0 -241.5 -62t-182.5 -164t-111.5 -231.5t-39.5 -267.5q0 -191 96 -308.5t277 -117.5z" />
<glyph unicode="&#x153;" horiz-adv-x="1923" d="M1157 469q0 -9 -4 -25q6 -150 75.5 -224.5t186.5 -74.5q98 0 171.5 45t105.5 129h178q-48 -160 -172.5 -253t-294.5 -93q-121 0 -216.5 52.5t-150.5 150.5q-75 -97 -182 -150t-227 -53q-204 0 -328.5 132t-124.5 346q0 177 68.5 321t193.5 227.5t281 83.5 q131 0 229 -55.5t154 -157.5q73 102 181 157.5t239 55.5q186 0 300.5 -126t114.5 -322q0 -61 -18 -166h-760zM637 145q155 0 249.5 123.5t94.5 323.5q0 155 -75.5 237t-200.5 82q-110 0 -190 -61t-118.5 -159.5t-38.5 -219.5q0 -154 78 -240t201 -86zM1491 911 q-123 0 -203 -79t-114 -201h583q-2 55 -17.5 103.5t-46 89t-82.5 64t-120 23.5z" />
<glyph unicode="&#x160;" horiz-adv-x="1277" d="M786 1581l-178 274h154l137 -157l191 157h143l-279 -274h-168zM688 -35q-257 0 -395.5 92.5t-138.5 282.5q0 52 12 117h196q-6 -37 -6 -70q0 -127 85 -186.5t253 -59.5q177 0 269 65.5t92 192.5q0 49 -12.5 85.5t-33 63t-62.5 51.5t-86 43.5t-118 45.5q-180 63 -246 100 q-135 74 -168 191q-12 45 -12 98q0 132 74.5 228.5t196.5 144t274 47.5q80 0 150 -12t132.5 -39.5t107 -68.5t70.5 -103.5t26 -140.5q0 -45 -9 -95h-196q4 32 4 45q0 67 -23.5 115t-65 75t-92 39.5t-112.5 12.5q-70 0 -128 -11.5t-106 -36t-75 -68.5t-27 -105q0 -24 3.5 -43 t15 -37t21.5 -31t35.5 -28.5t44 -25t59.5 -26.5t69 -27.5t86 -31.5q77 -29 128 -52.5t108.5 -60.5t91 -77.5t55.5 -99t22 -130.5q0 -144 -74.5 -251.5t-202.5 -162.5t-292 -55z" />
<glyph unicode="&#x161;" horiz-adv-x="999" d="M600 1176l-164 286h154l123 -170l180 170h143l-268 -286h-168zM528 -27q-196 0 -296.5 68t-100.5 221q0 43 4 68h178q-2 -12 -2 -33q0 -86 56 -125t186 -39q119 0 175 37t56 113q0 54 -32 82t-117 61l-131 51q-61 24 -102 45.5t-81.5 54t-60.5 76.5t-20 99 q0 160 116.5 245.5t311.5 85.5q163 0 263.5 -66t100.5 -200q0 -35 -6 -76h-178q4 24 4 35q0 144 -209 144q-105 0 -157 -37t-52 -95q0 -49 32.5 -79t113.5 -62l182 -72q101 -40 155 -100t54 -156q0 -92 -36 -160.5t-99 -108t-140 -58.5t-168 -19z" />
<glyph unicode="&#x178;" horiz-adv-x="1327" d="M748 1610q-46 0 -78.5 32t-32.5 78q0 44 32.5 76.5t78.5 32.5t78 -32.5t32 -76.5q0 -46 -32 -78t-78 -32zM1135 1610q-46 0 -78.5 32t-32.5 78q0 44 32.5 76.5t78.5 32.5q45 0 77.5 -32.5t32.5 -76.5q0 -46 -32 -78t-78 -32zM561 0l103 582l-383 880h219l299 -692 l528 692h223l-684 -880l-102 -582h-203z" />
<glyph unicode="&#x17d;" horiz-adv-x="1292" d="M821 1581l-178 274h154l137 -157l190 157h144l-279 -274h-168zM76 0l33 174l718 756q135 142 344 348h-852l33 184h1094l-31 -174l-770 -803q-24 -25 -68 -71.5t-70.5 -74.5t-70 -70.5t-88.5 -84.5h901l-32 -184h-1141z" />
<glyph unicode="&#x17e;" horiz-adv-x="991" d="M565 1176l-164 286h154l123 -170l180 170h143l-268 -286h-168zM66 0l26 147l705 748h-580l27 162h819l-27 -148l-712 -749h628l-26 -160h-860z" />
<glyph unicode="&#x192;" horiz-adv-x="978" d="M-125 -324l29 158h141q77 0 121 43t76 133l258 723h-203l57 152h201l102 284q57 160 147.5 226.5t248.5 66.5h147l-29 -164h-133q-81 0 -125 -34.5t-75 -120.5l-95 -258h215l-55 -152h-215l-252 -719q-30 -86 -62 -144t-78.5 -104t-111 -68t-151.5 -22h-158z" />
<glyph unicode="&#x237;" horiz-adv-x="495" d="M-152 -436l33 176h131q59 0 87 22.5t38 85.5l213 1209h185l-218 -1231q-26 -143 -96.5 -202.5t-202.5 -59.5h-170z" />
<glyph unicode="&#x2c6;" horiz-adv-x="641" d="M227 1176l273 292h159l168 -292h-151l-127 161l-176 -161h-146z" />
<glyph unicode="&#x2c7;" horiz-adv-x="641" d="M442 1176l-163 286h153l123 -170l180 170h144l-269 -286h-168z" />
<glyph unicode="&#x2c9;" horiz-adv-x="659" d="M248 1286l18 107h619l-19 -107h-618z" />
<glyph unicode="&#x2d8;" horiz-adv-x="626" d="M512 1176q-128 0 -191 71.5t-42 214.5h116q-10 -86 29 -126t111 -40q165 0 219 166h110q-40 -144 -130.5 -215t-221.5 -71z" />
<glyph unicode="&#x2d9;" horiz-adv-x="288" d="M455 1231q-48 0 -80.5 30t-32.5 80q0 56 35.5 96t95.5 40q50 0 82.5 -31.5t32.5 -81.5q0 -56 -33.5 -94.5t-99.5 -38.5z" />
<glyph unicode="&#x2da;" horiz-adv-x="471" d="M434 1124q-79 0 -129.5 52t-50.5 131q0 105 77 179.5t179 74.5q79 0 129.5 -53.5t50.5 -133.5q0 -104 -77 -177t-179 -73zM451 1223q56 0 94.5 39.5t38.5 99.5q0 43 -24.5 70.5t-65.5 27.5q-55 0 -95.5 -40t-40.5 -99q0 -43 26 -70.5t67 -27.5z" />
<glyph unicode="&#x2db;" horiz-adv-x="442" d="M133 -432q-71 0 -117.5 33.5t-46.5 97.5q0 167 273 301h90q-99 -69 -152 -127.5t-53 -126.5q0 -36 20 -56t58 -20q34 0 63.5 16.5t44.5 37.5l54 -37q-96 -119 -234 -119z" />
<glyph unicode="&#x2dc;" horiz-adv-x="604" d="M223 1247q17 93 70 142t121 49q48 0 121 -26t106 -26q57 0 68 54h125q-17 -93 -70 -143t-121 -50q-49 0 -121 26.5t-106 26.5q-56 0 -66 -53h-127z" />
<glyph unicode="&#x2dd;" horiz-adv-x="710" d="M227 1174l176 294h209l-260 -294h-125zM543 1174l196 294h209l-280 -294h-125z" />
<glyph unicode="&#x300;" d="M102 1174h-112l-209 294h196z" />
<glyph unicode="&#x301;" d="M-240 1174l177 294h208l-260 -294h-125z" />
<glyph unicode="&#x302;" d="M-414 1176l273 292h159l168 -292h-151l-127 161l-176 -161h-146z" />
<glyph unicode="&#x303;" d="M-365 1247q17 93 70 142t121 49q48 0 121 -26t106 -26q57 0 68 54h125q-17 -93 -70 -143t-121 -50q-49 0 -121 26.5t-106 26.5q-56 0 -66 -53h-127z" />
<glyph unicode="&#x304;" d="M-412 1286l19 107h618l-18 -107h-619z" />
<glyph unicode="&#x306;" d="M-115 1176q-128 0 -191 71.5t-42 214.5h117q-10 -86 29 -126t110 -40q165 0 219 166h111q-40 -144 -131 -215t-222 -71z" />
<glyph unicode="&#x307;" d="M2 1231q-48 0 -80.5 30t-32.5 80q0 56 35.5 96t95.5 40q50 0 82.5 -31.5t32.5 -81.5q0 -56 -33.5 -94.5t-99.5 -38.5z" />
<glyph unicode="&#x308;" d="M-266 1229q-41 0 -68.5 27.5t-27.5 70.5q0 59 33 90t81 31q43 0 70.5 -27.5t27.5 -70.5q0 -60 -32 -90.5t-84 -30.5zM96 1229q-41 0 -68.5 27.5t-27.5 70.5q0 59 33.5 90t81.5 31q43 0 70.5 -27.5t27.5 -70.5q0 -60 -32.5 -90.5t-84.5 -30.5z" />
<glyph unicode="&#x30a;" d="M-37 1124q-79 0 -129.5 52t-50.5 131q0 105 77 179.5t179 74.5q79 0 129.5 -53.5t50.5 -133.5q0 -104 -77 -177t-179 -73zM-20 1223q56 0 94.5 39.5t38.5 99.5q0 43 -24.5 70.5t-65.5 27.5q-55 0 -95.5 -40t-40.5 -99q0 -43 26 -70.5t67 -27.5z" />
<glyph unicode="&#x30b;" d="M-483 1174l176 294h209l-260 -294h-125zM-168 1174l197 294h209l-281 -294h-125z" />
<glyph unicode="&#x30c;" d="M-199 1176l-163 286h153l123 -170l180 170h144l-269 -286h-168z" />
<glyph unicode="&#x326;" d="M-455 -508l19 96q46 0 89.5 21t49.5 51h-2q-46 0 -76.5 27t-30.5 75q0 66 46 107t106 41q52 0 81.5 -30.5t29.5 -92.5q0 -130 -90 -212.5t-222 -82.5z" />
<glyph unicode="&#x327;" d="M-389 -397q-127 0 -215 71l63 82q55 -49 148 -49q59 0 91 21.5t32 58.5q0 51 -72 51q-36 0 -94 -14l-31 59l137 117h99l-93 -76l5 -4q24 4 47 4q71 0 112 -32t41 -89q0 -91 -80.5 -145.5t-189.5 -54.5z" />
<glyph unicode="&#x328;" d="M-309 -432q-71 0 -117.5 33.5t-46.5 97.5q0 52 26.5 100.5t71.5 87t86 64.5t88 49h90q-64 -45 -103.5 -78.5t-70 -81t-30.5 -94.5q0 -36 19.5 -56t57.5 -20q34 0 64 16.5t45 37.5l53 -37q-96 -119 -233 -119z" />
<glyph unicode="&#x335;" d="M-463 1188l29 145h651l-29 -145h-651z" />
<glyph unicode="&#x336;" d="M-1051 1120h1127l-19 -106h-1126z" />
<glyph unicode="&#x337;" d="M-385 539l29 151l522 381l-29 -151z" />
<glyph unicode="&#x338;" d="M-879 -186l-71 36l764 1369l71 -39z" />
<glyph unicode="&#x394;" horiz-adv-x="1314" d="M33 0l786 1458h176l295 -1458h-1257zM297 162h776l-205 1083z" />
<glyph unicode="&#x3a9;" horiz-adv-x="1466" d="M113 0l26 156h361l18 96q-133 62 -200.5 190.5t-67.5 288.5q0 208 102 381t269.5 269t359.5 96q241 0 388 -149t147 -384q0 -143 -53.5 -275.5t-163 -243t-261.5 -173.5l-18 -96h360l-26 -156h-502l66 373q194 51 300.5 200.5t106.5 344.5q0 166 -97.5 274t-262.5 108 q-106 0 -203.5 -44t-169 -118.5t-114 -178.5t-42.5 -218q0 -141 63 -238t185 -130l-66 -373h-505z" />
<glyph unicode="&#x3bc;" horiz-adv-x="1163" d="M84 -365l250 1422h184l-112 -633q-26 -142 27 -208t161 -66q68 0 125.5 27.5t95.5 73.5t62.5 101t35.5 115l105 590h184l-186 -1057h-178l18 106q-46 -57 -135.5 -95t-181.5 -38q-137 0 -201 78l-72 -416h-182z" />
<glyph unicode="&#x3c0;" horiz-adv-x="1206" d="M961 -12q-72 0 -108 33t-37.5 86.5t9.5 121.5l103 586h-385l-144 -815h-168l144 815h-178l28 156h1059l-29 -156h-161l-97 -547q-4 -21 -5 -31.5t-2.5 -30t1.5 -30t9 -22.5t19 -17.5t32 -5.5q41 0 88 27l-25 -129q-80 -41 -153 -41z" />
<glyph unicode="&#x2000;" horiz-adv-x="965" />
<glyph unicode="&#x2001;" horiz-adv-x="1931" />
<glyph unicode="&#x2002;" horiz-adv-x="965" />
<glyph unicode="&#x2003;" horiz-adv-x="1931" />
<glyph unicode="&#x2004;" horiz-adv-x="643" />
<glyph unicode="&#x2005;" horiz-adv-x="482" />
<glyph unicode="&#x2006;" horiz-adv-x="321" />
<glyph unicode="&#x2007;" horiz-adv-x="321" />
<glyph unicode="&#x2008;" horiz-adv-x="241" />
<glyph unicode="&#x2009;" horiz-adv-x="386" />
<glyph unicode="&#x200a;" horiz-adv-x="107" />
<glyph unicode="&#x2010;" horiz-adv-x="765" d="M217 475l29 160h499l-28 -160h-500z" />
<glyph unicode="&#x2011;" horiz-adv-x="765" d="M217 475l29 160h499l-28 -160h-500z" />
<glyph unicode="&#x2012;" horiz-adv-x="765" d="M217 475l29 160h499l-28 -160h-500z" />
<glyph unicode="&#x2013;" horiz-adv-x="1239" d="M217 475l29 160h973l-29 -160h-973z" />
<glyph unicode="&#x2014;" horiz-adv-x="1705" d="M217 475l29 160h1440l-29 -160h-1440z" />
<glyph unicode="&#x2018;" horiz-adv-x="475" d="M408 977q-49 0 -78 29.5t-29 91.5q0 145 98 248.5t219 113.5l-18 -96q-47 0 -94 -40.5t-57 -100.5h2q46 0 75 -27.5t29 -75.5q0 -64 -44 -103.5t-103 -39.5z" />
<glyph unicode="&#x2019;" horiz-adv-x="477" d="M510 1458q47 0 76.5 -30t29.5 -91q0 -145 -98 -248.5t-219 -113.5l16 96q47 0 94.5 40.5t57.5 100.5h-2q-44 0 -73.5 27.5t-29.5 75.5q0 64 44.5 103.5t103.5 39.5z" />
<glyph unicode="&#x201a;" horiz-adv-x="489" d="M279 215q47 0 76.5 -30t29.5 -91q0 -145 -98 -248.5t-219 -113.5l16 96q47 0 94.5 40.5t57.5 100.5h-3q-44 0 -73 27.5t-29 75.5q0 64 44.5 103.5t103.5 39.5z" />
<glyph unicode="&#x201c;" horiz-adv-x="817" d="M408 977q-49 0 -78 29.5t-29 91.5q0 145 98 248.5t219 113.5l-18 -96q-47 0 -94 -40.5t-57 -100.5h2q46 0 75 -27.5t29 -75.5q0 -64 -44 -103.5t-103 -39.5zM750 977q-49 0 -78 29.5t-29 91.5q0 145 98.5 248.5t219.5 113.5l-19 -96q-47 0 -94 -40.5t-57 -100.5h2 q46 0 75 -27.5t29 -75.5q0 -64 -44 -103.5t-103 -39.5z" />
<glyph unicode="&#x201d;" horiz-adv-x="819" d="M510 1458q47 0 76.5 -30t29.5 -91q0 -145 -98 -248.5t-219 -113.5l16 96q47 0 94.5 40.5t57.5 100.5h-2q-44 0 -73.5 27.5t-29.5 75.5q0 64 44.5 103.5t103.5 39.5zM852 1458q47 0 76.5 -30t29.5 -91q0 -145 -98 -248.5t-219 -113.5l16 96q47 0 94.5 40.5t57.5 100.5h-2 q-44 0 -73 27.5t-29 75.5q0 64 44 103.5t103 39.5z" />
<glyph unicode="&#x201e;" horiz-adv-x="831" d="M279 215q47 0 76.5 -30t29.5 -91q0 -145 -98 -248.5t-219 -113.5l16 96q47 0 94.5 40.5t57.5 100.5h-3q-44 0 -73 27.5t-29 75.5q0 64 44.5 103.5t103.5 39.5zM621 215q47 0 76.5 -30t29.5 -91q0 -145 -98 -248.5t-219 -113.5l16 96q47 0 94.5 40.5t57.5 100.5h-3 q-44 0 -73 27.5t-29 75.5q0 64 44.5 103.5t103.5 39.5z" />
<glyph unicode="&#x2020;" horiz-adv-x="1169" d="M440 -317l207 1181h-379l29 154h379l78 444h176l-78 -444h381l-29 -154h-381l-207 -1181h-176z" />
<glyph unicode="&#x2021;" horiz-adv-x="1169" d="M440 -317l70 399h-379l27 154h379l118 667h-379l27 156h379l72 403h176l-72 -403h381l-27 -156h-381l-118 -667h381l-27 -154h-381l-70 -399h-176z" />
<glyph unicode="&#x2022;" horiz-adv-x="897" d="M563 309q-121 0 -207 85.5t-86 205.5t86 205.5t207 85.5q120 0 205.5 -85.5t85.5 -205.5t-85.5 -205.5t-205.5 -85.5z" />
<glyph unicode="&#x2026;" horiz-adv-x="1468" d="M213 -14q-47 0 -75.5 30.5t-28.5 77.5q0 59 43.5 101.5t103.5 42.5q47 0 78 -31t31 -76q0 -58 -47 -101.5t-105 -43.5zM725 -14q-47 0 -75.5 30.5t-28.5 77.5q0 59 43.5 101.5t103.5 42.5q47 0 78 -31t31 -76q0 -58 -47 -101.5t-105 -43.5zM1229 -14q-47 0 -76 31t-29 77 q0 58 44 101t104 43q47 0 77.5 -31t30.5 -76q0 -58 -46.5 -101.5t-104.5 -43.5z" />
<glyph unicode="&#x202f;" horiz-adv-x="386" />
<glyph unicode="&#x2030;" horiz-adv-x="2484" d="M322 -59l1110 1534h135l-1112 -1534h-133zM602 707q-149 0 -246.5 96.5t-97.5 238.5q0 125 57 218.5t144.5 138.5t189.5 45q152 0 249 -96.5t97 -239.5q0 -125 -56.5 -218t-144.5 -138t-192 -45zM625 854q90 0 155.5 63.5t65.5 169.5q0 91 -61 152t-156 61 q-88 0 -154.5 -65.5t-66.5 -169.5q0 -88 61.5 -149.5t155.5 -61.5zM1253 -23q-149 0 -246.5 97t-97.5 239q0 125 57 218.5t144.5 138.5t189.5 45q152 0 249.5 -96.5t97.5 -239.5q0 -125 -57 -218.5t-145 -138.5t-192 -45zM2093 -23q-149 0 -246.5 97t-97.5 239 q0 125 57 218.5t144.5 138.5t189.5 45q152 0 249 -96.5t97 -239.5q0 -94 -32.5 -172t-88 -127t-125.5 -76t-147 -27zM1276 125q90 0 155.5 63.5t65.5 169.5q0 91 -61 152t-156 61q-88 0 -154.5 -65.5t-66.5 -169.5q0 -88 61.5 -149.5t155.5 -61.5zM2116 125q90 0 155.5 63.5 t65.5 169.5q0 91 -61 152t-156 61q-88 0 -155 -65.5t-67 -169.5q0 -88 62 -149.5t156 -61.5z" />
<glyph unicode="&#x2039;" horiz-adv-x="507" d="M401 199l-217 268l31 174l311 266l-30 -172l-201 -182l137 -182z" />
<glyph unicode="&#x203a;" horiz-adv-x="507" d="M176 199l31 172l203 182l-140 182l31 172l217 -266l-31 -174z" />
<glyph unicode="&#x2044;" horiz-adv-x="993" d="M-10 -55l1122 1528h145l-1120 -1528h-147z" />
<glyph unicode="&#x205f;" horiz-adv-x="482" />
<glyph unicode="&#x20ac;" horiz-adv-x="1288" d="M700 -37q-117 0 -203.5 42.5t-136 118.5t-69.5 177.5t-10 224.5h-138l23 125h125l12 70q4 17 7 38t3 23h-125l23 125h137q82 266 244 418t389 152q197 0 301.5 -125t85.5 -332h-178q7 133 -56.5 205.5t-179.5 72.5q-143 0 -244 -105.5t-157 -285.5h489l-22 -125h-498 q-2 -22 -10 -61t-12 -70h497l-22 -125h-490q-24 -385 242 -385q147 0 233 84.5t132 243.5h178q-59 -230 -208.5 -368t-361.5 -138z" />
<glyph unicode="&#x2122;" horiz-adv-x="1908" d="M432 618l127 715h-256l21 123h665l-20 -123h-254l-127 -715h-156zM977 618l147 838h179l200 -391l332 391h170l-147 -838h-148l111 621l-301 -360h-111l-172 360l-113 -621h-147z" />
<glyph unicode="&#x2212;" horiz-adv-x="1220" d="M225 487l25 144h942l-25 -144h-942z" />
<glyph unicode="&#x25fc;" horiz-adv-x="1054" d="M0 1055h1055v-1055h-1055v1055z" />
<glyph unicode="&#xf004;" horiz-adv-x="464" d="M16 -508l19 96q46 0 89.5 21t49.5 51h-2q-46 0 -76 27t-30 75q0 66 45.5 107t105.5 41q52 0 81.5 -30.5t29.5 -92.5q0 -130 -90 -212.5t-222 -82.5z" />
<glyph unicode="&#xf8ff;" horiz-adv-x="1798" d="M489 1468h762v-245h-503v-387q70 -25 156.5 -69.5t160.5 -86.5t154 -81.5t165.5 -64t165.5 -24.5q24 0 48 2t36 4l13 2q-2 -3 -5.5 -7t-19.5 -15.5t-36.5 -20t-57 -15.5t-80.5 -7q-153 0 -327 64t-373 167v-684h-259v791q-49 20 -106 20q-69 0 -114.5 -30t-45.5 -87 q0 -40 21 -72t55 -44q-54 3 -84.5 37.5t-30.5 91.5q0 82 68.5 133t189.5 51q29 0 47 -4v581z" />
<glyph horiz-adv-x="1196" d="M1051 1057h184l-186 -1057h-185l15 82q-122 -109 -289 -109q-186 0 -297 116.5t-111 311.5q0 153 41 282t112 216t168 135.5t208 48.5q227 0 317 -155zM621 150q91 0 159.5 38t108.5 105t59 150t19 182q0 140 -62 213t-203 73q-143 0 -242.5 -129.5t-99.5 -335.5 q0 -146 67.5 -221t193.5 -75z" />
<glyph horiz-adv-x="1196" d="M1102 1468l-260 -294h-125l176 294h209zM1051 1057h184l-186 -1057h-185l15 82q-122 -109 -289 -109q-186 0 -297 116.5t-111 311.5q0 153 41 282t112 216t168 135.5t208 48.5q227 0 317 -155zM621 150q91 0 159.5 38t108.5 105t59 150t19 182q0 140 -62 213t-203 73 q-143 0 -242.5 -129.5t-99.5 -335.5q0 -146 67.5 -221t193.5 -75z" />
<glyph horiz-adv-x="1196" d="M834 1337l-177 -161h-145l272 292h160l168 -292h-151zM1051 1057h184l-186 -1057h-185l15 82q-122 -109 -289 -109q-186 0 -297 116.5t-111 311.5q0 153 41 282t112 216t168 135.5t208 48.5q227 0 317 -155zM621 150q91 0 159.5 38t108.5 105t59 150t19 182 q0 140 -62 213t-203 73q-143 0 -242.5 -129.5t-99.5 -335.5q0 -146 67.5 -221t193.5 -75z" />
<glyph horiz-adv-x="1196" d="M651 1229q-41 0 -68.5 27.5t-27.5 70.5q0 59 33.5 90t81.5 31q43 0 70.5 -27.5t27.5 -70.5q0 -60 -32.5 -90.5t-84.5 -30.5zM1014 1229q-41 0 -68.5 27.5t-27.5 70.5q0 59 33 90t81 31q43 0 70.5 -27.5t27.5 -70.5q0 -60 -32 -90.5t-84 -30.5zM1051 1057h184l-186 -1057 h-185l15 82q-122 -109 -289 -109q-186 0 -297 116.5t-111 311.5q0 153 41 282t112 216t168 135.5t208 48.5q227 0 317 -155zM621 150q91 0 159.5 38t108.5 105t59 150t19 182q0 140 -62 213t-203 73q-143 0 -242.5 -129.5t-99.5 -335.5q0 -146 67.5 -221t193.5 -75z" />
<glyph horiz-adv-x="1196" d="M903 1174h-112l-209 294h196zM1051 1057h184l-186 -1057h-185l15 82q-122 -109 -289 -109q-186 0 -297 116.5t-111 311.5q0 153 41 282t112 216t168 135.5t208 48.5q227 0 317 -155zM621 150q91 0 159.5 38t108.5 105t59 150t19 182q0 140 -62 213t-203 73 q-143 0 -242.5 -129.5t-99.5 -335.5q0 -146 67.5 -221t193.5 -75z" />
<glyph horiz-adv-x="1196" d="M805 1124q-79 0 -129.5 52t-50.5 131q0 105 77 179.5t179 74.5q79 0 129.5 -53.5t50.5 -133.5q0 -104 -77 -177t-179 -73zM864 1460q-55 0 -95 -40t-40 -99q0 -43 25.5 -70.5t66.5 -27.5q56 0 94.5 39.5t38.5 99.5q0 43 -24.5 70.5t-65.5 27.5zM1051 1057h184l-186 -1057 h-185l15 82q-122 -109 -289 -109q-186 0 -297 116.5t-111 311.5q0 153 41 282t112 216t168 135.5t208 48.5q227 0 317 -155zM621 150q91 0 159.5 38t108.5 105t59 150t19 182q0 140 -62 213t-203 73q-143 0 -242.5 -129.5t-99.5 -335.5q0 -146 67.5 -221t193.5 -75z" />
<glyph horiz-adv-x="1196" d="M729 1300q-55 0 -65 -53h-127q17 93 69.5 142t120.5 49q48 0 120.5 -26t106.5 -26q57 0 68 54h125q-17 -93 -70 -143t-121 -50q-48 0 -121 26.5t-106 26.5zM1051 1057h184l-186 -1057h-185l15 82q-122 -109 -289 -109q-186 0 -297 116.5t-111 311.5q0 153 41 282t112 216 t168 135.5t208 48.5q227 0 317 -155zM621 150q91 0 159.5 38t108.5 105t59 150t19 182q0 140 -62 213t-203 73q-143 0 -242.5 -129.5t-99.5 -335.5q0 -146 67.5 -221t193.5 -75z" />
<glyph horiz-adv-x="1212" d="M1198 1057h131l-26 -154h-46q-56 0 -67 -65l-148 -830q-80 -444 -473 -444h-411l30 174h379q123 0 194 64t97 198l14 86q-123 -113 -292 -113q-186 0 -297 117.5t-111 315.5q0 300 151 488.5t377 188.5q239 0 324 -168l2 7q24 135 172 135zM610 150q91 0 159.5 38.5 t108.5 106.5t59 151.5t19 182.5q0 128 -63 205t-201 77q-145 0 -243.5 -124.5t-98.5 -335.5q0 -149 67 -225t193 -76z" />
<glyph horiz-adv-x="1052" d="M1204 1057l-487 -496l338 -561h-232l-280 465l-129 -2l-82 -463h-185l259 1462h184l-148 -829h131l414 424h217z" />
<glyph horiz-adv-x="790" d="M305 0l158 889h-256l29 168h256l57 321h184l-57 -321h270l-28 -168h-271l-158 -889h-184z" />
<glyph horiz-adv-x="1040" d="M96 -436l33 174h170q54 0 78.5 16.5t36.5 61.5l39 141l-232 1100h199l164 -877l420 877h190l-571 -1112l-50 -187q-29 -108 -84 -151t-161 -43h-232z" />
<glyph horiz-adv-x="1040" d="M616 1174l177 294h208l-260 -294h-125zM96 -436l33 174h170q54 0 78.5 16.5t36.5 61.5l39 141l-232 1100h199l164 -877l420 877h190l-571 -1112l-50 -187q-29 -108 -84 -151t-161 -43h-232z" />
<glyph horiz-adv-x="1040" d="M541 1229q-41 0 -69 27.5t-28 70.5q0 59 33.5 90t81.5 31q43 0 70.5 -27.5t27.5 -70.5q0 -60 -32 -90.5t-84 -30.5zM903 1229q-41 0 -68.5 27.5t-27.5 70.5q0 59 33.5 90t81.5 31q43 0 70.5 -27.5t27.5 -70.5q0 -60 -32.5 -90.5t-84.5 -30.5zM96 -436l33 174h170 q54 0 78.5 16.5t36.5 61.5l39 141l-232 1100h199l164 -877l420 877h190l-571 -1112l-50 -187q-29 -108 -84 -151t-161 -43h-232z" />
<glyph horiz-adv-x="1224" d="M631 -20q-207 0 -330 120.5t-123 335.5q0 194 76 347.5t214 240t314 86.5q206 0 331.5 -128.5t125.5 -338.5q0 -304 -166.5 -483.5t-441.5 -179.5zM659 143q86 0 154.5 32.5t109.5 82.5t68 117t37 129t10 125q0 59 -17.5 114t-51.5 100.5t-90.5 73t-126.5 27.5 q-69 0 -126.5 -22.5t-97 -61.5t-69.5 -88t-47 -105.5t-25 -109.5t-8 -104q0 -130 73 -220t207 -90z" />
<glyph horiz-adv-x="714" d="M362 0l132 745h-308l25 140q169 5 253.5 47t139.5 162h141l-192 -1094h-191z" />
<glyph horiz-adv-x="1097" d="M102 0q31 178 138 289t358 217q161 67 237 134t76 161q0 65 -50 103t-148 38q-248 0 -287 -223h-193q29 184 162.5 287.5t329.5 103.5q188 0 289.5 -77t101.5 -214q0 -83 -33 -152.5t-99 -125.5t-142.5 -99t-184.5 -88q-107 -43 -187 -97t-87 -89h655l-28 -168h-908z" />
<glyph horiz-adv-x="1183" d="M557 -371q-257 0 -378.5 122t-84.5 345h195q-20 -143 51 -223t244 -80q160 0 241.5 77t81.5 208q0 118 -76 183t-237 65h-55l26 147h66q158 0 249 67t91 212q0 88 -67.5 140t-172.5 52q-48 0 -84 -5t-77.5 -23t-71.5 -48.5t-56 -85.5t-41 -131h-194q32 220 170.5 339.5 t363.5 119.5q189 0 302.5 -92t113.5 -250q0 -269 -242 -358q195 -94 195 -308q0 -226 -146.5 -349.5t-406.5 -123.5z" />
<glyph horiz-adv-x="1165" d="M678 -328l57 328h-684l31 178l838 903h190l-162 -915h195l-29 -166h-194l-58 -328h-184zM270 166h494l117 655h-7z" />
<glyph horiz-adv-x="1114" d="M532 -365q-115 0 -205.5 33t-144.5 90.5t-76.5 134.5t-9.5 166h195q-5 -53 4 -97.5t36 -84t83.5 -62t138.5 -22.5q154 0 243 104t89 279q0 126 -69 195t-204 69q-166 0 -270 -116h-172l178 753h774l-30 -172h-611l-98 -403q36 40 112.5 72t180.5 32q185 0 291 -102.5 t106 -286.5q0 -165 -64.5 -296.5t-189 -208.5t-287.5 -77z" />
<glyph horiz-adv-x="1163" d="M745 920q193 0 300.5 -104.5t107.5 -289.5q0 -243 -143.5 -398t-358.5 -155q-224 0 -338 122.5t-114 359.5q0 126 16.5 245.5t49.5 230.5t87 203.5t124 161.5t164.5 107.5t205.5 38.5q201 0 292 -94t91 -275h-195q0 211 -225 211q-150 0 -255 -137t-144 -393 q113 166 335 166zM664 133q124 0 212.5 104t88.5 261q0 130 -65 196t-189 66q-153 0 -237.5 -93t-84.5 -245q0 -126 66.5 -207.5t208.5 -81.5z" />
<glyph horiz-adv-x="989" d="M174 -338q69 333 257 654.5t456 588.5h-692l30 172h920l-31 -166q-286 -259 -484.5 -586.5t-260.5 -662.5h-195z" />
<glyph horiz-adv-x="1159" d="M610 -27q-217 0 -332.5 105t-115.5 276q0 149 86.5 266t240.5 162q-151 82 -151 267q0 170 126 282.5t327 112.5q186 0 294.5 -93.5t108.5 -230.5q0 -117 -65.5 -212.5t-184.5 -135.5q98 -37 153.5 -123.5t55.5 -189.5q0 -221 -145 -353.5t-398 -132.5zM754 856 q111 0 179 57.5t68 167.5q0 90 -56 142.5t-165 52.5q-119 0 -183.5 -59.5t-64.5 -167.5q0 -98 58.5 -145.5t163.5 -47.5zM637 141q154 0 236.5 78t82.5 221q0 113 -71 177.5t-211 64.5q-145 0 -227 -83t-82 -220q0 -109 66 -173.5t206 -64.5z" />
<glyph horiz-adv-x="1163" d="M694 1098q224 0 338.5 -122.5t114.5 -359.5q0 -126 -16.5 -245.5t-49.5 -230.5t-87 -203.5t-124 -161.5t-164.5 -107.5t-205.5 -38.5q-201 0 -292 94t-91 275h194q0 -211 226 -211q150 0 255 137t144 393q-112 -165 -336 -165q-193 0 -300 104t-107 289q0 243 143 398 t358 155zM635 311q153 0 237 93t84 245q0 126 -66 207.5t-208 81.5q-124 0 -212.5 -104t-88.5 -261q0 -130 65 -196t189 -66z" />
<glyph horiz-adv-x="1208" d="M645 -20q-209 0 -321.5 135t-112.5 387q0 173 38.5 336.5t110.5 299t189 218t262 82.5q212 0 324 -136t112 -389q0 -138 -23.5 -271t-73 -253t-119 -211t-169.5 -144.5t-217 -53.5zM659 143q89 0 163.5 68t121.5 177t72.5 239.5t25.5 261.5q0 82 -11 146t-36.5 120.5 t-75.5 87.5t-122 31q-88 0 -162 -69t-120 -179t-71.5 -240t-25.5 -260q0 -65 6.5 -119t23 -104t43 -84.5t69.5 -55t99 -20.5z" />
<glyph horiz-adv-x="1208" d="M592 0l178 1012h-338l25 143q82 5 132.5 12.5t100 23.5t82 44.5t63 72.5t58.5 111h141l-250 -1419h-192z" />
<glyph horiz-adv-x="1208" d="M160 0q10 101 40 182.5t93 163.5t168 160.5t260 159.5q206 108 284 195.5t78 197.5q0 98 -60.5 151.5t-182.5 53.5q-154 0 -232.5 -79.5t-105.5 -248.5h-195q23 163 101 278t194 171.5t262 56.5q190 0 301 -96t111 -263q0 -57 -14 -109.5t-36 -96t-62.5 -88t-80 -79.5 t-103 -78t-116.5 -76t-135 -81q-57 -33 -92.5 -55t-78 -53t-67.5 -57.5t-47 -60.5t-32 -71h733l-35 -178h-950z" />
<glyph horiz-adv-x="1208" d="M643 -39q-257 0 -378.5 122t-84.5 345h195q-20 -143 51 -223t244 -80q160 0 241.5 77t81.5 208q0 247 -313 247h-55l26 148h66q158 0 249 66.5t91 211.5q0 88 -67.5 140.5t-172.5 52.5q-48 0 -84 -5t-77.5 -23t-71.5 -48.5t-56 -85.5t-41 -131h-194q32 220 170.5 339.5 t363.5 119.5q189 0 302.5 -92t113.5 -250q0 -270 -242 -359q195 -94 195 -307q0 -226 -146.5 -349.5t-406.5 -123.5z" />
<glyph horiz-adv-x="1208" d="M803 0l57 328h-692l33 178l846 909h190l-164 -921h195l-29 -166h-195l-57 -328h-184zM387 494h502l117 661h-7z" />
<glyph horiz-adv-x="1208" d="M668 -27q-153 0 -259.5 57t-151 152.5t-26.5 214.5h195q-5 -53 4 -97.5t36 -84t83.5 -62t138.5 -22.5q154 0 243 104t89 279q0 126 -69 195t-203 69q-167 0 -271 -116h-172l178 753h774l-30 -172h-611l-98 -403q36 40 112.5 72t180.5 32q185 0 291 -102.5t106 -286.5 q0 -165 -64.5 -296.5t-188.5 -208.5t-287 -77z" />
<glyph horiz-adv-x="1208" d="M811 920q193 0 300.5 -104.5t107.5 -289.5q0 -243 -143.5 -398t-358.5 -155q-224 0 -338.5 122.5t-114.5 359.5q0 126 16.5 245.5t49.5 230.5t87 203.5t124 161.5t164.5 107.5t205.5 38.5q201 0 292 -94t91 -275h-194q0 211 -226 211q-150 0 -255 -137t-144 -393 q113 166 336 166zM729 133q124 0 212.5 104t88.5 261q0 130 -65 196t-189 66q-153 0 -237 -93t-84 -245q0 -126 66 -207.5t208 -81.5z" />
<glyph horiz-adv-x="1208" d="M373 0q70 331 261 652.5t460 590.5h-746l31 172h964l-28 -166q-136 -123 -252.5 -258.5t-219 -293t-174.5 -336.5t-102 -361h-194z" />
<glyph horiz-adv-x="1208" d="M641 -27q-217 0 -332.5 105t-115.5 276q0 149 86.5 266t240.5 162q-151 82 -151 267q0 170 125.5 282.5t326.5 112.5q186 0 295 -93.5t109 -230.5q0 -117 -65.5 -212.5t-184.5 -135.5q98 -37 153.5 -123.5t55.5 -189.5q0 -221 -145 -353.5t-398 -132.5zM784 856 q111 0 179.5 57.5t68.5 167.5q0 90 -56 142.5t-165 52.5q-119 0 -183.5 -59.5t-64.5 -167.5q0 -98 58 -145.5t163 -47.5zM668 141q154 0 236.5 78t82.5 221q0 113 -71 177.5t-211 64.5q-145 0 -227.5 -83t-82.5 -220q0 -109 66.5 -173.5t206.5 -64.5z" />
<glyph horiz-adv-x="1208" d="M793 1442q224 0 338 -122t114 -359q0 -152 -23 -293t-74 -268.5t-125 -221.5t-183.5 -149.5t-241.5 -55.5q-201 0 -292 94t-91 275h195q0 -211 225 -211q150 0 255 137.5t144 393.5q-113 -166 -336 -166q-193 0 -300 104t-107 289q0 243 143.5 398t358.5 155zM733 655 q153 0 237.5 93t84.5 245q0 126 -66.5 207.5t-208.5 81.5q-124 0 -212.5 -103.5t-88.5 -260.5q0 -130 65 -196.5t189 -66.5z" />
<glyph horiz-adv-x="1054" d="M1079 776h-192q9 70 -30.5 111.5t-119.5 50.5l-51 -293q2 0 5 -1t5 -1q51 -13 90 -25.5t88 -36t81 -52t54.5 -72t22.5 -95.5q0 -169 -128.5 -272.5t-336.5 -114.5l-22 -129h-92l22 129q-86 5 -153.5 32.5t-113 74.5t-62.5 119t-1 161h193q-15 -92 29.5 -145t138.5 -65 l57 323q-71 17 -123 37.5t-97 53t-68 80.5t-23 110q0 80 34.5 145t93.5 108t134.5 68.5t161.5 30.5l24 141h93l-25 -141q167 -11 252.5 -97t58.5 -235zM451 803q0 -48 35.5 -78.5t111.5 -54.5l47 272q-194 -12 -194 -139zM834 315q0 49 -45.5 81.5t-137.5 56.5l-53 -306 q114 3 175 41t61 127z" />
<glyph horiz-adv-x="1171" d="M639 -27q-189 0 -288.5 115.5t-82.5 319.5h-123l19 104h112q0 1 6.5 35t8.5 45h-113l19 104h125q60 192 202 303t328 111q178 0 278 -81.5t87 -240.5h-177q-4 78 -62 119t-157 41q-114 0 -196 -65.5t-119 -186.5h422l-19 -104h-436q-13 -64 -14 -80h436l-18 -104h-422 q-5 -129 51.5 -201t173.5 -72q113 0 177.5 45.5t98.5 138.5h177q-30 -117 -105 -196.5t-173 -114.5t-216 -35z" />
<glyph horiz-adv-x="755" d="M772 1106h137l-28 -164h-121q-73 0 -113 -24t-57 -80l-55 -189h210l-51 -133h-198l-144 -487q-43 -147 -127 -216t-245 -69h-144l29 162h127q70 0 108 30t56 91l147 489h-164l54 133h149l64 211q40 134 126.5 190t239.5 56z" />
<glyph horiz-adv-x="1144" d="M1171 768h-182q9 73 -28 125.5t-127 52.5q-224 0 -224 -190q0 -41 21 -148h295l-23 -127h-248q7 -51 7 -86q0 -78 -33 -157q167 -74 321 -74h127l-28 -164h-158q-178 0 -354 88q-101 -108 -248 -108q-95 0 -148 43t-53 127q0 88 66.5 139t162.5 51q64 0 146 -29 q4 36 4 58q0 44 -14 112h-242l22 127h191q-14 72 -14 123q0 175 121 276t315 101q179 0 267 -89.5t58 -250.5zM293 125q65 0 104 39q-64 31 -100 31q-25 0 -38 -10t-13 -25q0 -35 47 -35z" />
<glyph horiz-adv-x="1208" d="M502 0l57 328h-313l22 123h295l-92 170h-223l22 122h152l-201 363h242l250 -502l432 502h233l-323 -361h133l-21 -122h-206l-158 -172h299l-23 -123h-315l-57 -328h-205z" />
<glyph d="M-129 1110l14 82q53 0 87.5 27.5t41.5 78.5h-2q-41 0 -66.5 24.5t-25.5 66.5q0 54 40.5 89t90.5 35q44 0 72.5 -27.5t28.5 -82.5q0 -126 -80 -209.5t-201 -83.5z" />
<glyph d="M-14 1182q-52 0 -83.5 30.5t-31.5 90.5q0 126 92 211t223 85l-18 -96q-47 0 -90 -20.5t-49 -50.5h2q46 0 76 -27.5t30 -75.5q0 -66 -45.5 -106.5t-105.5 -40.5z" />
<glyph d="M-229 1610q-46 0 -78.5 32t-32.5 78q0 44 32.5 76.5t78.5 32.5q45 0 77.5 -32.5t32.5 -76.5q0 -46 -32 -78t-78 -32zM158 1610q-46 0 -78.5 32t-32.5 78q0 44 32.5 76.5t78.5 32.5t78 -32.5t32 -76.5q0 -46 -32 -78t-78 -32z" />
<glyph d="M53 1595q-43 0 -72.5 30.5t-29.5 74.5q0 57 45 99t102 42q45 0 75 -30.5t30 -75.5q0 -56 -45.5 -98t-104.5 -42z" />
<glyph d="M96 1581l-200 274h225l117 -274h-142z" />
<glyph d="M-154 1581l215 274h226l-299 -274h-142z" />
<glyph d="M-426 1581l188 274h209l-272 -274h-125zM-111 1581l209 274h209l-293 -274h-125z" />
<glyph d="M-362 1581l264 274h159l177 -274h-148l-129 143l-170 -143h-153z" />
<glyph d="M-127 1581l-178 274h153l138 -157l190 157h143l-278 -274h-168z" />
<glyph d="M-37 1583q-134 0 -198 67t-44 203h117q-7 -78 33.5 -113.5t114.5 -35.5q73 0 129.5 36t79.5 113h112q-39 -136 -128 -203t-216 -67z" />
<glyph d="M61 1509q-93 0 -149 59.5t-49 149.5q7 91 73.5 152t157.5 61q90 0 148 -61.5t51 -151.5t-75 -149.5t-157 -59.5zM70 1599q48 0 83.5 33.5t39.5 85.5t-26.5 86.5t-80.5 34.5q-48 0 -83.5 -34.5t-39.5 -86.5t26.5 -85.5t80.5 -33.5z" />
<glyph d="M-299 1618q17 93 69.5 141.5t120.5 48.5q49 0 122 -25.5t106 -25.5q57 0 67 53h125q-17 -93 -69.5 -142.5t-120.5 -49.5q-49 0 -121 26.5t-106 26.5q-56 0 -66 -53h-127z" />
<glyph d="M-348 1649l18 106h619l-19 -106h-618z" />
<glyph d="M-655 422l28 153l727 469l-26 -151z" />
<glyph d="M-1198 -23l-82 76l1307 1465l82 -76z" />
<glyph horiz-adv-x="272" d="M336 1110l14 82q53 0 87.5 27.5t41.5 78.5h-2q-41 0 -66.5 24.5t-25.5 66.5q0 54 40.5 89t90.5 35q44 0 72 -27.5t28 -82.5q0 -126 -79.5 -209.5t-200.5 -83.5z" />
<glyph horiz-adv-x="432" d="M319 1581l216 274h225l-299 -274h-142z" />
<glyph horiz-adv-x="626" d="M590 1583q-134 0 -198 67t-44 203h117q-7 -78 33 -113.5t114 -35.5q73 0 129.5 36t79.5 113h113q-39 -136 -128 -203t-216 -67z" />
<glyph horiz-adv-x="665" d="M514 1581l-178 274h153l138 -157l190 157h144l-279 -274h-168z" />
<glyph horiz-adv-x="681" d="M319 1581l265 274h159l177 -274h-148l-129 143l-170 -143h-154z" />
<glyph horiz-adv-x="649" d="M420 1610q-46 0 -78.5 32t-32.5 78q0 44 32.5 76.5t78.5 32.5t78 -32.5t32 -76.5q0 -46 -32 -78t-78 -32zM807 1610q-46 0 -78.5 32t-32.5 78q0 44 32.5 76.5t78.5 32.5t78.5 -32.5t32.5 -76.5q0 -46 -32.5 -78t-78.5 -32z" />
<glyph horiz-adv-x="288" d="M506 1595q-43 0 -73 30.5t-30 74.5q0 57 45.5 99t102.5 42q45 0 74.5 -30.5t29.5 -75.5q0 -57 -45 -98.5t-104 -41.5z" />
<glyph horiz-adv-x="432" d="M569 1581l-200 274h225l117 -274h-142z" />
<glyph horiz-adv-x="724" d="M299 1581l188 274h209l-272 -274h-125zM614 1581l209 274h209l-293 -274h-125z" />
<glyph horiz-adv-x="659" d="M311 1649l19 106h618l-18 -106h-619z" />
<glyph horiz-adv-x="471" d="M532 1509q-93 0 -149 59.5t-49 149.5q7 91 73.5 152t157.5 61q90 0 148 -61.5t51 -151.5t-75 -149.5t-157 -59.5zM541 1599q48 0 83.5 33.5t39.5 85.5t-26.5 86.5t-80.5 34.5q-48 0 -83.5 -34.5t-39.5 -86.5t26.5 -85.5t80.5 -33.5z" />
<glyph horiz-adv-x="604" d="M289 1618q17 93 69.5 141.5t120.5 48.5q49 0 122 -25.5t106 -25.5q57 0 67 53h125q-17 -93 -69.5 -142.5t-120.5 -49.5q-49 0 -122 26.5t-106 26.5q-55 0 -65 -53h-127z" />
</font>
</defs>
</svg>
