<?xml version="1.0" standalone="no"?>
<!DOCTYPE svg PUBLIC "-//W3C//DTD SVG 1.1//EN" "http://www.w3.org/Graphics/SVG/1.1/DTD/svg11.dtd" >
<svg xmlns="http://www.w3.org/2000/svg" xmlns:xlink="http://www.w3.org/1999/xlink" version="1.1">
<metadata></metadata>
<defs>
<font id="f37_boltonthin_italic" horiz-adv-x="0" >
<font-face units-per-em="2048" ascent="1638" descent="-410" />
<missing-glyph horiz-adv-x="538" />
<glyph unicode="fi" horiz-adv-x="978" d="M225 0l172 981h-182l12 74h183l26 141q27 147 108.5 209.5t219.5 62.5h297l-12 -75h-304q-107 0 -160 -45.5t-73 -159.5l-25 -133h238l-12 -74h-238l-172 -981h-78zM725 0l186 1055h78l-186 -1055h-78z" />
<glyph unicode="fl" horiz-adv-x="1007" d="M829 152q-12 -82 70 -82h57l-12 -70h-72q-143 0 -120 141l219 1252h-236q-98 0 -149 -44.5t-70 -150.5l-27 -143h240l-12 -74h-240l-172 -981h-78l172 981h-182l12 74h183l26 151q25 140 106 201t212 61h305z" />
<glyph unicode="&#xd;" horiz-adv-x="538" />
<glyph unicode=" "  horiz-adv-x="538" />
<glyph unicode="&#x09;" horiz-adv-x="538" />
<glyph unicode="&#xa0;" horiz-adv-x="538" />
<glyph unicode="!" horiz-adv-x="471" d="M274 369l64 428l117 665h80l-119 -665l-90 -428h-52zM231 -8q-28 0 -45.5 17.5t-17.5 45.5q0 37 28 63.5t64 26.5q28 0 46 -18.5t18 -46.5q0 -37 -27.5 -62.5t-65.5 -25.5z" />
<glyph unicode="&#x22;" horiz-adv-x="630" d="M340 973l59 489h95l-115 -489h-39zM594 973l59 489h95l-115 -489h-39z" />
<glyph unicode="#" horiz-adv-x="1122" d="M256 0l139 459h-229l12 63h242l106 346h-231l12 62h242l141 469h66l-144 -469h310l143 469h61l-141 -469h213l-12 -62h-223l-107 -346h213l-10 -63h-225l-140 -459h-63l139 459h-309l-139 -459h-66zM483 522h310l104 346h-307z" />
<glyph unicode="$" horiz-adv-x="1153" d="M870 1460q86 -9 153 -39.5t114 -83.5t64.5 -135t0.5 -186h-78q25 168 -50 259t-216 105l-108 -604q46 -14 78.5 -26t74 -30.5t70 -38t58.5 -48t48 -61.5t29.5 -76.5t11.5 -94.5q0 -103 -41 -186t-112.5 -136.5t-163.5 -82.5t-197 -31l-31 -176h-55l31 178 q-214 11 -319.5 138.5t-61.5 357.5h82q-34 -199 49.5 -303t263.5 -115l117 664q-63 21 -110 40.5t-96.5 49.5t-80.5 65t-51 85t-20 110q0 99 40.5 178t109 127t154 73t181.5 25h6l31 168h55zM698 795l105 589h-6q-164 0 -276.5 -81.5t-112.5 -225.5q0 -46 16 -85.5t41.5 -68 t65 -53.5t78.5 -41.5t89 -33.5zM1040 395q0 53 -18.5 97t-45.5 73t-71.5 54.5t-80.5 40t-89 32.5l-114 -649q81 1 154 23t133.5 64t96 110.5t35.5 154.5z" />
<glyph unicode="%" horiz-adv-x="1763" d="M401 -68l1129 1534h69l-1128 -1534h-70zM571 717q-153 0 -242 93.5t-89 229.5q0 177 104.5 283.5t267.5 106.5q154 0 243 -92t89 -232q0 -178 -104.5 -283.5t-268.5 -105.5zM584 786q127 0 208.5 84t81.5 226q0 110 -72 188t-200 78t-210.5 -86t-82.5 -225 q0 -111 74 -188t201 -77zM1393 -12q-154 0 -244 94t-90 229q0 177 105.5 283t269.5 106q153 0 241 -91.5t88 -231.5q0 -178 -103.5 -283.5t-266.5 -105.5zM1403 57q127 0 210 84t83 226q0 110 -72.5 188t-202.5 78q-128 0 -210.5 -86t-82.5 -225q0 -111 74.5 -188t200.5 -77 z" />
<glyph unicode="&#x26;" horiz-adv-x="1298" d="M1231 72h55l-12 -72h-66q-69 0 -121.5 40t-109.5 120q-162 -187 -440 -187q-160 0 -261.5 95t-101.5 249q0 309 363 504q-63 96 -90 164.5t-27 136.5q0 83 30 150t79.5 108t110.5 62.5t126 21.5q107 0 173.5 -62.5t66.5 -168.5q0 -74 -28.5 -138.5t-83 -117t-113.5 -92 t-138 -80.5l344 -516q53 93 74 207l24 133h76l-24 -129q-29 -156 -109 -275q51 -76 95 -114.5t108 -38.5zM758 1395q-108 0 -184 -70t-76 -188q0 -52 25 -116t87 -163q151 78 236.5 165t85.5 198q0 78 -49 126t-125 48zM551 49q245 0 387 170l-367 549q-159 -91 -238 -194 t-79 -244q0 -129 83.5 -205t213.5 -76z" />
<glyph unicode="'" horiz-adv-x="378" d="M340 973l59 489h95l-115 -489h-39z" />
<glyph unicode="(" horiz-adv-x="507" d="M287 -365q-97 306 -97 656q0 613 424 1206h72q-207 -296 -313.5 -596t-106.5 -625q0 -163 24 -336t68 -305h-71z" />
<glyph unicode=")" horiz-adv-x="507" d="M23 -365q205 298 311 597.5t106 623.5q0 163 -24 337t-68 304h72q98 -310 98 -655q0 -612 -426 -1207h-69z" />
<glyph unicode="*" horiz-adv-x="821" d="M393 868l-39 39l209 217l-231 84l28 58l226 -86l37 262h61l-39 -264l266 86l7 -56l-269 -88l125 -223l-51 -37l-123 225z" />
<glyph unicode="+" horiz-adv-x="1167" d="M557 33l84 485h-459l13 68h458l86 483h66l-86 -483h459l-13 -68h-458l-84 -485h-66z" />
<glyph unicode="," horiz-adv-x="458" d="M100 -254l4 51q75 36 105 82t37 113q-4 -2 -13 -2q-31 0 -51 19t-20 50q0 36 24.5 59t59.5 23q30 0 50.5 -20.5t20.5 -54.5q0 -241 -217 -320z" />
<glyph unicode="-" horiz-adv-x="686" d="M242 514l12 72h383l-12 -72h-383z" />
<glyph unicode="." horiz-adv-x="434" d="M225 -6q-32 0 -52.5 21.5t-20.5 52.5q0 32 24.5 55.5t59.5 23.5q31 0 51 -20t20 -51q0 -32 -25 -57t-57 -25z" />
<glyph unicode="/" horiz-adv-x="839" d="M70 -35l891 1532h69l-891 -1532h-69z" />
<glyph unicode="0" horiz-adv-x="1224" d="M633 -23q-106 0 -186 41t-126.5 114.5t-69 165t-22.5 202.5q0 99 14.5 201.5t44 207.5t79.5 196.5t114.5 163t155.5 113t197 41.5q86 0 155 -27.5t115.5 -75t77.5 -114.5t45 -143t14 -164q0 -85 -10.5 -173t-33 -179t-56 -173.5t-83.5 -155.5t-111 -126t-141.5 -84 t-172.5 -31zM641 49q111 0 201.5 57t147.5 146t96 203.5t55 222.5t16 209q0 73 -9.5 137t-34 125t-61.5 104.5t-95.5 70t-133.5 26.5q-109 0 -198 -57t-145.5 -146t-95.5 -203.5t-55 -222.5t-16 -209q0 -74 9.5 -138t33 -125t60 -104.5t94 -69.5t131.5 -26z" />
<glyph unicode="1" horiz-adv-x="704" d="M420 0l219 1255q-77 -63 -183.5 -114t-213.5 -74l12 70q147 35 237 91t185 171h69l-245 -1399h-80z" />
<glyph unicode="2" horiz-adv-x="1126" d="M117 0q12 87 54.5 165.5t115 147.5t154 126.5t194.5 121.5q87 48 150 88t126 90.5t102 99t63 109t24 125.5q0 131 -80 203t-217 72q-191 0 -296.5 -107t-133.5 -297h-80q34 228 169.5 353.5t352.5 125.5q165 0 265 -88t100 -250q0 -58 -15.5 -113t-41 -100.5t-67.5 -92 t-83.5 -82.5t-101.5 -77.5t-110 -72t-120 -70.5q-88 -52 -148.5 -92.5t-122 -91.5t-99.5 -105t-54 -112h819l-14 -76h-905z" />
<glyph unicode="3" horiz-adv-x="1175" d="M616 -29q-243 0 -361 121.5t-65 337.5h80q-45 -183 53 -284t306 -101q124 0 223 43t159 132t60 212q0 135 -88 204t-250 69h-90l12 67h93q77 0 147 19t129.5 57t95 105t35.5 155q0 120 -89.5 181t-236.5 61q-374 0 -434 -367h-80q32 215 167 327.5t356 112.5 q180 0 288.5 -78.5t108.5 -228.5q0 -155 -88 -249.5t-244 -123.5q123 -25 187.5 -101.5t64.5 -197.5q0 -225 -146 -349t-393 -124z" />
<glyph unicode="4" horiz-adv-x="1118" d="M743 0l62 354h-692l14 80l854 965h88l-172 -977h227l-12 -68h-229l-62 -354h-78zM207 422h612l152 866h-4z" />
<glyph unicode="5" horiz-adv-x="1110" d="M606 -27q-227 0 -338.5 128.5t-77.5 347.5h80q-27 -189 61 -296.5t285 -107.5q195 0 315 131.5t120 349.5q0 154 -89 243t-245 89q-120 0 -209 -42.5t-160 -131.5h-80l193 715h749l-14 -74h-682l-143 -549q134 154 368 154q182 0 286.5 -103t104.5 -284q0 -254 -148 -412 t-376 -158z" />
<glyph unicode="6" horiz-adv-x="1193" d="M737 928q197 0 313.5 -107.5t116.5 -302.5q0 -241 -139.5 -392t-372.5 -151q-207 0 -322.5 126.5t-115.5 353.5q0 151 21.5 289t70 263t119.5 216.5t176 145.5t234 54q186 0 281 -89.5t95 -252.5h-79q0 127 -79 199t-237 72q-120 0 -216 -61t-157 -164.5t-96.5 -227.5 t-46.5 -264q56 145 174 219t260 74zM664 47q133 0 230.5 62t145 164.5t47.5 232.5q0 166 -94.5 258t-267.5 92q-193 0 -309.5 -130t-116.5 -323q0 -55 14 -106t43.5 -97t71.5 -79.5t103 -53.5t133 -20z" />
<glyph unicode="7" horiz-adv-x="997" d="M283 0q120 695 821 1323h-811l14 76h895l-14 -84q-159 -140 -290.5 -288t-241.5 -312.5t-185.5 -346t-108.5 -368.5h-79z" />
<glyph unicode="8" horiz-adv-x="1171" d="M616 -25q-205 0 -322.5 93.5t-117.5 273.5q0 170 103 282.5t272 145.5q-189 81 -189 281q0 116 60.5 202t157 128t213.5 42q177 0 281 -80.5t104 -230.5q0 -133 -83.5 -226t-211.5 -122q112 -31 177.5 -118t65.5 -214q0 -146 -70 -251.5t-183.5 -155.5t-256.5 -50z M743 801q62 0 122 17t113.5 50.5t86.5 93t33 136.5q0 128 -85 190t-231 62q-65 0 -123.5 -17t-108 -51.5t-79 -93t-29.5 -133.5q0 -128 85 -191t216 -63zM629 49q85 0 158.5 22.5t131.5 67t91.5 118t33.5 167.5q0 151 -96 227t-260 76q-84 0 -160 -23t-137 -68t-97 -118 t-36 -166q0 -154 99 -228.5t272 -74.5z" />
<glyph unicode="9" horiz-adv-x="1191" d="M788 1423q207 0 323 -126t116 -353q0 -151 -21.5 -289t-70 -263t-119.5 -217t-176 -146t-234 -54q-186 0 -281.5 89.5t-95.5 252.5h80q0 -127 79 -198.5t237 -71.5q120 0 216 61t157 164.5t96.5 227.5t46.5 264q-56 -145 -174 -219t-260 -74q-197 0 -314 107.5 t-117 302.5q0 241 139 391.5t373 150.5zM719 543q193 0 309.5 129.5t116.5 322.5q0 55 -14 106.5t-43.5 97t-71.5 79.5t-103 54t-133 20q-133 0 -230.5 -62t-145.5 -164.5t-48 -232.5q0 -166 95 -258t268 -92z" />
<glyph unicode=":" horiz-adv-x="458" d="M387 846q-32 0 -53 20.5t-21 51.5q0 34 24.5 56.5t59.5 22.5q31 0 51.5 -20t20.5 -49q0 -33 -24.5 -57.5t-57.5 -24.5zM236 -6q-32 0 -52 21.5t-20 52.5q0 32 24 55.5t58 23.5q31 0 52 -20t21 -51q0 -32 -25.5 -57t-57.5 -25z" />
<glyph unicode=";" horiz-adv-x="471" d="M377 803q-30 0 -48 18.5t-18 48.5q0 39 28 67t67 28q30 0 48.5 -19t18.5 -49q0 -39 -28.5 -66.5t-67.5 -27.5zM109 -250l10 55q105 39 127 193q-4 -2 -15 -2q-27 0 -45 17t-18 46q0 39 27 65t63 26q68 0 68 -84q0 -118 -60 -203.5t-157 -112.5z" />
<glyph unicode="&#x3c;" horiz-adv-x="1163" d="M1055 -16l-903 495l16 78l1075 496l-12 -76l-995 -459l831 -463z" />
<glyph unicode="=" horiz-adv-x="1302" d="M289 723l10 65h981l-10 -65h-981zM217 319l10 68h983l-12 -68h-981z" />
<glyph unicode="&#x3e;" horiz-adv-x="1163" d="M104 -16l13 73l995 461l-833 463l14 72l901 -496l-14 -78z" />
<glyph unicode="?" horiz-adv-x="1026" d="M532 373q6 35 15 71q27 111 83.5 192t174.5 169l61 49q199 145 199 330q0 110 -76 173.5t-211 63.5q-183 0 -296 -106t-144 -297h-82q36 218 180 348.5t357 130.5q164 0 261 -78.5t97 -216.5q0 -68 -16.5 -124.5t-52 -105t-71.5 -84t-93 -81.5l-64 -51 q-102 -80 -151 -146.5t-76 -167.5q-11 -42 -15 -69h-80zM510 8q-26 0 -42.5 17.5t-16.5 42.5q0 32 25 55.5t56 23.5q26 0 43 -17t17 -42q0 -32 -25.5 -56t-56.5 -24z" />
<glyph unicode="@" horiz-adv-x="1660" d="M846 -254q-140 0 -258 40.5t-206.5 117t-138.5 196.5t-50 271q0 165 47 310.5t129 253.5t190.5 186.5t234.5 118.5t259 40q272 0 436 -159.5t164 -411.5q0 -129 -39 -238t-101.5 -178t-139.5 -107.5t-156 -38.5h-82l30 160q-55 -85 -128.5 -132.5t-192.5 -47.5 q-136 0 -209.5 88t-73.5 231q0 125 52 229.5t148.5 167t217.5 62.5q109 0 172.5 -53.5t79.5 -142.5l31 176h71l-119 -674h15q56 0 114 29.5t111 86t87 153t34 216.5q0 228 -144.5 371t-388.5 143q-155 0 -296 -61t-246 -168t-167.5 -261.5t-62.5 -332.5q0 -264 165 -416.5 t433 -152.5h480l-15 -72h-487zM856 193q106 0 187 55t122 142t41 188q0 112 -59.5 187t-173.5 75q-101 0 -180 -53.5t-119.5 -140t-40.5 -187.5q0 -118 57.5 -192t165.5 -74z" />
<glyph unicode="A" horiz-adv-x="1312" d="M1165 0l-98 504h-647l-279 -504h-86l815 1464h95l288 -1464h-88zM463 584h590l-152 784h-4z" />
<glyph unicode="B" horiz-adv-x="1341" d="M219 0l258 1464h516q162 0 260.5 -79t98.5 -226q0 -79 -23.5 -146t-63 -113.5t-84.5 -78t-96 -51.5v-2q201 -70 201 -291q0 -226 -153 -351.5t-396 -125.5h-518zM440 797h494q50 0 105.5 21t107.5 61.5t85.5 110t33.5 155.5q0 119 -76.5 179t-216.5 60h-428zM315 80h428 q95 0 176.5 23.5t144.5 69t99.5 118.5t36.5 166q0 262 -293 262h-479z" />
<glyph unicode="C" horiz-adv-x="1458" d="M813 -31q-166 0 -298 77.5t-209 224.5t-77 339q0 248 87.5 448t252 317.5t375.5 117.5q162 0 285.5 -68.5t191.5 -183.5t80 -262h-78q-26 208 -158 321t-335 113q-144 0 -263 -64.5t-195 -173.5t-117.5 -249.5t-41.5 -296.5q0 -261 141.5 -420.5t370.5 -159.5 q209 0 349 117.5t192 306.5h82q-63 -228 -227 -366t-408 -138z" />
<glyph unicode="D" horiz-adv-x="1466" d="M219 0l260 1464h393q124 0 234 -39t196.5 -113t137.5 -194t51 -270q0 -192 -61 -352t-167.5 -268t-251.5 -168t-311 -60h-481zM315 76h396q200 0 358.5 94t249 269t90.5 401q0 133 -44.5 239t-121 173t-175.5 102t-212 35h-307z" />
<glyph unicode="E" horiz-adv-x="1261" d="M219 0l258 1464h934l-14 -78h-852l-105 -589h768l-12 -78h-768l-113 -643h863l-15 -76h-944z" />
<glyph unicode="F" horiz-adv-x="1155" d="M219 0l258 1464h877l-15 -78h-794l-105 -593h713l-12 -78h-713l-127 -715h-82z" />
<glyph unicode="G" horiz-adv-x="1542" d="M831 -31q-185 0 -322.5 85.5t-208.5 234t-71 338.5q0 175 52.5 332t147.5 276t238 188.5t314 69.5q225 0 378.5 -132.5t192.5 -354.5h-82q-41 188 -172 297.5t-331 109.5q-148 0 -272 -61.5t-207 -167t-129 -247t-46 -300.5q0 -267 145 -427.5t386 -160.5q244 0 405 150 t213 415h-448l14 78h531q-47 -344 -240 -533.5t-488 -189.5z" />
<glyph unicode="H" horiz-adv-x="1509" d="M219 0l258 1464h82l-119 -665h906l118 665h84l-258 -1464h-84l127 721h-905l-127 -721h-82z" />
<glyph unicode="I" horiz-adv-x="520" d="M219 0l258 1464h82l-258 -1464h-82z" />
<glyph unicode="J" horiz-adv-x="1056" d="M481 -35q-348 0 -348 320q0 71 14 153h80q-10 -62 -10 -129q0 -136 62.5 -201t207.5 -65q149 0 236.5 93t126.5 313l178 1015h82l-180 -1040q-41 -231 -146 -345t-303 -114z" />
<glyph unicode="K" horiz-adv-x="1349" d="M219 0l260 1464h82l-151 -848l1036 848h115l-756 -620l538 -844h-100l-506 793l-346 -281l-90 -512h-82z" />
<glyph unicode="L" horiz-adv-x="1132" d="M219 0l258 1464h82l-244 -1384h791l-14 -80h-873z" />
<glyph unicode="M" horiz-adv-x="1763" d="M219 0l258 1464h80l440 -788l725 788h80l-258 -1464h-78l234 1331l-676 -733h-74l-413 739l-238 -1337h-80z" />
<glyph unicode="N" horiz-adv-x="1519" d="M219 0l258 1464h76l690 -1333l234 1333h82l-259 -1464h-77l-691 1331l-235 -1331h-78z" />
<glyph unicode="O" horiz-adv-x="1609" d="M862 -31q-144 0 -263.5 50t-199.5 137t-124 206t-44 256q0 180 54 340t151 278.5t240 187.5t311 69q144 0 264 -50.5t199.5 -138t123.5 -206t44 -254.5q0 -145 -33 -277t-98 -240.5t-155 -189t-211 -124.5t-259 -44zM868 49q157 0 285.5 63.5t210.5 172t126 249.5t44 300 q0 166 -65.5 296.5t-192.5 206.5t-297 76q-152 0 -279 -63.5t-210.5 -171.5t-129 -249t-45.5 -298q0 -168 65 -299t191.5 -207t296.5 -76z" />
<glyph unicode="P" horiz-adv-x="1273" d="M219 0l258 1462h561q177 0 269 -79.5t92 -227.5q0 -208 -139.5 -332.5t-358.5 -124.5h-477l-123 -698h-82zM438 778h486q79 0 149 24t123.5 68.5t85 114.5t31.5 156q0 117 -72 179t-211 62h-485z" />
<glyph unicode="Q" horiz-adv-x="1609" d="M862 -31h-35q-20 -119 16 -169t140 -50h160l-15 -76h-163q-145 0 -194.5 72.5t-22.5 230.5q-239 36 -378 212.5t-139 428.5q0 180 54 340t151 278.5t240 187.5t311 69q144 0 264 -50.5t199.5 -138t123.5 -206t44 -254.5q0 -145 -33 -277t-98 -240.5t-155 -189 t-211 -124.5t-259 -44zM315 631q0 -168 65 -299t191.5 -207t296.5 -76q157 0 285.5 63.5t210.5 172t126 249.5t44 300q0 166 -65.5 296.5t-192.5 206.5t-297 76q-152 0 -279 -63.5t-210.5 -171.5t-129 -249t-45.5 -298z" />
<glyph unicode="R" horiz-adv-x="1296" d="M1362 1155q0 -204 -129 -318.5t-340 -125.5l319 -711h-94l-313 709h-379l-125 -709h-82l258 1462h473q412 0 412 -307zM846 786q85 0 161 21.5t137.5 63.5t97.5 113t36 161q0 116 -83.5 177.5t-242.5 61.5h-407l-105 -598h406z" />
<glyph unicode="S" horiz-adv-x="1267" d="M686 -35q-244 0 -379 92.5t-135 280.5q0 56 12 121h80q-8 -70 -8 -101q0 -317 436 -317q207 0 328 87t121 259q0 50 -12.5 91t-39 73t-57 56t-78 45.5t-88.5 36t-102 32.5q-77 24 -129 43.5t-112 52t-95.5 68.5t-59.5 89t-24 118q0 133 69.5 226t186.5 136t274 43 q93 0 170.5 -19.5t140.5 -61t98.5 -113.5t35.5 -168q0 -39 -6 -86h-82q4 25 4 71q0 303 -369 303q-130 0 -226.5 -32.5t-155 -105t-58.5 -179.5q0 -39 10.5 -72t26 -58t45.5 -48t56 -39t72 -34.5t79 -30t90 -29.5q81 -26 137 -48t113.5 -55.5t92 -72t56 -93.5t21.5 -123 q0 -214 -145 -326t-394 -112z" />
<glyph unicode="T" horiz-adv-x="1136" d="M528 0l244 1389h-487l14 75h1055l-13 -75h-487l-244 -1389h-82z" />
<glyph unicode="U" horiz-adv-x="1443" d="M725 -35q-213 0 -328.5 107.5t-115.5 310.5q0 90 16 178l160 903h82l-158 -903q-16 -91 -16 -162q0 -168 94.5 -261t281.5 -93q224 0 350 129t171 387l159 903h82l-160 -903q-108 -596 -618 -596z" />
<glyph unicode="V" horiz-adv-x="1267" d="M592 0l-273 1462h82l205 -1093q5 -31 22 -125t25 -148q74 142 146 277l575 1089h84l-774 -1462h-92z" />
<glyph unicode="W" horiz-adv-x="1943" d="M477 0l-147 1464h90l88 -948q23 -221 39 -418q23 51 62 139t71 157.5t61 131.5l439 938h104l107 -938q39 -346 47 -430q41 97 186 428l418 940h84l-658 -1464h-100l-104 883q-4 36 -22.5 211t-27.5 276q-84 -202 -219 -489l-415 -881h-103z" />
<glyph unicode="X" horiz-adv-x="1216" d="M1415 1462l-620 -714l389 -748h-92l-361 690l-602 -690h-100l665 760l-368 702h92l336 -649l563 649h98z" />
<glyph unicode="Y" horiz-adv-x="1306" d="M612 0l107 610l-406 852h90l369 -774l639 774h94l-704 -854l-107 -608h-82z" />
<glyph unicode="Z" horiz-adv-x="1183" d="M57 0l17 86l927 1036q233 251 244 262h-899l14 78h994l-17 -86l-948 -1057q-22 -24 -68 -74.5t-82 -89t-75 -77.5h964l-16 -78h-1055z" />
<glyph unicode="[" horiz-adv-x="538" d="M129 -365l330 1862h268l-12 -70h-193l-303 -1722h191l-11 -70h-270z" />
<glyph unicode="\" horiz-adv-x="839" d="M688 -35l-350 1532h70l350 -1532h-70z" />
<glyph unicode="]" horiz-adv-x="538" d="M10 -365l13 70h190l305 1722h-192l14 70h268l-327 -1862h-271z" />
<glyph unicode="^" horiz-adv-x="1116" d="M176 492l590 907h76l270 -907h-70l-249 839l-547 -839h-70z" />
<glyph unicode="_" horiz-adv-x="972" d="M-37 -209l10 55h973l-10 -55h-973z" />
<glyph unicode="`" horiz-adv-x="346" d="M545 1174h-56l-178 294h95z" />
<glyph unicode="a" horiz-adv-x="1073" d="M436 -25q-130 0 -215.5 69.5t-85.5 197.5q0 282 385 348l291 47q77 11 108 47.5t31 138.5q0 94 -59 139.5t-191 45.5q-302 0 -354 -263h-76q27 154 138 244t301 90q319 0 319 -252q0 -47 -8 -94l-102 -586q-3 -12 -3 -24q0 -51 56 -51h45l-12 -72h-86q-39 0 -63 19 t-24 61q0 3 5 33l14 75q-68 -97 -176.5 -155t-237.5 -58zM455 49q152 0 276.5 93.5t147.5 230.5l43 237q-45 -35 -129 -47l-258 -41q-164 -27 -239 -93.5t-75 -178.5q0 -96 64 -148.5t170 -52.5z" />
<glyph unicode="b" horiz-adv-x="1189" d="M784 1079q186 0 292 -124.5t106 -315.5q0 -195 -65 -346.5t-182 -234.5t-267 -83q-142 0 -240 74t-131 213l-47 -262h-76l258 1468h78l-104 -600q69 101 165.5 156t212.5 55zM678 49q190 0 310 162t120 412q0 170 -88 275.5t-252 105.5q-130 0 -228.5 -78.5t-149 -210 t-50.5 -295.5q0 -173 92.5 -272t245.5 -99z" />
<glyph unicode="c" horiz-adv-x="1079" d="M592 -25q-187 0 -294.5 124.5t-107.5 340.5q0 176 64.5 321t185.5 231.5t277 86.5q166 0 268.5 -94.5t114.5 -253.5h-76q-25 133 -101.5 203t-222.5 70q-85 0 -157.5 -32.5t-122.5 -87t-85.5 -126t-52 -149.5t-16.5 -158q0 -192 83.5 -296t250.5 -104q137 0 234 67 t139 199h76q-49 -166 -169.5 -254t-287.5 -88z" />
<glyph unicode="d" horiz-adv-x="1189" d="M1194 1468h78l-258 -1468h-76l33 188q-143 -213 -381 -213q-185 0 -290 122t-105 319q0 189 63.5 340t180.5 237t266 86q144 0 241.5 -73.5t130.5 -210.5zM604 51q133 0 232.5 79.5t149.5 211t50 295.5q0 173 -90.5 270t-247.5 97q-124 0 -222.5 -74t-153 -204.5 t-54.5 -291.5q0 -174 88 -278.5t248 -104.5z" />
<glyph unicode="e" horiz-adv-x="1112" d="M711 1079q176 0 286.5 -120.5t110.5 -321.5q0 -80 -8 -123h-832q-2 -23 -2 -68q0 -199 90 -298t252 -99q132 0 225.5 69t137.5 189h78q-54 -155 -169 -243.5t-280 -88.5q-187 0 -299.5 121.5t-112.5 341.5q0 173 62 318t183 234t278 89zM279 584l753 -2q2 16 2 47 q0 169 -91.5 272t-242.5 103q-88 0 -161.5 -33.5t-125 -92.5t-85 -133t-49.5 -161z" />
<glyph unicode="f" horiz-adv-x="571" d="M227 0l172 981h-182l12 74h185l26 151q44 262 316 262h143l-12 -75h-150q-98 0 -150.5 -44.5t-70.5 -150.5l-27 -143h234l-14 -74h-232l-172 -981h-78z" />
<glyph unicode="g" horiz-adv-x="1189" d="M1126 1055h76l-188 -1063q-76 -420 -445 -420h-401l12 76h375q172 0 262 90.5t121 261.5l33 184q-143 -209 -379 -209q-185 0 -291 122.5t-106 318.5q0 189 63.5 340t180 237t266.5 86q144 0 242 -74.5t132 -211.5zM606 51q133 0 232 79.5t148.5 211t49.5 295.5 q0 170 -90.5 268.5t-247.5 98.5q-189 0 -309.5 -162t-120.5 -408q0 -174 89 -278.5t249 -104.5z" />
<glyph unicode="h" horiz-adv-x="1130" d="M174 0l258 1468h78l-107 -591q57 95 156.5 148.5t210.5 53.5q158 0 242 -80.5t84 -224.5q0 -38 -11 -110l-116 -664h-78l113 645q10 58 10 96q0 126 -65 195.5t-195 69.5q-145 0 -249.5 -91.5t-133.5 -246.5l-119 -668h-78z" />
<glyph unicode="i" horiz-adv-x="428" d="M449 1292q-29 0 -48.5 19.5t-19.5 50.5q0 34 22.5 57t57.5 23q29 0 48 -19.5t19 -50.5q0 -33 -21.5 -56.5t-57.5 -23.5zM174 0l186 1055h78l-186 -1055h-78z" />
<glyph unicode="j" horiz-adv-x="444" d="M463 1292q-29 0 -48.5 19.5t-19.5 50.5q0 34 22.5 57t57.5 23q29 0 48.5 -19.5t19.5 -50.5q0 -33 -22 -56.5t-58 -23.5zM-135 -428l14 76h107q79 0 116.5 29.5t53.5 121.5l221 1256h78l-224 -1272q-22 -120 -83 -165.5t-166 -45.5h-117z" />
<glyph unicode="k" horiz-adv-x="997" d="M1124 1055l-532 -443l395 -612h-90l-367 561l-211 -176l-67 -385h-78l258 1468h78l-174 -976l678 563h110z" />
<glyph unicode="l" horiz-adv-x="452" d="M317 0q-145 0 -122 141l233 1327h80l-234 -1316q-15 -82 70 -82h57l-12 -70h-72z" />
<glyph unicode="m" horiz-adv-x="1693" d="M174 0l186 1055h78l-30 -160q53 84 139.5 134t185.5 50q126 0 195.5 -60.5t83.5 -172.5q61 116 158.5 174.5t199.5 58.5q170 0 241.5 -109.5t37.5 -299.5l-117 -670h-78l115 653q30 163 -26 258t-193 95q-125 0 -220 -98t-122 -249l-115 -659h-78l115 653 q28 162 -28.5 257.5t-192.5 95.5q-124 0 -217 -89.5t-117 -224.5l-123 -692h-78z" />
<glyph unicode="n" horiz-adv-x="1130" d="M174 0l186 1055h78l-41 -221q59 116 159.5 180.5t215.5 64.5q158 0 240 -81.5t82 -225.5q0 -46 -11 -121l-114 -651h-78l110 637q13 85 13 106q0 125 -65.5 194t-192.5 69q-144 0 -255 -109.5t-139 -271.5l-110 -625h-78z" />
<glyph unicode="o" horiz-adv-x="1159" d="M621 -25q-205 0 -316.5 125.5t-111.5 327.5q0 183 67 331.5t189 234t276 85.5q203 0 314.5 -125.5t113.5 -326.5q2 -188 -66.5 -337t-190.5 -232t-275 -83zM629 47q130 0 232.5 75t158 204.5t55.5 289.5q0 175 -93.5 282.5t-262.5 107.5q-134 0 -236.5 -76.5t-156.5 -205 t-54 -286.5q0 -177 92.5 -284t264.5 -107z" />
<glyph unicode="p" horiz-adv-x="1189" d="M784 1079q186 0 292 -124.5t106 -315.5q0 -195 -65 -346.5t-182 -234.5t-267 -83q-140 0 -237 72.5t-132 208.5l-121 -682h-78l260 1481h78l-35 -189q69 102 166 157.5t215 55.5zM678 49q190 0 310 162t120 412q0 170 -88 275.5t-252 105.5q-130 0 -228.5 -78.5 t-149 -210t-50.5 -295.5q0 -173 92.5 -272t245.5 -99z" />
<glyph unicode="q" horiz-adv-x="1189" d="M969 -281q0 -42 21.5 -56.5t62.5 -14.5h80l-13 -76h-96q-139 0 -139 115q0 23 6 47l80 454q-66 -101 -163.5 -157t-217.5 -56q-185 0 -290 122t-105 319q0 190 63.5 341t180 236.5t266.5 85.5q144 0 242.5 -75t131.5 -213l45 264h76l-227 -1295q-4 -32 -4 -41zM604 51 q133 0 232.5 78.5t149.5 209.5t50 296q0 172 -91.5 270.5t-248.5 98.5q-188 0 -308 -161t-120 -411q0 -173 88.5 -277t247.5 -104z" />
<glyph unicode="r" horiz-adv-x="667" d="M174 0l186 1055h76l-33 -187q47 85 134 140t208 55h86l-14 -76h-90q-62 0 -117 -19.5t-106 -61t-88.5 -116.5t-55.5 -176l-108 -614h-78z" />
<glyph unicode="s" horiz-adv-x="978" d="M496 -25q-170 0 -262.5 66.5t-92.5 200.5q0 30 6 67h76q-4 -18 -4 -49q0 -104 75.5 -158.5t213.5 -54.5q148 0 242 60t94 184q0 68 -43 114t-139 76l-156 49q-53 18 -89.5 35.5t-72.5 45.5t-54 68.5t-18 92.5q0 143 103.5 225t290.5 82q156 0 244.5 -62.5t88.5 -191.5 q0 -22 -8 -80h-76q5 57 5 60q0 201 -267 201q-85 0 -146 -19t-93 -52.5t-46 -70t-14 -78.5q0 -73 42.5 -112t142.5 -72l153 -49q121 -40 177.5 -98.5t56.5 -145.5q0 -88 -35.5 -154t-96.5 -104.5t-136 -57t-162 -18.5z" />
<glyph unicode="t" horiz-adv-x="636" d="M428 0q-89 0 -128.5 42t-20.5 146l137 793h-203l14 74h203l55 321h78l-55 -321h274l-12 -74h-276l-138 -776q-5 -27 -5 -47.5t3.5 -34.5t13.5 -23.5t19.5 -15t27.5 -8.5t33 -3.5t39 -0.5h129l-12 -72h-176z" />
<glyph unicode="u" horiz-adv-x="1126" d="M520 -25q-165 0 -245 102.5t-48 289.5l123 688h78l-121 -678q-29 -166 38.5 -246t199.5 -80q162 0 265.5 92.5t131.5 255.5l117 656h78l-187 -1055h-76l27 160q-53 -84 -152.5 -134.5t-228.5 -50.5z" />
<glyph unicode="v" horiz-adv-x="1011" d="M469 0l-236 1055h86l191 -883l16 -96h4l43 96l476 883h86l-576 -1055h-90z" />
<glyph unicode="w" horiz-adv-x="1509" d="M369 0l-117 1055h80l100 -975l461 975h96l113 -975l450 975h80l-497 -1055h-93l-65 539l-51 422h-4l-201 -424l-256 -537h-96z" />
<glyph unicode="x" horiz-adv-x="960" d="M39 0l491 547l-268 508h90l236 -453l391 453h92l-450 -512l299 -543h-91l-264 487l-434 -487h-92z" />
<glyph unicode="y" horiz-adv-x="997" d="M49 -428l12 76h154q51 0 90.5 24t81.5 90q39 58 52.5 86t13.5 60q0 14 -13 98l-190 1049h88l94 -588l84 -471l526 1059h84l-657 -1293q-51 -102 -114.5 -146t-151.5 -44h-154z" />
<glyph unicode="z" horiz-adv-x="970" d="M68 0l12 76l868 907h-690l12 72h785l-17 -78l-868 -907h750l-15 -70h-837z" />
<glyph unicode="{" horiz-adv-x="593" d="M338 -365q-85 0 -115 58t-10 178l61 342q22 120 0.5 199t-94.5 129l8 61q67 10 128 104t81 216l64 344q20 119 70.5 175t134.5 56h125l-13 -70h-100q-63 0 -95.5 -45t-52.5 -161l-59 -334q-17 -103 -74 -197t-139 -123q62 -29 91 -116t9 -203l-57 -332 q-22 -123 -5.5 -167t79.5 -44h100l-12 -70h-125z" />
<glyph unicode="|" horiz-adv-x="454" d="M115 -438l362 2048h68l-363 -2048h-67z" />
<glyph unicode="}" horiz-adv-x="593" d="M457 1497q85 0 116 -57t9 -178l-62 -342q-22 -119 -0.5 -198.5t94.5 -129.5l-8 -62q-67 -10 -128 -103t-81 -216l-63 -344q-20 -120 -70 -176t-135 -56h-125l12 70h101q63 0 95 46t52 163l60 332q17 103 74 196.5t139 122.5q-62 29 -91.5 117t-9.5 203l58 332 q22 123 5.5 166.5t-79.5 43.5h-101l13 70h125z" />
<glyph unicode="~" horiz-adv-x="1216" d="M274 426l-38 39q123 176 270 178q55 0 112 -21.5t98 -48t96.5 -48t107.5 -21.5q60 0 110 39t100 110l39 -39q-125 -178 -260 -178q-51 0 -97 14.5t-81.5 35t-71 40.5t-80 34.5t-92.5 14.5q-111 0 -213 -149z" />
<glyph unicode="&#xa1;" horiz-adv-x="438" d="M412 1081q29 0 46 -17.5t17 -45.5q0 -38 -27.5 -64t-64.5 -26q-28 0 -46 18.5t-18 46.5q0 37 27.5 62.5t65.5 25.5zM369 705l-62 -429l-119 -665h-77l116 665l90 429h52z" />
<glyph unicode="&#xa2;" horiz-adv-x="1116" d="M510 -242l39 217q-167 17 -260.5 139.5t-93.5 319.5q0 180 66.5 324.5t192 230.5t289.5 90l31 176h51l-32 -178q152 -13 239.5 -104.5t93.5 -241.5h-75q-38 245 -271 270l-166 -950q146 2 244 69.5t139 196.5h78q-52 -165 -175 -252t-300 -90l-39 -217h-51zM563 53 l166 951q-140 -4 -245.5 -81.5t-158.5 -202t-53 -276.5q0 -172 73 -274t218 -117z" />
<glyph unicode="&#xa3;" horiz-adv-x="1288" d="M989 1456q191 0 277 -100.5t53 -292.5h-78q20 158 -44.5 237.5t-219.5 79.5q-75 0 -141.5 -21.5t-122 -65t-87.5 -118.5t-32 -174q0 -77 39 -245h338l-15 -70h-309q29 -134 29 -219q0 -105 -31 -213q120 -88 174 -117q118 -63 238 -63h155l-14 -74h-162q-66 0 -125.5 14 t-115.5 44t-92 54t-89 64q-97 -192 -297 -192q-92 0 -146 51t-54 129q0 100 67.5 160.5t169.5 60.5q101 0 226 -84q16 75 16 156q0 77 -35 229h-299l14 70h269q-35 156 -35 235q0 108 32 192.5t80.5 134.5t115 82.5t127.5 44t124 11.5zM328 53q77 0 135.5 44t91.5 124 q-65 46 -113 69t-100 23q-68 0 -111 -40t-43 -101q0 -53 37 -86t103 -33z" />
<glyph unicode="&#xa4;" horiz-adv-x="1335" d="M770 176q-198 0 -338 131l-117 -119l-41 43l117 117q-132 144 -129 336q3 202 129 336l-117 119l41 41l117 -117q141 129 338 129q199 0 334 -129l119 117l43 -43l-117 -115q129 -138 129 -338q0 -194 -129 -338l115 -115l-41 -41l-117 117q-140 -131 -336 -131zM770 244 q182 0 308 129.5t126 310.5t-126 310.5t-308 129.5t-309 -129.5t-127 -310.5t127 -310.5t309 -129.5z" />
<glyph unicode="&#xa5;" horiz-adv-x="1243" d="M578 0l100 559h-369l10 62h363l-111 258h-272l12 61h236l-221 522h100l315 -770l598 770h99l-410 -522h227l-12 -61h-264l-201 -258h359l-11 -62h-366l-98 -559h-84z" />
<glyph unicode="&#xa6;" horiz-adv-x="442" d="M334 842l92 512h68l-93 -512h-67zM154 -182l90 512h67l-90 -512h-67z" />
<glyph unicode="&#xa7;" horiz-adv-x="1024" d="M1065 1102h-84q26 150 -37 220.5t-190 70.5q-132 0 -218.5 -63t-86.5 -181q0 -26 6 -48t24 -46t34 -41.5t55 -47t66.5 -48.5t86.5 -60q96 -65 149 -111t87 -104.5t34 -124.5q0 -64 -24.5 -120t-66.5 -96.5t-84 -68t-91 -49.5q64 -47 97.5 -101.5t33.5 -139.5 q0 -79 -32 -142t-86.5 -102t-123 -59.5t-143.5 -20.5q-81 0 -144 19.5t-111 61t-67 115t-6 173.5h84q-37 -291 262 -291q122 0 202.5 61.5t80.5 165.5q0 23 -3 42t-14 39.5t-19 34.5t-30.5 35t-35.5 33.5t-48 38t-54 38.5t-66 46q-76 52 -121 86.5t-86 77.5t-58.5 86 t-17.5 94q0 64 24.5 120.5t66.5 97.5t85 69.5t92 48.5q-122 93 -122 222q0 68 23 124.5t62 95t91.5 65.5t110.5 39.5t120 12.5q73 0 130.5 -18.5t103.5 -62t60 -113.5t-1 -174zM772 709q-84 63 -225 159q-102 -37 -172 -105t-70 -161q0 -115 152 -227q101 -74 209 -150 q44 18 83 41.5t76 56.5t58.5 78t21.5 95q0 116 -133 213z" />
<glyph unicode="&#xa8;" horiz-adv-x="495" d="M319 1292q-25 0 -41 16.5t-16 43.5q0 34 20 53.5t50 19.5q26 0 42.5 -16.5t16.5 -42.5q0 -34 -20 -54t-52 -20zM641 1292q-25 0 -41 16.5t-16 43.5q0 34 19.5 53.5t49.5 19.5q26 0 43 -16.5t17 -42.5q0 -34 -20 -54t-52 -20z" />
<glyph unicode="&#xa9;" horiz-adv-x="1767" d="M936 -35q-206 0 -367 86.5t-249.5 239t-88.5 344.5q0 159 46.5 298.5t127 241t188 175.5t231 110.5t253.5 36.5q205 0 365.5 -86.5t249 -239t88.5 -344.5q0 -159 -45 -297.5t-125 -241t-186 -176t-230.5 -110.5t-257.5 -37zM948 29q152 0 288.5 54t241.5 152.5 t166.5 249.5t61.5 332q0 132 -46.5 246t-130 195.5t-203.5 128.5t-261 47q-118 0 -230 -34t-208 -101.5t-168.5 -161.5t-114 -222t-41.5 -274q0 -176 79.5 -315t227 -218t338.5 -79zM954 260q-181 0 -284 115t-103 297q0 144 59 262.5t172 190t259 71.5q158 0 255 -83.5 t97 -227.5h-63q-4 117 -87 182.5t-210 65.5q-126 0 -221.5 -62t-144 -164t-48.5 -225q0 -156 88 -257t244 -101q127 0 216 67t124 191h63q-39 -147 -149 -234.5t-267 -87.5z" />
<glyph unicode="&#xaa;" horiz-adv-x="819" d="M473 774q-91 0 -144 41t-53 123q0 181 263 221l159 25q53 9 70.5 30t17.5 76q0 115 -157 115q-190 0 -213 -154h-60q12 94 85 150.5t198 56.5q104 0 156.5 -38t52.5 -124q0 -29 -6 -59l-51 -287q-13 -70 -13 -84q0 -24 37 -24h31l-10 -51h-62q-28 0 -44 12t-15 39 q0 14 10 65h-2q-39 -61 -104.5 -97t-145.5 -36zM487 825q90 0 167 58t94 147l22 127q-22 -13 -84 -27l-139 -16q-209 -25 -209 -164q0 -60 38 -92.5t111 -32.5z" />
<glyph unicode="&#xab;" horiz-adv-x="710" d="M375 256l-170 260l12 70l260 258l-16 -92l-193 -201l121 -203zM592 256l-168 260l12 70l260 258l-16 -92l-193 -201l121 -203z" />
<glyph unicode="&#xac;" horiz-adv-x="1304" d="M1110 193l86 491h-913l12 68h981l-98 -559h-68z" />
<glyph unicode="&#xad;" horiz-adv-x="686" d="M242 514l12 72h383l-12 -72h-383z" />
<glyph unicode="&#xae;" horiz-adv-x="1767" d="M936 -35q-206 0 -367 86.5t-249.5 239t-88.5 344.5q0 159 46.5 298.5t127 241t188 175.5t231 110.5t253.5 36.5q205 0 365.5 -86.5t249 -239t88.5 -344.5q0 -159 -45 -297.5t-125 -241t-186 -176t-230.5 -110.5t-257.5 -37zM948 29q152 0 288.5 54t241.5 152.5 t166.5 249.5t61.5 332q0 132 -46.5 246t-130 195.5t-203.5 128.5t-261 47q-118 0 -230 -34t-208 -101.5t-168.5 -161.5t-114 -222t-41.5 -274q0 -176 79.5 -315t227 -218t338.5 -79zM655 309l156 877h297q129 0 194.5 -49.5t65.5 -145.5q0 -86 -40.5 -147.5t-100 -91 t-133.5 -35.5l192 -408h-78l-180 402h-237l-70 -402h-66zM801 766h200q45 0 81.5 3.5t79 16.5t71 35.5t48 63.5t19.5 96q0 83 -57 115t-153 32h-226z" />
<glyph unicode="&#xaf;" horiz-adv-x="538" d="M250 1305l10 57h498l-10 -57h-498z" />
<glyph unicode="&#xb0;" horiz-adv-x="786" d="M561 831q-114 0 -184 71t-70 183q0 154 94.5 246t223.5 92q112 0 182 -73t70 -181q0 -155 -93 -246.5t-223 -91.5zM569 885q103 0 178.5 73.5t75.5 202.5q0 90 -56.5 149.5t-152.5 59.5q-98 0 -175 -74.5t-77 -199.5q0 -93 58 -152t149 -59z" />
<glyph unicode="&#xb1;" horiz-adv-x="1284" d="M645 199l68 385h-459l12 67h457l68 385h65l-68 -385h459l-10 -67h-459l-67 -385h-66zM152 0l12 68h981l-12 -68h-981z" />
<glyph unicode="&#xb2;" horiz-adv-x="911" d="M240 565q8 47 29.5 87.5t49.5 71.5t70.5 63.5t84 58t98.5 59.5q17 10 26 15q163 94 207 130q69 56 78 127q2 13 2 29q0 154 -197 154q-236 0 -268 -236h-70q46 301 348 301q121 0 190.5 -50t69.5 -152q0 -57 -14 -98t-55 -82.5t-97 -78.5t-157 -94q-127 -70 -205.5 -129 t-95.5 -112h540l-10 -64h-624z" />
<glyph unicode="&#xb3;" horiz-adv-x="892" d="M559 551q-161 0 -240 79.5t-49 223.5h68q-26 -117 36 -178.5t191 -61.5q128 0 204.5 58t76.5 164q0 80 -59.5 115.5t-155.5 35.5h-51l8 60h82q90 0 155.5 46.5t65.5 129.5q0 139 -203 139q-118 0 -185 -50.5t-87 -164.5h-66q18 136 110.5 207t239.5 71q116 0 188.5 -46.5 t72.5 -147.5q0 -62 -32.5 -110t-79 -72t-99.5 -29q75 -9 120 -57t45 -123q0 -133 -99 -211t-257 -78z" />
<glyph unicode="&#xb4;" horiz-adv-x="346" d="M268 1174l228 294h98l-268 -294h-58z" />
<glyph unicode="&#xb5;" horiz-adv-x="1198" d="M127 -365l252 1420h76l-121 -678q-29 -165 43.5 -245.5t208.5 -80.5q168 0 281 118.5t143 289.5l104 596h80l-186 -1055h-78l39 221q-53 -111 -162 -178.5t-240 -67.5q-106 0 -176 42t-98 120l-88 -502h-78z" />
<glyph unicode="&#xb6;" horiz-adv-x="1157" d="M195 -328l14 72h76q110 0 156 43.5t69 171.5l127 721q-183 0 -285 91.5t-102 236.5q0 205 139.5 329.5t374.5 124.5h539l-13 -69h-104l-297 -1682h-72l297 1682h-278l-256 -1446q-28 -157 -99.5 -216t-208.5 -59h-77z" />
<glyph unicode="&#xb7;" horiz-adv-x="460" d="M336 600q-29 0 -47.5 19.5t-18.5 48.5q0 39 29 66.5t68 27.5q28 0 46.5 -19.5t18.5 -48.5q0 -39 -28.5 -66.5t-67.5 -27.5z" />
<glyph unicode="&#xb8;" horiz-adv-x="419" d="M168 -383q-119 0 -184 59l32 45q57 -49 152 -49q67 0 108 30t41 87q0 68 -88 68q-70 0 -116 -25l-29 31l141 137h56l-107 -104l2 -2q34 12 80 12q60 0 97.5 -29t37.5 -82q0 -84 -64.5 -131t-158.5 -47z" />
<glyph unicode="&#xb9;" horiz-adv-x="552" d="M418 565l133 750q-45 -39 -114.5 -71.5t-147.5 -49.5l10 57q86 20 148.5 56.5t123.5 101.5h66l-150 -844h-69z" />
<glyph unicode="&#xba;" horiz-adv-x="851" d="M575 780q-135 0 -208.5 78t-73.5 201q0 173 104.5 290t264.5 117q136 0 210 -77.5t74 -200.5q0 -175 -104.5 -291.5t-266.5 -116.5zM586 842q129 0 212 97t83 243q0 99 -59.5 162t-166.5 63q-131 0 -214 -98t-83 -244q0 -101 58 -162t170 -61z" />
<glyph unicode="&#xbb;" horiz-adv-x="716" d="M209 256l14 92l193 203l-121 201l16 92l168 -258l-12 -70zM434 256l17 92l192 203l-121 201l17 92l168 -258l-13 -70z" />
<glyph unicode="&#xbc;" horiz-adv-x="1482" d="M176 -66l1178 1530h69l-1175 -1530h-72zM412 565l131 746q-44 -34 -114 -66.5t-146 -50.5l8 57q90 20 150.5 55.5t121.5 102.5h68l-150 -844h-69zM1190 0l37 201h-449l13 71l540 572h78l-102 -582h151l-10 -61h-154l-34 -201h-70zM860 262h377l86 490h-2z" />
<glyph unicode="&#xbd;" horiz-adv-x="1642" d="M195 -66l1177 1530h72l-1178 -1530h-71zM410 565l133 752q-42 -37 -113 -71t-149 -52l10 57q89 20 149 55.5t123 102.5h66l-150 -844h-69zM928 0q7 39 21.5 73t41.5 64.5t50.5 53t67 51.5t72 45.5t83.5 48.5q9 5 14 8q164 95 208 130q77 61 87 133q2 15 2 32 q0 77 -51.5 115.5t-143.5 38.5q-231 0 -272 -236h-70q55 301 359 301q114 0 182 -50.5t68 -152.5q0 -48 -11 -84t-31 -67t-64.5 -64.5t-95 -65t-138.5 -79.5q-256 -146 -283 -234h539l-11 -61h-624z" />
<glyph unicode="&#xbe;" horiz-adv-x="1687" d="M403 -66l1178 1530h72l-1178 -1530h-72zM528 551q-161 0 -239.5 79.5t-46.5 223.5h67q-26 -117 36 -178.5t192 -61.5q126 0 202 58t76 164q0 151 -215 151h-51l10 60h82q90 0 154.5 46.5t64.5 129.5q0 139 -203 139q-117 0 -183.5 -50.5t-86.5 -164.5h-68q20 136 113 207 t240 71q114 0 186 -46.5t72 -147.5q0 -92 -63 -147.5t-148 -63.5q75 -9 120.5 -57t45.5 -123q0 -133 -99.5 -211t-257.5 -78zM1399 0l35 201h-447l10 71l541 572h78l-100 -582h149l-10 -61h-152l-37 -201h-67zM1069 262h377l86 486l-4 -3z" />
<glyph unicode="&#xbf;" horiz-adv-x="1007" d="M700 1094q26 0 43 -17.5t17 -42.5q0 -32 -25.5 -56t-56.5 -24q-26 0 -43 17.5t-17 42.5q0 32 25.5 56t56.5 24zM678 729q-8 -47 -14 -72q-27 -111 -83.5 -191.5t-174.5 -168.5l-62 -49q-199 -145 -199 -330q0 -110 76 -173.5t211 -63.5q183 0 296 106t144 297h82 q-36 -218 -179.5 -348.5t-356.5 -130.5q-164 0 -261.5 78.5t-97.5 216.5q0 68 17 124.5t52.5 105t71.5 84t93 81.5l63 51q102 80 151.5 146.5t76.5 166.5q8 32 14 70h80z" />
<glyph unicode="&#xc0;" horiz-adv-x="1312" d="M985 1589h-61l-195 264h100zM1165 0l-98 504h-647l-279 -504h-86l815 1464h95l288 -1464h-88zM463 584h590l-152 784h-4z" />
<glyph unicode="&#xc1;" horiz-adv-x="1312" d="M1200 1853l-289 -264h-63l250 264h102zM1165 0l-98 504h-647l-279 -504h-86l815 1464h95l288 -1464h-88zM463 584h590l-152 784h-4z" />
<glyph unicode="&#xc2;" horiz-adv-x="1312" d="M965 1792l-217 -203h-70l264 264h66l176 -264h-66zM1165 0l-98 504h-647l-279 -504h-86l815 1464h95l288 -1464h-88zM463 584h590l-152 784h-4z" />
<glyph unicode="&#xc3;" horiz-adv-x="1312" d="M834 1743q-40 0 -68.5 -31.5t-36.5 -73.5h-63q15 73 63 121.5t111 48.5q42 0 83.5 -25.5t79.5 -51t72 -25.5q76 0 107 98h63q-44 -164 -174 -164q-44 0 -84.5 26t-78 51.5t-74.5 25.5zM1165 0l-98 504h-647l-279 -504h-86l815 1464h95l288 -1464h-88zM463 584h590 l-152 784h-4z" />
<glyph unicode="&#xc4;" horiz-adv-x="1312" d="M772 1649q-29 0 -49.5 20t-20.5 49q0 27 20.5 46.5t49.5 19.5q27 0 46.5 -19.5t19.5 -46.5q0 -29 -19 -49t-47 -20zM1141 1649q-28 0 -48 20t-20 49q0 26 20 46t48 20q29 0 48 -19.5t19 -46.5q0 -29 -19 -49t-48 -20zM1165 0l-98 504h-647l-279 -504h-86l815 1464h95 l288 -1464h-88zM463 584h590l-152 784h-4z" />
<glyph unicode="&#xc5;" horiz-adv-x="1312" d="M936 1540q-75 0 -123 47.5t-47 122.5q2 81 59.5 138t143.5 57q76 0 124.5 -49t45.5 -123q-2 -81 -59.5 -137t-143.5 -56zM823 1714q-2 -55 31.5 -89t89.5 -34q59 0 96 40t39 98q0 55 -31.5 88.5t-86.5 33.5q-59 0 -97.5 -39.5t-40.5 -97.5zM1165 0l-98 504h-647 l-279 -504h-86l815 1464h95l288 -1464h-88zM463 584h590l-152 784h-4z" />
<glyph unicode="&#xc6;" horiz-adv-x="1779" d="M1911 1389h-744l-104 -592h684l-10 -72h-684l-115 -651h745l-12 -74h-829l94 537h-473l-387 -537h-88l1059 1462h876zM948 608l139 783h-10l-563 -783h434z" />
<glyph unicode="&#xc7;" horiz-adv-x="1458" d="M825 49q209 0 349 117.5t192 306.5h82q-59 -218 -213.5 -355t-382.5 -149l-76 -73l2 -2q34 12 80 12q60 0 97.5 -29t37.5 -82q0 -84 -64.5 -131t-158.5 -47q-119 0 -184 59l32 45q57 -49 152 -49q67 0 108.5 30t41.5 87q0 68 -89 68q-70 0 -116 -25l-29 31l111 106 q-162 4 -290.5 82.5t-203 224t-74.5 334.5q0 248 87.5 448t252 317.5t375.5 117.5q162 0 285.5 -68.5t191.5 -183.5t80 -262h-78q-26 208 -158 321t-335 113q-144 0 -263 -64.5t-195 -173.5t-117.5 -249.5t-41.5 -296.5q0 -261 141.5 -420.5t370.5 -159.5z" />
<glyph unicode="&#xc8;" horiz-adv-x="1261" d="M1006 1589l-195 264h100l156 -264h-61zM219 0l258 1464h934l-14 -78h-852l-105 -589h768l-12 -78h-768l-113 -643h863l-15 -76h-944z" />
<glyph unicode="&#xc9;" horiz-adv-x="1261" d="M870 1589l250 264h103l-289 -264h-64zM219 0l258 1464h934l-14 -78h-852l-105 -589h768l-12 -78h-768l-113 -643h863l-15 -76h-944z" />
<glyph unicode="&#xca;" horiz-adv-x="1261" d="M727 1589l264 264h66l176 -264h-66l-153 203l-217 -203h-70zM219 0l258 1464h934l-14 -78h-852l-105 -589h768l-12 -78h-768l-113 -643h863l-15 -76h-944z" />
<glyph unicode="&#xcb;" horiz-adv-x="1261" d="M821 1649q-29 0 -49 20t-20 49q0 27 20 46.5t49 19.5q27 0 46.5 -19.5t19.5 -46.5q0 -29 -19 -49t-47 -20zM1190 1649q-28 0 -48 20t-20 49q0 26 20 46t48 20q29 0 48 -19.5t19 -46.5q0 -29 -19 -49t-48 -20zM219 0l258 1464h934l-14 -78h-852l-105 -589h768l-12 -78 h-768l-113 -643h863l-15 -76h-944z" />
<glyph unicode="&#xcc;" horiz-adv-x="520" d="M516 1589l-194 264h100l156 -264h-62zM219 0l258 1464h82l-258 -1464h-82z" />
<glyph unicode="&#xcd;" horiz-adv-x="520" d="M471 1589l250 264h102l-288 -264h-64zM219 0l258 1464h82l-258 -1464h-82z" />
<glyph unicode="&#xce;" horiz-adv-x="520" d="M283 1589l264 264h65l176 -264h-65l-154 203l-217 -203h-69zM219 0l258 1464h82l-258 -1464h-82z" />
<glyph unicode="&#xcf;" horiz-adv-x="520" d="M369 1649q-29 0 -49.5 20t-20.5 49q0 27 20.5 46.5t49.5 19.5q27 0 46 -19.5t19 -46.5q0 -29 -18.5 -49t-46.5 -20zM737 1649q-28 0 -47.5 20t-19.5 49q0 26 20 46t47 20q29 0 48.5 -19.5t19.5 -46.5q0 -29 -19.5 -49t-48.5 -20zM219 0l258 1464h82l-258 -1464h-82z" />
<glyph unicode="&#xd0;" horiz-adv-x="1466" d="M872 1464q124 0 234 -39t196.5 -113t137.5 -194t51 -270q0 -192 -61 -352t-167.5 -268t-251.5 -168t-311 -60h-481l123 686h-227l14 68h223l127 710h393zM711 76q200 0 358.5 94t249 269t90.5 401q0 133 -44.5 239t-121 173t-175.5 102t-212 35h-307l-113 -635h254 l-12 -68h-254l-109 -610h396z" />
<glyph unicode="&#xd1;" horiz-adv-x="1519" d="M766 1638q15 73 63 121.5t111 48.5q42 0 84 -25.5t80 -51t72 -25.5q75 0 106 98h64q-44 -164 -175 -164q-44 0 -84.5 26t-78 51.5t-74.5 25.5q-40 0 -68.5 -31.5t-36.5 -73.5h-63zM219 0l258 1464h76l690 -1333l234 1333h82l-259 -1464h-77l-691 1331l-235 -1331h-78z " />
<glyph unicode="&#xd2;" horiz-adv-x="1609" d="M1051 1589l-195 264h100l156 -264h-61zM862 -31q-144 0 -263.5 50t-199.5 137t-124 206t-44 256q0 180 54 340t151 278.5t240 187.5t311 69q144 0 264 -50.5t199.5 -138t123.5 -206t44 -254.5q0 -145 -33 -277t-98 -240.5t-155 -189t-211 -124.5t-259 -44zM868 49 q157 0 285.5 63.5t210.5 172t126 249.5t44 300q0 166 -65.5 296.5t-192.5 206.5t-297 76q-152 0 -279 -63.5t-210.5 -171.5t-129 -249t-45.5 -298q0 -168 65 -299t191.5 -207t296.5 -76z" />
<glyph unicode="&#xd3;" horiz-adv-x="1609" d="M954 1589l250 264h103l-289 -264h-64zM862 -31q-144 0 -263.5 50t-199.5 137t-124 206t-44 256q0 180 54 340t151 278.5t240 187.5t311 69q144 0 264 -50.5t199.5 -138t123.5 -206t44 -254.5q0 -145 -33 -277t-98 -240.5t-155 -189t-211 -124.5t-259 -44zM868 49 q157 0 285.5 63.5t210.5 172t126 249.5t44 300q0 166 -65.5 296.5t-192.5 206.5t-297 76q-152 0 -279 -63.5t-210.5 -171.5t-129 -249t-45.5 -298q0 -168 65 -299t191.5 -207t296.5 -76z" />
<glyph unicode="&#xd4;" horiz-adv-x="1609" d="M733 1589l264 264h66l176 -264h-65l-154 203l-217 -203h-70zM862 -31q-144 0 -263.5 50t-199.5 137t-124 206t-44 256q0 180 54 340t151 278.5t240 187.5t311 69q144 0 264 -50.5t199.5 -138t123.5 -206t44 -254.5q0 -145 -33 -277t-98 -240.5t-155 -189t-211 -124.5 t-259 -44zM868 49q157 0 285.5 63.5t210.5 172t126 249.5t44 300q0 166 -65.5 296.5t-192.5 206.5t-297 76q-152 0 -279 -63.5t-210.5 -171.5t-129 -249t-45.5 -298q0 -168 65 -299t191.5 -207t296.5 -76z" />
<glyph unicode="&#xd5;" horiz-adv-x="1609" d="M772 1638q15 73 63 121.5t111 48.5q42 0 84 -25.5t80 -51t72 -25.5q75 0 106 98h64q-44 -164 -174 -164q-35 0 -68.5 16t-56 35.5t-53 35.5t-60.5 16q-40 0 -68 -31.5t-36 -73.5h-64zM862 -31q-144 0 -263.5 50t-199.5 137t-124 206t-44 256q0 180 54 340t151 278.5 t240 187.5t311 69q144 0 264 -50.5t199.5 -138t123.5 -206t44 -254.5q0 -145 -33 -277t-98 -240.5t-155 -189t-211 -124.5t-259 -44zM868 49q157 0 285.5 63.5t210.5 172t126 249.5t44 300q0 166 -65.5 296.5t-192.5 206.5t-297 76q-152 0 -279 -63.5t-210.5 -171.5 t-129 -249t-45.5 -298q0 -168 65 -299t191.5 -207t296.5 -76z" />
<glyph unicode="&#xd6;" horiz-adv-x="1609" d="M872 1649q-29 0 -49 20t-20 49q0 27 20 46.5t49 19.5q27 0 46.5 -19.5t19.5 -46.5q0 -29 -19 -49t-47 -20zM1241 1649q-28 0 -47.5 20t-19.5 49q0 26 20 46t47 20q29 0 48.5 -19.5t19.5 -46.5q0 -29 -19.5 -49t-48.5 -20zM862 -31q-144 0 -263.5 50t-199.5 137t-124 206 t-44 256q0 180 54 340t151 278.5t240 187.5t311 69q144 0 264 -50.5t199.5 -138t123.5 -206t44 -254.5q0 -145 -33 -277t-98 -240.5t-155 -189t-211 -124.5t-259 -44zM868 49q157 0 285.5 63.5t210.5 172t126 249.5t44 300q0 166 -65.5 296.5t-192.5 206.5t-297 76 q-152 0 -279 -63.5t-210.5 -171.5t-129 -249t-45.5 -298q0 -168 65 -299t191.5 -207t296.5 -76z" />
<glyph unicode="&#xd7;" horiz-adv-x="1067" d="M195 125l-37 47l426 379l-293 381l55 45l291 -381l428 381l41 -45l-430 -381l295 -379l-58 -47l-292 381z" />
<glyph unicode="&#xd8;" horiz-adv-x="1609" d="M1458 1296q160 -184 160 -452q0 -145 -33 -277t-98 -240.5t-155 -189t-211 -124.5t-259 -44q-261 0 -432 158l-108 -123l-41 39l108 125q-158 178 -158 450q0 180 54 340t151 278.5t240 187.5t311 69q259 0 428 -156l119 136l45 -39zM315 631q0 -245 131 -400l914 1043 q-148 139 -381 139q-152 0 -279 -63.5t-210.5 -171.5t-129 -249t-45.5 -298zM868 49q157 0 285.5 63.5t210.5 172t126 249.5t44 300q0 239 -133 397l-916 -1041q151 -141 383 -141z" />
<glyph unicode="&#xd9;" horiz-adv-x="1443" d="M1001 1589l-194 264h100l156 -264h-62zM725 -35q-213 0 -328.5 107.5t-115.5 310.5q0 90 16 178l160 903h82l-158 -903q-16 -91 -16 -162q0 -168 94.5 -261t281.5 -93q224 0 350 129t171 387l159 903h82l-160 -903q-108 -596 -618 -596z" />
<glyph unicode="&#xda;" horiz-adv-x="1443" d="M907 1589l250 264h103l-289 -264h-64zM725 -35q-213 0 -328.5 107.5t-115.5 310.5q0 90 16 178l160 903h82l-158 -903q-16 -91 -16 -162q0 -168 94.5 -261t281.5 -93q224 0 350 129t171 387l159 903h82l-160 -903q-108 -596 -618 -596z" />
<glyph unicode="&#xdb;" horiz-adv-x="1443" d="M743 1589l265 264h65l176 -264h-65l-154 203l-217 -203h-70zM725 -35q-213 0 -328.5 107.5t-115.5 310.5q0 90 16 178l160 903h82l-158 -903q-16 -91 -16 -162q0 -168 94.5 -261t281.5 -93q224 0 350 129t171 387l159 903h82l-160 -903q-108 -596 -618 -596z" />
<glyph unicode="&#xdc;" horiz-adv-x="1443" d="M844 1649q-29 0 -49.5 20t-20.5 49q0 27 20.5 46.5t49.5 19.5q27 0 46 -19.5t19 -46.5q0 -29 -18.5 -49t-46.5 -20zM1212 1649q-28 0 -47.5 20t-19.5 49q0 26 19.5 46t47.5 20q29 0 48.5 -19.5t19.5 -46.5q0 -29 -19.5 -49t-48.5 -20zM725 -35q-213 0 -328.5 107.5 t-115.5 310.5q0 90 16 178l160 903h82l-158 -903q-16 -91 -16 -162q0 -168 94.5 -261t281.5 -93q224 0 350 129t171 387l159 903h82l-160 -903q-108 -596 -618 -596z" />
<glyph unicode="&#xdd;" horiz-adv-x="1306" d="M823 1585l250 264h103l-289 -264h-64zM612 0l107 610l-406 852h90l369 -774l639 774h94l-704 -854l-107 -608h-82z" />
<glyph unicode="&#xde;" horiz-adv-x="1302" d="M219 0l258 1462h82l-55 -315h483q184 0 279.5 -85.5t95.5 -242.5q0 -223 -145.5 -356t-378.5 -133h-480l-57 -330h-82zM373 401h481q118 0 213 45t154 138.5t59 222.5q0 132 -79.5 200t-233.5 68h-478z" />
<glyph unicode="&#xdf;" horiz-adv-x="1122" d="M174 0l186 1055q20 112 68 197t113.5 134.5t138.5 74t151 24.5q148 0 236 -77.5t88 -213.5q0 -141 -83.5 -250t-219.5 -139q115 -19 181.5 -101.5t66.5 -207.5q0 -105 -32.5 -193.5t-98 -157t-173.5 -107t-249 -38.5h-103l15 74h102q98 0 179 23.5t145 72t99.5 130.5 t35.5 192q0 270 -354 270h-27l14 74h27q80 0 149.5 21t125 62t88 109t32.5 154q0 108 -68.5 168.5t-189.5 60.5q-43 0 -85 -9t-90 -34t-86.5 -63.5t-70 -103t-45.5 -146.5l-186 -1055h-80z" />
<glyph unicode="&#xe0;" horiz-adv-x="1073" d="M756 1174h-56l-178 294h94zM436 -25q-130 0 -215.5 69.5t-85.5 197.5q0 282 385 348l291 47q77 11 108 47.5t31 138.5q0 94 -59 139.5t-191 45.5q-302 0 -354 -263h-76q27 154 138 244t301 90q319 0 319 -252q0 -47 -8 -94l-102 -586q-3 -12 -3 -24q0 -51 56 -51h45 l-12 -72h-86q-39 0 -63 19t-24 61q0 3 5 33l14 75q-68 -97 -176.5 -155t-237.5 -58zM455 49q152 0 276.5 93.5t147.5 230.5l43 237q-45 -35 -129 -47l-258 -41q-164 -27 -239 -93.5t-75 -178.5q0 -96 64 -148.5t170 -52.5z" />
<glyph unicode="&#xe1;" horiz-adv-x="1073" d="M641 1174l227 294h99l-269 -294h-57zM436 -25q-130 0 -215.5 69.5t-85.5 197.5q0 282 385 348l291 47q77 11 108 47.5t31 138.5q0 94 -59 139.5t-191 45.5q-302 0 -354 -263h-76q27 154 138 244t301 90q319 0 319 -252q0 -47 -8 -94l-102 -586q-3 -12 -3 -24 q0 -51 56 -51h45l-12 -72h-86q-39 0 -63 19t-24 61q0 3 5 33l14 75q-68 -97 -176.5 -155t-237.5 -58zM455 49q152 0 276.5 93.5t147.5 230.5l43 237q-45 -35 -129 -47l-258 -41q-164 -27 -239 -93.5t-75 -178.5q0 -96 64 -148.5t170 -52.5z" />
<glyph unicode="&#xe2;" horiz-adv-x="1073" d="M481 1174l271 294h63l172 -294h-69l-148 231l-223 -231h-66zM436 -25q-130 0 -215.5 69.5t-85.5 197.5q0 282 385 348l291 47q77 11 108 47.5t31 138.5q0 94 -59 139.5t-191 45.5q-302 0 -354 -263h-76q27 154 138 244t301 90q319 0 319 -252q0 -47 -8 -94l-102 -586 q-3 -12 -3 -24q0 -51 56 -51h45l-12 -72h-86q-39 0 -63 19t-24 61q0 3 5 33l14 75q-68 -97 -176.5 -155t-237.5 -58zM455 49q152 0 276.5 93.5t147.5 230.5l43 237q-45 -35 -129 -47l-258 -41q-164 -27 -239 -93.5t-75 -178.5q0 -96 64 -148.5t170 -52.5z" />
<glyph unicode="&#xe3;" horiz-adv-x="1073" d="M471 1255q7 80 51 125t109 45q48 0 93.5 -25.5t86.5 -51t78 -25.5q45 0 69 18.5t29 77.5h64q-19 -164 -162 -164q-38 0 -74.5 16.5t-60.5 36t-58 36t-67 16.5q-43 0 -68.5 -27.5t-28.5 -77.5h-61zM436 -25q-130 0 -215.5 69.5t-85.5 197.5q0 282 385 348l291 47 q77 11 108 47.5t31 138.5q0 94 -59 139.5t-191 45.5q-302 0 -354 -263h-76q27 154 138 244t301 90q319 0 319 -252q0 -47 -8 -94l-102 -586q-3 -12 -3 -24q0 -51 56 -51h45l-12 -72h-86q-39 0 -63 19t-24 61q0 3 5 33l14 75q-68 -97 -176.5 -155t-237.5 -58zM455 49 q152 0 276.5 93.5t147.5 230.5l43 237q-45 -35 -129 -47l-258 -41q-164 -27 -239 -93.5t-75 -178.5q0 -96 64 -148.5t170 -52.5z" />
<glyph unicode="&#xe4;" horiz-adv-x="1073" d="M598 1292q-25 0 -41 16.5t-16 43.5q0 34 19.5 53.5t49.5 19.5q26 0 43 -16.5t17 -42.5q0 -34 -20 -54t-52 -20zM920 1292q-25 0 -41.5 16.5t-16.5 43.5q0 34 20 53.5t50 19.5q26 0 42.5 -16.5t16.5 -42.5q0 -34 -19.5 -54t-51.5 -20zM436 -25q-130 0 -215.5 69.5 t-85.5 197.5q0 282 385 348l291 47q77 11 108 47.5t31 138.5q0 94 -59 139.5t-191 45.5q-302 0 -354 -263h-76q27 154 138 244t301 90q319 0 319 -252q0 -47 -8 -94l-102 -586q-3 -12 -3 -24q0 -51 56 -51h45l-12 -72h-86q-39 0 -63 19t-24 61q0 3 5 33l14 75 q-68 -97 -176.5 -155t-237.5 -58zM455 49q152 0 276.5 93.5t147.5 230.5l43 237q-45 -35 -129 -47l-258 -41q-164 -27 -239 -93.5t-75 -178.5q0 -96 64 -148.5t170 -52.5z" />
<glyph unicode="&#xe5;" horiz-adv-x="1073" d="M735 1139q-74 0 -119 45.5t-45 118.5q0 90 61 152.5t150 62.5q74 0 119 -46.5t45 -119.5q0 -89 -60.5 -151t-150.5 -62zM745 1194q62 0 101 43t39 106q0 53 -30 86t-81 33q-61 0 -102 -43.5t-41 -105.5q0 -53 30.5 -86t83.5 -33zM436 -25q-130 0 -215.5 69.5t-85.5 197.5 q0 282 385 348l291 47q77 11 108 47.5t31 138.5q0 94 -59 139.5t-191 45.5q-302 0 -354 -263h-76q27 154 138 244t301 90q319 0 319 -252q0 -47 -8 -94l-102 -586q-3 -12 -3 -24q0 -51 56 -51h45l-12 -72h-86q-39 0 -63 19t-24 61q0 3 5 33l14 75q-68 -97 -176.5 -155 t-237.5 -58zM455 49q152 0 276.5 93.5t147.5 230.5l43 237q-45 -35 -129 -47l-258 -41q-164 -27 -239 -93.5t-75 -178.5q0 -96 64 -148.5t170 -52.5z" />
<glyph unicode="&#xe6;" horiz-adv-x="1830" d="M1436 1079q180 0 287.5 -117.5t107.5 -318.5q0 -43 -12 -131h-76l-752 2q-4 -50 -4 -72q0 -192 88.5 -291.5t247.5 -99.5q134 0 227.5 68t137.5 188h77q-55 -156 -169.5 -244t-286.5 -88q-151 0 -253.5 80.5t-135.5 229.5q-66 -149 -191.5 -229.5t-292.5 -80.5 q-138 0 -222.5 69.5t-84.5 199.5q0 282 391 346l291 47q77 11 108 47.5t31 138.5q0 92 -60.5 136.5t-189.5 44.5q-300 0 -352 -259h-78q27 154 139.5 244t305.5 90q296 0 313 -225q71 105 176.5 165t231.5 60zM999 584l750 -2q4 32 4 49q3 171 -87.5 272t-242.5 101 q-170 0 -280.5 -118.5t-143.5 -301.5zM455 49q168 0 286 100t148 277l33 184q-45 -35 -129 -47l-258 -41q-165 -26 -240.5 -91t-75.5 -177q0 -98 61 -151.5t175 -53.5z" />
<glyph unicode="&#xe7;" horiz-adv-x="1081" d="M600 51q137 0 234 67t139 199h76q-42 -148 -143 -233.5t-242 -103.5l-86 -84l2 -2q35 12 79 12q60 0 98 -29t38 -82q0 -84 -64.5 -131t-159.5 -47q-119 0 -184 59l33 45q57 -49 151 -49q67 0 108.5 30t41.5 87q0 68 -88 68q-71 0 -117 -25l-29 31l117 112h-12 q-187 0 -294.5 124.5t-107.5 340.5q0 176 64.5 321t185.5 231.5t277 86.5q166 0 268.5 -94.5t114.5 -253.5h-76q-25 133 -101.5 203t-222.5 70q-85 0 -157.5 -32.5t-122.5 -87t-85.5 -126t-52 -149.5t-16.5 -158q0 -192 83.5 -296t250.5 -104z" />
<glyph unicode="&#xe8;" horiz-adv-x="1112" d="M750 1174h-56l-178 294h94zM711 1079q176 0 286.5 -120.5t110.5 -321.5q0 -80 -8 -123h-832q-2 -23 -2 -68q0 -199 90 -298t252 -99q132 0 225.5 69t137.5 189h78q-54 -155 -169 -243.5t-280 -88.5q-187 0 -299.5 121.5t-112.5 341.5q0 173 62 318t183 234t278 89z M279 584l753 -2q2 16 2 47q0 169 -91.5 272t-242.5 103q-88 0 -161.5 -33.5t-125 -92.5t-85 -133t-49.5 -161z" />
<glyph unicode="&#xe9;" horiz-adv-x="1112" d="M971 1468l-269 -294h-57l227 294h99zM711 1079q176 0 286.5 -120.5t110.5 -321.5q0 -80 -8 -123h-832q-2 -23 -2 -68q0 -199 90 -298t252 -99q132 0 225.5 69t137.5 189h78q-54 -155 -169 -243.5t-280 -88.5q-187 0 -299.5 121.5t-112.5 341.5q0 173 62 318t183 234 t278 89zM279 584l753 -2q2 16 2 47q0 169 -91.5 272t-242.5 103q-88 0 -161.5 -33.5t-125 -92.5t-85 -133t-49.5 -161z" />
<glyph unicode="&#xea;" horiz-adv-x="1112" d="M758 1405l-223 -231h-66l270 294h64l172 -294h-70zM711 1079q176 0 286.5 -120.5t110.5 -321.5q0 -80 -8 -123h-832q-2 -23 -2 -68q0 -199 90 -298t252 -99q132 0 225.5 69t137.5 189h78q-54 -155 -169 -243.5t-280 -88.5q-187 0 -299.5 121.5t-112.5 341.5q0 173 62 318 t183 234t278 89zM279 584l753 -2q2 16 2 47q0 169 -91.5 272t-242.5 103q-88 0 -161.5 -33.5t-125 -92.5t-85 -133t-49.5 -161z" />
<glyph unicode="&#xeb;" horiz-adv-x="1112" d="M557 1292q-25 0 -41 16.5t-16 43.5q0 34 19.5 53.5t49.5 19.5q26 0 43 -16.5t17 -42.5q0 -34 -20 -54t-52 -20zM879 1292q-25 0 -41.5 16.5t-16.5 43.5q0 34 20 53.5t50 19.5q26 0 42.5 -16.5t16.5 -42.5q0 -34 -20 -54t-51 -20zM711 1079q176 0 286.5 -120.5 t110.5 -321.5q0 -80 -8 -123h-832q-2 -23 -2 -68q0 -199 90 -298t252 -99q132 0 225.5 69t137.5 189h78q-54 -155 -169 -243.5t-280 -88.5q-187 0 -299.5 121.5t-112.5 341.5q0 173 62 318t183 234t278 89zM279 584l753 -2q2 16 2 47q0 169 -91.5 272t-242.5 103 q-88 0 -161.5 -33.5t-125 -92.5t-85 -133t-49.5 -161z" />
<glyph unicode="&#xec;" horiz-adv-x="428" d="M440 1174h-55l-178 294h94zM174 0l186 1055h78l-186 -1055h-78z" />
<glyph unicode="&#xed;" horiz-adv-x="428" d="M322 1174l227 294h98l-268 -294h-57zM174 0l186 1055h78l-186 -1055h-78z" />
<glyph unicode="&#xee;" horiz-adv-x="428" d="M176 1174l264 294h62l168 -294h-68l-143 231l-219 -231h-64zM174 0l186 1055h78l-186 -1055h-78z" />
<glyph unicode="&#xef;" horiz-adv-x="428" d="M285 1292q-25 0 -41.5 16.5t-16.5 43.5q0 34 20 53.5t50 19.5q26 0 42.5 -16.5t16.5 -42.5q0 -34 -20 -54t-51 -20zM606 1292q-25 0 -41 16.5t-16 43.5q0 34 19.5 53.5t49.5 19.5q26 0 43 -16.5t17 -42.5q0 -34 -20 -54t-52 -20zM174 0l186 1055h78l-186 -1055h-78z" />
<glyph unicode="&#xf0;" horiz-adv-x="1161" d="M1157 688q0 -76 -12 -158q-12 -155 -77 -279t-184 -200t-274 -76q-199 0 -310.5 122t-111.5 331q0 177 67 317.5t188 219.5t274 79q120 0 212.5 -52t149.5 -144q-40 126 -115 246t-141 190l-256 -135l-20 51l237 125q-63 63 -143 111l49 57q98 -59 170 -131l260 135 l23 -51l-244 -127q131 -163 194.5 -313.5t63.5 -317.5zM618 47q109 0 196.5 44t142.5 119t84.5 171.5t29.5 204.5q0 169 -99 277t-263 108q-199 0 -321 -150t-122 -383q0 -186 91.5 -288.5t260.5 -102.5z" />
<glyph unicode="&#xf1;" horiz-adv-x="1130" d="M506 1255q7 80 51 125t109 45q48 0 93.5 -25.5t86.5 -51t78 -25.5q45 0 69 18.5t29 77.5h63q-19 -164 -161 -164q-38 0 -74.5 16.5t-60.5 36t-58 36t-67 16.5q-43 0 -68.5 -27.5t-28.5 -77.5h-61zM174 0l186 1055h78l-41 -221q59 116 159.5 180.5t215.5 64.5 q158 0 240 -81.5t82 -225.5q0 -46 -11 -121l-114 -651h-78l110 637q13 85 13 106q0 125 -65.5 194t-192.5 69q-144 0 -255 -109.5t-139 -271.5l-110 -625h-78z" />
<glyph unicode="&#xf2;" horiz-adv-x="1159" d="M827 1174h-55l-178 294h94zM621 -25q-205 0 -316.5 125.5t-111.5 327.5q0 183 67 331.5t189 234t276 85.5q203 0 314.5 -125.5t113.5 -326.5q2 -188 -66.5 -337t-190.5 -232t-275 -83zM629 47q130 0 232.5 75t158 204.5t55.5 289.5q0 175 -93.5 282.5t-262.5 107.5 q-134 0 -236.5 -76.5t-156.5 -205t-54 -286.5q0 -177 92.5 -284t264.5 -107z" />
<glyph unicode="&#xf3;" horiz-adv-x="1159" d="M668 1174l227 294h98l-268 -294h-57zM621 -25q-205 0 -316.5 125.5t-111.5 327.5q0 183 67 331.5t189 234t276 85.5q203 0 314.5 -125.5t113.5 -326.5q2 -188 -66.5 -337t-190.5 -232t-275 -83zM629 47q130 0 232.5 75t158 204.5t55.5 289.5q0 175 -93.5 282.5 t-262.5 107.5q-134 0 -236.5 -76.5t-156.5 -205t-54 -286.5q0 -177 92.5 -284t264.5 -107z" />
<glyph unicode="&#xf4;" horiz-adv-x="1159" d="M524 1174l271 294h63l172 -294h-69l-148 231l-223 -231h-66zM621 -25q-205 0 -316.5 125.5t-111.5 327.5q0 183 67 331.5t189 234t276 85.5q203 0 314.5 -125.5t113.5 -326.5q2 -188 -66.5 -337t-190.5 -232t-275 -83zM629 47q130 0 232.5 75t158 204.5t55.5 289.5 q0 175 -93.5 282.5t-262.5 107.5q-134 0 -236.5 -76.5t-156.5 -205t-54 -286.5q0 -177 92.5 -284t264.5 -107z" />
<glyph unicode="&#xf5;" horiz-adv-x="1159" d="M479 1255q7 80 51 125t109 45q48 0 93.5 -25.5t86.5 -51t78 -25.5q45 0 69 18.5t29 77.5h64q-19 -164 -162 -164q-38 0 -74.5 16.5t-60.5 36t-58 36t-67 16.5q-43 0 -68 -27.5t-28 -77.5h-62zM621 -25q-205 0 -316.5 125.5t-111.5 327.5q0 183 67 331.5t189 234t276 85.5 q203 0 314.5 -125.5t113.5 -326.5q2 -188 -66.5 -337t-190.5 -232t-275 -83zM629 47q130 0 232.5 75t158 204.5t55.5 289.5q0 175 -93.5 282.5t-262.5 107.5q-134 0 -236.5 -76.5t-156.5 -205t-54 -286.5q0 -177 92.5 -284t264.5 -107z" />
<glyph unicode="&#xf6;" horiz-adv-x="1159" d="M621 1292q-25 0 -41.5 16.5t-16.5 43.5q0 34 20 53.5t50 19.5q26 0 42.5 -16.5t16.5 -42.5q0 -34 -20 -54t-51 -20zM942 1292q-25 0 -41 16.5t-16 43.5q0 34 19.5 53.5t49.5 19.5q26 0 43 -16.5t17 -42.5q0 -34 -20 -54t-52 -20zM621 -25q-205 0 -316.5 125.5 t-111.5 327.5q0 183 67 331.5t189 234t276 85.5q203 0 314.5 -125.5t113.5 -326.5q2 -188 -66.5 -337t-190.5 -232t-275 -83zM629 47q130 0 232.5 75t158 204.5t55.5 289.5q0 175 -93.5 282.5t-262.5 107.5q-134 0 -236.5 -76.5t-156.5 -205t-54 -286.5q0 -177 92.5 -284 t264.5 -107z" />
<glyph unicode="&#xf7;" horiz-adv-x="1284" d="M797 887q-36 0 -56 22.5t-20 57.5q0 50 33.5 82t79.5 32q32 0 54.5 -23.5t22.5 -58.5q0 -45 -28.5 -78.5t-85.5 -33.5zM242 518l12 68h983l-12 -68h-983zM645 20q-37 0 -57.5 23t-20.5 59q0 48 34 80.5t79 32.5q34 0 57 -23.5t23 -58.5q0 -45 -29.5 -79t-85.5 -34z" />
<glyph unicode="&#xf8;" horiz-adv-x="1159" d="M1153 627q2 -188 -66.5 -337t-190.5 -232t-275 -83q-121 0 -209 45l-90 -157l-41 22l90 160q-87 58 -132.5 157.5t-45.5 225.5q0 183 67 331.5t189 234t276 85.5q114 0 205 -43l84 150l43 -25l-84 -149q87 -59 132.5 -159t47.5 -226zM272 438q0 -223 138 -325l481 856 q-73 37 -172 37q-134 0 -236.5 -76.5t-156.5 -205t-54 -286.5zM629 47q130 0 232.5 75t158 204.5t55.5 289.5q0 106 -36 190.5t-105 135.5l-485 -854q74 -41 180 -41z" />
<glyph unicode="&#xf9;" horiz-adv-x="1126" d="M813 1174h-55l-178 294h94zM520 -25q-165 0 -245 102.5t-48 289.5l123 688h78l-121 -678q-29 -166 38.5 -246t199.5 -80q162 0 265.5 92.5t131.5 255.5l117 656h78l-187 -1055h-76l27 160q-53 -84 -152.5 -134.5t-228.5 -50.5z" />
<glyph unicode="&#xfa;" horiz-adv-x="1126" d="M666 1174l227 294h98l-268 -294h-57zM520 -25q-165 0 -245 102.5t-48 289.5l123 688h78l-121 -678q-29 -166 38.5 -246t199.5 -80q162 0 265.5 92.5t131.5 255.5l117 656h78l-187 -1055h-76l27 160q-53 -84 -152.5 -134.5t-228.5 -50.5z" />
<glyph unicode="&#xfb;" horiz-adv-x="1126" d="M510 1174l270 294h64l172 -294h-70l-147 231l-224 -231h-65zM520 -25q-165 0 -245 102.5t-48 289.5l123 688h78l-121 -678q-29 -166 38.5 -246t199.5 -80q162 0 265.5 92.5t131.5 255.5l117 656h78l-187 -1055h-76l27 160q-53 -84 -152.5 -134.5t-228.5 -50.5z" />
<glyph unicode="&#xfc;" horiz-adv-x="1126" d="M614 1292q-25 0 -41 16.5t-16 43.5q0 34 20 53.5t50 19.5q26 0 42.5 -16.5t16.5 -42.5q0 -34 -20 -54t-52 -20zM936 1292q-25 0 -41 16.5t-16 43.5q0 34 19.5 53.5t49.5 19.5q26 0 43 -16.5t17 -42.5q0 -34 -20 -54t-52 -20zM520 -25q-165 0 -245 102.5t-48 289.5 l123 688h78l-121 -678q-29 -166 38.5 -246t199.5 -80q162 0 265.5 92.5t131.5 255.5l117 656h78l-187 -1055h-76l27 160q-53 -84 -152.5 -134.5t-228.5 -50.5z" />
<glyph unicode="&#xfd;" horiz-adv-x="997" d="M616 1174l228 294h98l-268 -294h-58zM49 -428l12 76h154q51 0 90.5 24t81.5 90q39 58 52.5 86t13.5 60q0 14 -13 98l-190 1049h88l94 -588l84 -471l526 1059h84l-657 -1293q-51 -102 -114.5 -146t-151.5 -44h-154z" />
<glyph unicode="&#xfe;" horiz-adv-x="1189" d="M784 1079q183 0 291.5 -124t108.5 -322q0 -184 -63 -333.5t-181.5 -237t-271.5 -87.5q-140 0 -237 72.5t-132 210.5l-121 -684h-78l332 1894h76l-107 -604q67 102 165.5 158.5t217.5 56.5zM674 49q131 0 230.5 77t151.5 206.5t52 288.5q0 172 -89 277.5t-253 105.5 q-189 0 -307.5 -162t-118.5 -420q0 -173 90 -273t244 -100z" />
<glyph unicode="&#xff;" horiz-adv-x="997" d="M575 1292q-25 0 -41 16.5t-16 43.5q0 34 20 53.5t50 19.5q26 0 42.5 -16.5t16.5 -42.5q0 -34 -20 -54t-52 -20zM897 1292q-25 0 -41 16.5t-16 43.5q0 34 19.5 53.5t49.5 19.5q26 0 43 -16.5t17 -42.5q0 -34 -20 -54t-52 -20zM49 -428l12 76h154q51 0 90.5 24t81.5 90 q39 58 52.5 86t13.5 60q0 14 -13 98l-190 1049h88l94 -588l84 -471l526 1059h84l-657 -1293q-51 -102 -114.5 -146t-151.5 -44h-154z" />
<glyph unicode="&#x131;" horiz-adv-x="428" d="M174 0l186 1055h78l-186 -1055h-78z" />
<glyph unicode="&#x13f;" horiz-adv-x="1132" d="M219 0l258 1464h82l-244 -1384h791l-14 -80h-873zM922 680q-29 0 -47.5 19.5t-18.5 48.5q0 39 28.5 66.5t67.5 27.5q28 0 47 -19.5t19 -48.5q0 -39 -28.5 -66.5t-67.5 -27.5z" />
<glyph unicode="&#x140;" horiz-adv-x="485" d="M317 0q-145 0 -122 141l233 1327h80l-234 -1316q-15 -82 70 -82h57l-12 -70h-72zM573 684q-29 0 -47 19t-18 49q0 39 28.5 66.5t67.5 27.5q28 0 47 -19.5t19 -48.5q0 -39 -29 -66.5t-68 -27.5z" />
<glyph unicode="&#x141;" horiz-adv-x="1132" d="M315 80h791l-14 -80h-873l115 655l-223 -147l14 76l223 147l129 733h82l-119 -673l271 178l-15 -76l-268 -176z" />
<glyph unicode="&#x142;" horiz-adv-x="452" d="M381 758l-107 -606q-15 -82 70 -82h57l-12 -70h-72q-145 0 -122 141l96 547l-158 -121l14 78l156 119l125 704h80l-113 -634l168 127l-16 -78z" />
<glyph unicode="&#x152;" horiz-adv-x="2201" d="M784 -35q-135 0 -242.5 48.5t-175 133t-102.5 196t-35 241.5q0 138 36 271.5t107.5 249t169 203.5t229.5 138.5t280 50.5q257 0 376 -168l25 135h903l-14 -78h-821l-105 -589h733l-12 -78h-733l-113 -643h824l-15 -76h-905l23 135q-190 -170 -433 -170zM799 45 q114 0 229.5 52t210.5 155l168 960q-66 107 -150.5 156t-216.5 49q-187 0 -339.5 -95t-248 -259.5t-126.5 -376.5q-25 -186 20.5 -330t162 -227.5t290.5 -83.5z" />
<glyph unicode="&#x153;" horiz-adv-x="1988" d="M1587 1079q177 0 287.5 -120.5t110.5 -321.5q0 -75 -9 -123h-829q0 -4 -1 -12.5t-1 -12.5q-2 -14 -2 -43q0 -199 90 -298t252 -99q132 0 225 69t137 189h78q-54 -155 -169 -243.5t-279 -88.5q-150 0 -254 79.5t-140 228.5q-68 -144 -189 -226t-273 -82 q-205 0 -316.5 125.5t-111.5 327.5q0 183 67 331.5t189 234t276 85.5q162 0 268 -83t142 -224q65 142 182 224.5t270 82.5zM629 47q172 0 291 126.5t147 328.5l6 55q2 20 2 59q0 175 -93.5 282.5t-262.5 107.5q-134 0 -236.5 -76.5t-156.5 -205t-54 -286.5q0 -177 92.5 -284 t264.5 -107zM1155 584l754 -2q2 16 2 47q0 169 -91.5 272t-242.5 103q-88 0 -162 -33.5t-125 -92.5t-85 -133t-50 -161z" />
<glyph unicode="&#x160;" horiz-adv-x="1267" d="M844 1589l-176 264h69l152 -204l223 204h68l-269 -264h-67zM686 -35q-244 0 -379 92.5t-135 280.5q0 56 12 121h80q-8 -70 -8 -101q0 -317 436 -317q207 0 328 87t121 259q0 50 -12.5 91t-39 73t-57 56t-78 45.5t-88.5 36t-102 32.5q-77 24 -129 43.5t-112 52t-95.5 68.5 t-59.5 89t-24 118q0 133 69.5 226t186.5 136t274 43q93 0 170.5 -19.5t140.5 -61t98.5 -113.5t35.5 -168q0 -39 -6 -86h-82q4 25 4 71q0 303 -369 303q-130 0 -226.5 -32.5t-155 -105t-58.5 -179.5q0 -39 10.5 -72t26 -58t45.5 -48t56 -39t72 -34.5t79 -30t90 -29.5 q81 -26 137 -48t113.5 -55.5t92 -72t56 -93.5t21.5 -123q0 -214 -145 -326t-394 -112z" />
<glyph unicode="&#x161;" horiz-adv-x="978" d="M655 1174l-168 292h70l143 -237l224 237h69l-270 -292h-68zM496 -25q-170 0 -262.5 66.5t-92.5 200.5q0 30 6 67h76q-4 -18 -4 -49q0 -104 75.5 -158.5t213.5 -54.5q148 0 242 60t94 184q0 68 -43 114t-139 76l-156 49q-53 18 -89.5 35.5t-72.5 45.5t-54 68.5t-18 92.5 q0 143 103.5 225t290.5 82q156 0 244.5 -62.5t88.5 -191.5q0 -22 -8 -80h-76q5 57 5 60q0 201 -267 201q-85 0 -146 -19t-93 -52.5t-46 -70t-14 -78.5q0 -73 42.5 -112t142.5 -72l153 -49q121 -40 177.5 -98.5t56.5 -145.5q0 -88 -35.5 -154t-96.5 -104.5t-136 -57 t-162 -18.5z" />
<glyph unicode="&#x178;" horiz-adv-x="1306" d="M772 1645q-29 0 -49.5 20t-20.5 49q0 27 20.5 46.5t49.5 19.5q27 0 46.5 -19.5t19.5 -46.5q0 -29 -19 -49t-47 -20zM1141 1645q-28 0 -48 20t-20 49q0 26 20 46t48 20q29 0 48 -19.5t19 -46.5q0 -29 -19 -49t-48 -20zM612 0l107 610l-406 852h90l369 -774l639 774h94 l-704 -854l-107 -608h-82z" />
<glyph unicode="&#x17d;" horiz-adv-x="1183" d="M836 1589l-177 264h70l152 -204l223 204h67l-268 -264h-67zM57 0l17 86l927 1036q233 251 244 262h-899l14 78h994l-17 -86l-948 -1057q-22 -24 -68 -74.5t-82 -89t-75 -77.5h964l-16 -78h-1055z" />
<glyph unicode="&#x17e;" horiz-adv-x="970" d="M637 1174l-168 292h70l143 -237l223 237h70l-270 -292h-68zM68 0l12 76l868 907h-690l12 72h785l-17 -78l-868 -907h750l-15 -70h-837z" />
<glyph unicode="&#x192;" horiz-adv-x="927" d="M-123 -324l14 72h136q90 0 145.5 52.5t87.5 154.5l279 858h-224l27 70h223l119 344q43 125 122 180t202 55h127l-15 -71h-127q-89 0 -144 -42t-91 -145l-111 -321h240l-27 -70h-235l-283 -864q-92 -273 -319 -273h-146z" />
<glyph unicode="&#x237;" horiz-adv-x="444" d="M-135 -428l14 76h107q79 0 116.5 29.5t53.5 121.5l221 1256h78l-224 -1272q-22 -120 -83 -165.5t-166 -45.5h-117z" />
<glyph unicode="&#x2c6;" horiz-adv-x="546" d="M227 1174l271 294h63l172 -294h-69l-148 231l-223 -231h-66z" />
<glyph unicode="&#x2c7;" horiz-adv-x="546" d="M446 1174l-167 292h69l144 -237l223 237h69l-270 -292h-68z" />
<glyph unicode="&#x2c9;" horiz-adv-x="360" d="M162 1305l10 57h498l-11 -57h-497z" />
<glyph unicode="&#x2d8;" horiz-adv-x="546" d="M483 1227q-104 0 -158.5 61.5t-45.5 173.5h57q-6 -88 37 -133t121 -45q86 0 147.5 45t87.5 133h55q-30 -111 -111 -173t-190 -62z" />
<glyph unicode="&#x2d9;" horiz-adv-x="190" d="M463 1292q-29 0 -48.5 19.5t-19.5 50.5q0 34 22.5 57t57.5 23q29 0 48.5 -19.5t19.5 -50.5q0 -33 -22 -56.5t-58 -23.5z" />
<glyph unicode="&#x2da;" horiz-adv-x="409" d="M414 1139q-74 0 -119 45.5t-45 118.5q0 90 61 152.5t150 62.5q74 0 119 -46.5t45 -119.5q0 -89 -60.5 -151t-150.5 -62zM424 1194q62 0 100.5 43t38.5 106q0 53 -30 86t-80 33q-61 0 -102.5 -43.5t-41.5 -105.5q0 -53 31 -86t84 -33z" />
<glyph unicode="&#x2db;" horiz-adv-x="397" d="M113 -397q-66 0 -104 30.5t-38 83.5q0 43 24.5 86t66.5 79.5t84 64.5t90 53h55q-137 -90 -188.5 -147.5t-51.5 -114.5q0 -35 22.5 -56.5t63.5 -21.5q89 0 150 61l37 -26q-95 -92 -211 -92z" />
<glyph unicode="&#x2dc;" horiz-adv-x="587" d="M238 1255q7 80 51 125t108 45q48 0 93.5 -25.5t86.5 -51t78 -25.5q45 0 69.5 18.5t29.5 77.5h63q-19 -164 -162 -164q-38 0 -74.5 16.5t-60.5 36t-58 36t-67 16.5q-43 0 -68 -27.5t-28 -77.5h-61z" />
<glyph unicode="&#x2dd;" horiz-adv-x="636" d="M242 1174l223 294h96l-260 -294h-59zM535 1174l225 294h98l-266 -294h-57z" />
<glyph unicode="&#x300;" d="M209 1174h-55l-179 294h95z" />
<glyph unicode="&#x301;" d="M-141 1174l227 294h98l-268 -294h-57z" />
<glyph unicode="&#x302;" d="M-319 1174l270 294h63l172 -294h-69l-148 231l-223 -231h-65z" />
<glyph unicode="&#x303;" d="M-346 1255q7 80 51 125t109 45q48 0 93.5 -25.5t86.5 -51t78 -25.5q45 0 69 18.5t29 77.5h63q-19 -164 -161 -164q-38 0 -74.5 16.5t-60.5 36t-58 36t-67 16.5q-43 0 -68.5 -27.5t-28.5 -77.5h-61z" />
<glyph unicode="&#x304;" d="M-289 1305l10 57h498l-10 -57h-498z" />
<glyph unicode="&#x306;" d="M-63 1227q-104 0 -159 62t-46 173h57q-6 -88 37 -133t121 -45q86 0 147.5 45t87.5 133h56q-30 -111 -111 -173t-190 -62z" />
<glyph unicode="&#x307;" d="M10 1292q-29 0 -48 19.5t-19 50.5q0 34 22.5 57t57.5 23q29 0 48 -19.5t19 -50.5q0 -33 -22 -56.5t-58 -23.5z" />
<glyph unicode="&#x308;" d="M-176 1292q-25 0 -41 16.5t-16 43.5q0 34 19.5 53.5t49.5 19.5q26 0 43 -16.5t17 -42.5q0 -34 -20 -54t-52 -20zM145 1292q-25 0 -41 16.5t-16 43.5q0 34 20 53.5t50 19.5q26 0 42.5 -16.5t16.5 -42.5q0 -34 -20 -54t-52 -20z" />
<glyph unicode="&#x30a;" d="M6 1139q-74 0 -119 45.5t-45 118.5q0 90 61 152.5t150 62.5q74 0 119 -46.5t45 -119.5q0 -89 -60.5 -151t-150.5 -62zM16 1194q62 0 101 43t39 106q0 53 -30 86t-81 33q-61 0 -102 -43.5t-41 -105.5q0 -53 30.5 -86t83.5 -33z" />
<glyph unicode="&#x30b;" d="M-395 1174l223 294h96l-260 -294h-59zM-102 1174l225 294h98l-266 -294h-57z" />
<glyph unicode="&#x30c;" d="M-100 1174l-168 292h69l144 -237l223 237h70l-271 -292h-67z" />
<glyph unicode="&#x326;" d="M-438 -446l8 51q40 8 69.5 37t38.5 73h-6q-32 0 -51.5 18.5t-19.5 47.5q0 40 28.5 66t65.5 26q67 0 67 -78q0 -96 -58 -164.5t-142 -76.5z" />
<glyph unicode="&#x327;" d="M-291 -383q-119 0 -184 59l33 45q57 -49 151 -49q67 0 108.5 30t41.5 87q0 68 -88 68q-71 0 -117 -25l-29 31l142 137h55l-107 -104l2 -2q34 12 80 12q60 0 97.5 -29t37.5 -82q0 -84 -64.5 -131t-158.5 -47z" />
<glyph unicode="&#x328;" d="M-285 -397q-66 0 -103.5 30.5t-37.5 83.5q0 43 24.5 86t66 79.5t83.5 64.5t90 53h56q-137 -90 -188.5 -147.5t-51.5 -114.5q0 -35 22.5 -56.5t63.5 -21.5q88 0 149 61l37 -26q-95 -92 -211 -92z" />
<glyph unicode="&#x335;" d="M-365 1239l15 68h561l-12 -68h-564z" />
<glyph unicode="&#x336;" d="M-991 1069h1071l-10 -57h-1074z" />
<glyph unicode="&#x337;" d="M-272 612l14 78l416 316l-17 -78z" />
<glyph unicode="&#x338;" d="M-823 -145l-41 22l733 1301l43 -25z" />
<glyph unicode="&#x394;" horiz-adv-x="1286" d="M57 0l811 1458h58l307 -1458h-1176zM170 70h971l-267 1273z" />
<glyph unicode="&#x3a9;" horiz-adv-x="1433" d="M123 0l12 70h379l37 202q-95 41 -161.5 116t-97 164.5t-30.5 188.5q0 168 55 308t149.5 233t222 144t272.5 51q227 0 369.5 -142t142.5 -362q0 -136 -37.5 -255t-104 -206t-155 -148.5t-193.5 -91.5l-37 -202h377l-12 -70h-439l58 328q92 18 174 68.5t147 129 t103.5 191.5t38.5 244q0 195 -123 319.5t-320 124.5q-127 0 -239 -46.5t-194.5 -130t-130.5 -207.5t-48 -271t75 -265.5t214 -156.5l-60 -328h-444z" />
<glyph unicode="&#x3bc;" horiz-adv-x="1136" d="M111 -362l249 1417h78l-119 -678q-30 -165 38.5 -245.5t197.5 -80.5q167 0 269.5 94.5t129.5 253.5l115 656h80l-186 -1055h-76l26 160q-51 -79 -149 -132t-223 -53q-214 0 -262 164l-89 -501h-79z" />
<glyph unicode="&#x3c0;" horiz-adv-x="1138" d="M928 -10q-29 0 -50 8t-32 23t-17 32.5t-5.5 42.5t3 45.5t7.5 48.5l120 680h-497l-154 -870h-70l154 870h-164l10 68h971l-10 -68h-168l-121 -673q-4 -22 -5 -31t-3.5 -30.5t0.5 -32t9 -23.5t18.5 -19t31.5 -6q43 0 91 31l-13 -66q-53 -30 -106 -30z" />
<glyph unicode="&#x2000;" horiz-adv-x="952" />
<glyph unicode="&#x2001;" horiz-adv-x="1905" />
<glyph unicode="&#x2002;" horiz-adv-x="952" />
<glyph unicode="&#x2003;" horiz-adv-x="1905" />
<glyph unicode="&#x2004;" horiz-adv-x="635" />
<glyph unicode="&#x2005;" horiz-adv-x="476" />
<glyph unicode="&#x2006;" horiz-adv-x="317" />
<glyph unicode="&#x2007;" horiz-adv-x="317" />
<glyph unicode="&#x2008;" horiz-adv-x="238" />
<glyph unicode="&#x2009;" horiz-adv-x="381" />
<glyph unicode="&#x200a;" horiz-adv-x="105" />
<glyph unicode="&#x2010;" horiz-adv-x="686" d="M242 514l12 72h383l-12 -72h-383z" />
<glyph unicode="&#x2011;" horiz-adv-x="686" d="M242 514l12 72h383l-12 -72h-383z" />
<glyph unicode="&#x2012;" horiz-adv-x="686" d="M242 514l12 72h383l-12 -72h-383z" />
<glyph unicode="&#x2013;" horiz-adv-x="1275" d="M242 514l12 72h973l-13 -72h-972z" />
<glyph unicode="&#x2014;" horiz-adv-x="1742" d="M242 514l12 72h1440l-13 -72h-1439z" />
<glyph unicode="&#x2018;" horiz-adv-x="428" d="M406 1085q-68 0 -68 82q0 32 10 70.5t32 81t65.5 78t101.5 51.5l-8 -55q-52 -14 -84.5 -58t-38.5 -100q6 2 14 2q28 0 46 -17t18 -46q0 -39 -26 -64t-62 -25z" />
<glyph unicode="&#x2019;" horiz-adv-x="425" d="M477 1448q70 0 70 -84q0 -24 -5.5 -53t-21 -64t-38 -66t-60 -58t-84.5 -40l8 56q52 17 84 60.5t37 98.5q-4 -2 -14 -2q-28 0 -46 17t-18 47q0 38 26.5 63t61.5 25z" />
<glyph unicode="&#x201a;" horiz-adv-x="458" d="M248 143q69 0 69 -82q0 -32 -10.5 -70t-33 -80.5t-66 -78t-101.5 -51.5l11 55q51 15 83 58.5t38 99.5q-4 -2 -15 -2q-28 0 -45.5 16.5t-17.5 46.5q0 38 26.5 63t61.5 25z" />
<glyph unicode="&#x201c;" horiz-adv-x="671" d="M406 1085q-68 0 -68 82q0 32 10 70.5t32 81t65.5 78t101.5 51.5l-8 -55q-52 -14 -84.5 -58t-38.5 -100q6 2 14 2q28 0 46 -17t18 -46q0 -39 -26 -64t-62 -25zM651 1085q-69 0 -69 82q0 32 10.5 70.5t33 81t66 78t101.5 51.5l-11 -55q-51 -15 -83 -58.5t-37 -99.5 q4 2 14 2q28 0 45.5 -17t17.5 -46q0 -38 -26.5 -63.5t-61.5 -25.5z" />
<glyph unicode="&#x201d;" horiz-adv-x="671" d="M477 1448q70 0 70 -84q0 -24 -5.5 -53t-21 -64t-38 -66t-60 -58t-84.5 -40l8 56q52 17 84 60.5t37 98.5q-4 -2 -14 -2q-28 0 -46 17t-18 47q0 38 26.5 63t61.5 25zM723 1448q68 0 68 -84q0 -24 -5.5 -53t-21 -64t-38 -66t-60 -58t-84.5 -40l8 56q53 17 84.5 60t36.5 99 q-4 -2 -13 -2q-28 0 -45.5 17t-17.5 47q0 39 26 63.5t62 24.5z" />
<glyph unicode="&#x201e;" horiz-adv-x="710" d="M248 143q69 0 69 -82q0 -32 -10.5 -70t-33 -80.5t-66 -78t-101.5 -51.5l11 55q51 15 83 58.5t38 99.5q-4 -2 -15 -2q-28 0 -45.5 16.5t-17.5 46.5q0 38 26.5 63t61.5 25zM502 143q67 0 67 -82q0 -32 -10 -70t-32 -80.5t-65.5 -78t-101.5 -51.5l11 55q51 15 83 58.5 t38 99.5q-6 -2 -15 -2q-28 0 -45.5 16.5t-17.5 46.5q0 39 26 63.5t62 24.5z" />
<glyph unicode="&#x2020;" horiz-adv-x="1142" d="M479 -295l213 1204h-397l12 70h398l86 483h75l-86 -483h400l-13 -70h-399l-213 -1204h-76z" />
<glyph unicode="&#x2021;" horiz-adv-x="1142" d="M479 -295l72 404h-397l12 69h397l144 811h-398l13 70h397l72 403h75l-71 -403h399l-12 -70h-400l-143 -811h399l-12 -69h-399l-72 -404h-76z" />
<glyph unicode="&#x2022;" horiz-adv-x="913" d="M563 309q-121 0 -207 85.5t-86 205.5t86 205.5t207 85.5q120 0 205.5 -85.5t85.5 -205.5t-85.5 -205.5t-205.5 -85.5z" />
<glyph unicode="&#x2026;" horiz-adv-x="1327" d="M219 -6q-32 0 -52 21.5t-20 52.5q0 32 24 55.5t58 23.5q31 0 52.5 -20.5t21.5 -50.5q0 -32 -26 -57t-58 -25zM678 -6q-32 0 -52 21.5t-20 52.5q0 32 24 55.5t58 23.5q31 0 52.5 -20.5t21.5 -50.5q0 -32 -26 -57t-58 -25zM1116 -6q-32 0 -52 21.5t-20 52.5q0 32 24 55.5 t58 23.5q31 0 52.5 -20.5t21.5 -50.5q0 -32 -26 -57t-58 -25z" />
<glyph unicode="&#x202f;" horiz-adv-x="381" />
<glyph unicode="&#x2030;" horiz-adv-x="2385" d="M309 -68l1129 1534h67l-1126 -1534h-70zM588 717q-154 0 -243 94t-89 229q0 177 105 283.5t268 106.5q154 0 243 -92t89 -232q0 -178 -104.5 -283.5t-268.5 -105.5zM600 786q127 0 209 84t82 226q0 110 -72.5 188t-200.5 78t-210 -86t-82 -225q0 -111 73.5 -188 t200.5 -77zM1221 -12q-154 0 -244 94t-90 229q0 177 105.5 283t269.5 106q153 0 241 -91.5t88 -231.5q0 -178 -103.5 -283.5t-266.5 -105.5zM2013 -12q-154 0 -244 94t-90 229q0 177 105.5 283t269.5 106q154 0 242 -91.5t88 -231.5q0 -178 -104 -283.5t-267 -105.5z M1231 57q127 0 210 84t83 226q0 110 -72.5 188t-202.5 78q-128 0 -210.5 -86t-82.5 -225q0 -111 74.5 -188t200.5 -77zM2023 57q127 0 210 84t83 226q0 110 -72 188t-202 78q-128 0 -210.5 -86t-82.5 -225q0 -111 74 -188t200 -77z" />
<glyph unicode="&#x2039;" horiz-adv-x="491" d="M375 256l-170 260l12 70l260 258l-16 -92l-193 -201l121 -203z" />
<glyph unicode="&#x203a;" horiz-adv-x="491" d="M209 256l14 92l193 203l-121 201l16 92l168 -258l-12 -70z" />
<glyph unicode="&#x2044;" horiz-adv-x="983" d="M-8 -66l1175 1530h72l-1176 -1530h-71z" />
<glyph unicode="&#x205f;" horiz-adv-x="476" />
<glyph unicode="&#x20ac;" horiz-adv-x="1249" d="M686 -33q-207 0 -302 163.5t-67 442.5h-129l11 58h125q11 94 12 98q2 10 9 41.5t9 46.5h-123l11 57h129q76 280 226.5 442.5t358.5 162.5q178 0 273 -110t78 -335h-72q7 191 -69 281t-220 90q-88 0 -166.5 -40.5t-139.5 -114t-107 -168t-78 -208.5h608l-10 -57h-615 q0 -3 -18 -88q-9 -58 -12 -98h614l-10 -58h-609q-24 -243 49.5 -386.5t241.5 -143.5q324 0 439 406h73q-65 -244 -198 -363t-322 -119z" />
<glyph unicode="&#x2122;" horiz-adv-x="1847" d="M444 618l138 781h-281l8 61h635l-10 -61h-281l-139 -781h-70zM967 618l147 842h80l236 -471l401 471h76l-148 -842h-65l129 740l-379 -445h-58l-221 445l-131 -740h-67z" />
<glyph unicode="&#x2212;" horiz-adv-x="1292" d="M252 518l12 68h971l-12 -68h-971z" />
<glyph unicode="&#x25fc;" horiz-adv-x="1054" d="M0 1055h1055v-1055h-1055v1055z" />
<glyph unicode="&#xf004;" horiz-adv-x="542" d="M106 -446l9 51q40 8 68.5 36.5t37.5 71.5h-6q-32 0 -51 18t-19 48q0 40 28.5 67t66.5 27q67 0 67 -76q0 -103 -56.5 -169t-144.5 -74z" />
<glyph unicode="&#xf8ff;" horiz-adv-x="1798" d="M489 1468h762v-245h-503v-387q70 -25 156.5 -69.5t160.5 -86.5t154 -81.5t165.5 -64t165.5 -24.5q24 0 48 2t36 4l13 2q-2 -3 -5.5 -7t-19.5 -15.5t-36.5 -20t-57 -15.5t-80.5 -7q-153 0 -327 64t-373 167v-684h-259v791q-49 20 -106 20q-69 0 -114.5 -30t-45.5 -87 q0 -40 21 -72t55 -44q-54 3 -84.5 37.5t-30.5 91.5q0 82 68.5 133t189.5 51q29 0 47 -4v581z" />
<glyph horiz-adv-x="1193" d="M1126 1055h78l-186 -1055h-78l33 186q-139 -211 -379 -211q-185 0 -291 122.5t-106 318.5q0 189 64.5 340t181.5 237t266 86q142 0 239.5 -72.5t132.5 -207.5zM608 51q133 0 232.5 79.5t149.5 211t50 295.5q0 173 -90.5 270t-247.5 97q-189 0 -309.5 -162t-120.5 -410 q0 -173 88.5 -277t247.5 -104z" />
<glyph horiz-adv-x="1193" d="M1026 1468l-268 -294h-58l228 294h98zM1126 1055h78l-186 -1055h-78l33 186q-139 -211 -379 -211q-185 0 -291 122.5t-106 318.5q0 189 64.5 340t181.5 237t266 86q142 0 239.5 -72.5t132.5 -207.5zM608 51q133 0 232.5 79.5t149.5 211t50 295.5q0 173 -90.5 270 t-247.5 97q-189 0 -309.5 -162t-120.5 -410q0 -173 88.5 -277t247.5 -104z" />
<glyph horiz-adv-x="1193" d="M827 1405l-223 -231h-65l270 294h63l172 -294h-69zM1126 1055h78l-186 -1055h-78l33 186q-139 -211 -379 -211q-185 0 -291 122.5t-106 318.5q0 189 64.5 340t181.5 237t266 86q142 0 239.5 -72.5t132.5 -207.5zM608 51q133 0 232.5 79.5t149.5 211t50 295.5 q0 173 -90.5 270t-247.5 97q-189 0 -309.5 -162t-120.5 -410q0 -173 88.5 -277t247.5 -104z" />
<glyph horiz-adv-x="1193" d="M659 1292q-25 0 -41 16.5t-16 43.5q0 34 20 53.5t50 19.5q26 0 42.5 -16.5t16.5 -42.5q0 -34 -20 -54t-52 -20zM981 1292q-25 0 -41 16.5t-16 43.5q0 34 19.5 53.5t49.5 19.5q26 0 43 -16.5t17 -42.5q0 -34 -20 -54t-52 -20zM1126 1055h78l-186 -1055h-78l33 186 q-139 -211 -379 -211q-185 0 -291 122.5t-106 318.5q0 189 64.5 340t181.5 237t266 86q142 0 239.5 -72.5t132.5 -207.5zM608 51q133 0 232.5 79.5t149.5 211t50 295.5q0 173 -90.5 270t-247.5 97q-189 0 -309.5 -162t-120.5 -410q0 -173 88.5 -277t247.5 -104z" />
<glyph horiz-adv-x="1193" d="M850 1174h-55l-179 294h95zM1126 1055h78l-186 -1055h-78l33 186q-139 -211 -379 -211q-185 0 -291 122.5t-106 318.5q0 189 64.5 340t181.5 237t266 86q142 0 239.5 -72.5t132.5 -207.5zM608 51q133 0 232.5 79.5t149.5 211t50 295.5q0 173 -90.5 270t-247.5 97 q-189 0 -309.5 -162t-120.5 -410q0 -173 88.5 -277t247.5 -104z" />
<glyph horiz-adv-x="1193" d="M797 1139q-74 0 -119 45.5t-45 118.5q0 90 61 152.5t150 62.5q74 0 119 -46.5t45 -119.5q0 -89 -60.5 -151t-150.5 -62zM836 1462q-61 0 -102.5 -43.5t-41.5 -105.5q0 -53 31 -86t84 -33q62 0 100.5 43t38.5 106q0 53 -30 86t-80 33zM1126 1055h78l-186 -1055h-78l33 186 q-139 -211 -379 -211q-185 0 -291 122.5t-106 318.5q0 189 64.5 340t181.5 237t266 86q142 0 239.5 -72.5t132.5 -207.5zM608 51q133 0 232.5 79.5t149.5 211t50 295.5q0 173 -90.5 270t-247.5 97q-189 0 -309.5 -162t-120.5 -410q0 -173 88.5 -277t247.5 -104z" />
<glyph horiz-adv-x="1193" d="M690 1360q-43 0 -68 -27.5t-28 -77.5h-62q7 80 51 125t109 45q48 0 93.5 -25.5t86.5 -51t78 -25.5q45 0 69.5 18.5t29.5 77.5h63q-19 -164 -162 -164q-38 0 -74.5 16.5t-60.5 36t-58 36t-67 16.5zM1126 1055h78l-186 -1055h-78l33 186q-139 -211 -379 -211 q-185 0 -291 122.5t-106 318.5q0 189 64.5 340t181.5 237t266 86q142 0 239.5 -72.5t132.5 -207.5zM608 51q133 0 232.5 79.5t149.5 211t50 295.5q0 173 -90.5 270t-247.5 97q-189 0 -309.5 -162t-120.5 -410q0 -173 88.5 -277t247.5 -104z" />
<glyph horiz-adv-x="1204" d="M1239 1055h82l-14 -72h-54q-32 0 -50.5 -13.5t-24.5 -49.5l-156 -895q-40 -227 -146.5 -340t-314.5 -113h-389l14 76h367q179 0 268.5 92.5t122.5 288.5l27 155q-143 -209 -379 -209q-185 0 -291 122.5t-106 318.5q0 188 64 339t181 237.5t267 86.5q142 0 239.5 -73 t132.5 -209l27 147q9 55 44.5 83t88.5 28zM606 51q133 0 232 79.5t148.5 211t49.5 295.5q0 170 -90.5 268.5t-245.5 98.5q-125 0 -223.5 -73.5t-152.5 -203.5t-54 -293q0 -174 88 -278.5t248 -104.5z" />
<glyph horiz-adv-x="987" d="M1112 1055l-504 -488l367 -567h-96l-342 526l-191 -2l-94 -524h-78l258 1462h78l-152 -862h185l471 455h98z" />
<glyph horiz-adv-x="612" d="M264 0l172 981h-223l14 74h224l57 327h78l-58 -327h236l-14 -74h-236l-172 -981h-78z" />
<glyph horiz-adv-x="1013" d="M141 -428l15 76h143q70 0 100 27t47 104l41 182l-243 1094h84l215 -1002l522 1002h82l-586 -1104l-45 -207q-21 -95 -71 -133.5t-144 -38.5h-160z" />
<glyph horiz-adv-x="1013" d="M602 1174l227 294h99l-269 -294h-57zM141 -428l15 76h143q70 0 100 27t47 104l41 182l-243 1094h84l215 -1002l522 1002h82l-586 -1104l-45 -207q-21 -95 -71 -133.5t-144 -38.5h-160z" />
<glyph horiz-adv-x="1013" d="M559 1292q-25 0 -41 16.5t-16 43.5q0 34 19.5 53.5t49.5 19.5q26 0 43 -16.5t17 -42.5q0 -34 -20 -54t-52 -20zM881 1292q-25 0 -41.5 16.5t-16.5 43.5q0 34 20 53.5t50 19.5q26 0 42.5 -16.5t16.5 -42.5q0 -34 -20 -54t-51 -20zM141 -428l15 76h143q70 0 100 27t47 104 l41 182l-243 1094h84l215 -1002l522 1002h82l-586 -1104l-45 -207q-21 -95 -71 -133.5t-144 -38.5h-160z" />
<glyph horiz-adv-x="1257" d="M645 -18q-113 0 -199.5 35t-139.5 97.5t-80 143t-27 176.5q0 101 24 197.5t74 182t120 150t169 102.5t215 38q113 0 201 -36.5t141.5 -100.5t80.5 -145.5t27 -176.5q0 -101 -24 -197t-74 -180.5t-121 -148t-170.5 -100.5t-216.5 -37zM657 51q107 0 195 37.5t145 97.5 t96.5 138.5t56.5 157t17 155.5q0 60 -12.5 115.5t-41.5 107t-72 89.5t-108 60.5t-145 22.5q-105 0 -192.5 -37.5t-144.5 -98t-96.5 -138.5t-56.5 -157t-17 -157q0 -77 21 -144.5t63.5 -124.5t117.5 -90.5t174 -33.5z" />
<glyph horiz-adv-x="653" d="M391 0l166 938q-161 -95 -350 -129l10 68q131 22 212 64.5t163 133.5h67l-188 -1075h-80z" />
<glyph horiz-adv-x="1073" d="M106 0q11 70 50 132.5t104 115.5t138 96t171 88q193 90 259 134q122 81 148 187q9 35 9 76q0 96 -72.5 148.5t-199.5 52.5q-169 0 -263.5 -79.5t-119.5 -213.5h-80q31 173 155.5 270t317.5 97q160 0 253 -68.5t93 -195.5q0 -42 -8.5 -79.5t-20 -68t-36 -61t-44.5 -52.5 t-59 -48.5t-64.5 -43t-76 -42t-80 -39.5t-88.5 -41q-151 -68 -252.5 -143.5t-120.5 -147.5h780l-12 -74h-881z" />
<glyph horiz-adv-x="1175" d="M545 -348q-243 0 -361 121.5t-65 337.5h80q-45 -183 52.5 -284t305.5 -101q124 0 223 43t159 132t60 212q0 135 -87.5 203.5t-249.5 68.5h-91l13 68h92q61 0 118 11t110 37t92.5 63.5t63 95t23.5 128.5q0 120 -89 181t-236 61q-182 0 -292.5 -87.5t-141.5 -278.5h-80 q32 216 166.5 328t355.5 112q180 0 288.5 -78.5t108.5 -228.5q0 -155 -88 -249.5t-244 -123.5q123 -25 187.5 -101.5t64.5 -197.5q0 -225 -145.5 -349t-392.5 -124z" />
<glyph horiz-adv-x="1153" d="M735 -354l62 354h-748l12 82l918 991h86l-178 -1001h229l-12 -72h-230l-61 -354h-78zM141 72h668l158 891h-4z" />
<glyph horiz-adv-x="1110" d="M532 -348q-227 0 -338 128t-77 347h80q-27 -189 61 -296t285 -107q195 0 314.5 131.5t119.5 349.5q0 154 -89 243t-245 89q-120 0 -208.5 -43t-160.5 -132h-79l192 715h750l-15 -73h-682l-143 -549q133 153 369 153q182 0 286.5 -103t104.5 -284q0 -254 -148.5 -411.5 t-376.5 -157.5z" />
<glyph horiz-adv-x="1183" d="M731 928q197 0 313.5 -107.5t116.5 -302.5q0 -241 -139.5 -392t-372.5 -151q-207 0 -322.5 126.5t-115.5 353.5q0 151 21.5 289t70 263t119 216.5t175.5 145.5t234 54q186 0 281.5 -89.5t95.5 -252.5h-80q0 127 -78.5 199t-236.5 72q-120 0 -216 -61t-157 -164.5 t-96.5 -227.5t-46.5 -264q56 145 174 219t260 74zM657 47q133 0 230.5 62t145.5 164.5t48 232.5q0 166 -94.5 258t-267.5 92q-193 0 -309.5 -130t-116.5 -323q0 -69 22.5 -131.5t66 -113.5t114.5 -81t161 -30z" />
<glyph horiz-adv-x="960" d="M217 -322q26 181 96.5 362t177 348.5t237.5 320t288 295.5h-803l14 73h895l-16 -84q-331 -291 -542.5 -622t-266.5 -693h-80z" />
<glyph horiz-adv-x="1161" d="M616 -25q-205 0 -322.5 93.5t-117.5 273.5q0 170 103 282.5t272 145.5q-189 81 -189 281q0 116 60.5 202t157 128t213.5 42q177 0 281 -80.5t104 -230.5q0 -133 -83.5 -226t-211.5 -122q112 -31 177.5 -118t65.5 -214q0 -146 -70 -251.5t-183.5 -155.5t-256.5 -50z M743 801q62 0 122 17t113.5 50.5t86.5 93t33 136.5q0 128 -85 190t-231 62q-65 0 -123.5 -17t-108 -51.5t-79 -93t-29.5 -133.5q0 -128 85 -191t216 -63zM629 49q85 0 158.5 22.5t131.5 67t91.5 118t33.5 167.5q0 151 -96 227t-260 76q-84 0 -160 -23t-137 -68t-97 -118 t-36 -166q0 -154 99 -228.5t272 -74.5z" />
<glyph horiz-adv-x="1183" d="M707 1102q207 0 322.5 -126t115.5 -353q0 -151 -21.5 -289t-70 -263t-119.5 -217t-176 -146t-234 -54q-186 0 -281.5 89.5t-95.5 252.5h80q0 -127 79 -198.5t237 -71.5q96 0 178 40.5t139.5 108.5t100.5 160.5t66.5 194t31.5 212.5q-56 -145 -174 -218.5t-260 -73.5 q-197 0 -313.5 107t-116.5 302q0 241 139.5 392t372.5 151zM637 221q193 0 309.5 130t116.5 323q0 55 -14 106t-43.5 97t-71.5 79.5t-103 53.5t-133 20q-133 0 -230.5 -62t-145.5 -164.5t-48 -232.5q0 -166 95 -258t268 -92z" />
<glyph horiz-adv-x="1222" d="M631 -23q-106 0 -186 41t-127 114t-70 165t-23 203q0 99 14.5 201.5t44 207.5t79 196.5t114.5 163t156 113t198 41.5t187.5 -41t127.5 -114.5t70 -165.5t23 -203q0 -85 -10.5 -173t-33 -179t-56 -173.5t-83.5 -155.5t-111 -126t-141.5 -84t-172.5 -31zM639 49 q110 0 200.5 57t148 146t96.5 203.5t55 222.5t16 209q0 73 -9.5 137t-34 125t-61.5 104.5t-95.5 70t-133.5 26.5q-91 0 -169 -39.5t-132.5 -107.5t-96.5 -153t-66 -180.5t-36 -185t-12 -172.5q0 -73 9.5 -137.5t33.5 -125.5t61 -104.5t94.5 -69.5t131.5 -26z" />
<glyph horiz-adv-x="1222" d="M653 0l221 1255q-78 -63 -185 -114t-212 -74l10 70q148 35 238.5 91t183.5 171h70l-246 -1399h-80z" />
<glyph horiz-adv-x="1222" d="M174 0q12 87 54.5 165.5t115 147.5t155 126.5t195.5 121.5q87 48 150 88t125.5 90.5t101 99t62.5 109t24 125.5q0 132 -79.5 203.5t-217.5 71.5q-192 0 -297 -107.5t-131 -296.5h-80q32 228 167.5 353.5t352.5 125.5q166 0 265.5 -88t99.5 -250q0 -58 -16 -113 t-40.5 -100.5t-67 -92t-83.5 -82t-102 -77.5t-110 -72t-120 -71q-87 -52 -148 -93t-122 -91.5t-98.5 -104.5t-53.5 -112h818l-15 -76h-905z" />
<glyph horiz-adv-x="1222" d="M633 -29q-243 0 -361 121.5t-65 337.5h80q-45 -183 52.5 -284t305.5 -101q124 0 223 43t159 132t60 212q0 135 -87.5 204t-249.5 69h-91l13 67h92q77 0 147 19t129.5 57t95 105t35.5 155q0 120 -89 181t-236 61q-374 0 -434 -367h-80q32 216 166.5 328t355.5 112 q180 0 288.5 -78.5t108.5 -228.5q0 -156 -88 -250t-243 -123q123 -25 187 -101t64 -198q0 -225 -145.5 -349t-392.5 -124z" />
<glyph horiz-adv-x="1222" d="M831 0l62 354h-721l14 82l885 963h86l-172 -973h227l-12 -72h-229l-62 -354h-78zM266 426h641l152 862h-4z" />
<glyph horiz-adv-x="1222" d="M666 -27q-227 0 -338.5 128.5t-77.5 347.5h80q-27 -189 61 -296.5t285 -107.5q195 0 314.5 131.5t119.5 349.5q0 154 -89 243t-245 89q-120 0 -208 -42.5t-160 -131.5h-80l192 715h750l-15 -74h-682l-143 -549q134 154 369 154q182 0 286.5 -103t104.5 -284 q0 -254 -148 -412t-376 -158z" />
<glyph horiz-adv-x="1222" d="M764 928q197 0 313.5 -107.5t116.5 -302.5q0 -241 -139.5 -392t-372.5 -151q-207 0 -322.5 126.5t-115.5 353.5q0 151 21.5 289t70 263t119 216.5t175.5 145.5t234 54q186 0 281.5 -89.5t95.5 -252.5h-80q0 127 -78.5 199t-236.5 72q-120 0 -216 -61t-157 -164.5 t-96.5 -227.5t-46.5 -264q56 145 174 219t260 74zM690 47q133 0 230.5 62t145.5 164.5t48 232.5q0 166 -94.5 258t-267.5 92q-193 0 -309.5 -130t-116.5 -323q0 -69 22.5 -131.5t66 -113.5t114.5 -81t161 -30z" />
<glyph horiz-adv-x="1222" d="M414 0q119 692 817 1323h-848l14 76h938l-16 -84q-704 -622 -825 -1315h-80z" />
<glyph horiz-adv-x="1222" d="M668 -25q-205 0 -323 93.5t-118 273.5q0 170 103 282.5t272 145.5q-188 81 -188 281q0 116 60.5 202t156.5 128t213 42q177 0 281 -80.5t104 -230.5q0 -133 -83.5 -226t-211.5 -122q112 -31 178 -118t66 -214q0 -146 -70 -251.5t-183.5 -155.5t-256.5 -50zM795 801 q62 0 122 17t113 50.5t86 93t33 136.5q0 128 -85 190t-230 62q-65 0 -123.5 -17t-108 -51.5t-79 -93t-29.5 -133.5q0 -128 85 -191t216 -63zM680 49q85 0 158.5 22.5t132 67t92 118t33.5 167.5q0 151 -96.5 227t-260.5 76q-84 0 -160 -23t-137 -68t-97 -118t-36 -166 q0 -154 99 -228.5t272 -74.5z" />
<glyph horiz-adv-x="1222" d="M805 1423q207 0 322.5 -126t115.5 -353q0 -151 -21.5 -289t-70 -263t-119 -217t-175.5 -146t-234 -54q-186 0 -281.5 89.5t-95.5 252.5h80q0 -127 78.5 -198.5t236.5 -71.5q120 0 216 61t157 164.5t96.5 227.5t46.5 264q-56 -145 -174 -219t-260 -74q-197 0 -313.5 107.5 t-116.5 302.5q0 241 139 391.5t373 150.5zM735 543q193 0 309.5 129.5t116.5 322.5q0 69 -22.5 132t-66 114t-114.5 81t-161 30q-133 0 -230.5 -62t-145.5 -164.5t-48 -232.5q0 -166 94.5 -258t267.5 -92z" />
<glyph horiz-adv-x="1062" d="M1071 766h-80q16 121 -51 185.5t-192 74.5l-78 -434q62 -11 110 -25t94 -36t75 -50.5t47 -70t18 -93.5q0 -118 -61 -196.5t-160 -112.5t-232 -35l-24 -133h-52l25 133q-194 9 -290.5 105t-61.5 274h78q-25 -144 51.5 -218.5t234.5 -82.5l84 471q-78 13 -134 31.5t-103 49 t-71 76.5t-24 109q0 65 23 118t63 88.5t95.5 60t118.5 35.5t135 12l24 133h51l-24 -135q159 -10 246.5 -93.5t64.5 -240.5zM358 811q0 -93 65.5 -138t197.5 -71l75 426q-71 0 -130 -11.5t-107 -36t-74.5 -67.5t-26.5 -102zM932 299q0 51 -20 88.5t-59.5 61.5t-85.5 38.5 t-112 26.5l-82 -465q170 2 264.5 62.5t94.5 187.5z" />
<glyph horiz-adv-x="1161" d="M637 -25q-180 0 -276.5 123t-84.5 336h-116l10 49h111q7 71 24 133h-112l8 50h118q58 204 192.5 327t328.5 123q167 0 260 -80.5t84 -249.5h-74q-3 261 -283 261q-158 0 -270 -104.5t-160 -276.5h555l-8 -50h-563q-21 -99 -21 -133h562l-11 -49h-555 q-12 -176 67.5 -283.5t227.5 -107.5q292 0 381 289h74q-52 -181 -176.5 -269t-292.5 -88z" />
<glyph horiz-adv-x="729" d="M756 1106h114l-10 -72h-115q-167 0 -206 -135l-66 -235h211l-25 -64h-202l-174 -629q-29 -101 -101.5 -160t-187.5 -59h-131l12 72h123q159 0 203 149l176 627h-211l24 64h203l72 254q54 188 291 188z" />
<glyph horiz-adv-x="1150" d="M838 1104q183 0 265.5 -79t53.5 -230h-76q18 113 -45 175t-209 62q-58 0 -108.5 -14t-93.5 -43t-68 -81t-25 -122q0 -57 33 -197h293l-10 -61h-268q22 -101 22 -164q0 -82 -35 -157q56 -37 97.5 -59t119.5 -42t170 -20h109l-12 -72h-119q-96 0 -178 21t-126 44t-98 60 q-46 -64 -111.5 -101.5t-139.5 -37.5q-79 0 -126 37.5t-47 105.5q0 77 56 121.5t147 44.5q100 0 197 -62q16 53 16 105q0 73 -28 176h-273l10 61h246q-28 122 -28 187q0 74 23 133.5t60.5 98t88.5 64t105 36t112 10.5zM285 51q119 0 190 115q-93 65 -176 65q-59 0 -90 -26.5 t-31 -69.5q0 -37 28 -60.5t79 -23.5z" />
<glyph horiz-adv-x="1116" d="M516 0l70 406h-328l10 59h324l-105 190h-245l12 60h211l-211 391h100l297 -571l510 571h96l-350 -391h201l-10 -60h-238l-174 -190h322l-11 -59h-327l-72 -406h-82z" />
<glyph d="M-12 1167l8 45q84 2 108 129q-4 -2 -14 -2q-26 0 -41.5 16.5t-15.5 43.5q0 33 25.5 57.5t58.5 24.5q28 0 45.5 -17.5t17.5 -52.5q0 -39 -11.5 -80t-34 -78.5t-61 -61.5t-85.5 -24z" />
<glyph d="M-61 1221q-32 0 -51 19t-19 56q0 102 58 170t147 74l-11 -51q-39 -6 -68 -35.5t-38 -73.5h6q33 0 52.5 -17.5t19.5 -47.5q0 -40 -28.5 -67t-67.5 -27z" />
<glyph d="M-158 1649q-29 0 -49 20t-20 49q0 27 20 46.5t49 19.5q27 0 46.5 -19.5t19.5 -46.5q0 -29 -19 -49t-47 -20zM211 1649q-28 0 -48 20t-20 49q0 26 20 46t48 20q29 0 48.5 -19.5t19.5 -46.5q0 -29 -19.5 -49t-48.5 -20z" />
<glyph d="M66 1649q-28 0 -46 18.5t-18 44.5q0 33 27.5 58.5t60.5 25.5q28 0 46 -18t18 -45q0 -33 -27 -58.5t-61 -25.5z" />
<glyph d="M193 1589l-195 264h100l156 -264h-61z" />
<glyph d="M-51 1589l250 264h102l-289 -264h-63z" />
<glyph d="M-309 1589l196 264h90l-229 -264h-57zM-18 1589l200 264h90l-233 -264h-57z" />
<glyph d="M-252 1589l264 264h66l176 -264h-66l-153 203l-217 -203h-70z" />
<glyph d="M-27 1589l-176 264h70l151 -204l224 204h67l-268 -264h-68z" />
<glyph d="M4 1604q-104 0 -159 61.5t-46 175.5h58q-4 -87 38 -132.5t119 -45.5q84 0 147 45.5t87 132.5h57q-30 -113 -111.5 -175t-189.5 -62z" />
<glyph d="M86 1540q-75 0 -123 47.5t-47 122.5q2 81 59.5 138t143.5 57q76 0 124.5 -49t45.5 -123q-2 -81 -59.5 -137t-143.5 -56zM94 1591q59 0 96 40t39 98q0 55 -31.5 88.5t-86.5 33.5q-59 0 -97.5 -39.5t-40.5 -97.5q-2 -55 31.5 -89t89.5 -34z" />
<glyph d="M-279 1638q15 73 63.5 121.5t111.5 48.5q42 0 83.5 -25.5t79.5 -51t72 -25.5q76 0 107 98h63q-44 -164 -174 -164q-35 0 -68.5 16t-56 35.5t-53 35.5t-60.5 16q-40 0 -68 -31.5t-36 -73.5h-64z" />
<glyph d="M-223 1675l12 60h496l-11 -60h-497z" />
<glyph d="M-522 489l14 76l586 385l-15 -76z" />
<glyph d="M-1221 -8l-41 39l1254 1429l45 -39z" />
<glyph horiz-adv-x="221" d="M272 1167l9 45q84 2 108 129q-4 -2 -14 -2q-26 0 -42 17t-16 43q0 33 25.5 57.5t58.5 24.5q28 0 46 -17.5t18 -52.5q0 -53 -19.5 -107t-65.5 -95.5t-108 -41.5z" />
<glyph horiz-adv-x="346" d="M305 1589l250 264h102l-288 -264h-64z" />
<glyph horiz-adv-x="546" d="M551 1604q-104 0 -159 61.5t-46 175.5h57q-4 -87 38.5 -132.5t119.5 -45.5q84 0 147 45.5t87 132.5h57q-30 -113 -111.5 -175t-189.5 -62z" />
<glyph horiz-adv-x="552" d="M520 1589l-176 264h70l151 -204l223 204h68l-268 -264h-68z" />
<glyph horiz-adv-x="557" d="M305 1589l264 264h66l176 -264h-66l-153 203l-217 -203h-70z" />
<glyph horiz-adv-x="544" d="M387 1649q-29 0 -49.5 20t-20.5 49q0 27 20.5 46.5t49.5 19.5q27 0 46.5 -19.5t19.5 -46.5q0 -29 -19 -49t-47 -20zM756 1649q-28 0 -48 20t-20 49q0 26 20 46t48 20q29 0 48 -19.5t19 -46.5q0 -29 -19 -49t-48 -20z" />
<glyph horiz-adv-x="190" d="M518 1649q-27 0 -45 18t-18 45q0 33 27.5 58.5t60.5 25.5q27 0 45 -18t18 -45q0 -33 -27 -58.5t-61 -25.5z" />
<glyph horiz-adv-x="346" d="M549 1589l-195 264h101l155 -264h-61z" />
<glyph horiz-adv-x="575" d="M336 1589l196 264h91l-230 -264h-57zM627 1589l200 264h91l-234 -264h-57z" />
<glyph horiz-adv-x="538" d="M315 1675l13 60h495l-10 -60h-498z" />
<glyph horiz-adv-x="409" d="M494 1540q-75 0 -123 47.5t-47 122.5q2 81 59 138t143 57q76 0 124.5 -49t45.5 -123q-2 -81 -59 -137t-143 -56zM502 1591q59 0 96 40t39 98q0 55 -32 88.5t-87 33.5q-59 0 -97 -39.5t-40 -97.5q-2 -55 31.5 -89t89.5 -34z" />
<glyph horiz-adv-x="587" d="M305 1638q15 73 63 121.5t111 48.5q42 0 84 -25.5t80 -51t72 -25.5q75 0 106 98h64q-44 -164 -174 -164q-35 0 -68.5 16t-56 35.5t-53 35.5t-60.5 16q-40 0 -68 -31.5t-36 -73.5h-64z" />
</font>
</defs>
</svg>
