<?xml version="1.0" encoding="UTF-8"?>
<svg width="331px" height="90px" viewBox="0 0 331 90" version="1.1" xmlns="http://www.w3.org/2000/svg" xmlns:xlink="http://www.w3.org/1999/xlink">
    <!-- Generator: Sketch 52.2 (67145) - http://www.bohemiancoding.com/sketch -->
    <title>Logo Master on Blue</title>
    <desc>Created with Sketch.</desc>
    <g id="Page-1" stroke="none" stroke-width="1" fill="none" fill-rule="evenodd">
        <g id="Artboard" transform="translate(-90.000000, -90.000000)">
            <g id="Logo-Master-FINAL-on-blue" transform="translate(90.000000, 90.000000)">
                <g id="Group" transform="translate(0.000000, 0.386212)">
                    <polygon id="Path" points="187.671858 55.1928367 187.671858 69.5768359 174.577459 69.5768359 174.577459 0.13684 187.671858 0.13684 187.671858 39.1224377 205.627057 19.9768388 222.987056 19.9768388 201.559857 41.3048375 222.987056 69.5768359 206.123057 69.5768359 192.830258 50.133637"></polygon>
                    <path d="M111.571291,44.7768373 C111.571291,39.6845455 112.728613,35.1709909 115.043291,31.2360381 C117.357969,27.3010854 120.54887,24.2424495 124.61609,22.0600387 C128.68331,19.8776279 133.229931,18.7864389 138.25609,18.7864389 C143.282248,18.7864389 147.828869,19.8776279 151.896089,22.0600387 C155.963309,24.2424495 159.15421,27.3010854 161.468888,31.2360381 C163.783566,35.1709909 164.940888,39.6845455 164.940888,44.7768373 C164.940888,49.8691292 163.783566,54.3826838 161.468888,58.3176365 C159.15421,62.2525893 155.963309,65.3112252 151.896089,67.493636 C147.828869,69.6760468 143.282248,70.7672358 138.25609,70.7672358 C133.229931,70.7672358 128.68331,69.6760468 124.61609,67.493636 C120.54887,65.3112252 117.357969,62.2525893 115.043291,58.3176365 C112.728613,54.3826838 111.571291,49.8691292 111.571291,44.7768373 Z" id="Path"></path>
                    <path d="M151.449689,44.7768373 C151.449689,40.8749514 150.193168,37.7005833 147.680089,35.2536379 C145.16701,32.8066925 142.025708,31.5832381 138.25609,31.5832381 C134.486471,31.5832381 131.345169,32.8066925 128.83209,35.2536379 C126.319011,37.7005833 125.06249,40.8749514 125.06249,44.7768373 C125.06249,48.6787233 126.319011,51.8530913 128.83209,54.3000368 C131.345169,56.7469822 134.486471,57.9704366 138.25609,57.9704366 C142.025708,57.9704366 145.16701,56.7469822 147.680089,54.3000368 C150.193168,51.8530913 151.449689,48.6787233 151.449689,44.7768373 Z" id="Path"></path>
                    <path d="M77.233922,62.4344363 L57.2677159,22.1253032 C56.9029514,21.3888919 57.2042307,20.4962126 57.9406419,20.1314482 C58.1459573,20.0297499 58.3719844,19.9768388 58.6011064,19.9768388 L69.2627832,19.9768388 C70.6150064,19.9768388 71.8442115,20.7619225 72.4128585,21.9887672 L84.0787216,47.1576372 L95.4560844,22.0173355 C96.0182951,20.7750312 97.2556459,19.9768388 98.6192444,19.9768388 L107.966201,19.9768388 C108.788,19.9768388 109.454201,20.6430391 109.454201,21.4648387 C109.454201,21.6753591 109.40953,21.8834833 109.32314,22.0754613 L79.940768,87.369621 C79.3800997,88.6155506 78.1408452,89.4168347 76.7745768,89.4168347 L67.4297569,89.4168347 C66.6079573,89.4168347 65.941757,88.7506344 65.941757,87.9288348 C65.941757,87.7189282 65.9861677,87.5113966 66.0720717,87.319873 L77.233922,62.4344363 Z" id="Path" fill="#FFFFFF"></path>
                    <path d="M150.656089,10.4536394 L125.85609,10.4536394 C124.486424,10.4536394 123.37609,9.34330563 123.37609,7.97363953 L123.37609,3.11283982 C123.37609,1.74317372 124.486424,0.632839971 125.85609,0.632839971 L150.656089,0.632839971 C152.025755,0.632839971 153.136089,1.74317372 153.136089,3.11283982 L153.136089,7.97363953 C153.136089,9.34330563 152.025755,10.4536394 150.656089,10.4536394 Z" id="Path" fill="#FFFFFF"></path>
                    <path d="M202.885874,43.2891237 L202.93019,43.2891237 L219.209229,66.7444162 C219.677798,67.4195439 219.510349,68.3466936 218.835222,68.8152629 C218.586085,68.9881749 218.290063,69.0808359 217.986802,69.0808359 L207.767379,69.0808359 C206.629501,69.0808359 205.563839,68.5232763 204.91505,67.5884824 L188.061981,43.3061111 L187.993067,43.3061111 L206.430958,18.8511449 C207.087009,17.9809966 208.113536,17.4693518 209.203289,17.4693518 L219.367347,17.4693518 C219.690591,17.4693518 220.005045,17.574611 220.26315,17.7692099 C220.919343,18.2639482 221.050227,19.196962 220.555489,19.8531546 L202.885874,43.2891237 Z M187.671858,55.1928367 L187.671858,67.096836 C187.671858,68.4665021 186.561524,69.5768359 185.191858,69.5768359 L177.057458,69.5768359 C175.687792,69.5768359 174.577459,68.4665021 174.577459,67.096836 L174.577459,2.61683985 C174.577459,1.24717375 175.687792,0.13684 177.057458,0.13684 L185.191858,0.13684 C186.561524,0.13684 187.671858,1.24717375 187.671858,2.61683985 L187.671858,39.1224377 L187.671858,55.1928367 Z" id="Combined-Shape" fill="#FFFFFF"></path>
                    <path d="M286.226742,19.9768388 L293.964342,19.9768388 C295.334008,19.9768388 296.444342,21.0871726 296.444342,22.4568387 L296.444342,27.5160384 C298.296084,24.672291 300.610728,22.5064461 303.388341,21.0184388 C306.165955,19.5304314 309.241124,18.7864389 312.613941,18.7864389 C318.169168,18.7864389 322.467792,20.5058883 325.50994,23.9448386 C328.552088,27.3837889 330.07314,32.24454 330.07314,38.5272377 L330.07314,67.096836 C330.07314,68.4665021 328.962806,69.5768359 327.59314,69.5768359 L319.16114,69.5768359 C317.791474,69.5768359 316.681141,68.4665021 316.681141,67.096836 L316.681141,42.0984375 C316.681141,38.5933535 315.904082,35.9315136 314.349941,34.112838 C312.7958,32.2941623 310.497689,31.3848381 307.455541,31.3848381 C304.016591,31.3848381 301.387817,32.6248257 299.569142,35.1048379 C297.750466,37.5848502 296.841142,41.1725474 296.841142,45.8680373 L296.841142,67.096836 C296.841142,68.4665021 295.730808,69.5768359 294.361142,69.5768359 L286.226742,69.5768359 C284.857076,69.5768359 283.746743,68.4665021 283.746743,67.096836 L283.746743,22.4568387 C283.746743,21.0871726 284.857076,19.9768388 286.226742,19.9768388 Z" id="Path" fill="#FFFFFF"></path>
                    <path d="M2.54137467,0.13684 L11.4693741,0.13684 C12.8390402,0.13684 13.949374,1.24717375 13.949374,2.61683985 L13.949374,67.096836 C13.949374,68.4665021 12.8390402,69.5768359 11.4693741,69.5768359 L2.54137467,69.5768359 C1.17170857,69.5768359 0.0613748178,68.4665021 0.0613748178,67.096836 L0.0613748178,2.61683985 C0.0613748178,1.24717375 1.17170857,0.13684 2.54137467,0.13684 Z" id="Path" fill="#FFFFFF"></path>
                    <path d="M29.387535,43.7851236 L42.0976877,43.7851236 C43.4252833,43.7851236 44.6366584,44.5421795 45.2184897,45.7354869 L55.7995412,67.436706 C56.1597026,68.1753795 55.852858,69.0661611 55.1141846,69.4263225 C54.9110576,69.5253629 54.6880404,69.5768359 54.4620547,69.5768359 L44.1328702,69.5768359 C42.8052746,69.5768359 41.5938995,68.81978 41.0120682,67.6264725 L29.387535,43.7851236 Z" id="Path" fill="#FFFFFF"></path>
                    <path d="M14.0584903,0.735805152 L28.9384894,0.735805152 L53.5049663,41.6335955 C53.9281309,42.3380715 53.7000828,43.2522048 52.9956068,43.6753693 C52.7642017,43.8143697 52.4993431,43.8878026 52.2293997,43.8878026 L41.9436913,43.8878026 C40.7247252,43.8878026 39.5950442,43.2485607 38.9673691,42.2036195 L14.0584903,0.735805152 Z" id="Path" fill="#FFFFFF" transform="translate(34.458757, 22.311804) scale(1, -1) translate(-34.458757, -22.311804) "></path>
                    <path d="M111.571291,44.7768373 C111.571291,39.6845455 112.728613,35.1709909 115.043291,31.2360381 C117.357969,27.3010854 120.54887,24.2424495 124.61609,22.0600387 C128.68331,19.8776279 133.229931,18.7864389 138.25609,18.7864389 C143.282248,18.7864389 147.828869,19.8776279 151.896089,22.0600387 C155.963309,24.2424495 159.15421,27.3010854 161.468888,31.2360381 C163.783566,35.1709909 164.940888,39.6845455 164.940888,44.7768373 C164.940888,49.8691292 163.783566,54.3826838 161.468888,58.3176365 C159.15421,62.2525893 155.963309,65.3112252 151.896089,67.493636 C147.828869,69.6760468 143.282248,70.7672358 138.25609,70.7672358 C133.229931,70.7672358 128.68331,69.6760468 124.61609,67.493636 C120.54887,65.3112252 117.357969,62.2525893 115.043291,58.3176365 C112.728613,54.3826838 111.571291,49.8691292 111.571291,44.7768373 Z M151.449689,44.7768373 C151.449689,40.8749514 150.193168,37.7005833 147.680089,35.2536379 C145.16701,32.8066925 142.025708,31.5832381 138.25609,31.5832381 C134.486471,31.5832381 131.345169,32.8066925 128.83209,35.2536379 C126.319011,37.7005833 125.06249,40.8749514 125.06249,44.7768373 C125.06249,48.6787233 126.319011,51.8530913 128.83209,54.3000368 C131.345169,56.7469822 134.486471,57.9704366 138.25609,57.9704366 C142.025708,57.9704366 145.16701,56.7469822 147.680089,54.3000368 C150.193168,51.8530913 151.449689,48.6787233 151.449689,44.7768373 Z" id="Combined-Shape" fill="#FFFFFF"></path>
                    <path d="M230.297745,26.8429492 C232.575303,23.7082604 234.765636,21.6014236 236.868742,20.5224388 C240.671427,18.5714958 245.38338,17.596039 251.004741,17.596039 C258.345577,17.596039 263.801522,19.2658888 267.37274,22.6056387 C270.943958,25.9453885 272.72954,31.0210708 272.72954,37.8328378 L272.72954,65.5096361 C272.72954,67.1532354 271.397139,68.4856359 269.75354,68.4856359 L262.61114,68.4856359 C260.967541,68.4856359 259.63514,67.1532354 259.63514,65.5096361 L259.63514,61.7400363 C258.047933,64.1869818 255.931687,66.1048291 253.286341,67.493636 C250.640994,68.8824428 247.665024,69.5768359 244.358341,69.5768359 C239.46445,69.5768359 235.446891,68.1219172 232.305542,65.2120361 C229.164193,62.3021551 227.593542,58.5656593 227.593542,54.0024368 C227.593542,49.7037489 229.031928,46.149118 231.908742,43.3384374 C234.785556,40.5277569 238.637784,38.8909733 243.465541,38.4280377 L257.055941,37.2376378 C258.775416,37.0392368 259.63514,36.3779101 259.63514,35.2536379 L259.63514,34.460038 C259.63514,32.8728301 258.891148,31.6328426 257.403141,30.7400382 C255.915133,29.8472338 253.782355,29.4008383 251.004741,29.4008383 C247.830325,29.4008383 245.168485,29.9629659 243.019141,31.0872382 C242.017805,31.6110141 240.997633,32.543873 239.958625,33.8858149 C239.142903,34.9393703 237.640465,35.1600688 236.556219,34.3856074 L230.862613,30.3187438 C229.748071,29.5226421 229.489924,27.9737592 230.286025,26.8592169 C230.28991,26.8537786 230.293816,26.848356 230.297745,26.8429492 Z M247.334341,47.8520372 C245.416465,48.1165718 243.911947,48.728299 242.820741,49.687237 C241.729536,50.6461751 241.183942,51.8530963 241.183942,53.3080368 C241.183942,55.027512 241.812202,56.3666985 243.068741,57.3256366 C244.325281,58.2845747 246.04473,58.7640365 248.227141,58.7640365 C251.46769,58.7640365 254.17913,57.7555133 256.361541,55.7384367 C258.543951,53.7213601 259.63514,51.2579182 259.63514,48.3480371 L259.63514,46.3640372 L247.334341,47.8520372 Z" id="Combined-Shape" fill="#FFFFFF"></path>
                </g>
            </g>
        </g>
    </g>
</svg>